<?xml version="1.0" encoding="UTF-8"?>
<svg width="93px" height="102px" viewBox="0 0 93 102" version="1.1" xmlns="http://www.w3.org/2000/svg" xmlns:xlink="http://www.w3.org/1999/xlink">
    <!-- Generator: Sketch 47.1 (45422) - http://www.bohemiancoding.com/sketch -->
    <title>ada-logo.inline</title>
    <desc>Created with Sketch.</desc>
    <defs></defs>
    <g id="Page-1" stroke="none" stroke-width="1" fill="none" fill-rule="evenodd" stroke-linecap="round" opacity="0.5">
        <g id="ada-logo.inline" transform="translate(3.000000, 3.000000)" fill-rule="nonzero" fill="#5E6066">
            <g id="Group">
                <path d="M43.370034,7.70148743 L81.2099704,97.1686176 C81.8553801,98.6945968 83.6156385,99.4084393 85.1416176,98.7630296 C86.6675968,98.1176199 87.3814393,96.3573615 86.7360296,94.8313824 L46.1330296,-1.16861763 C45.1002522,-3.6104725 41.6397159,-3.61045721 40.60696,-1.16859322 L0.00496002745,94.8314068 C-0.640436186,96.3573916 0.0734219416,98.1176438 1.59940678,98.76304 C3.12539162,99.4084362 4.88564376,98.6945781 5.53103997,97.1685932 L43.370034,7.70148743 Z" id="Shape"></path>
                <path d="M9.228,43.145 L77.513,43.145 C79.1698542,43.145 80.513,41.8018542 80.513,40.145 C80.513,38.4881458 79.1698542,37.145 77.513,37.145 L9.228,37.145 C7.57114575,37.145 6.228,38.4881458 6.228,40.145 C6.228,41.8018542 7.57114575,43.145 9.228,43.145 Z M-4.4408921e-16,62.345 L86.74,62.345 C88.3968542,62.345 89.74,61.0018542 89.74,59.345 C89.74,57.6881458 88.3968542,56.345 86.74,56.345 L-4.4408921e-16,56.345 C-1.65685425,56.345 -3,57.6881458 -3,59.345 C-3,61.0018542 -1.65685425,62.345 -4.4408921e-16,62.345 Z" id="Shape"></path>
            </g>
        </g>
    </g>
</svg>