<?xml version="1.0" encoding="UTF-8"?>
<svg width="93px" height="102px" viewBox="0 0 93 102" version="1.1" xmlns="http://www.w3.org/2000/svg" xmlns:xlink="http://www.w3.org/1999/xlink">
    <g id="Page-1" stroke="none" stroke-width="1" fill="none" fill-rule="evenodd">
        <g id="ada-logo.inline" fill="#5E6066" fill-rule="nonzero">
            <g id="Page-1">
                <g id="ada-logo.inline">
                    <g id="Group">
                        <path d="M46.370034,10.7014874 L84.2099704,100.168618 C84.8553801,101.694597 86.6156385,102.408439 88.1416176,101.76303 C89.6675968,101.11762 90.3814393,99.3573615 89.7360296,97.8313824 L49.1330296,1.83138237 C48.1002522,-0.6104725 44.6397159,-0.61045721 43.60696,1.83140678 L3.00496003,97.8314068 C2.35956381,99.3573916 3.07342194,101.117644 4.59940678,101.76304 C6.12539162,102.408436 7.88564376,101.694578 8.53103997,100.168593 L46.370034,10.7014874 Z" id="Shape"></path>
                        <path d="M12.228,46.145 L80.513,46.145 C82.1698542,46.145 83.513,44.8018542 83.513,43.145 C83.513,41.4881458 82.1698542,40.145 80.513,40.145 L12.228,40.145 C10.5711458,40.145 9.228,41.4881458 9.228,43.145 C9.228,44.8018542 10.5711458,46.145 12.228,46.145 Z M3,65.345 L89.74,65.345 C91.3968542,65.345 92.74,64.0018542 92.74,62.345 C92.74,60.6881458 91.3968542,59.345 89.74,59.345 L3,59.345 C1.34314575,59.345 0,60.6881458 0,62.345 C0,64.0018542 1.34314575,65.345 3,65.345 Z" id="Shape"></path>
                    </g>
                </g>
            </g>
        </g>
    </g>
</svg>
