<svg xmlns="http://www.w3.org/2000/svg" width="20" height="20" viewBox="0 0 20 20">
    <g fill="none" fill-rule="evenodd">
        <g fill="#5E6066" fill-rule="nonzero">
            <g>
                <g>
                    <g>
                        <path d="M524.322 12c.685 0 1.248.525 1.316 1.197l.007.136v1.132c.808.288 1.545.717 2.206 1.24l.278.229 1.565-.91c.593-.346 1.341-.174 1.733.373l.073.115 1.322 2.31c.343.597.174 1.351-.37 1.747l-.113.074-1.549.901c.087.473.144.957.144 1.456 0 .375-.032.74-.085 1.099l-.059.357 1.549.901c.593.345.82 1.084.545 1.7l-.062.122-1.322 2.309c-.342.598-1.074.828-1.685.55l-.12-.062-1.566-.91c-.639.548-1.355 1.01-2.142 1.337l-.342.132v1.132c0 .69-.52 1.258-1.188 1.326l-.135.007h-2.644c-.685 0-1.248-.525-1.316-1.197l-.007-.136v-1.132c-.808-.288-1.545-.717-2.206-1.24l-.279-.229-1.564.91c-.593.346-1.341.174-1.733-.373l-.073-.115-1.322-2.31c-.343-.597-.174-1.351.37-1.747l.113-.074 1.549-.901c-.087-.473-.144-.957-.144-1.456 0-.374.032-.74.085-1.099l.059-.357-1.55-.901c-.592-.345-.82-1.084-.544-1.7l.062-.122 1.322-2.309c.341-.598 1.074-.828 1.685-.55l.12.062 1.565.91c.64-.548 1.356-1.01 2.143-1.337l.342-.132v-1.132c0-.69.52-1.258 1.188-1.326l.135-.007h2.644zm-.678 2h-1.289v1.874l-1.327.474c-.558.2-1.095.501-1.604.898l-.252.206-1.078.925-2.199-1.278-.657 1.147 2.192 1.276-.253 1.382c-.074.407-.111.762-.111 1.096 0 .267.023.548.07.858l.04.238.254 1.382-2.192 1.275.657 1.148 2.199-1.278 1.078.925c.5.428 1.029.763 1.578.996l.277.108 1.328.473V30h1.289v-1.875l1.329-.473c.556-.199 1.093-.5 1.602-.898l.252-.206 1.08-.925 2.197 1.278.657-1.148-2.191-1.275.253-1.382c.074-.407.111-.762.111-1.096 0-.267-.023-.548-.07-.858l-.041-.238-.253-1.382 2.191-1.276-.657-1.148-2.198 1.28-1.079-.926c-.499-.428-1.027-.762-1.578-.996l-.277-.108-1.327-.474-.001-1.874zM523 18c2.21 0 4 1.79 4 4s-1.79 4-4 4-4-1.79-4-4 1.79-4 4-4zm0 2c-1.105 0-2 .895-2 2s.895 2 2 2 2-.895 2-2-.895-2-2-2z" transform="translate(-593 -924) translate(40 628) translate(0 256) translate(40 28)"/>
                    </g>
                </g>
            </g>
        </g>
    </g>
</svg>
