<svg xmlns="http://www.w3.org/2000/svg" width="22" height="18" viewBox="0 0 22 18">
    <g fill="none" fill-rule="evenodd">
        <g fill="#F2A218">
            <g>
                <g>
                    <g>
                        <path d="M555.784 13.23c.246.14.45.343.59.589l8.455 14.815c.433.76.17 1.725-.59 2.158-.238.136-.508.208-.783.208h-16.912c-.874 0-1.582-.708-1.582-1.582 0-.275.072-.545.208-.784l8.456-14.815c.433-.759 1.4-1.023 2.158-.59zM555 26.512c-.694 0-1.256.574-1.256 1.282 0 .708.562 1.282 1.256 1.282s1.257-.574 1.257-1.282c0-.708-.563-1.282-1.257-1.282zm.036-9.615h-.072c-.674 0-1.22.546-1.22 1.22v5.252c0 .674.546 1.22 1.22 1.22h.072c.674 0 1.22-.546 1.22-1.22v-5.252c0-.674-.546-1.22-1.22-1.22z" transform="translate(-624 -925) translate(40 628) translate(0 256) translate(40 28)"/>
                    </g>
                </g>
            </g>
        </g>
    </g>
</svg>
