<svg width="108" height="146" viewBox="0 0 108 146" xmlns="http://www.w3.org/2000/svg"><title>6CED6A1E-A8B5-43A5-BF8E-9E8A66DC6295</title><g fill="none" fill-rule="evenodd"><path d="M95.294 146c7.017 0 12.706-5.684 12.706-12.696V34.913c0-1.016-.508-1.882-1.255-2.463L75.521 1.254C74.939.51 74.075 0 73.059 0H12.706C5.689 0 0 5.684 0 12.696v120.608C0 140.316 5.69 146 12.706 146h82.588zM76.235 10.731L97.26 31.739H76.235V10.731zM6.353 133.304V12.696a6.353 6.353 0 0 1 6.353-6.348h57.176v28.565a3.174 3.174 0 0 0 3.177 3.174h28.588v95.217a6.35 6.35 0 0 1-6.353 6.348H12.706a6.349 6.349 0 0 1-6.353-6.348z" fill="#9EABBB"/><g stroke="#9EABBB" stroke-width="6" stroke-linecap="round"><path stroke-linejoin="round" d="M30.58 101l23.17-55 23.17 55"/><path d="M34.266 70h38.968M29 83h49.5"/></g></g></svg>