<svg width="108" height="146" viewBox="0 0 108 146" xmlns="http://www.w3.org/2000/svg"><title>C4367A61-39B1-47D8-B1AB-63977FD542A8</title><g fill="#9EABBB" fill-rule="evenodd"><path d="M95.294 146c7.017 0 12.706-5.684 12.706-12.696V34.913c0-1.016-.508-1.882-1.255-2.463L75.521 1.254C74.939.51 74.075 0 73.059 0H12.706C5.689 0 0 5.684 0 12.696v120.608C0 140.316 5.69 146 12.706 146h82.588zM76.235 10.731L97.26 31.739H76.235V10.731zM6.353 133.304V12.696a6.353 6.353 0 0 1 6.353-6.348h57.176v28.565a3.174 3.174 0 0 0 3.177 3.174h28.588v95.217a6.35 6.35 0 0 1-6.353 6.348H12.706a6.349 6.349 0 0 1-6.353-6.348z"/><g stroke="#FAFBFC" fill-rule="nonzero"><path d="M63.267 88.875a3.69 3.69 0 0 1-1.793-.461c-3.983-2.204-10.97-2.204-14.952 0-1.642.912-3.782.427-4.775-1.082-.992-1.508-.463-3.47 1.18-4.381 6.207-3.437 15.933-3.437 22.14 0 1.643.911 2.172 2.873 1.18 4.381-.65.993-1.8 1.543-2.98 1.543zM62.442 63.5c.605 0 1.22.174 1.764.535l6.374 4.25a3.186 3.186 0 1 1-3.536 5.304l-6.374-4.25a3.189 3.189 0 0 1 1.772-5.839zM45.56 63.5a3.189 3.189 0 0 1 1.772 5.84l-6.374 4.25a3.187 3.187 0 1 1-3.536-5.305l6.375-4.25a3.155 3.155 0 0 1 1.763-.535z"/></g></g></svg>