<svg width="23" height="29" viewBox="0 0 23 29" xmlns="http://www.w3.org/2000/svg"><title>DC594E36-C8C7-4564-9AE0-3B4043CB2E42</title><path d="M20 24v-2a.999.999 0 0 0 1-.992V2.992C21 2.455 20.55 2 19.993 2H8.007A.999.999 0 0 0 7 2.992V3H5v-.995A2 2 0 0 1 6.995 0h14.01A2 2 0 0 1 23 2.005v19.99A2 2 0 0 1 21.005 24H20zM0 7.005A2 2 0 0 1 1.995 5h14.01A2 2 0 0 1 18 7.005v19.99A2 2 0 0 1 16.005 29H1.995A2 2 0 0 1 0 26.995V7.005zm2 .987v18.016c0 .537.45.992 1.007.992h11.986A.999.999 0 0 0 16 26.008V7.992C16 7.455 15.55 7 14.993 7H3.007A.999.999 0 0 0 2 7.992z" fill="#5E6066" fill-rule="evenodd"/></svg>