<?xml version="1.0" encoding="UTF-8"?>
<svg width="96px" height="96px" viewBox="0 0 96 96" version="1.1" xmlns="http://www.w3.org/2000/svg" xmlns:xlink="http://www.w3.org/1999/xlink">
    <g id="Page-1" stroke="none" stroke-width="1" fill="none" fill-rule="evenodd">
        <g id="wallet-add-page-grid" transform="translate(-1690.000000, -351.000000)">
            <g id="Group" transform="translate(208.000000, 264.000000)">
                <g id="create" transform="translate(1240.000000, 0.000000)">
                    <g id="connect-ic" transform="translate(196.000000, 41.000000)">
                        <circle id="Oval" cx="94" cy="94" r="94"></circle>
                        <path d="M109,69 C113.632658,69 117.447798,72.5002068 117.945105,77.0003032 L137,77 C141.970563,77 146,81.0294373 146,86 L146,86 L146,102 C146,106.970563 141.970563,111 137,111 L137,111 L117.944994,111.000695 C117.456771,115.414094 113.777293,118.865517 109.265362,118.996163 L109,119 L67,119 C53.1928813,119 42,107.807119 42,94 C42,80.3309524 52.9701429,69.224119 66.5865793,69.0033493 L67,69 L109,69 Z M109,75 L67,75 C56.5065898,75 48,83.5065898 48,94 C48,104.380578 56.3246359,112.816833 66.6622002,112.997058 L67,113 L109,113 C110.597681,113 111.903661,111.75108 111.994907,110.176273 L112,110 L112,78 C112,76.3431458 110.656854,75 109,75 Z M137,83 L118,83 L118,105 L137,105 C138.656854,105 140,103.656854 140,102 L140,102 L140,86 C140,84.3431458 138.656854,83 137,83 L137,83 Z M67,84 C72.5228475,84 77,88.4771525 77,94 C77,99.5228475 72.5228475,104 67,104 C61.4771525,104 57,99.5228475 57,94 C57,88.4771525 61.4771525,84 67,84 Z M133,96 C134.104569,96 135,96.8954305 135,98 C135,99.1045695 134.104569,100 133,100 L125,100 C123.895431,100 123,99.1045695 123,98 C123,96.8954305 123.895431,96 125,96 L133,96 Z M67,90 C64.790861,90 63,91.790861 63,94 C63,96.209139 64.790861,98 67,98 C69.209139,98 71,96.209139 71,94 C71,91.790861 69.209139,90 67,90 Z M133,88 C134.104569,88 135,88.8954305 135,90 C135,91.1045695 134.104569,92 133,92 L125,92 C123.895431,92 123,91.1045695 123,90 C123,88.8954305 123.895431,88 125,88 L133,88 Z" id="Combined-Shape" fill="#8A98AB" transform="translate(94.000000, 94.000000) rotate(-45.000000) translate(-94.000000, -94.000000) "></path>
                    </g>
                </g>
            </g>
        </g>
    </g>
</svg>
