<svg viewBox="0 0 24 28" version="1.1" xmlns="http://www.w3.org/2000/svg" xmlns:xlink="http://www.w3.org/1999/xlink">
  <g id="Page-1" stroke="none" stroke-width="1" fill="none" fill-rule="evenodd">
    <g id="wallet-public-key" transform="translate(-1486.000000, -364.000000)" fill="#5E6066">
      <g id="amount" transform="translate(60.000000, 264.000000)">
        <g id="input" transform="translate(0.000000, 17.000000)">
          <g id="rename" transform="translate(1410.000000, 69.000000)">
            <g id="clipboard-ic" transform="translate(16.000000, 14.000000)">
              <path d="M16.0049107,6 C17.1067681,6 18,6.88967395 18,7.991155 L18,26.008845 C18,27.1085295 17.1073772,28 16.0049107,28 L1.99508929,28 C0.893231902,28 0,27.1103261 0,26.008845 L0,7.991155 C0,6.89147046 0.892622799,6 1.99508929,6 L16.0049107,6 Z M13.9975267,9 L4.00247329,9 C3.45576096,9 3,9.4481055 3,10.0008717 L3,10.0008717 L3,23.9991283 C3,24.5553691 3.44882258,25 4.00247329,25 L4.00247329,25 L13.9975267,25 C14.544239,25 15,24.5518945 15,23.9991283 L15,23.9991283 L15,10.0008717 C15,9.44463086 14.5511774,9 13.9975267,9 L13.9975267,9 Z M22.0049107,0 C23.1067681,0 24,0.889673948 24,1.991155 L24,20.008845 C24,21.1085295 23.1073772,22 22.0049107,22 L20,22 L20.0005556,18.9999954 C20.5068945,18.9984623 20.9345441,18.6126331 20.993157,18.1158511 L21,17.9991283 L21,4.00087166 C21,3.44463086 20.5511774,3 19.9975267,3 L19.9975267,3 L10.0024733,3 C9.45576096,3 9,3.4481055 9,4.00087166 L9,4.00087166 L6,4 L6,1.991155 C6,0.891470458 6.8926228,0 7.99508929,0 L22.0049107,0 Z" id="Combined-Shape"></path>
            </g>
          </g>
        </g>
      </g>
    </g>
  </g>
</svg>
