<svg xmlns="http://www.w3.org/2000/svg" width="16" height="20" viewBox="0 0 16 20">
    <g fill="none" fill-rule="evenodd">
        <g fill="#5E6066">
            <g>
                <g>
                    <g>
                        <g>
                            <path d="M9.008 6C10.108 6 11 6.897 11 8.006v9.988C11 19.102 10.1 20 9.008 20H1.992C.892 20 0 19.103 0 17.994V8.006C0 6.898.9 6 1.992 6h7.016zm-1.01 2H3.002C2.438 8 2 8.446 2 8.995v8.01c0 .54.449.995 1.003.995h4.994C8.562 18 9 17.554 9 17.005v-8.01C9 8.455 8.551 8 7.997 8zm5.993-8C15.101 0 16 .897 16 2.006v9.988C16 13.102 15.098 14 13.991 14L13 13.999v-2c.508.001.935-.383.993-.878l.007-.116v-8.01c0-.54-.446-.995-.997-.995H6.997C6.453 2 6 2.446 6 2.995V4H4V2.006C4 .898 4.902 0 6.009 0h7.982z" transform="translate(-703 -534) translate(20 492) translate(30 30) translate(38) translate(615 12)"/>
                        </g>
                    </g>
                </g>
            </g>
        </g>
    </g>
</svg>
