<svg xmlns="http://www.w3.org/2000/svg" width="24" height="28" viewBox="0 0 24 28">
    <g fill="none" fill-rule="evenodd">
        <g fill="#5E6066">
            <g>
                <g>
                    <g>
                        <g>
                            <path d="M16.005 6C17.107 6 18 6.89 18 7.991V26.01c0 1.1-.893 1.991-1.995 1.991H1.995C.893 28 0 27.11 0 26.009V7.99C0 6.891.893 6 1.995 6h14.01zm-2.007 3H4.002C3.456 9 3 9.448 3 10v14c0 .555.449 1 1.002 1h9.996c.546 0 1.002-.448 1.002-1V10c0-.555-.449-1-1.002-1zm8.007-9C23.107 0 24 .89 24 1.991V20.01c0 1.1-.893 1.991-1.995 1.991H20v-3c.507-.002.935-.387.993-.884l.007-.117V4.001C21 3.445 20.551 3 19.998 3h-9.996C9.456 3 9 3.448 9 4H6V1.991C6 .891 6.893 0 7.995 0h14.01z" transform="translate(-1462 -364) translate(60 264) translate(0 17) translate(1386 69) translate(16 14)"/>
                        </g>
                    </g>
                </g>
            </g>
        </g>
    </g>
</svg>
