<?xml version="1.0" encoding="utf-8"?>
<!DOCTYPE svg PUBLIC "-//W3C//DTD SVG 1.1//EN" "http://www.w3.org/Graphics/SVG/1.1/DTD/svg11.dtd">
<svg version="1.1" id="Ebene_1" xmlns="http://www.w3.org/2000/svg" xmlns:xlink="http://www.w3.org/1999/xlink" x="0px" y="0px"
	 width="397px" height="108px" viewBox="0 0 397 108" enable-background="new 0 0 397 108" xml:space="preserve">
<g>
	<path fill="#FFFFFF" d="M97.078,50.893c0,7.533-5.688,12.925-13.663,12.925H72.854V37.969H83.6
		C91.428,37.969,97.078,43.323,97.078,50.893z M92.019,50.93c0-5.059-3.656-8.604-8.493-8.604h-5.723V59.46h5.908
		C88.474,59.459,92.019,55.952,92.019,50.93z"/>
	<path fill="#FFFFFF" d="M125.698,58.352H113.07l-2.29,5.466h-5.133l11.337-25.849h5.133l11.188,25.849h-5.317L125.698,58.352z
		 M123.925,54.105l-4.505-10.856l-4.579,10.856H123.925z"/>
	<path fill="#FFFFFF" d="M163.512,37.969v4.32h-13.995v6.388h12.555v4.32h-12.555v6.499h14.438v4.32h-19.386V37.968L163.512,37.969
		L163.512,37.969z"/>
	<path fill="#FFFFFF" d="M201.324,50.893c0,7.533-5.687,12.925-13.663,12.925h-10.561V37.969h10.745
		C195.676,37.969,201.324,43.323,201.324,50.893z M196.267,50.93c0-5.059-3.656-8.604-8.493-8.604h-5.724V59.46h5.907
		C192.722,59.459,196.267,55.952,196.267,50.93z"/>
	<path fill="#FFFFFF" d="M229.945,58.352h-12.629l-2.289,5.466h-5.133l11.337-25.849h5.133l11.188,25.849h-5.317L229.945,58.352z
		 M228.172,54.105l-4.506-10.856l-4.577,10.856H228.172z"/>
	<path fill="#FFFFFF" d="M253.764,37.969v21.38h11.15v4.469h-16.1V37.969H253.764z"/>
	<path fill="#FFFFFF" d="M287.884,59.607c3.914,0,6.389-2.438,6.389-6.573V37.969h4.948v15.065c0,6.795-4.32,11.004-11.337,11.004
		c-7.054,0-11.484-4.209-11.484-11.004V37.969h4.948v15.065C281.348,57.133,283.97,59.607,287.884,59.607z"/>
	<path fill="#FFFFFF" d="M321.674,42.252c-2.326,0-3.842,0.85-3.842,2.438c0,5.244,13.886,2.399,13.849,11.669
		c0,4.837-4.21,7.644-9.896,7.644c-4.136,0-8.159-1.662-10.93-4.136l2.067-4.172c2.658,2.362,6.167,3.803,8.937,3.803
		c2.771,0,4.432-1.034,4.432-2.843c0-5.393-13.885-2.327-13.885-11.521c0-4.505,3.877-7.385,9.676-7.385
		c3.434,0,6.867,1.107,9.342,2.732l-1.994,4.283C326.657,43.102,323.668,42.252,321.674,42.252z"/>
</g>
</svg>
