<svg xmlns="http://www.w3.org/2000/svg" width="346" height="270" viewBox="0 0 346 270">
    <path fill="#FAFBFC" fill-rule="evenodd" d="M151.521 250.93l-18.12-2.95-9.523-26.924 6.9-.659 7.604 21.654 13.533 2.186a21.195 21.195 0 0 1 2.874-6.893 21.517 21.517 0 0 1 7.928-7.218v-5.995c-13.975-2.592-26.318-9.795-35.246-20.05a54.573 54.573 0 0 1-3.593-4.502l6.04-3.163a45.82 45.82 0 0 0 2.579 3.294 54.505 54.505 0 0 0 26.583 16.713 41.106 41.106 0 0 0 10.338 2.35v35.07l-10.937-1.78a14.342 14.342 0 0 0 3.912 7.045c2.645 2.59 6.26 4.238 10.272 4.238 4.012 0 7.649-1.647 10.294-4.238a14.18 14.18 0 0 0 3.848-6.92l-10.159 1.656v-35.072c3.57-.33 7.01-1.142 10.294-2.35a54.144 54.144 0 0 0 26.561-16.712 63.727 63.727 0 0 0 2.623-3.294l6.062 3.163c-1.169 1.537-2.315 3.096-3.571 4.502-8.95 10.255-21.293 17.458-35.312 20.05v6.342a22.333 22.333 0 0 1 6.994 6.476 21.509 21.509 0 0 1 3.16 7.392l14.18-2.29 7.627-21.654 6.878.66-9.523 26.923-18.803 3.065c-.526 4.992-2.78 9.371-6.12 12.718A21.172 21.172 0 0 1 172.665 270a21.211 21.211 0 0 1-15.033-6.237c-3.366-3.372-5.611-7.794-6.11-12.833zm11.196-12.712a14.021 14.021 0 0 0-2.286 2.706 14.954 14.954 0 0 0-1.884 4.384l4.17.674v-7.764zm24.09 7.198a13.878 13.878 0 0 0-2.063-4.69 15.611 15.611 0 0 0-1.44-1.793v7.049l3.502-.566zM291.532 0L346 72.338l-61.08 65.268-34.628-9.268-1.874 13.704-8.707 1.383c-1.719-8.894-5.466-17.107-10.646-24.222l4.96-4.568c3.79 5.029 6.899 10.585 9.125 16.514l1.521-11.244 38.133 10.234 54.511-58.262-32.248-42.889 16.356 35.532-36.833 35.752-6.657-2.92 5.224-5.03 1.102-1.053 3.681-3.492v-.044l25.415-24.728-27.487-59.623L291.533 0zM183.217 97.044l20.675-19.171 9.06.527-6.613 6.302-6.37 5.886c7.23 2.262 13.865 5.666 19.816 9.97l-4.96 4.722c-6.061-4.305-13.093-7.511-20.543-9.356l-2.777 2.592c-2.293-.505-5.379-1.054-8.288-1.472zm38.596-17.854l-.353-.263 36.414 2.108 18.648 8.345-5.18 5.007-15.143-6.72-4.144-.263-19.706 19.654-7.472 6.962a62.595 62.595 0 0 0-4.761-4.59l4.871-4.612c0 .022.066.044.132.044l3.483-3.448.088-.11 14.416-14.428-27.62-1.625 6.327-6.06zm-45.165 46.82v-22.707c2.006.154 4.43.373 6.7.637v6.588h-.043v10.366c5.599 1.559 10.8 4.128 15.253 7.554l7.781-7.181a55.067 55.067 0 0 0-16.29-8.894v-7.028c10.052 3.031 19.001 8.565 26.21 15.856l-10.603 9.773v.021l-2.05 1.933a45.245 45.245 0 0 1 8.354 12.056c.242.484.44.989.661 1.472l-6.15 2.657a15.12 15.12 0 0 1-.55-1.296 38.766 38.766 0 0 0-17.833-18.007 40.523 40.523 0 0 0-11.44-3.8zm39.037 4.766l4.916-4.546c5.709 7.269 9.83 15.812 11.748 25.167l8.222-1.252v-.088l6.921-1.098-5.07 36.938-16.377 23.981-1.609 4.7-6.921-.527 2.579-7.203 15.914-23.41 3.571-26.375-3.306.505v-.022l-9.523 1.493-10.668 1.603c.044 1.076.066 2.196.066 3.273 0 5.621-.992 11.024-2.91 16.009l9.5 4.92c2.514-5.908 3.924-12.343 4.189-19.085l6.7-1.054a59.812 59.812 0 0 1-7.824 29.208l-15.011-7.752-.441-.242c-1.3 2.262-2.755 4.414-4.43 6.39a44.78 44.78 0 0 1-22.616 14.627v3.667a33.21 33.21 0 0 1-6.657 1.427v-79.19c2.27.461 4.563 1.164 6.657 2.13v64.982c6.877-2.262 12.96-6.413 17.502-11.88 5.444-6.589 8.64-15.022 8.64-24.157v-2.262l-9.809 1.515v17.283h-6.7v-23.015l32.776-5.007c-1.719-8.016-5.224-15.35-10.029-21.653zM54.467 0l5.753 3.382-27.531 59.623 25.459 24.728-.044.044 3.68 3.492 1.125 1.054 5.224 5.029-6.679 2.92L24.621 64.52l16.4-35.532-32.292 42.89 54.533 58.261 38.111-10.234 1.499 11.244a69.068 69.068 0 0 1 9.148-16.514l4.915 4.568a60.773 60.773 0 0 0-10.602 24.222l-8.73-1.383-1.895-13.704-34.628 9.268L0 72.338 54.467 0zm78.625 78.4l9.082-.527 20.61 19.171c-2.888.418-5.93.967-8.245 1.472l-2.755-2.592a60.8 60.8 0 0 0-20.565 9.356l-4.938-4.722a68.728 68.728 0 0 1 19.75-9.97l-6.326-5.886-6.613-6.302zM88.17 81.035l36.414-2.108-.33.263 6.325 6.061-27.685 1.625 14.482 14.429.044.022 3.549 3.535s.044-.022.066-.044l4.871 4.612c-1.653 1.471-3.218 2.965-4.673 4.59l-7.516-6.962-19.772-19.654-4.144.263-15.077 6.72L69.5 89.38l18.67-8.345zm71.197 23.41c2.931-.571 7.031-.9 10.051-1.142v91.422c-2.314-.373-4.563-1.076-6.7-1.932v-82.265a54.236 54.236 0 0 0-22.991 10.739l7.759 7.181a44.623 44.623 0 0 1 8.552-5.095v7.489a38.12 38.12 0 0 0-16.465 18.271l-6.15-2.657c2.182-5.03 5.224-9.619 9.037-13.528l-2.116-1.933.066-.021-10.558-9.773a61.18 61.18 0 0 1 29.515-16.756zm-45.694 46.952c1.94-9.355 6.061-17.898 11.77-25.167l4.894 4.546c-4.805 6.303-8.288 13.637-10.03 21.653l32.8 5.007v23.015h-6.723v-17.283l-9.765-1.515c-.022.746-.066 1.515-.066 2.262a37.71 37.71 0 0 0 8.707 24.156 38.216 38.216 0 0 0 13.137 10.102v.044c.485.22.926.417 1.389.615.396.176.793.307 1.19.461.353.154.705.286 1.08.417.22.044.44.198.661.242v-.022a41.323 41.323 0 0 0 6.701 1.603v10.497c-2.27-.241-4.519-.746-6.7-1.427v-3.667c-8.972-2.482-16.82-7.687-22.616-14.626a46.483 46.483 0 0 1-4.43-6.39l-.464.24-14.945 7.753a61.08 61.08 0 0 1-7.89-29.208l6.744 1.054a53.98 53.98 0 0 0 4.144 19.084l9.567-4.92a44.521 44.521 0 0 1-2.976-16.008c0-1.077.022-2.197.11-3.273l-10.646-1.603-9.545-1.493v.022l-3.328-.505 3.57 26.375 15.96 23.41 2.556 7.203-6.899.527-1.697-4.7-16.29-23.98-5.07-36.939 6.878 1.098.044.088 8.178 1.252z"/>
</svg>
