<svg xmlns="http://www.w3.org/2000/svg" xmlns:xlink="http://www.w3.org/1999/xlink" width="120" height="93" viewBox="0 0 120 93">
    <defs>
        <path id="a" d="M100.848 1.327L119.69 26.1 98.56 48.452l-11.978-3.174-.648 4.693-3.012.474c-.595-3.046-1.891-5.859-3.683-8.295l1.716-1.565a22.562 22.562 0 0 1 3.156 5.656l.526-3.85 13.192 3.504 18.856-19.952-11.155-14.688 5.658 12.168-12.742 12.244-2.302-1 1.807-1.723.381-.36 1.273-1.196v-.015l8.792-8.469-9.508-20.419 1.96-1.158zM63.38 34.561l7.152-6.565 3.134.18-2.287 2.159-2.204 2.015a23.9 23.9 0 0 1 6.855 3.415l-1.716 1.617c-2.097-1.474-4.529-2.572-7.106-3.204l-.961.887a42.313 42.313 0 0 0-2.867-.504zm13.351-6.114l-.122-.09 12.597.722 6.45 2.858-1.791 1.714-5.239-2.301-1.433-.09-6.817 6.73-2.585 2.385a21.558 21.558 0 0 0-1.647-1.572l1.685-1.58c0 .008.023.016.046.016l1.205-1.181.03-.038 4.987-4.94-9.554-.557 2.188-2.076zM61.107 44.481v-7.776c.694.052 1.532.128 2.318.218v2.256h-.015v3.55a15.518 15.518 0 0 1 5.276 2.587l2.692-2.46a19.108 19.108 0 0 0-5.635-3.045v-2.407a21.515 21.515 0 0 1 9.066 5.43l-3.668 3.347v.007l-.709.662a15.492 15.492 0 0 1 2.89 4.13c.084.165.153.338.229.503l-2.128.91a5.152 5.152 0 0 1-.19-.444 13.342 13.342 0 0 0-6.169-6.167 14.116 14.116 0 0 0-3.957-1.3zm13.504 1.632l1.7-1.557c1.975 2.49 3.4 5.415 4.064 8.62l2.844-.43v-.03l2.395-.376-1.754 12.65-5.666 8.213-.556 1.61-2.395-.181.893-2.467 5.505-8.017 1.235-9.032-1.144.172v-.007l-3.294.511-3.69.55c.015.368.023.751.023 1.12 0 1.925-.343 3.775-1.007 5.483l3.287 1.684c.869-2.023 1.357-4.226 1.448-6.535l2.318-.361a20.326 20.326 0 0 1-2.706 10.002l-5.193-2.655-.153-.082c-.45.774-.953 1.511-1.532 2.188a15.506 15.506 0 0 1-7.824 5.01v1.255c-.724.233-1.517.406-2.302.489V46.82c.785.158 1.578.399 2.303.73v22.254a13.275 13.275 0 0 0 6.054-4.07 12.858 12.858 0 0 0 2.989-8.272v-.775l-3.393.52v5.918h-2.318v-7.882L78.08 53.53a18.608 18.608 0 0 0-3.47-7.416zm-.755 23.608c.32-.369.61-.737.907-1.128l2.097 1.083c-.404.526-.8 1.06-1.235 1.541-3.096 3.513-7.366 5.98-12.215 6.867v7.483l8.418-1.346 2.638-7.416 2.379.226-3.294 9.22-12.444 2.008V76.25a14.15 14.15 0 0 0 3.56-.805c3.623-.985 6.802-3 9.189-5.723z"/>
    </defs>
    <g fill="#FAFBFC" fill-rule="evenodd" transform="translate(0 -1)">
        <path d="M18.841 1.327l1.99 1.158-9.523 20.42 8.807 8.468-.015.015 1.273 1.195.389.361 1.807 1.723-2.31 1L8.517 23.423l5.673-12.168L3.02 25.943l18.864 19.952 13.183-3.505.519 3.851a23.586 23.586 0 0 1 3.164-5.656l1.7 1.565a20.71 20.71 0 0 0-3.667 8.295l-3.02-.474-.655-4.693-11.98 3.174L0 26.1 18.841 1.327zm27.199 26.85l3.141-.181 7.13 6.565c-1 .143-2.051.331-2.852.504l-.953-.887c-2.6.632-5.002 1.73-7.114 3.204l-1.708-1.617a23.867 23.867 0 0 1 6.832-3.415l-2.189-2.015-2.287-2.159zm-15.54.902l12.596-.722-.114.09 2.188 2.076-9.577.556 5.01 4.941.015.008 1.228 1.21s.015-.007.023-.014l1.685 1.579a19.816 19.816 0 0 0-1.617 1.572l-2.6-2.384-6.84-6.731-1.433.09-5.215 2.301-1.807-1.714 6.458-2.858zm24.629 8.017c1.014-.196 2.432-.309 3.477-.391v31.309c-.8-.128-1.579-.369-2.318-.662V39.179a18.846 18.846 0 0 0-7.953 3.678l2.684 2.459a15.47 15.47 0 0 1 2.958-1.745v2.565a13.102 13.102 0 0 0-5.695 6.257l-2.128-.91a15.389 15.389 0 0 1 3.126-4.633l-.732-.662.023-.007-3.652-3.347a21.217 21.217 0 0 1 10.21-5.738zm-15.807 16.08c.671-3.205 2.097-6.13 4.072-8.62l1.693 1.557a18.711 18.711 0 0 0-3.47 7.416l11.346 1.714v7.882h-2.325v-5.919l-3.378-.519c-.008.256-.023.52-.023.775 0 3.129 1.12 6.017 3.012 8.273a13.205 13.205 0 0 0 4.544 3.46v.014c.168.076.32.143.48.21.138.061.275.106.412.159.122.053.244.098.374.143.076.015.153.067.229.083v-.008c.755.248 1.532.429 2.318.549v3.595a12.218 12.218 0 0 1-2.318-.489v-1.256a15.669 15.669 0 0 1-7.823-5.009 15.916 15.916 0 0 1-1.533-2.188l-.16.082-5.17 2.655a20.757 20.757 0 0 1-2.73-10.002l2.334.36a18.33 18.33 0 0 0 1.433 6.536l3.31-1.684a15.112 15.112 0 0 1-1.03-5.483c0-.369.008-.752.038-1.12l-3.683-.55-3.302-.511v.007l-1.15-.172 1.234 9.032 5.52 8.017.885 2.467-2.386.18-.587-1.61-5.635-8.212-1.754-12.65 2.379.376.015.03 2.83.43zm3.53 16.5l2.09-1.083c.282.39.572.76.892 1.128a18.88 18.88 0 0 0 9.196 5.723c1.143.414 2.34.692 3.576.805v12.01l-12.46-2.008-3.294-9.22 2.387-.226 2.63 7.416 8.419 1.346v-7.483c-4.834-.888-9.104-3.354-12.193-6.867a18.722 18.722 0 0 1-1.242-1.541z"/>
        <path d="M61.696 81.962c.9.369 1.662 1.016 2.211 1.805.542.782.847 1.73.847 2.76 0 1.384-.542 2.633-1.464 3.535a5.113 5.113 0 0 1-3.561 1.452 5.095 5.095 0 0 1-3.553-1.452 4.913 4.913 0 0 1-1.48-3.535 5 5 0 0 1 .801-2.692 4.893 4.893 0 0 1 2.066-1.767l-.998-2.069a7.422 7.422 0 0 0-3.02 2.61 7.196 7.196 0 0 0-1.167 3.918c0 2.031.824 3.813 2.15 5.13a7.375 7.375 0 0 0 5.2 2.135c2.037 0 3.874-.82 5.201-2.135 1.327-1.317 2.158-3.099 2.158-5.13 0-1.489-.465-2.88-1.258-4.053a7.636 7.636 0 0 0-3.233-2.625l-.9 2.113z"/>
        <use xlink:href="#a"/>
    </g>
</svg>
