<?xml version="1.0" encoding="utf-8"?>
<!DOCTYPE svg PUBLIC "-//W3C//DTD SVG 1.1//EN" "http://www.w3.org/Graphics/SVG/1.1/DTD/svg11.dtd">
<svg version="1.1" id="Ebene_1" xmlns="http://www.w3.org/2000/svg" xmlns:xlink="http://www.w3.org/1999/xlink" x="0px" y="0px"
	 width="397px" height="108px" viewBox="144.14 335.445 397 108" enable-background="new 144.14 335.445 397 108"
	 xml:space="preserve">
<linearGradient id="SVGID_1_" gradientUnits="userSpaceOnUse" x1="249.1321" y1="443.6738" x2="125.8939" y2="342.4185">
	<stop  offset="0" style="stop-color:#FFFFFF"/>
	<stop  offset="1" style="stop-color:#3A587E"/>
</linearGradient>
<polygon fill="url(#SVGID_1_)" points="157.212,408.57 217.346,377.138 231.385,404.212 "/>
<linearGradient id="SVGID_2_" gradientUnits="userSpaceOnUse" x1="163.8835" y1="415.7173" x2="237.2971" y2="415.7173">
	<stop  offset="0" style="stop-color:#FFFFFF"/>
	<stop  offset="1" style="stop-color:#3A587E"/>
</linearGradient>
<polygon fill="url(#SVGID_2_)" points="163.884,411.41 231.385,404.212 237.297,427.223 "/>
<linearGradient id="SVGID_3_" gradientUnits="userSpaceOnUse" x1="219.8157" y1="452.918" x2="234.8848" y2="422.4223">
	<stop  offset="0" style="stop-color:#FFFFFF"/>
	<stop  offset="1" style="stop-color:#3A587E"/>
</linearGradient>
<polygon fill="url(#SVGID_3_)" points="237.159,427.52 227.484,427.698 227.529,439.592 "/>
<linearGradient id="SVGID_4_" gradientUnits="userSpaceOnUse" x1="163.8835" y1="426.2715" x2="182.0906" y2="426.2715">
	<stop  offset="0" style="stop-color:#FFFFFF"/>
	<stop  offset="1" style="stop-color:#3A587E"/>
</linearGradient>
<polygon fill="url(#SVGID_4_)" points="163.884,411.41 182.091,418.859 181.994,441.133 "/>
<linearGradient id="SVGID_5_" gradientUnits="userSpaceOnUse" x1="157.2117" y1="388.7178" x2="214.5906" y2="388.7178">
	<stop  offset="0" style="stop-color:#FFFFFF"/>
	<stop  offset="1" style="stop-color:#3A587E"/>
</linearGradient>
<polygon fill="url(#SVGID_5_)" points="214.591,374.917 157.212,408.57 157.217,368.865 "/>
<linearGradient id="SVGID_6_" gradientUnits="userSpaceOnUse" x1="257.5315" y1="433.4453" x2="134.2999" y2="332.1954">
	<stop  offset="0" style="stop-color:#FFFFFF"/>
	<stop  offset="1" style="stop-color:#3A587E"/>
</linearGradient>
<polygon fill="url(#SVGID_6_)" points="157.217,368.865 191.414,369.487 181.729,353.323 "/>
<linearGradient id="SVGID_7_" gradientUnits="userSpaceOnUse" x1="252.6633" y1="314.0063" x2="205.3654" y2="375.2938">
	<stop  offset="0" style="stop-color:#FFFFFF"/>
	<stop  offset="1" style="stop-color:#3A587E"/>
</linearGradient>
<polygon fill="url(#SVGID_7_)" points="214.526,374.837 233.253,363.63 191.149,369.242 "/>
<linearGradient id="SVGID_8_" gradientUnits="userSpaceOnUse" x1="148.7786" y1="359.2754" x2="181.7288" y2="359.2754">
	<stop  offset="0" style="stop-color:#FFFFFF"/>
	<stop  offset="1" style="stop-color:#3A587E"/>
</linearGradient>
<polygon fill="url(#SVGID_8_)" points="181.729,353.323 148.779,369.49 148.961,359.722 163.436,349.061 "/>
<linearGradient id="SVGID_9_" gradientUnits="userSpaceOnUse" x1="206.7678" y1="331.2808" x2="164.1372" y2="347.7122">
	<stop  offset="0" style="stop-color:#FFFFFF"/>
	<stop  offset="1" style="stop-color:#3A587E"/>
</linearGradient>
<polygon fill="url(#SVGID_9_)" points="170.365,348.795 163.826,348.896 175.195,339.964 "/>
<g>
	<path fill="#FFFFFF" d="M302.078,393.893c0,7.533-5.687,12.924-13.663,12.924h-10.561v-25.848H288.6
		C296.428,380.969,302.078,386.323,302.078,393.893z M297.019,393.93c0-5.059-3.656-8.604-8.493-8.604h-5.723v17.134h5.908
		C293.474,402.459,297.019,398.952,297.019,393.93z"/>
	<path fill="#FFFFFF" d="M330.698,401.352H318.07l-2.29,5.465h-5.133l11.337-25.848h5.133l11.188,25.848h-5.317L330.698,401.352z
		 M328.925,397.105l-4.505-10.856l-4.579,10.856H328.925z"/>
	<path fill="#FFFFFF" d="M368.512,380.969v4.32h-13.995v6.388h12.555v4.32h-12.555v6.499h14.438v4.32h-19.386v-25.848H368.512z"/>
	<path fill="#FFFFFF" d="M406.325,393.893c0,7.533-5.687,12.924-13.663,12.924h-10.561v-25.848h10.745
		C400.676,380.969,406.325,386.323,406.325,393.893z M401.267,393.93c0-5.059-3.656-8.604-8.493-8.604h-5.724v17.134h5.908
		C397.722,402.459,401.267,398.952,401.267,393.93z"/>
	<path fill="#FFFFFF" d="M434.945,401.352h-12.629l-2.289,5.465h-5.133l11.337-25.848h5.133l11.188,25.848h-5.317L434.945,401.352z
		 M433.172,397.105l-4.505-10.856l-4.578,10.856H433.172z"/>
	<path fill="#FFFFFF" d="M458.764,380.969v21.38h11.151v4.468h-16.1v-25.848H458.764z"/>
	<path fill="#FFFFFF" d="M492.884,402.607c3.914,0,6.389-2.438,6.389-6.573v-15.065h4.948v15.065c0,6.795-4.32,11.004-11.337,11.004
		c-7.053,0-11.484-4.209-11.484-11.004v-15.065h4.948v15.065C486.348,400.133,488.97,402.607,492.884,402.607z"/>
	<path fill="#FFFFFF" d="M526.674,385.252c-2.326,0-3.841,0.849-3.841,2.437c0,5.244,13.885,2.4,13.848,11.669
		c0,4.837-4.21,7.644-9.896,7.644c-4.136,0-8.16-1.662-10.93-4.136l2.067-4.172c2.659,2.363,6.167,3.803,8.937,3.803
		s4.431-1.034,4.431-2.843c0-5.392-13.884-2.327-13.884-11.521c0-4.505,3.877-7.385,9.675-7.385c3.434,0,6.868,1.107,9.342,2.732
		l-1.994,4.283C531.658,386.101,528.668,385.252,526.674,385.252z"/>
</g>
</svg>
