<svg xmlns="http://www.w3.org/2000/svg" width="614" height="204" viewBox="0 0 614 204">
    <g fill="none" fill-rule="evenodd" transform="translate(0 2)">
        <circle cx="512" cy="100" r="100" fill-rule="nonzero" stroke="#FAFBFC" stroke-width="4"/>
        <path fill-rule="nonzero" stroke="#FAFBFC" stroke-width="4" d="M523.914.694C573.5 6.445 612 48.54 612 99.646c0 .635-.036 1.263-.048 1.896l-3.918-1.376a6.429 6.429 0 0 1-3.697-3.064l-10.892-20.129a6.433 6.433 0 0 0-6.424-3.325l-5.394.647-1.064-1.456a3.195 3.195 0 0 0-2.965-1.297l-5.534.637-9.108-8.142a3.216 3.216 0 0 0-4.29 4.79l10.184 9.105a3.22 3.22 0 0 0 2.514.798l3.4-.39a3.099 3.099 0 0 1 1.845 5.798l-16.19 8.868c-.29.192-.625.31-.968.342a2.041 2.041 0 0 1-1.918-.954L545.555 73.38a3.23 3.23 0 0 0-4.438-1.008 3.22 3.22 0 0 0-1.008 4.435l11.978 19.01a8.444 8.444 0 0 0 7.926 3.934 8.513 8.513 0 0 0 3.983-1.407l.28-.188c1.946.834 2.632 3.416 1.104 5.1l-15.69 17.281-2.314 15.87a9.643 9.643 0 0 1-3.052 5.74l-19.758 16.159c-2.837 2.582-11.255 2.41-14.672-1.909-2.654-3.355-7.428-13.06-9.476-17.329a12.551 12.551 0 0 1-1.182-4.294l-1.843-20.002a9.646 9.646 0 0 0-9.09-8.745l-24.3-1.306a6.432 6.432 0 0 1-5.9-4.883l-4.385-17.806a6.427 6.427 0 0 1 1.88-6.258l21.569-19.925a4.72 4.72 0 0 1 4.932-.925l22.775 8.968c.66.26 1.364.394 2.075.394h27.14a3.65 3.65 0 0 0 1.66-6.904l-5.145-2.625a1.79 1.79 0 0 1-.976-1.637l.02-.856a3.417 3.417 0 0 1 3.325-3.334l8.949-.24a4.489 4.489 0 0 0 3.909-5.242c-.44-2.54-3.117-4.066-5.643-3.545l-3.711.765a6.431 6.431 0 0 0-4.719 4.029l-1.1 2.92a5.203 5.203 0 0 1-3.48 3.179l-5.742 1.593a6.433 6.433 0 0 1-7.086-2.651l-.832-1.258c-.807-1.221-2.657-1.02-3.194.34-1.286 3.261-2.268 5.83-2.488 6.57a3.216 3.216 0 0 1-6.384-.546c0-.512.003-1.01 2.269-6.826 1.01-2.593-.955-5.39-3.737-5.29l-13.004.464-6.08 8.476a5.789 5.789 0 0 1-4.223 2.393l-6.574.548a3.215 3.215 0 0 1-3.48-3.331l.341-8.573a3.215 3.215 0 0 1 3.046-3.082l9.868-.516 1.772-13.282a3.215 3.215 0 0 1 3.187-2.79h15.45c.862 0 1.72-.115 2.551-.343l10.325-2.83a9.646 9.646 0 0 0 6.635-6.352L523.914.694zm41.646 55.005a3.209 3.209 0 0 0 .864-4.46l-6.7-9.91a3.212 3.212 0 0 0-4.462-.864 3.208 3.208 0 0 0-.864 4.46l6.7 9.91a3.206 3.206 0 0 0 2.666 1.416c.618 0 1.247-.178 1.796-.552zm-9.842 96.581a3.213 3.213 0 0 1-2.459-5.283l8.441-10.044a3.22 3.22 0 0 1 4.532-.393 3.213 3.213 0 0 1 .393 4.53l-8.442 10.045a3.211 3.211 0 0 1-2.465 1.145zM484.878 3.85c2.435-.695 4.897-1.327 7.404-1.837l-4.165 12.405a3.218 3.218 0 0 1-4.074 2.025 3.216 3.216 0 0 1-2.026-4.072l2.861-8.521zm-55.571 150.993A99.018 99.018 0 0 1 413 108.193l17.163 16.041a6.426 6.426 0 0 1 1.926 5.342l-2.782 25.267zM512.305 0c.622 0 1.234.035 1.853.047l-3.709 11.121a4.825 4.825 0 0 1-6.102 3.049 4.82 4.82 0 0 1-3.05-6.1l.335-7.542C505.14.202 508.7 0 512.305 0z"/>
        <g fill-rule="nonzero" stroke="#FAFBFC" stroke-linecap="round" stroke-width="4">
            <path d="M382 99h-62M300 99h-62M326 109l-12-20M306 109l-12-20"/>
        </g>
        <path fill="#FAFBFC" d="M95.467 173.993l-11.417-1.857-6-16.952 4.348-.415 4.79 13.633 8.527 1.377a13.34 13.34 0 0 1 1.81-4.34 13.554 13.554 0 0 1 4.996-4.545v-3.775c-8.805-1.631-16.582-6.167-22.207-12.624a34.364 34.364 0 0 1-2.263-2.834l3.805-1.991a28.852 28.852 0 0 0 1.625 2.074 34.344 34.344 0 0 0 16.749 10.522 25.914 25.914 0 0 0 6.513 1.48v22.081l-6.89-1.12a9.028 9.028 0 0 0 2.464 4.435c1.667 1.631 3.944 2.668 6.472 2.668 2.528 0 4.819-1.037 6.486-2.668a8.927 8.927 0 0 0 2.424-4.357l-6.4 1.042v-22.081a25.568 25.568 0 0 0 6.485-1.48 34.117 34.117 0 0 0 16.735-10.522 40.13 40.13 0 0 0 1.653-2.074l3.82 1.99c-.737.969-1.46 1.95-2.25 2.835-5.64 6.457-13.417 10.993-22.25 12.624v3.993a14.067 14.067 0 0 1 4.407 4.078 13.538 13.538 0 0 1 1.991 4.655l8.935-1.443 4.805-13.633 4.333.415-6 16.952-11.847 1.93c-.331 3.142-1.751 5.9-3.855 8.007a13.344 13.344 0 0 1-9.472 3.927c-3.68 0-7.07-1.507-9.472-3.927-2.12-2.123-3.535-4.907-3.85-8.08zm7.054-8.004a8.83 8.83 0 0 0-1.44 1.704 9.413 9.413 0 0 0-1.187 2.76l2.627.424v-4.888zm15.178 4.532a8.735 8.735 0 0 0-1.3-2.953 9.83 9.83 0 0 0-.906-1.129v4.438l2.206-.356zM183.683 16L218 61.546l-38.484 41.095-21.818-5.835-1.18 8.628-5.486.87c-1.083-5.6-3.444-10.77-6.708-15.25l3.125-2.877c2.389 3.167 4.347 6.665 5.75 10.398l.958-7.08 24.026 6.444 34.345-36.683-20.318-27.004 10.305 22.372-23.207 22.51-4.194-1.838 3.291-3.167.695-.664 2.319-2.198v-.028l16.013-15.57-17.318-37.54L183.683 16zm-68.246 61.102l13.027-12.071 5.708.332-4.166 3.968-4.014 3.706a43.37 43.37 0 0 1 12.485 6.277l-3.125 2.973c-3.819-2.71-8.249-4.729-12.943-5.89l-1.75 1.631a76.416 76.416 0 0 0-5.222-.926zm24.318-11.241l-.222-.166 22.943 1.327 11.749 5.254-3.264 3.153-9.54-4.231-2.612-.166-12.416 12.375-4.708 4.383a39.427 39.427 0 0 0-3-2.89l3.07-2.903c0 .014.042.027.083.027l2.194-2.17.056-.07 9.083-9.084-17.402-1.023 3.986-3.816zM111.298 95.34V81.043c1.264.096 2.792.235 4.222.4v4.149h-.027v6.526c3.527.982 6.805 2.6 9.61 4.757l4.903-4.522a34.702 34.702 0 0 0-10.264-5.6V82.33c6.333 1.908 11.972 5.392 16.513 9.983l-6.68 6.153v.014l-1.292 1.216a28.487 28.487 0 0 1 5.264 7.591c.153.305.278.623.417.927l-3.875 1.673a9.519 9.519 0 0 1-.347-.816 24.416 24.416 0 0 0-11.236-11.338 25.544 25.544 0 0 0-7.208-2.392zm24.596 3l3.097-2.862c3.597 4.577 6.194 9.956 7.402 15.846l5.18-.788v-.055l4.362-.692-3.195 23.257-10.319 15.1-1.013 2.959-4.361-.332 1.625-4.536 10.027-14.74 2.25-16.606-2.083.318v-.013l-6 .94-6.722 1.01c.028.677.042 1.382.042 2.06 0 3.54-.625 6.94-1.833 10.08l5.985 3.097c1.584-3.72 2.472-7.771 2.639-12.016l4.222-.664a37.64 37.64 0 0 1-4.93 18.39l-9.458-4.88-.278-.153c-.82 1.424-1.736 2.78-2.791 4.024a28.216 28.216 0 0 1-14.25 9.209v2.309c-1.319.428-2.763.747-4.194.899V99.64c1.43.29 2.875.732 4.195 1.34v40.915a24.17 24.17 0 0 0 11.027-7.48c3.43-4.149 5.444-9.458 5.444-15.21v-1.425l-6.18.954v10.882h-4.222v-14.49l20.651-3.153c-1.083-5.047-3.291-9.665-6.319-13.634zM34.317 16l3.625 2.13-17.346 37.54 16.04 15.57-.027.027 2.32 2.198.707.664 3.292 3.167-4.208 1.839-23.207-22.511 10.333-22.372L5.5 61.256 39.859 97.94l24.012-6.443.944 7.08a43.478 43.478 0 0 1 5.764-10.399l3.097 2.876a38.252 38.252 0 0 0-6.68 15.252l-5.5-.871-1.194-8.628-21.818 5.835L0 61.546 34.317 16zm49.539 49.363l5.722-.332 12.985 12.07c-1.82.264-3.736.61-5.194.927l-1.736-1.631a38.32 38.32 0 0 0-12.958 5.89l-3.11-2.973a43.314 43.314 0 0 1 12.443-6.277l-3.986-3.706-4.166-3.968zm-28.304 1.659l22.943-1.327-.208.166 3.986 3.816L64.829 70.7l9.125 9.084.027.014 2.236 2.226s.028-.013.042-.027l3.07 2.903c-1.042.927-2.028 1.867-2.945 2.89l-4.736-4.383-12.457-12.375-2.611.166-9.5 4.23-3.291-3.152 11.763-5.254zm44.858 14.74c1.847-.36 4.43-.567 6.333-.72v57.563c-1.458-.235-2.875-.678-4.222-1.217V85.592a34.182 34.182 0 0 0-14.485 6.761l4.889 4.522a28.119 28.119 0 0 1 5.388-3.208v4.715a24.007 24.007 0 0 0-10.374 11.504l-3.875-1.673a28.309 28.309 0 0 1 5.694-8.518l-1.333-1.216.042-.014-6.653-6.153a38.553 38.553 0 0 1 18.596-10.55zm-28.79 29.562c1.223-5.89 3.82-11.27 7.417-15.846l3.083 2.862a34.546 34.546 0 0 0-6.32 13.634l20.666 3.152v14.491H92.23v-10.882l-6.152-.954c-.014.47-.042.954-.042 1.424a23.733 23.733 0 0 0 5.486 15.21 24.076 24.076 0 0 0 8.277 6.36v.028c.306.139.583.263.875.388.25.11.5.193.75.29.222.097.445.18.68.263.14.027.278.124.417.152v-.014a26.05 26.05 0 0 0 4.222 1.01v6.609a22.074 22.074 0 0 1-4.222-.9v-2.308c-5.652-1.563-10.596-4.84-14.249-9.21a29.267 29.267 0 0 1-2.791-4.023l-.292.152-9.416 4.881a38.437 38.437 0 0 1-4.972-18.39l4.25.664a33.967 33.967 0 0 0 2.61 12.016l6.028-3.098a28.015 28.015 0 0 1-1.875-10.08c0-.677.014-1.382.07-2.06l-6.708-1.01-6.014-.94v.014l-2.097-.318 2.25 16.607 10.055 14.74 1.611 4.535-4.347.332-1.07-2.96-10.263-15.099-3.194-23.257 4.333.692.028.055 5.152.788z"/>
    </g>
</svg>
