<svg xmlns="http://www.w3.org/2000/svg" width="43" height="37" viewBox="0 0 43 37">
    <g fill="none" fill-rule="evenodd" opacity=".5">
        <path d="M-1-4h45v45H-1z"/>
        <path fill="#5E6066" fill-rule="nonzero" d="M25.437 25.908l8.797.003c3.258 0 5.9-2.654 5.9-5.93 0-2.958-2.167-5.45-5.048-5.87a.984.984 0 0 1-.841-.927c-.135-2.818-2.452-5.043-5.269-5.043-.19 0-.38.01-.567.03a.984.984 0 0 1-.97-.508 9.645 9.645 0 0 0-8.477-5.054c-5.332 0-9.656 4.343-9.656 9.703 0 .232.008.464.024.694a.984.984 0 0 1-.932 1.052c-3.13.157-5.601 2.759-5.601 5.923 0 3.155 2.459 5.753 5.525 5.92l9.24.004a.984.984 0 1 1 0 1.968c.001 0 .001 0 0 0l-9.293-.005c-4.164-.224-7.44-3.686-7.44-7.887 0-3.884 2.799-7.134 6.509-7.782C7.398 5.806 12.578.64 18.962.64c4.083 0 7.793 2.132 9.889 5.533l.125-.002c3.607 0 6.615 2.652 7.157 6.141 3.459.86 5.97 3.996 5.97 7.668 0 4.361-3.522 7.899-7.87 7.899l-8.796-.004a.984.984 0 1 1 0-1.968z"/>
        <path stroke="#5E6066" stroke-linecap="round" stroke-linejoin="round" stroke-width="1.96" d="M19.338 6.528c-3.457 0-6.26 2.815-6.26 6.286M21.5 19.906v15.469M17.281 31.156l4.219 4.219 4.219-4.219"/>
    </g>
</svg>
