<svg xmlns="http://www.w3.org/2000/svg" width="22" height="22" viewBox="0 0 22 22">
    <g fill="none" fill-rule="evenodd">
        <g fill="#5E6066" fill-rule="nonzero">
            <g>
                <g>
                    <path d="M211 34.586l3.293-3.293c.39-.39 1.024-.39 1.414 0 .39.39.39 1.024 0 1.414l-5 5c-.39.39-1.024.39-1.414 0l-5-5c-.39-.39-.39-1.024 0-1.414.39-.39 1.024-.39 1.414 0L209 34.586V23c0-.552.448-1 1-1s1 .448 1 1v11.586zM200 44c-.552 0-1-.448-1-1s.448-1 1-1h20c.552 0 1 .448 1 1s-.448 1-1 1h-20z" transform="translate(-1494 -462) translate(0 420) translate(1295 20)"/>
                </g>
            </g>
        </g>
    </g>
</svg>
