<?xml version="1.0" encoding="UTF-8"?>
<svg width="92px" height="91px" viewBox="0 0 92 91" version="1.1" xmlns="http://www.w3.org/2000/svg" xmlns:xlink="http://www.w3.org/1999/xlink">
    <g id="Page-1" stroke="none" stroke-width="1" fill="none" fill-rule="evenodd">
        <g id="wallet_screen" transform="translate(-1708.000000, -1254.000000)" fill="#2F496E">
            <g id="content" transform="translate(720.000000, 168.000000)">
                <g id="list-item-4" transform="translate(920.000000, 984.000000)">
                    <g id="exchange-ic" transform="translate(68.000000, 102.000000)">
                        <path d="M0.120368655,37.0629139 C-0.217672018,36.4790977 0.195488804,35.7446192 0.87157015,35.7446192 L4.40221718,35.7446192 L4.40221718,28.8329884 C4.40221718,21.1303808 10.6559696,14.8590646 18.3370049,14.8590646 L26.8255818,14.8590646 L26.8255818,20.6972268 L18.3370049,20.6972268 C13.867356,20.6972268 10.2428088,24.3319536 10.2428088,28.8141556 L10.2428088,35.7257864 L13.7734558,35.7257864 C14.4495372,35.7257864 14.862698,36.4602649 14.5246573,37.0440811 L8.08310451,48.2495861 C7.74506384,48.8334023 6.89996215,48.8334023 6.56192148,48.2495861 L0.120368655,37.0629139 L0.120368655,37.0629139 L0.120368655,37.0629139 Z M78.5645848,15.4617136 C76.8180414,15.4617136 75.4095386,16.8741722 75.4095386,18.6256209 C75.4095386,20.3770695 76.8180414,21.7895281 78.5645848,21.7895281 C80.3111283,21.7895281 81.7196311,20.3770695 81.7196311,18.6256209 C81.7196311,16.8741722 80.3111283,15.4617136 78.5645848,15.4617136 L78.5645848,15.4617136 L78.5645848,15.4617136 Z M45.4365989,15.4617136 C43.6900554,15.4617136 42.2815526,16.8741722 42.2815526,18.6256209 C42.2815526,20.3770695 43.6900554,21.7895281 45.4365989,21.7895281 C47.1831424,21.7895281 48.5916452,20.3770695 48.5916452,18.6256209 C48.5916452,16.8741722 47.1831424,15.4617136 45.4365989,15.4617136 L45.4365989,15.4617136 L45.4365989,15.4617136 Z M91.9923116,5.21668046 L91.9923116,32.0345613 C91.9923116,34.9159768 89.6635869,37.2512417 86.7902412,37.2512417 L37.2109425,37.2512417 C34.3375968,37.2512417 32.0088721,34.9159768 32.0088721,32.0345613 L32.0088721,5.21668046 C32.0088721,2.3352649 34.3375968,3.41060513e-13 37.2109425,3.41060513e-13 L86.7902412,3.41060513e-13 C89.6635869,3.41060513e-13 91.9923116,2.3352649 91.9923116,5.21668046 L91.9923116,5.21668046 L91.9923116,5.21668046 Z M87.5602227,10.8476821 C87.1470619,10.9606788 86.7151211,11.0171772 86.2644002,11.0171772 C83.3534944,11.0171772 81.0059897,8.66307947 81.0059897,5.74399834 C81.0059897,5.29201159 81.0623298,4.8776904 81.17501,4.46336921 L42.5444731,4.46336921 C42.6008132,4.78352649 42.6383733,5.10368377 42.6383733,5.44267384 C42.6383733,8.36175497 40.2908686,10.7158526 37.3799628,10.7158526 C37.0607022,10.7158526 36.7602216,10.6781871 36.459741,10.6405215 L36.459741,26.6672185 C36.7602216,26.6107202 37.0607022,26.5918874 37.3799628,26.5918874 C40.2908686,26.5918874 42.6383733,28.9459851 42.6383733,31.8650662 C42.6383733,32.2040563 42.6008132,32.5242136 42.5444731,32.8443709 L81.0435498,32.8443709 C81.0247697,32.6372103 81.0059897,32.4112169 81.0059897,32.1852235 C81.0059897,29.2661424 83.3534944,26.9120447 86.2644002,26.9120447 C86.7151211,26.9120447 87.1470619,26.968543 87.5602227,27.0815397 L87.5602227,10.8476821 L87.5602227,10.8476821 L87.5602227,10.8476821 Z M73.4000746,18.6256209 C73.4000746,24.9346026 68.3106844,30.0382864 62.0193719,30.0382864 C55.7280594,30.0382864 50.6386692,24.9346026 50.6386692,18.6256209 C50.6386692,12.3166391 55.7280594,7.2129553 62.0193719,7.2129553 C68.3106844,7.2129553 73.4000746,12.3166391 73.4000746,18.6256209 L73.4000746,18.6256209 L73.4000746,18.6256209 Z M67.5219228,18.6256209 C67.5219228,15.5747103 65.0429579,13.1076159 62.0193719,13.1076159 C58.9770058,13.1076159 56.5168209,15.593543 56.5168209,18.6256209 C56.5168209,21.6765315 58.9957859,24.1436258 62.0193719,24.1436258 C65.0429579,24.1436258 67.5219228,21.6765315 67.5219228,18.6256209 L67.5219228,18.6256209 L67.5219228,18.6256209 Z M85.4380785,42.7315811 C85.1000378,42.1477649 84.2549362,42.1477649 83.9168955,42.7315811 L77.4753427,53.9370861 C77.137302,54.5209023 77.5504628,55.2553808 78.2265442,55.2553808 L81.7571912,55.2553808 L81.7571912,62.1670116 C81.7571912,66.6492136 78.132644,70.2839404 73.6629951,70.2839404 L65.1744182,70.2839404 L65.1744182,76.1221026 L73.6629951,76.1221026 C81.3440304,76.1221026 87.5977828,69.8507864 87.5977828,62.1481788 L87.5977828,55.236548 L91.1284298,55.236548 C91.8045112,55.236548 92.217672,54.5020695 91.8796313,53.9182533 L85.4380785,42.7315811 L85.4380785,42.7315811 L85.4380785,42.7315811 Z M46.5634011,69.2104719 C44.8168576,69.2104719 43.4083548,70.6229305 43.4083548,72.3743791 C43.4083548,74.1258278 44.8168576,75.5382864 46.5634011,75.5382864 C48.3099446,75.5382864 49.7184474,74.1258278 49.7184474,72.3743791 C49.7184474,70.6229305 48.2911646,69.2104719 46.5634011,69.2104719 L46.5634011,69.2104719 L46.5634011,69.2104719 Z M13.4354152,69.2104719 C11.6888717,69.2104719 10.2803689,70.6229305 10.2803689,72.3743791 C10.2803689,74.1258278 11.6888717,75.5382864 13.4354152,75.5382864 C15.1819586,75.5382864 16.5904614,74.1258278 16.5904614,72.3743791 C16.5904614,70.6229305 15.1819586,69.2104719 13.4354152,69.2104719 L13.4354152,69.2104719 L13.4354152,69.2104719 Z M59.9911279,58.9654387 L59.9911279,85.7833195 C59.9911279,88.6647351 57.6624032,91 54.7890575,91 L5.20975879,91 C2.33641307,91 0.00768843044,88.6647351 0.00768843044,85.7833195 L0.00768843044,58.9654387 C0.00768843044,56.0840232 2.33641307,53.7487583 5.20975879,53.7487583 L54.7890575,53.7487583 C57.6624032,53.7487583 59.9911279,56.0840232 59.9911279,58.9654387 L59.9911279,58.9654387 L59.9911279,58.9654387 Z M55.540259,64.5964404 C55.1270982,64.7094371 54.6951573,64.7659354 54.2444364,64.7659354 C51.3335306,64.7659354 48.9860259,62.4118377 48.9860259,59.4927566 C48.9860259,59.0407699 49.0423661,58.6264487 49.1550463,58.2121275 L10.5432894,58.2121275 C10.5996295,58.5322848 10.6371896,58.8524421 10.6371896,59.1914321 C10.6371896,62.1105132 8.28968492,64.4646109 5.37877912,64.4646109 C5.05951849,64.4646109 4.75903789,64.4269454 4.45855729,64.3892798 L4.45855729,80.4159768 C4.75903789,80.3594785 5.05951849,80.3406457 5.37877912,80.3406457 C8.28968492,80.3406457 10.6371896,82.6947434 10.6371896,85.6138245 C10.6371896,85.9528146 10.5996295,86.2729719 10.5432894,86.5931291 L49.0423661,86.5931291 C49.023586,86.3859685 49.004806,86.1599752 49.004806,85.9339818 C49.004806,83.0149007 51.3523107,80.660803 54.2632165,80.660803 C54.7139373,80.660803 55.1458782,80.7173013 55.559039,80.830298 L55.559039,64.5964404 L55.540259,64.5964404 L55.540259,64.5964404 L55.540259,64.5964404 Z M41.3801108,72.3743791 C41.3801108,78.6833609 36.2907207,83.7870447 29.9994081,83.7870447 C23.7080956,83.7870447 18.6187055,78.6833609 18.6187055,72.3743791 C18.6187055,66.0653974 23.7080956,60.9617136 29.9994081,60.9617136 C36.2907207,60.9617136 41.3801108,66.0653974 41.3801108,72.3743791 L41.3801108,72.3743791 L41.3801108,72.3743791 Z M35.5019591,72.3743791 C35.5019591,69.3234685 33.0229942,66.8563742 29.9994081,66.8563742 C26.9758221,66.8563742 24.4968572,69.3423013 24.4968572,72.3743791 C24.4968572,75.4252897 26.9758221,77.8923841 29.9994081,77.8923841 C33.0229942,77.8923841 35.5019591,75.4252897 35.5019591,72.3743791 L35.5019591,72.3743791 L35.5019591,72.3743791 Z"></path>
                    </g>
                </g>
            </g>
        </g>
    </g>
</svg>
