<svg xmlns="http://www.w3.org/2000/svg" width="20" height="29" viewBox="0 0 20 29">
    <g fill="none" fill-rule="nonzero">
        <path fill="#FFF" d="M10 11a8 8 0 1 0 0 16 8 8 0 0 0 0-16z"/>
        <path fill="#5E6066" d="M13 5a1 1 0 0 1 0 2v2.458c4.058 1.275 7 5.065 7 9.542 0 5.523-4.477 10-10 10S0 24.523 0 19c0-4.478 2.943-8.268 7-9.542V7a1 1 0 1 1 0-2h6zm-3 6a8 8 0 1 0 0 16 8 8 0 0 0 0-16zm6.81 6.374a7 7 0 0 1-13.788 2.183C4.056 19.815 5.564 20 8 20c3.527 0 6.083-1.166 8.523-2.47l.287-.156zM11.5 1a1.5 1.5 0 1 1 0 3 1.5 1.5 0 0 1 0-3zM8 0a1 1 0 1 1 0 2 1 1 0 0 1 0-2z"/>
    </g>
</svg>
