<svg xmlns="http://www.w3.org/2000/svg" width="30" height="30" viewBox="0 0 30 30">
    <g fill="none" fill-rule="evenodd">
        <g fill="#5E6066">
            <g>
                <g>
                    <g>
                        <path d="M173 106v6h-6v-6h6zm12 0v6h-6v-6h6zm12 0v6h-6v-6h6zm-24-12v6h-6v-6h6zm12 0v6h-6v-6h6zm12 0v6h-6v-6h6zm-24-12v6h-6v-6h6zm12 0v6h-6v-6h6zm12 0v6h-6v-6h6z" transform="translate(-1769 -341) translate(168) translate(40 259) translate(1394)"/>
                    </g>
                </g>
            </g>
        </g>
    </g>
</svg>
