<svg xmlns="http://www.w3.org/2000/svg" width="28" height="25" viewBox="0 0 28 25">
    <g fill="none" fill-rule="evenodd">
        <g fill="#5E6066">
            <g>
                <g>
                    <g>
                        <path d="M14 5.09c3.564 0 6.364 2.8 6.364 6.365 0 .763-.128 1.654-.51 2.29l3.691 3.691c1.91-1.654 3.437-3.69 4.328-5.981-2.164-5.6-7.637-9.546-14-9.546-1.782 0-3.437.382-5.091.891l2.8 2.8c.763-.382 1.654-.51 2.418-.51zM1.273 1.656L4.2 4.582l.51.509C2.544 6.745.89 8.909 0 11.455 2.164 17.055 7.636 21 14 21c1.91 0 3.818-.382 5.6-1.018l.51.509 3.69 3.69 1.655-1.654L2.927 0 1.273 1.655zm7 7l1.909 1.909v.89c0 2.164 1.654 3.819 3.818 3.819.255 0 .51 0 .89-.128l1.91 1.91c-.89.509-1.782.763-2.8.763-3.564 0-6.364-2.8-6.364-6.363 0-1.019.255-1.91.637-2.8zm5.472-1.019l3.946 3.946v-.255c0-2.163-1.655-3.818-3.818-3.818 0 .127 0 .127-.128.127z" transform="translate(-1636 -366) translate(60 264) translate(0 17) translate(1562 69) translate(14 16)"/>
                    </g>
                </g>
            </g>
        </g>
    </g>
</svg>
