<svg width="28px" height="24px" viewBox="0 0 28 24" version="1.1" xmlns="http://www.w3.org/2000/svg" xmlns:xlink="http://www.w3.org/1999/xlink">
  <g id="Page-1" stroke="none" stroke-width="1" fill="none" fill-rule="evenodd">
    <g id="wallet-public-key" transform="translate(-1636.000000, -366.000000)" fill="#5E6066">
      <g id="amount" transform="translate(60.000000, 264.000000)">
        <g id="input" transform="translate(0.000000, 17.000000)">
          <g id="hide" transform="translate(1562.000000, 69.000000)">
            <g transform="translate(14.000000, 16.000000)" id="Combined-Shape">
              <path d="M2.41489322,-0.000106781194 L25,22.585 L25,23.999 L23.5848932,23.9998932 L20.1955927,20.6100864 C18.3045792,21.5033775 16.2058113,22 14,22 C7.63636364,22 2.16363636,17.8666667 -1.09139364e-11,12 C0.993056335,9.30734305 2.68320119,6.97982769 4.8366274,5.24950315 L1,1.413 L1,-0.001 L2.41489322,-0.000106781194 Z M8.3916688,8.80506793 C7.9087248,9.74908106 7.63636364,10.8356318 7.63636364,12 C7.63636364,15.7333333 10.4363636,18.6666667 14,18.6666667 C15.2189461,18.6666667 16.3485475,18.3234695 17.3073096,17.7224505 L15.3452614,15.7598325 C14.9298127,15.9156501 14.4772934,16 14,16 C11.8363636,16 10.1818182,14.2666667 10.1818182,12 C10.1818182,11.5677242 10.2419945,11.1548459 10.3544019,10.7696884 L8.3916688,8.80506793 Z M14,2 C20.3636364,2 25.8363636,6.13333333 28,12 C27.0751221,14.5077922 25.5455873,16.6988594 23.6002772,18.3857403 L19.8590755,14.64509 C20.1844616,13.8376083 20.3636364,12.9444005 20.3636364,12 C20.3636364,8.26666667 17.5636364,5.33333333 14,5.33333333 C12.9916749,5.33333333 12.0444864,5.56817535 11.2045637,5.98953346 L8.35688178,3.14276782 C10.100979,2.40550559 12.0067877,2 14,2 Z M14,8 C16.1636364,8 17.8181818,9.73333333 17.8181818,12 C17.8181818,12.1934028 17.8061362,12.3829227 17.7827565,12.5678144 L13.2813504,8.06584458 C13.5131472,8.0225414 13.7532633,8 14,8 Z"></path>
            </g>
          </g>
        </g>
      </g>
    </g>
  </g>
</svg>
