<svg xmlns="http://www.w3.org/2000/svg" width="38" height="38" viewBox="0 0 38 38">
    <path fill="#5E6066" fill-rule="evenodd" d="M11.708 27.555l-6.143 6.143-1.414-1.414 5.572-5.572C6.29 25.055 3.049 22.434 0 18.85c5.671-6.666 12.004-10 19-10 2.516 0 4.947.432 7.292 1.294L32.435 4l1.414 1.414-5.572 5.572c3.433 1.657 6.674 4.278 9.723 7.863-5.671 6.667-12.004 10-19 10-2.516 0-4.947-.431-7.292-1.294zm1.512-1.511c1.867.537 3.794.805 5.78.805 6.26 0 11.926-2.666 17-8-2.853-2.998-5.892-5.153-9.12-6.466l-3.708 3.709a5 5 0 0 1-6.929 6.929l-3.023 3.023zm-2.1-.728l3.708-3.71a5 5 0 0 1 6.929-6.929l3.023-3.022a20.802 20.802 0 0 0-5.78-.806c-6.26 0-11.926 2.667-17 8 2.853 2.998 5.892 5.154 9.12 6.467z"/>
</svg>
