<?xml version="1.0" encoding="UTF-8"?>
<svg width="130px" height="116px" viewBox="0 0 130 116" version="1.1" xmlns="http://www.w3.org/2000/svg" xmlns:xlink="http://www.w3.org/1999/xlink">
    <g id="Page-1" stroke="none" stroke-width="1" fill="none" fill-rule="evenodd">
        <g id="wallet_add_wallet" transform="translate(-1885.000000, -1022.000000)">
            <g id="dialog" transform="translate(1000.000000, 355.000000)">
                <g id="import" transform="translate(660.000000, 570.000000)">
                    <g id="import-ic" transform="translate(196.000000, 61.000000)">
                        <circle id="Oval" cx="94" cy="94" r="94"></circle>
                        <path d="M132,68 C130.341,68 129,69.341 129,71 C129,72.659 130.341,74 132,74 L144,74 C148.968,74 153,78.026 153,83 L153,137 C153,141.968 148.968,146 144,146 L44,146 C39.032,146 35,141.968 35,137 L35,83 C35,78.026 39.032,74 44,74 L56,74 C57.659,74 59,72.659 59,71 C59,69.341 57.659,68 56,68 L44,68 C35.714,68 29,74.714 29,83 L29,137 C29,145.286 35.714,152 44,152 L144,152 C152.286,152 159,145.286 159,137 L159,83 C159,74.714 152.286,68 144,68 L132,68 Z M91,39 L91,115.857 L71.998,96.855 C70.855,95.712 68.998,95.712 67.855,96.855 C66.712,98.004 66.712,99.855 67.855,100.998 L91.579,124.728 C91.678,124.863 91.732,125.022 91.855,125.145 C92.437,125.73 93.205,126.006 93.97,125.994 C94.792,126.006 95.56,125.73 96.145,125.145 C96.271,125.016 96.331,124.857 96.43,124.716 L120.145,100.998 C121.288,99.855 121.288,98.004 120.145,96.855 C118.999,95.712 117.145,95.712 116.002,96.855 L97,115.857 L97,39 C97,37.344 95.659,36 94,36 C92.341,36 91,37.341 91,39 Z" id="import" fill="#8A98AB"></path>
                    </g>
                </g>
            </g>
        </g>
    </g>
</svg>
