<svg xmlns="http://www.w3.org/2000/svg" width="40" height="40" viewBox="0 0 40 40">
    <g fill="none" fill-rule="evenodd">
        <path d="M-4-4h48v48H-4z" opacity=".2"/>
        <path fill="#FAFBFC" fill-rule="nonzero" d="M27.754 6A15.943 15.943 0 0 0 20 4C11.163 4 4 11.163 4 20a2 2 0 1 1-4 0C0 8.954 8.954 0 20 0c3.9 0 7.626 1.123 10.8 3.163V2a2 2 0 1 1 4 0v6c0 .552-.224 1.052-.586 1.414A1.994 1.994 0 0 1 32.8 10h-6a2 2 0 1 1 0-4h.954zM11.896 33.8A15.938 15.938 0 0 0 20 36c8.837 0 16-7.163 16-16a2 2 0 1 1 4 0c0 11.046-8.954 20-20 20a19.93 19.93 0 0 1-10.8-3.163v.963a2 2 0 1 1-4 0v-6a2 2 0 0 1 2-2h6a2 2 0 1 1 0 4h-1.304z"/>
    </g>
</svg>
