<svg xmlns="http://www.w3.org/2000/svg" width="40" height="40" viewBox="0 0 40 40">
    <g fill="none" fill-rule="evenodd">
        <path d="M-4-4h48v48H-4z" opacity=".2"/>
        <path fill="#FAFBFC" d="M10.749 32l8.605-11.062L10 20.704 28.22 8l-7.075 9.606L30 18.837 10.749 32zM20.459.004a2 2 0 1 1-.095 3.999 15.932 15.932 0 0 0-9.311 2.733 15.963 15.963 0 0 0-6.995 11.892c-.162 1.87.004 3.753.496 5.566.23.848.532 1.679.903 2.483a2 2 0 1 1-3.633 1.674 19.876 19.876 0 0 1-1.13-3.109 19.966 19.966 0 0 1-.62-6.96A19.962 19.962 0 0 1 8.815 3.42 19.932 19.932 0 0 1 20.46.004zm-.918 39.993a2 2 0 0 1 .095-4 15.932 15.932 0 0 0 9.311-2.733 15.963 15.963 0 0 0 6.995-11.892 15.966 15.966 0 0 0-.496-5.565 15.876 15.876 0 0 0-.903-2.484 2 2 0 0 1 3.633-1.674 19.876 19.876 0 0 1 1.13 3.11c.616 2.267.823 4.623.62 6.959a19.962 19.962 0 0 1-8.742 14.863 19.932 19.932 0 0 1-11.643 3.416z"/>
    </g>
</svg>
