<svg xmlns="http://www.w3.org/2000/svg" width="48" height="36" viewBox="0 0 48 36">
    <g fill="none" fill-rule="evenodd">
        <path d="M0-6h48v48H0z" opacity=".2"/>
        <path fill="#FAFBFC" fill-rule="nonzero" d="M40.97 34.97a2 2 0 1 1-2.828-2.828A19.927 19.927 0 0 0 44 18c0-5.378-2.13-10.414-5.858-14.142a2 2 0 1 1 2.829-2.829A23.927 23.927 0 0 1 48 18c0 6.45-2.559 12.5-7.03 16.97zm-5.656-5.656a2 2 0 1 1-2.829-2.829A11.954 11.954 0 0 0 36 18c0-3.228-1.278-6.248-3.515-8.485a2 2 0 1 1 2.829-2.829A15.953 15.953 0 0 1 40 18c0 4.3-1.706 8.334-4.686 11.314zm-5.657-5.657a2 2 0 1 1-2.829-2.829A3.98 3.98 0 0 0 28 18a3.98 3.98 0 0 0-1.172-2.828 2 2 0 1 1 2.829-2.829A7.98 7.98 0 0 1 32 18a7.98 7.98 0 0 1-2.343 5.657zM7.029 34.97A23.927 23.927 0 0 1 0 18C0 11.55 2.559 5.5 7.03 1.03a2 2 0 0 1 2.828 2.828A19.927 19.927 0 0 0 4 18c0 5.378 2.13 10.414 5.858 14.142a2 2 0 1 1-2.829 2.829zm5.657-5.657A15.953 15.953 0 0 1 8 18c0-4.3 1.706-8.334 4.686-11.314a2 2 0 1 1 2.829 2.829A11.954 11.954 0 0 0 12 18c0 3.228 1.278 6.248 3.515 8.485a2 2 0 1 1-2.829 2.829zm5.657-5.657A7.98 7.98 0 0 1 16 18a7.98 7.98 0 0 1 2.343-5.657 2 2 0 1 1 2.829 2.829A3.98 3.98 0 0 0 20 18a3.98 3.98 0 0 0 1.172 2.828 2 2 0 1 1-2.829 2.829z"/>
    </g>
</svg>
