<?xml version="1.0" encoding="UTF-8"?>
<svg width="23px" height="23px" viewBox="0 0 23 23" version="1.1" xmlns="http://www.w3.org/2000/svg" xmlns:xlink="http://www.w3.org/1999/xlink">
    <!-- Generator: Sketch 52.6 (67491) - http://www.bohemiancoding.com/sketch -->
    <title>link-ic</title>
    <desc>Created with Sketch.</desc>
    <g id="Page-1" stroke="none" stroke-width="1" fill="none" fill-rule="evenodd">
        <g id="link-ic" fill="#296FD0" fill-rule="nonzero">
            <path d="M19.5857864,2 L13,2 C12.4477153,2 12,1.55228475 12,1 C12,0.44771525 12.4477153,4.54747351e-13 13,4.54747351e-13 L22,4.54747351e-13 C22.5522847,4.54747351e-13 23,0.44771525 23,1 L23,10 C23,10.5522847 22.5522847,11 22,11 C21.4477153,11 21,10.5522847 21,10 L21,3.41421356 L10.7071068,13.7071068 C10.3165825,14.0976311 9.68341751,14.0976311 9.29289322,13.7071068 C8.90236893,13.3165825 8.90236893,12.6834175 9.29289322,12.2928932 L19.5857864,2 Z M8,3 C8.55228475,3 9,3.44771525 9,4 C9,4.55228475 8.55228475,5 8,5 L3,5 C2.44771525,5 2,5.44771525 2,6 L2,20 C2,20.5522847 2.44771525,21 3,21 L17,21 C17.5522847,21 18,20.5522847 18,20 L18,15 C18,14.4477153 18.4477153,14 19,14 C19.5522847,14 20,14.4477153 20,15 L20,20 C20,21.6568542 18.6568542,23 17,23 L3,23 C1.34314575,23 -3.24185123e-14,21.6568542 -3.55271368e-14,20 L-3.55271368e-14,6 C-3.57491814e-14,4.34314575 1.34314575,3 3,3 L8,3 Z" id="Combined-Shape"></path>
        </g>
    </g>
</svg>