<svg xmlns="http://www.w3.org/2000/svg" width="40" height="44" viewBox="0 0 40 44">
    <g fill="none" fill-rule="evenodd">
        <path d="M-4 0h48v48H-4z" opacity=".2"/>
        <path fill="#FAFBFC" fill-rule="nonzero" d="M8.888 7.367a2 2 0 1 1 2.219 3.328 15.864 15.864 0 0 0-2.423 1.988 16.026 16.026 0 0 0-3.466 5.194 15.94 15.94 0 0 0 0 12.246c3.382 8.164 12.741 12.041 20.905 8.66 8.164-3.382 12.04-12.742 8.66-20.906a15.945 15.945 0 0 0-5.89-7.18 2 2 0 1 1 2.219-3.328 19.945 19.945 0 0 1 7.366 8.978c4.227 10.205-.62 21.904-10.824 26.131-10.205 4.227-21.905-.62-26.132-10.824a19.94 19.94 0 0 1 0-15.307 20.026 20.026 0 0 1 4.332-6.492 19.864 19.864 0 0 1 3.034-2.488zM20 0a2 2 0 0 1 2 2v18a2 2 0 1 1-4 0V2a2 2 0 0 1 2-2z"/>
    </g>
</svg>
