<svg xmlns="http://www.w3.org/2000/svg" width="34" height="39" viewBox="0 0 34 39">
    <g fill="none" fill-rule="evenodd" opacity=".3">
        <path fill="#5E6066" d="M33.992 8.313c0-1.525-.915-2.555-2.454-2.75-.292-.04-.592-.073-.883-.105-.867-.106-1.685-.195-2.47-.365-3.07-.673-6.043-2.06-9.332-4.363C18.31.349 17.711 0 17.006 0c-.696 0-1.296.349-1.838.722-4.399 3.025-8.36 4.566-12.458 4.825C.936 5.661.004 6.667.004 8.46v3.227c-.008 2.977-.008 6.05.025 9.083.008 1.127.154 2.295.421 3.48.632 2.773 2.074 5.27 4.406 7.63 2.908 2.944 6.553 5.215 11.138 6.943.308.113.64.178.988.178.421 0 .842-.09 1.215-.251.251-.114.51-.22.761-.325l.025-.008c1.11-.478 2.251-.973 3.37-1.557 3.725-1.97 6.544-4.298 8.618-7.12 1.863-2.53 2.827-5.077 2.94-7.786.024-.519.04-1.07.049-1.695l.04-5.012v-2.035c0-1.638 0-3.268-.008-4.898zm-1.944 6.836v.057l-.04 5.028c-.009.6-.025 1.127-.041 1.63-.097 2.311-.94 4.51-2.568 6.715-1.895 2.579-4.503 4.72-7.962 6.553-1.045.551-2.155 1.03-3.232 1.492l-.024.008-.77.332a1.11 1.11 0 0 1-.437.09.908.908 0 0 1-.308-.049c-4.317-1.63-7.735-3.755-10.44-6.488-2.058-2.1-3.33-4.29-3.88-6.699a14.08 14.08 0 0 1-.373-3.065c-.033-3.017-.025-6.09-.025-9.059V8.467c0-.373.057-.65.17-.763.106-.113.357-.186.721-.21 4.464-.293 8.732-1.93 13.43-5.175.365-.251.608-.373.737-.373.13 0 .373.13.737.382 3.508 2.449 6.7 3.933 10.028 4.663.875.194 1.742.292 2.665.397.292.032.575.065.867.105.567.073.753.276.753.82v4.89l-.008 1.946z"/>
        <g stroke="#5E6066" stroke-linecap="round" stroke-width="2">
            <path stroke-linejoin="round" d="M10.442 27l6.488-16 6.488 16"/>
            <path d="M11.474 18h10.912M10 22h13.86"/>
        </g>
    </g>
</svg>
