<svg xmlns="http://www.w3.org/2000/svg" width="28" height="28" viewBox="0 0 28 28">
    <path fill="#5E6066" fill-rule="evenodd" d="M14 28C6.268 28 0 21.732 0 14S6.268 0 14 0s14 6.268 14 14-6.268 14-14 14zM8.742 11.01h3.174c.03-.947.674-1.572 1.611-1.572.918 0 1.563.546 1.563 1.337 0 .86-.342 1.27-1.67 2.051-1.357.781-1.846 1.66-1.66 3.33l.03.39h3.046v-.458c0-.918.371-1.358 1.709-2.129 1.435-.83 2.11-1.826 2.11-3.271 0-2.344-1.934-3.907-4.903-3.907-3.125 0-4.98 1.67-5.01 4.229zM13.4 21.342c1.26 0 1.993-.654 1.993-1.778 0-1.132-.733-1.787-1.993-1.787-1.26 0-2.002.655-2.002 1.787 0 1.123.743 1.778 2.002 1.778z" />
</svg>
