<?xml version="1.0" encoding="UTF-8"?>
<svg viewBox="0 0 56 56" version="1.1" xmlns="http://www.w3.org/2000/svg" xmlns:xlink="http://www.w3.org/1999/xlink">
    <g id="Page-1" stroke="none" stroke-width="1" fill-rule="evenodd">
        <g id="loading-progress-steps" transform="translate(-151.000000, -471.000000)">
            <g id="Group" transform="translate(56.000000, 288.000000)">
                <g id="spinner-copy" transform="translate(95.000000, 183.000000)">
                    <path d="M28,14 C35.7319865,14 42,20.2680135 42,28 C42,35.7319865 35.7319865,42 28,42 C20.2680135,42 14,35.7319865 14,28 C14,20.2680135 20.2680135,14 28,14 Z M27.4003906,31.7773438 C26.140625,31.7773438 25.3984375,32.4316406 25.3984375,33.5644531 C25.3984375,34.6875 26.140625,35.3417969 27.4003906,35.3417969 C28.6601562,35.3417969 29.3925781,34.6875 29.3925781,33.5644531 C29.3925781,32.4316406 28.6601562,31.7773438 27.4003906,31.7773438 Z M27.7519531,20.78125 C24.6269531,20.78125 22.7714844,22.4511719 22.7421875,25.0097656 L25.9160156,25.0097656 C25.9453125,24.0625 26.5898438,23.4375 27.5273438,23.4375 C28.4453125,23.4375 29.0898438,23.984375 29.0898438,24.7753906 C29.0898438,25.6347656 28.7480469,26.0449219 27.4199219,26.8261719 C26.0625,27.6074219 25.5742188,28.4863281 25.7597656,30.15625 L25.7890625,30.546875 L28.8359375,30.546875 L28.8359375,30.0878906 C28.8359375,29.1699219 29.2070312,28.7304688 30.5449219,27.9589844 C31.9804688,27.1289062 32.6542969,26.1328125 32.6542969,24.6875 C32.6542969,22.34375 30.7207031,20.78125 27.7519531,20.78125 Z" id="Combined-Shape"></path>
                </g>
            </g>
        </g>
    </g>
</svg>
