<?xml version="1.0" encoding="UTF-8"?>
<svg viewBox="0 0 28 28" version="1.1" xmlns="http://www.w3.org/2000/svg" xmlns:xlink="http://www.w3.org/1999/xlink">
    <g stroke-width="1" fill-rule="evenodd">
        <path d="M14,0 C21.7319865,0 28,6.2680135 28,14 C28,21.7319865 21.7319865,28 14,28 C6.2680135,28 0,21.7319865 0,14 C0,6.2680135 6.2680135,0 14,0 Z M13.4003906,17.7773438 C12.140625,17.7773438 11.3984375,18.4316406 11.3984375,19.5644531 C11.3984375,20.6875 12.140625,21.3417969 13.4003906,21.3417969 C14.6601562,21.3417969 15.3925781,20.6875 15.3925781,19.5644531 C15.3925781,18.4316406 14.6601562,17.7773438 13.4003906,17.7773438 Z M13.7519531,6.78125 C10.6269531,6.78125 8.77148438,8.45117188 8.7421875,11.0097656 L11.9160156,11.0097656 C11.9453125,10.0625 12.5898438,9.4375 13.5273438,9.4375 C14.4453125,9.4375 15.0898438,9.984375 15.0898438,10.7753906 C15.0898438,11.6347656 14.7480469,12.0449219 13.4199219,12.8261719 C12.0625,13.6074219 11.5742188,14.4863281 11.7597656,16.15625 L11.7890625,16.546875 L14.8359375,16.546875 L14.8359375,16.0878906 C14.8359375,15.1699219 15.2070312,14.7304688 16.5449219,13.9589844 C17.9804688,13.1289062 18.6542969,12.1328125 18.6542969,10.6875 C18.6542969,8.34375 16.7207031,6.78125 13.7519531,6.78125 Z"></path>
    </g>
</svg>
