<svg xmlns="http://www.w3.org/2000/svg" width="20" height="32" viewBox="0 0 20 32">
    <path fill="#5E6066" fill-opacity=".5" fill-rule="nonzero" d="M11.709 21.57v-1.224c0-2.127.795-3.223 3.61-4.877 2.921-1.74 4.554-4.04 4.554-7.326C19.873 3.395 15.941 0 10.055 0 3.674 0 .172 3.695 0 8.787h5.049C5.22 6.166 7.004 4.49 9.775 4.49c2.707 0 4.512 1.612 4.512 3.846 0 2.127-.902 3.266-3.566 4.877-2.965 1.74-4.211 3.674-4.018 6.896l.022 1.461h4.984zM9.453 31.818c2.192 0 3.567-1.353 3.567-3.416 0-2.084-1.375-3.437-3.567-3.437-2.148 0-3.566 1.353-3.566 3.437 0 2.063 1.418 3.416 3.566 3.416z"/>
</svg>
