<?xml version="1.0" encoding="UTF-8"?>
<svg width="90px" height="78px" viewBox="0 0 90 78" version="1.1" xmlns="http://www.w3.org/2000/svg" xmlns:xlink="http://www.w3.org/1999/xlink">
    <g id="Page-1" stroke="none" stroke-width="1" fill="none" fill-rule="evenodd">
        <g id="wallet_screen_receive" transform="translate(-2195.000000, -411.000000)" fill="#FAFBFC">
            <g id="content" transform="translate(0.000000, 168.000000)">
                <g id="tabs">
                    <g id="receive-tab-content" transform="translate(2169.000000, 100.000000)">
                        <g id="receive-white-ic" transform="translate(26.000000, 143.000000)">
                            <path d="M0.0404909258,39.5945821 C0.0114799753,38.9169734 0.255113448,38.2301679 0.768464404,37.716817 L4.15198093,34.3333004 L5.13447011,38 L87.1632237,38 C87.2655151,37.2360855 87.2800033,36.4526033 87.1987889,35.663255 L89.2523509,37.716817 C89.7966467,38.2611128 90.0398267,38.9916608 89.9783154,39.701982 C89.9926002,39.7983159 90,39.8969213 90,39.9972916 L90,76.0027084 C90,77.1057821 89.1092384,78 87.9940354,78 L2.00596461,78 C0.898100948,78 0,77.1084602 0,76.0027084 L0,39.9972916 C0,39.8593418 0.013931397,39.7246585 0.0404909258,39.5945821 Z M5,43.9981537 C5,43.4468886 5.44990703,43 5.99701481,43 L84.0029852,43 C84.5536213,43 85,43.4473652 85,43.9981537 L85,72.0018463 C85,72.5531114 84.550093,73 84.0029852,73 L5.99701481,73 C5.44637873,73 5,72.5526348 5,72.0018463 L5,43.9981537 Z" id="Combined-Shape"></path>
                            <path d="M81.46829,33 L73.8192707,4.45347154 C72.963177,1.25848612 69.6478376,-0.649495116 66.4089409,0.203411028 L10.5110324,15.1812105 C7.27587413,16.0480685 5.34463074,19.3618674 6.2044629,22.5708047 L8.99895736,33 L14.3659393,33 L12.8269144,27.2562806 C13.1831881,27.2355854 13.5423126,27.1692655 13.8939602,27.0750418 C17.1713162,26.1968769 19.1232146,22.8476363 18.2521672,19.5968433 C18.1512304,19.220142 18.0259002,18.8649304 17.8621106,18.5349776 L61.3820223,6.87385244 C61.3928623,7.36441677 61.4496384,7.85762616 61.5842208,8.35989461 C62.4552682,11.6106876 65.8202821,13.5352658 69.097638,12.6571009 C69.6040106,12.5214188 70.0813637,12.333698 70.511893,12.0837556 L70.5259589,12.0799867 L75.359711,30.1197952 C74.865629,30.1325553 74.3546303,30.194709 73.8482577,30.3303911 C72.2828566,30.749839 71.0198473,31.7330415 70.2224105,32.9999981 L81.46829,33 Z M56.4863198,33 C57.4103407,30.5273654 57.6013504,27.7601659 56.8686371,25.0256424 C54.9844831,17.9938841 47.7025219,13.8290562 40.6133055,15.728606 C33.5240891,17.6281558 29.3001396,24.8759832 31.1842936,31.9077415 C31.2840458,32.2800216 31.3989276,32.644266 31.5281095,33 L37.8267954,33 C37.275542,32.2570496 36.8528145,31.4014549 36.5996672,30.4566965 C35.5117926,26.3966932 37.9594113,22.1968519 42.0525898,21.100088 C46.1457683,20.0033241 50.3653889,22.4166841 51.4532635,26.4766874 C52.0785166,28.8101638 51.535874,31.1898335 50.1841565,33 L56.4863198,33 Z M21.7089254,33 C21.8987207,31.575956 22.9282647,30.3366763 24.4151933,29.9382549 C26.3703542,29.4143712 28.3963067,30.561276 28.9196828,32.5145421 C28.9630291,32.6763126 28.9947806,32.8384205 29.0154419,33 L21.7089254,33 Z M61.7461066,19.9354669 C59.7768798,20.4631196 58.6098718,22.4655756 59.1332479,24.4188418 C59.656624,26.372108 61.6685106,27.5227817 63.6377374,26.995129 C65.6069641,26.4674763 66.7739722,24.4650203 66.2505961,22.5117541 C65.72722,20.5584879 63.7153334,19.4078142 61.7461066,19.9354669 Z" id="Combined-Shape"></path>
                        </g>
                    </g>
                </g>
            </g>
        </g>
    </g>
</svg>
