<svg xmlns="http://www.w3.org/2000/svg" width="88" height="88" viewBox="0 0 88 88">
    <g fill="none" fill-rule="evenodd">
        <rect width="88" height="88" fill="#2DC06C" opacity=".8" rx="20"/>
        <path fill="#FAFBFC" stroke="#FAFBFC" d="M43.274 48.366a.626.626 0 0 1-.087-.078l-4.596-4.587a1.163 1.163 0 1 1 1.645-1.645l2.612 2.613V26.16c0-.638.522-1.161 1.161-1.161.638 0 1.16.523 1.16 1.161V44.67l2.661-2.633a1.163 1.163 0 1 1 1.645 1.645l-4.615 4.617c-.019.02-.048.048-.077.068-.02.01-.03.02-.048.029-.02.02-.03.029-.049.039-.01.01-.029.019-.048.029-.02.01-.03.019-.049.029l-.058.029c-.019 0-.029.01-.048.019-.02.01-.039.01-.058.02-.02.009-.039.009-.058.019-.02 0-.039.01-.058.01-.02 0-.039.01-.058.01-.02 0-.039.009-.058.009-.01 0-.03.01-.049.01-.038.01-.077.01-.116.01-.038 0-.077-.01-.116-.01-.02 0-.029-.01-.048-.01-.02 0-.039-.01-.058-.01-.02 0-.039-.01-.058-.01-.02 0-.039 0-.058-.01-.02-.009-.039-.009-.058-.019-.02-.01-.039-.01-.058-.019-.02 0-.03-.01-.049-.02l-.058-.028c-.02-.01-.029-.02-.048-.03-.01-.01-.03-.019-.049-.028-.019-.02-.029-.03-.048-.04-.02-.009-.039-.019-.048-.028zm-15.01 6.19c0-.666.546-1.206 1.214-1.206h29.044c.671 0 1.215.535 1.215 1.206 0 .666-.546 1.207-1.215 1.207H29.478c-.67 0-1.214-.536-1.214-1.207zm-4.835-13.285v16.924a2.393 2.393 0 0 0 2.39 2.393h36.37c1.31 0 2.39-1.071 2.39-2.393V41.271a1.19 1.19 0 0 1 1.197-1.191h.028c.659 0 1.196.537 1.196 1.2v16.91a4.802 4.802 0 0 1-4.793 4.804L25.791 63c-2.636 0-4.792-2.15-4.791-4.804l.007-16.916c0-.656.537-1.2 1.197-1.2h.028c.66 0 1.197.533 1.197 1.19z"/>
    </g>
</svg>
