<svg width="22" height="18" xmlns="http://www.w3.org/2000/svg">
    <path d="M11.784.23c.246.14.45.343.59.589l8.455 14.815A1.582 1.582 0 0 1 19.456 18H2.544a1.582 1.582 0 0 1-1.374-2.366L9.626.82a1.582 1.582 0 0 1 2.158-.59zM11 13.512a1.27 1.27 0 0 0-1.256 1.282A1.27 1.27 0 0 0 11 16.077a1.27 1.27 0 0 0 1.257-1.282A1.27 1.27 0 0 0 11 13.513zm.036-9.615h-.072a1.22 1.22 0 0 0-1.22 1.22v5.252c0 .674.546 1.22 1.22 1.22h.072a1.22 1.22 0 0 0 1.22-1.22V5.118a1.22 1.22 0 0 0-1.22-1.22z" fill="#EA4C5B" fill-rule="evenodd"/>
</svg>
