<svg xmlns="http://www.w3.org/2000/svg" width="28" height="20" viewBox="0 0 28 20">
    <g fill="none" fill-rule="evenodd">
        <g fill="#5E6066">
            <g>
                <g>
                    <g>
                        <path d="M14 0C7.636 0 2.164 3.945 0 9.545c2.164 5.6 7.636 9.546 14 9.546s11.836-3.946 14-9.546C25.836 3.945 20.364 0 14 0zm0 15.91c-3.564 0-6.364-2.8-6.364-6.365 0-3.563 2.8-6.363 6.364-6.363s6.364 2.8 6.364 6.363c0 3.564-2.8 6.364-6.364 6.364zm0-10.183c-2.164 0-3.818 1.655-3.818 3.818 0 2.164 1.654 3.819 3.818 3.819s3.818-1.655 3.818-3.819c0-2.163-1.654-3.818-3.818-3.818z" transform="translate(-1636 -165) translate(60 60) translate(0 64) translate(1576 41)"/>
                    </g>
                </g>
            </g>
        </g>
    </g>
</svg>
