<svg width="28px" height="20px" viewBox="0 0 28 20" version="1.1" xmlns="http://www.w3.org/2000/svg" xmlns:xlink="http://www.w3.org/1999/xlink">
  <g id="Page-1" stroke="none" stroke-width="1" fill="none" fill-rule="evenodd">
    <g id="wallet-public-key" transform="translate(-1636.000000, -164.000000)" fill="#5E6066">
      <g id="amount" transform="translate(60.000000, 60.000000)">
        <g id="input" transform="translate(0.000000, 64.000000)">
          <g id="reveal" transform="translate(1562.000000, 22.000000)">
            <g transform="translate(14.000000, 18.000000)" id="Shape">
              <path d="M14,0 C7.63636364,0 2.16363636,4.13333333 0,10 C2.16363636,15.8666667 7.63636364,20 14,20 C20.3636364,20 25.8363636,15.8666667 28,10 C25.8363636,4.13333333 20.3636364,0 14,0 L14,0 Z M14,16.6666667 C10.4363636,16.6666667 7.63636364,13.7333333 7.63636364,10 C7.63636364,6.26666667 10.4363636,3.33333333 14,3.33333333 C17.5636364,3.33333333 20.3636364,6.26666667 20.3636364,10 C20.3636364,13.7333333 17.5636364,16.6666667 14,16.6666667 L14,16.6666667 Z M14,6 C11.8363636,6 10.1818182,7.73333333 10.1818182,10 C10.1818182,12.2666667 11.8363636,14 14,14 C16.1636364,14 17.8181818,12.2666667 17.8181818,10 C17.8181818,7.73333333 16.1636364,6 14,6 L14,6 Z"></path>
            </g>
          </g>
        </g>
      </g>
    </g>
  </g>
</svg>
