<svg xmlns="http://www.w3.org/2000/svg" width="16" height="24" viewBox="0 0 16 24">
    <path fill="#5E6066" fill-rule="nonzero" d="M15 0a1 1 0 0 1 .075 1.997L15 2v4.5a6 6 0 0 1-2.198 4.642l-.202.158-.934.7.934.7a6 6 0 0 1 2.383 4.35l.014.273.003.177V22a1 1 0 0 1 .075 1.997L15 24H1a1 1 0 0 1-.075-1.997L1 22v-4.5a6 6 0 0 1 2.198-4.642L3.4 12.7l.934-.7-.934-.7a6 6 0 0 1-2.383-4.35l-.014-.273L1 6.5V2A1 1 0 0 1 .925.003L1 0h14zm-2 2H3v4.5a4 4 0 0 0 1.314 2.964l.172.147.114.089 2 1.5a1 1 0 0 1 .1 1.515l-.1.085-2 1.5a4 4 0 0 0-1.593 2.965L3 17.5V22h10v-4.5a4 4 0 0 0-1.314-2.964l-.172-.147-.114-.089-2-1.5a1 1 0 0 1-.1-1.515l.1-.085 2-1.5a4 4 0 0 0 1.593-2.965L13 6.5V2zM6.586 15.414a2 2 0 0 1 2.828 0l1 1A2 2 0 0 1 11 17.828V20H5v-2.172a2 2 0 0 1 .586-1.414zM11 6v.172a2 2 0 0 1-.586 1.414l-1 1a2 2 0 0 1-2.828 0l-1-1A2 2 0 0 1 5 6.172V6h6z"/>
</svg>
