<?xml version="1.0" encoding="UTF-8"?>
<svg width="16px" height="24px" viewBox="0 0 16 24" version="1.1" xmlns="http://www.w3.org/2000/svg" xmlns:xlink="http://www.w3.org/1999/xlink">
    <g id="Page-1" stroke="none" stroke-width="1" fill="none" fill-rule="evenodd">
        <g id="sandclock" fill="#5E6066" fill-rule="nonzero">
            <path d="M14.5,0.75 C15.3727577,0.75 15.9768572,1.62171577 15.6704115,2.4389043 L15.6704115,2.4389043 L12.084,12 L15.6704115,21.5610957 C15.9622645,22.3393705 15.4282263,23.1671031 14.6227828,23.24417 L14.6227828,23.24417 L14.5,23.25 L2,23.25 C1.12724227,23.25 0.52314283,22.3782842 0.829588528,21.5610957 L0.829588528,21.5610957 L4.415,12 L0.829588528,2.4389043 C0.537735482,1.66062951 1.07177372,0.832896905 1.87721724,0.755830024 L1.87721724,0.755830024 L2,0.75 Z M12.696,3.25 L3.803,3.25 L6.92041147,11.5610957 C7.00884317,11.7969136 7.02358179,12.0527761 6.96462732,12.2952755 L6.96462732,12.2952755 L6.92041147,12.4389043 L3.803,20.75 L12.696,20.75 L9.57958853,12.4389043 C9.49115683,12.2030864 9.47641821,11.9472239 9.53537268,11.7047245 L9.53537268,11.7047245 L9.57958853,11.5610957 L12.696,3.25 Z M9.01625,14.5 L10.89125,19.5 L5.6075,19.5 L7.4825,14.5 L9.01625,14.5 Z M10.42125,5.75 L9.01625,9.5 L7.4825,9.5 L6.07625,5.75 L10.42125,5.75 Z" id="Combined-Shape"></path>
        </g>
    </g>
</svg>
