<?xml version="1.0" encoding="UTF-8"?>
<svg width="90px" height="96px" viewBox="0 0 90 96" version="1.1" xmlns="http://www.w3.org/2000/svg" xmlns:xlink="http://www.w3.org/1999/xlink">
    <g id="Page-1" stroke="none" stroke-width="1" fill="none" fill-rule="evenodd">
        <g id="wallet_screen_send" transform="translate(-1555.000000, -402.000000)" fill="#FAFBFC">
            <g id="content" transform="translate(0.000000, 168.000000)">
                <g id="tabs">
                    <g id="send-tab-content" transform="translate(1554.000000, 100.000000)">
                        <g id="send-white-ic" transform="translate(1.000000, 134.000000)">
                            <path d="M69.854379,63.2502519 C67.2332016,63.2502519 65.1175369,65.3758818 65.1175369,68.0094054 C65.1175369,70.6429291 67.2332016,72.768559 69.854379,72.768559 C72.4755565,72.768559 74.5912211,70.6429291 74.5912211,68.0094054 C74.5912211,65.3758818 72.4755565,63.2502519 69.854379,63.2502519 L69.854379,63.2502519 L69.854379,63.2502519 Z M20.1643437,63.2502519 C17.5431662,63.2502519 15.4275016,65.3758818 15.4275016,68.0094054 C15.4275016,70.6429291 17.5431662,72.768559 20.1643437,72.768559 C22.7855211,72.768559 24.9011858,70.6429291 24.9011858,68.0094054 C24.9011858,65.3758818 22.7667984,63.2502519 20.1643437,63.2502519 L20.1643437,63.2502519 L20.1643437,63.2502519 Z M90,47.8441384 L90,88.1558616 C90,92.4823648 86.4988558,96 82.1926357,96 L7.80736426,96 C3.50114416,96 0,92.4823648 0,88.1558616 L0,47.8441384 C0,43.5176352 3.50114416,40 7.80736426,40 L82.2113584,40 C86.5175785,40.0188109 90,43.5364461 90,47.8441384 L90,47.8441384 L90,47.8441384 Z M83.3534429,56.3278468 C82.7355939,56.4971448 82.0802996,56.5723883 81.4062825,56.5723883 C77.0438943,56.5723883 73.5053048,53.0171313 73.5053048,48.6341955 C73.5053048,47.9570037 73.5989182,47.3174337 73.7486998,46.6966745 L15.8206782,46.6966745 C15.9142917,47.1669466 15.9517371,47.6560296 15.9517371,48.1639234 C15.9517371,52.5468593 12.4131475,56.1021162 8.05075931,56.1021162 C7.58269191,56.1021162 7.11462451,56.0644945 6.6652798,55.97044 L6.6652798,80.0483708 C7.11462451,79.9731273 7.58269191,79.9166947 8.05075931,79.9166947 C12.4131475,79.9166947 15.9517371,83.4719516 15.9517371,87.8548875 C15.9517371,88.3627813 15.895569,88.8330534 15.8206782,89.3221364 L73.5801955,89.3221364 C73.5427502,89.0023514 73.5240275,88.6637555 73.5240275,88.3439704 C73.5240275,83.9610346 77.062617,80.4057776 81.4250052,80.4057776 C82.0990223,80.4057776 82.7543166,80.499832 83.3721656,80.6503191 L83.3721656,56.3278468 L83.3534429,56.3278468 L83.3534429,56.3278468 L83.3534429,56.3278468 Z M62.1031829,68.0094054 C62.1031829,77.4900907 54.4456002,85.183742 45.0093613,85.183742 C35.5731225,85.183742 27.9155398,77.4900907 27.9155398,68.0094054 C27.9155398,58.5287202 35.5731225,50.8350689 45.0093613,50.8350689 C54.4456002,50.8350689 62.1031829,58.5287202 62.1031829,68.0094054 L62.1031829,68.0094054 L62.1031829,68.0094054 Z M47.7421175,11.2072619 L47.7421175,31.5209513 C47.7421175,33.1778161 46.3956004,34.5209704 44.7421175,34.5209704 C43.0852633,34.5209704 41.7421175,33.1736519 41.7421175,31.5209513 L41.7421175,11.2072619 L35.5507101,17.3986694 C34.3785956,18.5707839 32.4762777,18.568839 31.3070887,17.3996501 C30.1355158,16.2280772 30.1354702,14.3286279 31.3080694,13.1560287 L42.6198165,1.84428162 C42.6199799,1.84411816 42.6201434,1.84395472 42.6203069,1.8437913 C42.6204703,1.84362784 42.6206337,1.84346436 42.6207972,1.8433009 C43.2064204,1.25767775 43.9739112,0.964773163 44.7415809,0.964726706 C45.511395,0.966086311 46.2790065,1.25886947 46.8634379,1.8433009 C46.8636013,1.84346436 46.8637648,1.84362784 46.8639282,1.84379133 C46.8640917,1.84395472 46.8642551,1.84411816 46.8644186,1.84428162 L58.1761657,13.1560287 C59.3482802,14.3281432 59.3463353,16.2304611 58.1771464,17.3996501 C57.0055735,18.571223 55.1061242,18.5712686 53.933525,17.3986694 L47.7421175,11.2072619 Z M54.8949449,68.0094054 C54.8949449,62.5354384 50.4576659,58.077259 45.0093613,58.077259 C39.5610568,58.077259 35.1237778,62.5354384 35.1237778,68.0094054 C35.1237778,73.4833725 39.5610568,77.9415519 45.0093613,77.9415519 C50.4576659,77.9415519 54.8949449,73.4833725 54.8949449,68.0094054 Z" id="Combined-Shape"></path>
                        </g>
                    </g>
                </g>
            </g>
        </g>
    </g>
</svg>
