<svg xmlns="http://www.w3.org/2000/svg" width="2560" height="1720" viewBox="0 0 2560 1720">
    <defs>
        <linearGradient id="a" x1="50%" x2="50%" y1="100%" y2="0%">
            <stop offset="0%" stop-color="#121326"/>
            <stop offset="50.183%" stop-color="#121326" stop-opacity=".915"/>
            <stop offset="86.48%" stop-color="#121326" stop-opacity=".307"/>
            <stop offset="100%" stop-color="#121326" stop-opacity="0"/>
        </linearGradient>
    </defs>
    <g fill="none" fill-rule="evenodd" opacity=".1">
        <path fill="#F69AB2" d="M2449.984 858.354l.027-1.074 7.59.156-.034 1.166-7.583-.248zm-.195-9.423l7.57-.556.077 1.19-7.579.4-.068-1.034zm-.408 17.766l.126-1.051 7.542.803-.132 1.165-7.536-.917zm-.563-26.09l7.491-1.203.176 1.16-7.506 1.105-.16-1.061zm-.779 34.362l.219-1.047 7.443 1.45-.235 1.147-7.427-1.55zm-.92-42.552l7.35-1.858.278 1.114-7.371 1.805-.257-1.06zm-1.153 50.646l.308-1.014 7.286 2.11-.336 1.123-7.258-2.22zm-1.285-58.643l7.16-2.515.378 1.089-7.177 2.46-.361-1.034zm-1.516 66.54l.396-.994 7.067 2.757-.429 1.094-7.034-2.857zm-1.612-74.269l6.893-3.17.475 1.053-6.927 3.088-.441-.971zm-1.9 81.908l.507-1.006 6.777 3.42-.51 1.008-6.774-3.422zm-1.912-89.352l6.579-3.771.576 1.012-6.631 3.69-.524-.931zm-2.237 96.587l.574-.926 6.45 4.003-.615.985-6.409-4.062zm-2.238-103.657l6.24-4.328.652.95-6.275 4.27-.617-.892zm-2.554 110.514l.657-.857 6.064 4.56-.698.926-6.023-4.629zm-2.524-117.155l5.821-4.863.732.888-5.864 4.813-.689-.838zm-2.855 123.565l.725-.798 5.638 5.074-.78.86-5.583-5.136zm-2.795-129.738l5.368-5.358.822.824-5.435 5.296-.755-.762zm-3.13 135.642l.78-.723 5.19 5.543-.864.788-5.105-5.608zm-3.04-141.29l4.87-5.817.876.744-4.92 5.776-.826-.704zm-3.385 146.648l.841-.654 4.671 5.976-.93.718-4.582-6.04zm-3.265-151.721l4.323-6.231.965.673-4.421 6.174-.867-.616zm-3.611 156.478l.904-.575 4.115 6.374-.972.629-4.047-6.428zm-3.47-160.944l3.75-6.593 1.01.57-3.811 6.57-.95-.547zm-3.802 165.08l.959-.489 3.531 6.718-1.019.525-3.47-6.753zm-3.648-168.895l3.151-6.904 1.038.476-3.188 6.883-1-.455zm-3.946 172.356l.985-.407 2.923 7.012-1.074.436-2.834-7.041zm-3.814-175.49l2.507-7.16 1.111.392-2.612 7.127-1.006-.36zm-4.103 178.275l1.063-.334 2.264 7.244-1.077.334-2.25-7.244zm-3.903-180.695l1.852-7.36 1.138.3-1.956 7.327-1.034-.267zm-4.19 182.73l1.064-.226 1.619 7.414-1.126.243-1.557-7.432zm-4.008-184.43l1.21-7.492 1.15.191-1.303 7.479-1.057-.178zm-4.21 185.737l1.036-.11.95 7.515-1.184.142-.801-7.547zm-4.102-186.686l.554-7.564 1.167.09-.658 7.56-1.063-.086zm-4.247 187.262l1.06-.026.257 7.581-1.167.036-.15-7.59zm-3.557 7.617l.101-7.587 1.072.011v7.576h-1.173zm-.692-202.68l1.194-.013v7.592l-1.04.013-.154-7.592zm-8.348 202.173l.807-7.543 1.037.099-.655 7.555-1.189-.111zm-.662-201.616l1.16-.115.702 7.56-1.065.102-.797-7.547zm-8.252 200.332l1.42-7.461 1.063.199-1.35 7.467-1.133-.205zm-.68-198.972l1.127-.217 1.407 7.456-1.075.205-1.46-7.444zm-8.113 196.868l2.062-7.31 1.05.298-2.007 7.324-1.105-.312zm-.69-194.71l1.13-.33 2.046 7.314-1.022.296-2.155-7.28zm-7.893 191.84l2.718-7.093 1.025.388-2.655 7.11-1.088-.406zm-.651-188.902l1.077-.42 2.711 7.087-1.008.393-2.78-7.06zm-7.643 185.264l3.353-6.807.958.46-3.253 6.864-1.058-.517zm-.597-181.579l1.025-.512 3.332 6.815-.961.481-3.396-6.784zm-7.34 177.206l3.961-6.474.92.549-3.873 6.533-1.009-.608zm-.55-172.801l.973-.598 3.945 6.48-.935.572-3.983-6.454zm-6.951 167.743l4.526-6.084.861.629-4.438 6.144-.95-.689zm-.51-162.653l.934-.686 4.471 6.137-.87.638-4.534-6.089zm-6.51 156.965l5.055-5.676.8.71-4.974 5.736-.88-.77zm-.48-151.215l.874-.775 5.006 5.705-.8.708-5.08-5.638zm-6 144.91l5.513-5.205.75.78-5.466 5.263-.796-.837zm-.447-138.576l.802-.85 5.495 5.232-.728.785-5.569-5.167zm-5.467 131.731l5.98-4.677.655.822-5.892 4.783-.743-.928zm-.39-124.853l.713-.9 5.931 4.721-.664.851-5.98-4.672zm-4.872 117.525l6.354-4.15.586.888-6.297 4.228-.643-.966zm-.355-110.144l.627-.968 6.344 4.177-.598.91-6.373-4.12zm-4.236 102.38l6.679-3.593.523.962-6.657 3.632-.545-1.001zm-.325-94.548l.553-1.048 6.675 3.616-.5.944-6.728-3.512zm-3.556 86.395l6.975-2.99.434 1.007-6.96 3.021-.449-1.038zm-.28-78.199l.448-1.064 6.985 2.969-.427.998-7.005-2.903zm-2.872 69.698l7.228-2.31.327 1.009-7.19 2.412-.365-1.111zm-.214-61.177l.36-1.13 7.21 2.36-.323 1.01-7.247-2.24zm-2.156 52.454l7.412-1.65.238 1.038-7.376 1.754-.274-1.142zm-.15-43.722l.249-1.116 7.412 1.662-.24 1.061-7.42-1.607zm-1.419 34.821l7.527-1.002.144 1.081-7.517 1.057-.154-1.136zm-.088-25.906l.15-1.17 7.51 1.062-.13 1.056-7.53-.948zm-.688 16.889l7.587-.303.048 1.07-7.579.4-.056-1.167zm-.03-7.86l.046-1.204 7.581.41-.044 1.039-7.583-.245zM94.616 856.822l-.027 1.074L87 857.74l.034-1.167 7.582.249zm.195 9.424l-7.57.556-.076-1.19 7.58-.4.066 1.034zm.408-17.768l-.124 1.052-7.544-.803.132-1.164 7.536.915zm.563 26.09l-7.49 1.203-.177-1.16 7.506-1.104.161 1.062zm.779-34.36l-.217 1.047-7.443-1.452.234-1.146 7.426 1.55zm.92 42.55l-7.35 1.86-.278-1.114 7.371-1.805.257 1.06zm1.153-50.644l-.308 1.013-7.286-2.11.336-1.123 7.258 2.22zm1.285 58.642l-7.16 2.515-.377-1.088 7.176-2.46.361 1.033zm1.516-66.54l-.396.994-7.066-2.756.428-1.096 7.034 2.858zm1.615 74.267l-6.895 3.172-.475-1.052 6.927-3.087.443.967zm1.9-81.907l-.507 1.007-6.778-3.42.509-1.007 6.775 3.42zm1.91 89.352l-6.58 3.773-.574-1.014 6.63-3.688.524.929zm2.239-96.586l-.575.926-6.45-4.002.615-.985 6.41 4.06zM111.334 913l-6.238 4.327-.653-.95 6.274-4.27.617.893zm2.555-110.514l-.658.855-6.064-4.559.698-.924 6.024 4.628zm2.523 117.155l-5.82 4.864-.733-.887 5.864-4.815.689.838zm2.856-123.565l-.725.798-5.638-5.074.78-.86 5.583 5.136zm2.794 129.736l-5.367 5.361-.823-.826 5.436-5.297.754.762zm3.132-135.642l-.78.725-5.19-5.545.863-.788 5.107 5.608zm3.038 141.291l-4.869 5.818-.877-.746 4.92-5.775.826.703zm3.385-146.648l-.841.654-4.671-5.977.93-.717 4.582 6.04zm3.265 151.72l-4.323 6.232-.964-.675 4.42-6.173.867.616zm3.614-156.476l-.905.573-4.115-6.373.973-.63 4.047 6.43zM141.964 941l-3.751 6.592-1.01-.57 3.812-6.57.949.548zm3.801-165.082l-.959.49-3.53-6.718 1.018-.525 3.471 6.753zm3.648 168.896l-3.151 6.905-1.038-.475 3.188-6.883 1 .453zm3.946-172.355l-.985.406-2.922-7.012 1.073-.436 2.834 7.042zm3.815 175.49l-2.508 7.158-1.111-.39 2.612-7.129 1.007.36zm4.102-178.275l-1.063.333-2.264-7.244 1.077-.333 2.25 7.244zm3.904 180.695l-1.853 7.36-1.136-.3 1.955-7.327 1.034.267zm4.19-182.73l-1.065.225-1.617-7.413 1.124-.245 1.558 7.433zm4.007 184.43l-1.21 7.49-1.15-.19 1.303-7.48 1.057.18zm4.212-185.738l-1.037.112-.949-7.516 1.184-.142.802 7.546zm4.102 186.687l-.553 7.563-1.169-.09.658-7.561 1.064.088zm4.248-187.264l-1.062.027-.257-7.58 1.169-.038.15 7.591zm3.555-7.617l-.1 7.587-1.072-.01v-7.577h1.172zm.694 202.681l-1.195.012v-7.59l1.04-.014.155 7.592zm8.348-202.173l-.808 7.542-1.037-.098.654-7.556 1.19.112zm.66 201.615l-1.158.115-.702-7.56 1.064-.102.797 7.547zm8.252-200.33l-1.42 7.462-1.062-.2 1.35-7.467 1.132.205zm.68 198.973l-1.127.216-1.406-7.458 1.073-.204 1.46 7.446zm8.113-196.87l-2.061 7.312-1.05-.299 2.007-7.324 1.104.312zm.691 194.71l-1.131.33-2.046-7.315 1.022-.294 2.155 7.279zm7.89-191.84l-2.717 7.093-1.023-.388 2.655-7.11 1.086.405zm.652 188.902l-1.077.42-2.71-7.09 1.008-.39 2.78 7.06zm7.644-185.264l-3.354 6.807-.957-.46 3.252-6.864 1.059.517zm.596 181.58l-1.025.51-3.332-6.814.961-.483 3.396 6.786zm7.341-177.207l-3.962 6.472-.92-.548 3.873-6.533 1.01.609zm.55 172.802l-.972.595-3.946-6.481.934-.57 3.984 6.456zm6.95-167.744l-4.524 6.086-.863-.63 4.439-6.144.949.688zm.51 162.653l-.933.685-4.472-6.137.872-.638 4.532 6.09zm6.51-156.965l-5.055 5.675-.8-.71 4.974-5.737.881.772zm.48 151.216l-.872.775-5.007-5.707.8-.709 5.08 5.64zm6-144.912l-5.513 5.206-.75-.78 5.466-5.264.797.838zm.447 138.576l-.801.852-5.496-5.232.728-.784 5.57 5.164zm5.467-131.73l-5.98 4.676-.653-.822 5.891-4.782.742.927zm.39 124.852l-.713.9-5.931-4.72.666-.852 5.978 4.672zm4.875-117.524l-6.355 4.151-.586-.888 6.297-4.229.644.966zm.355 110.142l-.629.969-6.343-4.174.597-.91 6.375 4.115zm4.233-102.377l-6.678 3.592-.523-.963 6.658-3.631.543 1.002zm.326 94.547l-.554 1.047-6.675-3.617.5-.944 6.729 3.514zm3.555-86.395l-6.974 2.99-.434-1.007 6.96-3.022.448 1.04zm.282 78.198l-.448 1.065-6.985-2.97.428-.998 7.005 2.903zm2.87-69.696l-7.227 2.309-.328-1.01 7.19-2.41.365 1.11zm.215 61.175l-.36 1.13-7.212-2.359.324-1.011 7.248 2.24zm2.155-52.453l-7.412 1.65-.236-1.039 7.374-1.752.274 1.141zm.151 43.721l-.247 1.118-7.413-1.664.239-1.06 7.421 1.606zm1.418-34.82l-7.527 1.003-.144-1.082 7.518-1.056.153 1.135zm.09 25.907l-.148 1.169-7.513-1.06.13-1.057 7.531.948zm.687-16.889l-7.586.302-.048-1.071 7.577-.4.057 1.169zm.03 7.858l-.047 1.205-7.581-.411.044-1.037 7.584.243z"/>
        <g fill="#F69AB2">
            <path d="M2347.968 859.117l.005-1.078h12.65l-.004 1.157-12.65-.08zm-.19-24.468l12.645-.25.022 1.115-12.646.258-.021-1.123zm-.135 47.887l.03-1.154 12.646.333-.028 1.073-12.648-.252zm-.57-71.212l12.641-.5.047 1.11-12.64.508-.048-1.118zm-.248 94.577l.053-1.163 12.632.597-.044 1.074-12.641-.508zm-.94-117.925l12.622-.754.067 1.066-12.617.847-.073-1.16zm-.38 141.222l.078-1.11 12.617.846-.074 1.104-12.62-.84zm-1.328-164.504l12.603-1.086.099 1.152-12.611 1.008-.091-1.074zm-.492 187.776l.096-1.063 12.604 1.07-.101 1.173-12.6-1.18zm-1.708-211.043l12.575-1.346.12 1.124-12.58 1.326-.115-1.104zm-.626 234.363l.126-1.158 12.567 1.418-.114 1.069-12.579-1.329zm-2.082-257.596l12.548-1.595.145 1.11-12.55 1.596-.143-1.11zm-.751 280.797l.148-1.149 12.534 1.673-.142 1.067-12.54-1.591zm-2.456-303.954l12.515-1.85.16 1.08-12.496 1.911-.18-1.14zm-.876 327.058l.17-1.111 12.5 1.93-.168 1.105-12.502-1.924zm-2.833-350.106l12.456-2.176.2 1.14-12.472 2.097-.184-1.06zm-.996 373.12l.187-1.047 12.459 2.17-.205 1.152-12.441-2.276zm-3.217-396.11l12.408-2.434.216 1.114-12.42 2.413-.204-1.093zm-1.137 419.136l.23-1.142 12.389 2.516-.21 1.051-12.41-2.425zm-3.576-442.043l12.362-2.671.232 1.087-12.353 2.688-.241-1.104zm-1.26 464.906l.245-1.123 12.346 2.749-.233 1.065-12.358-2.691zM2318.21 603.3l12.304-2.928.251 1.05-12.284 3.005-.271-1.127zm-1.374 510.417l.26-1.075 12.285 3.005-.264 1.092-12.281-3.022zm-4.326-533.043l12.216-3.262.288 1.078-12.217 3.267-.287-1.083zm-1.507 555.648l.285-1.045 12.213 3.263-.304 1.121-12.194-3.339zm-4.699-578.183l12.147-3.524.323 1.11-12.174 3.447-.296-1.033zm-1.627 600.685l.307-1.033 12.15 3.519-.33 1.109-12.127-3.595zm-5.074-623.082l12.072-3.775.34 1.083-12.083 3.753-.33-1.06zm-1.756 645.486l.346-1.097 12.058 3.826-.331 1.052-12.073-3.781zm-5.437-667.732l11.996-4.025.36 1.075-11.999 4.002-.357-1.052zm-1.89 689.978l.358-1.045 11.97 4.08-.364 1.077-11.964-4.112zm-5.775-712.055l11.898-4.271.378 1.047-11.902 4.276-.374-1.052zm-2.053 734.192l.381-1.054 11.884 4.326-.384 1.057-11.881-4.329zm-6.108-756.1l11.812-4.526.386 1.002-11.783 4.6-.415-1.076zm-2.198 778.035l.41-1.055 11.783 4.594-.405 1.034-11.788-4.573zm-6.436-799.762l11.715-4.766.405.982-11.68 4.868-.44-1.084zm-2.33 821.455l.415-1.008 11.688 4.85-.455 1.071-11.649-4.913zm-6.727-842.885l11.6-5.042.443 1.02-11.6 5.043-.443-1.021zm-2.521 864.412l.43-.98 11.582 5.09-.475 1.075-11.537-5.185zm-7.02-885.675l11.493-5.286.456 1.008-11.471 5.314-.479-1.036zm-2.714 907.017l.47-.994 11.454 5.359-.482 1.023-11.442-5.388zm-7.28-928.041l11.37-5.556.493 1.025-11.378 5.523-.485-.992zm-2.887 949.116l.476-.959 11.34 5.59-.52 1.062-11.296-5.693zm-7.567-969.948l11.245-5.785.502.973-11.225 5.822-.522-1.01zm-3.098 990.87l.527-1.016 11.214 5.858-.51.98-11.231-5.823zm-7.8-1011.454l11.104-6.057.542.999-11.118 6.022-.528-.964zm-3.277 1032.052l.533-.972 11.081 6.09-.546 1.007-11.068-6.125zm-8.09-1052.412l10.978-6.286.563.985-10.994 6.254-.548-.953zm-3.446 1072.786l.56-.97 10.935 6.361-.562.966-10.933-6.357zm-8.342-1092.889l10.824-6.54.593.985-10.86 6.485-.557-.93zm-3.657 1113.047l.608-1.003 10.79 6.608-.559.901-10.839-6.506zm-8.593-1132.934l10.711-6.721.576.906-10.66 6.802-.627-.987zm-3.811 1152.771l.618-.968 10.659 6.797-.582.922-10.695-6.751zm-8.845-1172.343l10.548-6.98.608.91-10.524 7.02-.632-.95zm-3.95 1191.847l.592-.875 10.523 7.018-.656.982-10.46-7.125zm-9.127-1211.164l10.39-7.207.636.904-10.384 7.233-.642-.93zm-4.14 1230.469l.634-.895 10.356 7.26-.662.941-10.328-7.306zm-9.364-1249.49l10.222-7.453.67.93-10.252 7.405-.64-.883zm-4.323 1268.51l.68-.934 10.175 7.51-.64.878-10.215-7.453zm-9.602-1287.267l10.076-7.641.667.87-10.054 7.68-.689-.91zm-4.465 1305.935l.683-.886 10.04 7.703-.68.885-10.043-7.702zm-9.845-1324.357l9.889-7.883.726.912-9.954 7.81-.66-.839zm-4.62 1342.73l.709-.875 9.847 7.932-.693.857-9.862-7.914zM2100.404 169.07l9.737-8.063.698.843-9.712 8.1-.723-.88zm-4.725 1378.884l.68-.815 9.702 8.113-.761.898-9.621-8.196zm-10.382-1396.673l9.545-8.3.736.844-9.545 8.3-.736-.844zm-4.89 1414.436l.731-.846 9.512 8.334-.733.84-9.51-8.328zM2069.797 133.78l9.393-8.474.722.794-9.33 8.542-.785-.862zm-5.033 1449.328l.775-.842 9.313 8.563-.733.8-9.355-8.521zm-10.817-1466.45l9.173-8.713.797.844-9.23 8.655-.74-.786zm-5.148 1483.47l.758-.792 9.145 8.72-.793.84-9.11-8.768zM2037.701 99.837l9.005-8.871.784.793-9.002 8.88-.787-.802zm-5.264 1516.985l.787-.787 8.936 8.949-.79.79-8.933-8.952zM2021.104 83.398l8.817-9.075.79.772-8.791 9.087-.816-.784zm-5.395 1549.778l.832-.797 8.724 9.156-.78.755-8.776-9.114zM2004.155 67.311l8.603-9.271.83.77-8.623 9.253-.81-.752zm-5.472 1581.798l.807-.735 8.557 9.308-.841.78-8.523-9.353zM1986.86 51.587l8.396-9.446.83.734-8.39 9.47-.836-.758zm-5.555 1613.104l.795-.699 8.386 9.468-.89.78-8.291-9.55zM1969.22 36.239l8.196-9.629.858.728-8.2 9.627-.854-.726zm-5.678 1643.692l.86-.719 8.154 9.67-.858.718-8.156-9.67zM1951.25 21.279l7.994-9.796.854.684-7.965 9.834-.883-.722zm-5.732 1673.461l.866-.691 7.93 9.844-.88.71-7.916-9.863zM1932.963 6.698l7.79-9.96.863.672-7.746 9.997-.907-.709zm-5.813 1702.473l.907-.7 7.695 10.042-.87.67-7.732-10.012zM1914.355-7.472l7.574-10.13.87.645-7.512 10.182-.932-.697zm-5.869 1730.666l.91-.676 7.493 10.197-.89.655-7.513-10.176zm-13.023-1744.43l7.323-10.305.9.636-7.292 10.333-.931-.664zm-5.893 1758.008l.869-.603 7.305 10.326-.963.673-7.211-10.396zm-13.315-1771.38l7.11-10.456.927.632-7.115 10.462-.922-.638zm-5.95 1784.6l.92-.623 7.057 10.505-.926.621-7.052-10.503zm-13.546-1797.54l6.892-10.609.927.606-6.862 10.626-.957-.623zm-6.001 1810.333l.967-.618 6.806 10.66-.913.584-6.86-10.626zm-13.766-1822.84l6.637-10.764.972.601-6.675 10.748-.934-.585zm-6.023 1835.188l.999-.61 6.549 10.825-.898.54-6.65-10.755zM1816.94-72.149l6.418-10.898.95.557-6.38 10.922-.988-.58zm-5.959 1859.147l.924-.529 6.377 10.93-1.013.592-6.288-10.993zM1796.64-83.796l6.178-11.031.958.537-6.152 11.05-.984-.556zm-5.974 1882.284l.957-.529 6.118 11.07-.982.542-6.093-11.083zM1776.079-94.998l5.924-11.174 1.01.534-5.962 11.156-.972-.516zm-5.952 1904.506l.967-.497 5.892 11.187-1.003.526-5.856-11.216zm-14.855-1915.266l5.698-11.295.998.499-5.692 11.3-1.004-.504zm-5.927 1925.858l1.013-.504 5.622 11.329-.98.482-5.655-11.307zm-15.096-1936.15l5.422-11.427 1.05.502-5.486 11.388-.986-.463zm-5.875 1946.26l1.006-.475 5.383 11.442-1.002.478-5.387-11.446zm-15.392-1956.106l5.18-11.54 1.03.46-5.194 11.539-1.016-.459zm-5.792 1965.75l1.01-.445 5.138 11.559-1.033.46-5.115-11.573zm-15.675-1975.12l4.912-11.657 1.067.45-4.974 11.63-1.005-.423zm-5.732 1984.32l1.04-.44 4.873 11.682-1.018.425-4.895-11.666zm-15.959-1993.226l4.67-11.753 1.045.413-4.67 11.755-1.045-.415zm-5.663 2001.95l1.093-.421 4.592 11.787-.99.383-4.695-11.75zm-16.22-2010.383l4.42-11.849 1.05.393-4.42 11.847-1.05-.391zm-5.587 2018.644l1.054-.38 4.35 11.874-1.055.388-4.35-11.882zM1625.878-160.55l4.178-11.942 1.027.362-4.107 11.96-1.098-.38zm-5.562 2034.386l1.062-.37 4.098 11.973-1.06.36-4.1-11.963zm-16.664-2041.843l3.888-12.035 1.058.341-3.866 12.048-1.08-.354zm-5.527 2049.159l1.063-.345 3.853 12.06-1.07.342-3.846-12.057zM1581.25-174.981l3.632-12.108 1.062.313-3.614 12.119-1.08-.324zm-5.446 2062.946l1.04-.29 3.592 12.11-1.114.33-3.518-12.15zm-17.005-2069.39l3.337-12.202 1.113.306-3.405 12.182-1.045-.287zm-5.544 2075.737l1.132-.305 3.266 12.227-1.036.28-3.362-12.202zm-17.067-2081.704l3.111-12.266 1.074.277-3.085 12.262-1.1-.273zm-5.564 2087.547l1.14-.28 3.008 12.284-1.034.263-3.114-12.267zM1513.489-192.85l2.806-12.332 1.087.245-2.794 12.342-1.099-.255zm-5.57 2098.336l1.084-.244 2.77 12.342-1.102.251-2.753-12.35zm-17.273-2103.298l2.555-12.397 1.1.224-2.56 12.395-1.095-.222zm-5.598 2108.146l1.098-.22 2.511 12.399-1.095.22-2.514-12.399zm-17.325-2112.607l2.26-12.455 1.105.2-2.27 12.452-1.095-.197zm-5.605 2116.94l1.07-.189 2.254 12.454-1.134.197-2.19-12.461zm-17.437-2120.912l2.01-12.49 1.1.178-1.999 12.486-1.111-.174zm-5.659 2124.762l1.143-.18 1.934 12.504-1.079.157-1.998-12.481zm-17.441-2128.22l1.712-12.53 1.115.155-1.724 12.526-1.103-.15zm-5.664 2131.557l1.118-.152 1.672 12.537-1.102.153-1.688-12.538zM1398.39-212.669l1.471-12.56 1.114.128-1.47 12.562-1.115-.13zm-5.67 2137.354l1.114-.13 1.425 12.583-1.112.122-1.427-12.575zm-17.554-2139.803l1.171-12.592 1.112.111-1.17 12.594-1.113-.113zm-5.661 2142.133l1.07-.094 1.172 12.604-1.153.096-1.09-12.606zM1351.872-217.07l.92-12.613 1.12.08-.921 12.615-1.119-.082zm-5.723 2145.916l1.16-.072.834 12.611-1.074.08-.92-12.619zm-17.593-2147.37l.628-12.632 1.12.058-.625 12.637-1.123-.062zm-5.704 2148.7l1.113-.054.586 12.636-1.12.054-.58-12.636zM1305.2-219.472l.38-12.64 1.117.032-.377 12.642-1.12-.034zM1299.486 1931l1.118-.035.338 12.655-1.118.026-.338-12.646zm-17.662-2150.917l.12-12.65 1.097.008-.08 12.655-1.137-.013zm-5.663 2163.89v-12.651h1.075l.092 12.65h-1.167zm-4.762.009h1.12v-12.65h-1.12v12.65zm-13.103-2176.49l1.122-.019.16 12.65-1.11.01-.172-12.642zm-10.565 2176.208l.335-12.646 1.071.02-.25 12.652-1.156-.026zm-13.027-2175.652l1.091-.044.468 12.645-1.138.036-.421-12.637zm-10.552 2174.874l.506-12.638 1.126.047-.51 12.643-1.122-.052zm-13.077-2173.818l1.141-.062.671 12.63-1.1.066-.712-12.634zm-10.506 2172.534l.747-12.628 1.153.071-.825 12.624-1.075-.067zm-13.07-2170.967l1.096-.086 1.003 12.612-1.146.093-.954-12.62zm-10.544 2169.167l1.082-12.6 1.111.095-1.069 12.612-1.124-.107zm-13.023-2167.091l1.141-.101 1.212 12.587-1.094.106-1.259-12.592zm-10.535 2164.789l1.42-12.576 1.076.113-1.345 12.584-1.15-.121zm-12.95-2162.204l1.087-.137 1.549 12.554-1.13.14-1.506-12.557zm-10.463 2159.398l1.583-12.557 1.116.14-1.586 12.558-1.113-.14zm-12.985-2156.3l1.132-.16 1.76 12.529-1.094.156-1.798-12.526zm-10.413 2152.976l1.834-12.517 1.15.179-1.93 12.497-1.054-.16zm-12.935-2149.37l1.077-.186 2.1 12.472-1.132.192-2.045-12.477zm-10.438 2145.528l2.184-12.453 1.087.185-2.176 12.465-1.095-.197zm-12.857-2141.417l1.118-.211 2.302 12.433-1.072.205-2.348-12.427zm-10.4 2137.072l2.497-12.393 1.062.207-2.427 12.417-1.133-.231zm-12.777-2132.45l1.06-.228 2.645 12.36-1.123.24-2.582-12.371zm-10.366 2127.614l2.765-12.35 1.048.234-2.675 12.362-1.138-.246zm-12.73-2122.489l1.104-.259 2.854 12.32-1.066.255-2.892-12.316zm-10.258 2117.14l2.939-12.3 1.129.278-3.015 12.28-1.053-.257zm-12.693-2111.51l1.088-.28 3.128 12.254-1.072.276-3.144-12.25zm-10.24 2105.648l3.264-12.212 1.087.283-3.265 12.224-1.087-.295zM978.267-192.348l1.078-.302 3.45 12.175-1.078.299-3.45-12.172zm-10.133 2093.172l3.52-12.151 1.07.304-3.52 12.152-1.07-.305zM955.611-185.715l1.054-.325 3.686 12.098-1.069.325-3.671-12.098zm-10.136 2079.673l3.825-12.055 1.043.321-3.752 12.078-1.116-.344zM933.062-178.597l1.032-.343 3.984 12.014-1.09.355-3.926-12.026zM922.935 1886.59l4.035-11.989 1.08.374-4.073 11.977-1.042-.362zM910.673-170.978l1.029-.37 4.253 11.92-1.077.38-4.205-11.93zm-10.111 2049.71l4.27-11.901 1.087.397-4.322 11.888-1.035-.384zM888.45-162.86l1.082-.41 4.411 11.855-1.01.38-4.483-11.825zM878.377 1870.38l4.497-11.826 1.1.426-4.601 11.793-.996-.393zM866.425-154.276l1.054-.425 4.694 11.75-1.017.406-4.731-11.73zm-10.092 2015.807l4.837-11.687 1.038.432-4.844 11.687-1.03-.432zM844.68-145.246l1.022-.436 4.974 11.62-1.025.446-4.971-11.63zm-10.173 1997.453l5.116-11.572 1.02.455-5.087 11.575-1.049-.458zM823.121-135.739l1.01-.458 5.25 11.507-1.039.473-5.22-11.522zm-10.171 1978.17l5.32-11.481 1.029.48-5.358 11.467-.991-.467zM801.785-125.768l.961-.462 5.527 11.374-1.04.504-5.448-11.416zM791.57 1832.164l5.584-11.347 1.013.504-5.589 11.34-1.008-.497zM780.641-115.319l.999-.503 5.714 11.28-.989.504-5.724-11.281zM770.45 1821.445l5.807-11.227 1.018.53-5.849 11.21-.976-.513zM759.74-104.42l.963-.518 5.994 11.14-.998.54-5.96-11.162zm-10.183 1914.692l6.056-11.103.996.543-6.084 11.085-.968-.525zM739.053-93.06l.998-.56 6.185 11.036-.964.539-6.219-11.015zm-10.126 1891.71l6.292-10.975.999.582-6.347 10.937-.944-.544zM718.64-81.255l.942-.562 6.492 10.857-.98.585-6.454-10.88zM708.53 1786.57l6.564-10.818.957.576-6.558 10.823-.963-.581zM698.475-69.01l.947-.584 6.705 10.73-.971.6-6.681-10.747zm-10.088 1843.046l6.874-10.634.89.571-6.763 10.697-1-.634zm-9.82-1830.35l.972-.628 6.855 10.622-.893.588-6.935-10.583zm-9.957 1817.428l7.02-10.52.93.62-7.015 10.528-.935-.628zM658.948-43.202l.937-.636 7.13 10.442-.92.633-7.147-10.44zm-9.853 1790.963l7.202-10.395.95.67-7.27 10.357-.882-.632zM639.616-29.668l.886-.638 7.4 10.26-.924.665-7.362-10.287zm-9.8 1763.613l7.513-10.175.875.636-7.458 10.216-.93-.677zM620.572-15.708l.875-.659 7.61 10.102-.916.685-7.57-10.128zm-9.663 1735.46l7.694-10.04.885.676-7.697 10.042-.882-.677zm-9.074-1721.1l.86-.667 7.827 9.931-.897.707-7.79-9.97zm-9.53 1706.51l7.881-9.895.868.7-7.88 9.893-.868-.698zM583.414 13.425l.823-.682 8.078 9.746-.9.735-8.001-9.8zM574 1690.155l8.106-9.703.866.719-8.117 9.706-.855-.721zM565.304 28.594l.816-.7 8.268 9.572-.878.753-8.206-9.625zm-9.287 1646.151l8.376-9.47.805.691-8.298 9.557-.883-.778zM547.529 44.146l.801-.708 8.468 9.391-.865.77-8.404-9.453zm-9.12 1614.835l8.552-9.318.811.737-8.517 9.352-.846-.771zM530.052 60.103l.845-.78 8.607 9.272-.8.745-8.652-9.237zm-8.907 1582.742l8.73-9.146.806.773-8.72 9.144-.816-.77zM512.97 76.423l.807-.79 8.812 9.07-.79.769-8.829-9.049zm-8.734 1549.926l8.904-8.988.816.809-8.948 8.954-.772-.775zm-8.003-1533.25l.743-.769 9.07 8.819-.816.828-8.997-8.878zm-8.564 1516.363l9.11-8.766.78.797-9.11 8.78-.78-.811zM479.826 110.16l.764-.81 9.233 8.65-.764.812-9.233-8.652zm-8.324 1482.097l9.267-8.606.777.846-9.316 8.56-.728-.8zm-7.683-1464.7l.743-.83 9.419 8.45-.745.833-9.417-8.453zm-8.13 1447.13l9.467-8.383.745.831-9.475 8.394-.736-.841zM448.194 145.29l.71-.826 9.609 8.22-.755.873-9.564-8.267zm-7.942 1411.493l9.667-8.172.726.856-9.667 8.162-.726-.846zm-7.315-1393.409l.736-.887 9.711 8.095-.688.838-9.759-8.046zm-7.713 1375.169l9.855-7.926.679.846-9.818 7.975-.716-.895zm-7.136-1356.763l.666-.847 9.965 7.791-.717.91-9.914-7.854zM410.6 1520.017l9.993-7.745.686.889-9.998 7.733-.681-.877zm-6.987-1319.504l.668-.881 10.103 7.603-.678.903-10.093-7.625zm-7.26 1300.616l10.212-7.456.627.851-10.147 7.552-.692-.947zM389.56 219.563l.648-.9 10.28 7.364-.663.918-10.265-7.382zm-6.992 1262.449l10.33-7.311.642.919-10.325 7.306-.647-.914zm-6.64-1243.12l.62-.893 10.445 7.128-.663.95-10.401-7.186zm-6.744 1223.698l10.457-7.116.65.951-10.5 7.063-.607-.898zM362.7 258.54l.625-.95 10.558 6.958-.612.931-10.571-6.939zm-6.469 1184.33l10.598-6.905.619.961-10.625 6.867-.592-.923zm-6.316-1164.402l.596-.967 10.714 6.748-.583.931-10.727-6.712zm-6.256 1144.345l10.82-6.544.558.905-10.769 6.642-.61-1.003zm-6.096-1124.157l.56-.936 10.874 6.447-.593.995-10.84-6.506zm-5.974 1103.942l10.919-6.391.558.97-10.912 6.385-.565-.964zM325.643 319.13l.544-.958 11.008 6.224-.565.993-10.987-6.259zm-5.704 1062.96l11.048-6.155.558.987-11.072 6.126-.534-.959zM314.165 339.85l.533-.966 11.131 5.99-.534 1.003-11.13-6.027zm-5.407 1021.508l11.151-5.96.539 1.012-11.19 5.895-.5-.947zm-5.605-1000.51l.506-1.01 11.268 5.76-.513.999-11.261-5.75zm-5.137 979.523l11.285-5.727.515 1.047-11.32 5.617-.48-.937zm-5.417-958.318l.472-.993 11.399 5.496-.49 1.025-11.38-5.528zm-4.87 937.093l11.42-5.462.49 1.048-11.45 5.384-.46-.97zm-5.23-915.634l.469-1.041 11.502 5.285-.464 1.007-11.507-5.25zm-4.586 894.198l11.53-5.189.471 1.048-11.559 5.145-.442-1.004zm-5.042-872.533l.442-1.023 11.626 4.983-.46 1.048-11.608-5.008zm-4.302 850.917l11.64-4.968.459 1.075-11.678 4.871-.421-.978zm-4.843-829.033l.425-1.043 11.717 4.738-.424 1.049-11.718-4.744zm-4.018 807.197l11.748-4.692.42 1.087-11.772 4.594-.396-.989zm-4.647-785.114l.4-1.07 11.815 4.524-.396 1.043-11.82-4.497zm-3.772 763.027l11.84-4.456.405 1.107-11.876 4.343-.369-.994zm-4.419-740.767l.362-1.02 11.945 4.18-.393 1.094-11.914-4.254zm-3.523 718.48l11.928-4.171.39 1.09-11.969 4.101-.349-1.02zm-4.162-696.038l.336-1.03 12.03 3.92-.37 1.114-11.996-4.004zm-3.298 673.565l12.056-3.851.342 1.07-12.062 3.852-.336-1.071zm-3.917-650.908l.327-1.073 12.098 3.668-.325 1.078-12.1-3.673zm-3.026 628.316l12.125-3.611.307 1.075-12.12 3.603-.312-1.067zm-3.642-605.653l.29-1.055 12.18 3.424-.313 1.086-12.157-3.455zm-2.817 582.877l12.203-3.29.29 1.057-12.196 3.337-.297-1.104zm-3.37-560.053l.286-1.076 12.24 3.164-.288 1.097-12.238-3.185zm-2.592 537.172l12.273-3.026.276 1.062-12.271 3.089-.278-1.125zm-3.085-514.221l.254-1.048 12.323 2.85-.276 1.126-12.3-2.928zm-2.362 491.252l12.329-2.836.25 1.123-12.336 2.775-.243-1.062zm-2.816-468.142l.231-1.1 12.376 2.599-.232 1.097-12.375-2.596zm-2.136 444.996l12.395-2.525.223 1.097-12.395 2.522-.223-1.094zm-2.53-421.83l.213-1.137 12.421 2.42-.205 1.072-12.43-2.354zm-1.913 398.61l12.437-2.267.205 1.119-12.446 2.243-.196-1.095zm-2.25-375.343l.187-1.1 12.47 2.095-.189 1.1-12.468-2.095zm-1.69 351.99l12.501-1.921.157 1.056-12.479 2.021-.179-1.156zm-1.964-328.627l.155-1.074 12.52 1.767-.162 1.142-12.513-1.835zm-1.454 305.289l12.52-1.76.162 1.148-12.538 1.676-.144-1.064zm-1.688-281.827l.135-1.113 12.557 1.508-.138 1.118-12.554-1.513zm-1.245 258.38l12.57-1.512.132 1.16-12.573 1.418-.129-1.066zm-1.394-234.902l.12-1.15 12.582 1.333-.123 1.08-12.579-1.263zm-1.003 211.34l12.59-1.16.098 1.102-12.592 1.18-.096-1.121zm-1.122-187.794l.086-1.116 12.616 1.006-.093 1.11-12.609-1zm-.781 164.205l12.618-.846.076 1.078-12.614.915-.08-1.147zm-.832-140.63l.066-1.08 12.625.67-.062 1.162-12.629-.752zm-.558 117.074l12.625-.675.063 1.167-12.636.59-.052-1.082zm-.558-93.42l.034-1.114 12.645.41-.035 1.124-12.644-.42zm-.334 69.804l12.645-.429.04 1.16-12.65.33-.035-1.061zm-.268-46.178l.024-1.165 12.643.25-.019 1.078-12.648-.163zm-.105 22.512l12.64-.083.012 1.118-12.648.084v-1.12h-.004zM196.632 856.06l-.004 1.077h-12.65l.004-1.158 12.65.08zm.191 24.466l-12.645.249-.023-1.113 12.645-.259.023 1.123zm.133-47.885l-.028 1.154-12.646-.333.028-1.072 12.646.25zm.572 71.21l-12.641.5-.047-1.11 12.64-.508.048 1.119zm.248-94.576l-.053 1.163-12.632-.597.044-1.075 12.641.509zm.94 117.926l-12.623.754-.066-1.067 12.615-.845.075 1.158zm.38-141.221l-.077 1.11-12.618-.846.076-1.106 12.619.842zm1.328 164.502l-12.604 1.086-.098-1.153 12.611-1.009.091 1.076zm.492-187.775l-.096 1.061-12.604-1.07.101-1.172 12.6 1.181zm1.708 211.044l-12.577 1.345-.118-1.126 12.58-1.326.115 1.107zm.626-234.364l-.125 1.159-12.568-1.417.116-1.07 12.577 1.328zm2.082 257.594l-12.548 1.594-.145-1.108 12.55-1.596.143 1.11zm.752-280.796l-.148 1.15-12.535-1.673.143-1.068 12.54 1.59zm2.456 303.952l-12.515 1.85-.16-1.076 12.496-1.915.18 1.141zm.875-327.055l-.17 1.11-12.5-1.93.168-1.105 12.502 1.925zm2.833 350.103l-12.456 2.176-.2-1.137 12.474-2.096.182 1.057zm.996-373.117l-.187 1.047-12.459-2.17.205-1.15 12.44 2.273zm3.217 396.11l-12.41 2.433-.214-1.114 12.42-2.412.204 1.093zm1.137-419.137l-.229 1.141-12.389-2.514.21-1.053 12.408 2.426zm3.576 442.043l-12.363 2.67-.231-1.084 12.353-2.69.241 1.104zm1.261-464.905l-.246 1.123-12.346-2.75.234-1.065 12.358 2.692zm3.956 487.697l-12.302 2.927-.252-1.05 12.284-3.005.27 1.128zm1.374-510.416l-.262 1.075-12.283-3.004.264-1.093 12.281 3.022zm4.326 533.041l-12.215 3.263-.288-1.076 12.216-3.27.287 1.083zm1.506-555.648l-.284 1.047-12.215-3.263.305-1.121 12.194 3.337zm4.7 578.185l-12.147 3.521-.322-1.109 12.173-3.445.296 1.033zm1.627-600.687l-.308 1.033-12.15-3.518.33-1.11 12.128 3.595zm5.073 623.082l-12.071 3.776-.34-1.085 12.083-3.753.328 1.062zm1.756-645.485l-.345 1.096-12.06-3.825.333-1.052 12.072 3.78zm5.438 667.732l-11.996 4.024-.359-1.073 11.999-4.006.356 1.055zm1.891-689.979l-.358 1.047-11.972-4.078.366-1.078 11.964 4.11zm5.774 712.056l-11.898 4.27-.378-1.044 11.902-4.279.374 1.053zm2.053-734.193l-.381 1.056-11.884-4.327.384-1.057 11.881 4.328zm6.108 756.102l-11.812 4.527-.386-1.004 11.783-4.6.415 1.077zm2.198-778.036l-.41 1.056-11.783-4.595.405-1.035 11.788 4.574zm6.435 799.763l-11.714 4.764-.405-.982 11.68-4.868.44 1.086zm2.333-821.456l-.415 1.006-11.689-4.85.454-1.07 11.65 4.914zm6.725 842.886l-11.6 5.04-.443-1.02 11.6-5.043.443 1.023zm2.522-864.414l-.43.98-11.582-5.088.474-1.075 11.538 5.183zm7.019 885.676l-11.493 5.285-.456-1.008 11.471-5.311.478 1.034zm2.714-907.017l-.472.993-11.453-5.357.482-1.025 11.443 5.389zm7.278 928.042l-11.369 5.555-.492-1.026 11.378-5.523.483.994zm2.89-949.117l-.475.96-11.34-5.59.52-1.063 11.295 5.693zm7.565 969.946l-11.244 5.787-.502-.972 11.225-5.823.521 1.008zm3.098-990.868l-.527 1.015-11.213-5.857.51-.98 11.23 5.822zm7.8 1011.452l-11.104 6.06-.542-.999 11.119-6.022.527.961zm3.279-1032.05l-.534.972-11.08-6.089.546-1.008 11.068 6.124zm8.09 1052.412l-10.98 6.284-.562-.984 10.994-6.254.548.954zm3.444-1072.787l-.56.971-10.935-6.362.563-.966 10.932 6.357zm8.343 1092.892l-10.824 6.539-.593-.987 10.858-6.484.56.932zm3.656-1113.049l-.607 1.004-10.79-6.607.559-.904 10.838 6.507zM362 1432.873l-10.713 6.723-.574-.905 10.66-6.802.627.984zm3.811-1152.768l-.62.967-10.658-6.796.583-.923 10.695 6.752zm8.844 1172.34l-10.547 6.98-.608-.91 10.524-7.019.631.95zM378.607 260.6l-.593.876-10.524-7.019.657-.98 10.46 7.123zm9.126 1211.166l-10.39 7.206-.635-.904 10.384-7.234.641.932zm4.141-1230.47l-.635.895-10.356-7.262.663-.94 10.328 7.306zm9.362 1249.49l-10.221 7.452-.67-.928 10.252-7.407.639.883zm4.324-1268.51l-.681.935-10.174-7.51.64-.878 10.215 7.453zm9.602 1287.267l-10.077 7.64-.666-.87 10.054-7.68.689.91zm4.464-1305.936l-.681.887-10.04-7.702.68-.887 10.041 7.702zm9.847 1324.357l-9.89 7.885-.724-.914 9.953-7.808.66.837zm4.618-1342.728l-.709.876-9.847-7.934.693-.855 9.863 7.913zm10.107 1360.87l-9.737 8.066-.699-.842 9.711-8.1.725.876zm4.725-1378.884l-.679.817-9.702-8.114.762-.896 9.62 8.193zm10.382 1396.675l-9.545 8.3-.736-.844 9.545-8.3.736.844zm4.89-1414.437l-.731.847-9.512-8.337.733-.838 9.51 8.328zm10.608 1431.937l-9.393 8.476-.723-.796 9.33-8.54.786.86zm5.033-1449.33l-.775.842-9.314-8.563.732-.799 9.357 8.52zm10.817 1466.45l-9.174 8.714-.797-.843 9.23-8.657.741.786zm5.148-1483.47l-.758.794-9.145-8.723.793-.838 9.11 8.768zM506.9 1615.339l-9.005 8.87-.784-.79 9.002-8.879.787.8zm5.265-1516.985l-.788.789-8.935-8.95.789-.789 8.934 8.95zm11.332 1533.424l-8.817 9.076-.79-.772 8.791-9.087.816.783zM528.892 82l-.832.799-8.724-9.157.78-.754L528.892 82zm11.553 1565.865l-8.602 9.274-.83-.773 8.623-9.254.81.753zm5.473-1581.796l-.806.736-8.557-9.308.842-.783 8.521 9.355zm11.823 1597.52l-8.396 9.447-.83-.736 8.39-9.468.836.758zm5.555-1613.103l-.795.7-8.386-9.468.89-.78 8.291 9.548zm12.085 1628.452l-8.196 9.627-.858-.725 8.2-9.628.854.726zM581.06 35.246l-.86.716-8.154-9.668.858-.719 8.156 9.67zm12.293 1658.65l-7.995 9.798-.853-.687 7.963-9.83.885.72zm5.73-1673.46l-.867.692-7.93-9.846.88-.71 7.917 9.864zm12.555 1688.04l-7.79 9.961-.863-.672 7.746-9.997.907.708zM617.453 6.004l-.908.7-7.694-10.042.867-.67 7.735 10.012zm12.793 1716.643l-7.574 10.131-.871-.644 7.511-10.183.934.696zM636.113-8.018l-.908.676-7.494-10.198.891-.656 7.511 10.178zm13.025 1744.429l-7.324 10.307-.9-.635 7.293-10.336.931.664zm5.893-1758.007l-.87.602-7.305-10.324.964-.673 7.211 10.395zm13.316 1771.38l-7.11 10.456-.928-.633 7.116-10.462.922.639zm5.95-1784.6l-.92.622-7.057-10.505.926-.62 7.052 10.503zm13.546 1797.54l-6.892 10.61-.927-.608 6.862-10.625.957.624zM693.844-47.61l-.967.62-6.806-10.662.913-.583 6.86 10.625zm13.764 1822.842l-6.636 10.763-.972-.6 6.675-10.75.933.587zm6.024-1835.188l-.999.61-6.549-10.827.898-.539 6.65 10.756zm14.028 1847.28l-6.417 10.9-.95-.558 6.38-10.921.987.58zm5.96-1859.147l-.924.53-6.377-10.929 1.013-.593 6.288 10.992zm14.342 1870.794l-6.178 11.033-.958-.539 6.152-11.052.984.558zm5.975-1882.284l-.957.53-6.12-11.07.984-.544 6.093 11.084zm14.585 1893.486l-5.924 11.176-1.01-.534 5.961-11.158.973.516zm5.952-1904.505l-.969.498-5.89-11.187 1.003-.527 5.856 11.216zm14.854 1915.264l-5.697 11.296-.998-.5 5.692-11.3 1.003.504zm5.927-1925.855l-1.012.503-5.622-11.33.979-.48 5.655 11.307zm15.096 1936.147l-5.421 11.429-1.05-.502 5.486-11.389.985.462zm5.876-1946.257l-1.006.473-5.383-11.442 1.002-.477 5.387 11.446zm15.392 1956.104l-5.18 11.542-1.03-.46 5.192-11.542 1.018.46zm5.792-1965.75l-1.01.446-5.138-11.56 1.031-.459 5.117 11.573zm15.676 1975.122l-4.912 11.656-1.067-.45 4.974-11.631 1.005.425zm5.731-1984.322l-1.04.441-4.873-11.683 1.018-.423 4.895 11.665zm15.96 1993.227l-4.67 11.753-1.045-.414 4.67-11.755 1.045.416zm5.662-2001.95l-1.093.422-4.59-11.788.988-.384 4.695 11.75zm16.22 2010.383l-4.422 11.848-1.05-.393 4.423-11.847 1.05.392zm5.586-2018.644l-1.055.38-4.35-11.876 1.056-.386 4.35 11.882zm16.478 2026.587l-4.179 11.942-1.026-.363 4.109-11.958 1.096.38zm5.56-2034.387l-1.06.372-4.098-11.974 1.06-.36 4.099 11.962zm16.665 2041.846l-3.888 12.033-1.058-.34 3.866-12.047 1.08.354zm5.528-2049.16l-1.063.344-3.853-12.059 1.07-.343 3.846 12.058zm16.874 2056.135l-3.632 12.107-1.062-.314 3.614-12.12 1.08.327zm5.446-2062.946l-1.04.29-3.592-12.112 1.114-.329 3.518 12.151zm17.005 2069.39l-3.337 12.2-1.113-.307 3.405-12.182 1.045.29zm5.544-2075.737l-1.132.303-3.266-12.226 1.035-.28 3.363 12.203zm17.067 2081.702l-3.111 12.266-1.075-.275 3.086-12.26 1.1.269zm5.564-2087.546l-1.141.28-3.007-12.284 1.036-.263 3.112 12.267zm17.136 2093.008l-2.805 12.33-1.088-.243 2.794-12.343 1.099.256zm5.569-2098.338l-1.084.244-2.77-12.343 1.101-.25 2.753 12.349zm17.273 2103.298l-2.555 12.397-1.1-.226 2.56-12.395 1.095.224zm5.598-2108.146l-1.098.221-2.511-12.4 1.095-.219 2.514 12.398zm17.324 2112.606l-2.26 12.456-1.104-.201 2.269-12.45 1.095.195zm5.605-2116.94l-1.07.19-2.253-12.454 1.134-.196 2.189 12.46zm17.438 2120.913l-2.009 12.49-1.1-.18 1.999-12.483 1.11.173zm5.657-2124.762l-1.14.177-1.935-12.501 1.079-.156 1.996 12.48zm17.443 2128.22l-1.71 12.53-1.115-.154 1.721-12.527 1.104.15zm5.664-2131.558l-1.118.153-1.672-12.539 1.102-.152 1.688 12.538zm17.53 2134.523l-1.472 12.561-1.113-.13 1.47-12.56 1.114.129zm5.667-2137.354l-1.114.13-1.424-12.583 1.112-.12 1.426 12.573zm17.555 2139.8l-1.172 12.592-1.111-.11 1.168-12.594 1.115.113zm5.661-2142.13l-1.07.094-1.172-12.603 1.153-.097 1.09 12.606zm17.631 2144.083l-.92 12.615-1.12-.08.922-12.615 1.118.08zm5.724-2145.915l-1.158.072-.836-12.612 1.075-.078.919 12.618zm17.593 2147.369l-.629 12.63-1.12-.058.626-12.636 1.123.064zM1221.749-215l-1.112.054-.586-12.636 1.12-.054.578 12.636zm17.65 2149.646l-.376 12.64-1.118-.03.378-12.641 1.117.031zm5.716-2150.47l-1.12.034-.337-12.655 1.118-.025.339 12.645zm17.662 2150.915l-.122 12.65-1.097-.009.083-12.655 1.136.014zm5.663-2163.888v12.65h-1.075l-.092-12.65h1.167zm3.64 12.642h1.12v-12.65h-1.12v12.65zm14.224 2163.84l-1.12.02-.16-12.65 1.11-.013.17 12.643zm10.567-2176.21l-.335 12.646-1.071-.019.25-12.653 1.156.027zm13.025 2175.652l-1.092.045-.465-12.646 1.138-.037.42 12.638zm10.553-2174.872l-.506 12.637-1.124-.046.508-12.644 1.122.053zm13.078 2173.815l-1.141.063-.67-12.627 1.098-.067.713 12.63zm10.506-2172.532l-.747 12.63-1.153-.073.825-12.623 1.075.066zm13.07 2170.968l-1.097.083-1.003-12.61 1.146-.092.954 12.62zm10.544-2169.167l-1.082 12.599-1.111-.094 1.069-12.61 1.124.105zm13.023 2167.09l-1.141.102-1.212-12.587 1.094-.108 1.259 12.594zm10.534-2164.79l-1.422 12.578-1.074-.113 1.345-12.583 1.15.119zm12.95 2162.203l-1.087.138-1.549-12.556 1.13-.138 1.506 12.556zM1414.62-219.55l-1.586 12.556-1.114-.141 1.586-12.556 1.114.14zm12.982 2156.298l-1.131.159-1.76-12.528 1.094-.158 1.797 12.527zm10.416-2152.976l-1.836 12.517-1.151-.178 1.932-12.499 1.055.16zm12.933 2149.369l-1.077.187-2.1-12.473 1.131-.192 2.046 12.478zm10.44-2145.528l-2.184 12.455-1.088-.186 2.176-12.464 1.095.195zm12.855 2141.419l-1.12.208-2.3-12.43 1.072-.204 2.348 12.426zm10.4-2137.073l-2.497 12.392-1.062-.206 2.427-12.417 1.133.23zm12.777 2132.45l-1.058.228-2.646-12.363 1.123-.238 2.581 12.373zm10.367-2127.613l-2.766 12.35-1.048-.235 2.676-12.36 1.138.245zm12.73 2122.487l-1.104.258-2.854-12.32 1.066-.253 2.892 12.315zm10.258-2117.139l-2.938 12.299-1.13-.275 3.013-12.28 1.055.256zm12.691 2111.51l-1.085.28-3.129-12.254 1.072-.276 3.142 12.25zm10.243-2105.649l-3.265 12.214-1.087-.285 3.263-12.223 1.089.294zm12.623 2099.518l-1.078.305-3.45-12.175 1.078-.298 3.45 12.168zm10.132-2093.169l-3.52 12.151-1.069-.304 3.52-12.15 1.069.303zm12.524 2086.536l-1.054.325-3.687-12.097 1.068-.325 3.673 12.097zm10.137-2079.671l-3.825 12.056-1.043-.322 3.752-12.078 1.116.344zm12.41 2072.555l-1.03.342-3.984-12.013 1.09-.356 3.925 12.027zm10.129-2065.188l-4.034 11.99-1.08-.374 4.074-11.977 1.04.361zm12.263 2057.57l-1.028.37-4.254-11.92 1.077-.379 4.205 11.928zm10.111-2049.71l-4.27 11.9-1.087-.397 4.322-11.888 1.035.385zm12.112 2041.59l-1.082.413-4.411-11.858 1.01-.378 4.483 11.824zm10.073-2033.239l-4.497 11.827-1.099-.427 4.6-11.794.996.394zm11.951 2024.655l-1.054.425-4.694-11.75 1.017-.406 4.731 11.731zm10.093-2015.807l-4.837 11.688-1.038-.43 4.844-11.688 1.03.43zm11.654 2006.776l-1.022.438-4.974-11.62 1.025-.445 4.971 11.627zm10.173-1997.45l-5.116 11.57-1.02-.454 5.087-11.575 1.049.458zm11.382 1987.943l-1.008.46-5.25-11.51 1.037-.472 5.221 11.522zm10.174-1978.166l-5.32 11.481-1.028-.482 5.357-11.465.991.466zm11.165 1968.196l-.962.463-5.527-11.375 1.04-.504 5.45 11.416zm10.215-1957.932l-5.584 11.347-1.013-.503 5.59-11.34 1.007.496zm10.929 1947.485l-.999.503-5.714-11.281.99-.504 5.723 11.282zm10.19-1936.766l-5.806 11.229-1.017-.53 5.847-11.211.976.512zm10.712 1925.865l-.965.519-5.993-11.14.997-.537 5.96 11.158zm10.182-1914.69l-6.056 11.104-.996-.543 6.084-11.086.968.526zm10.503 1903.33l-.998.56-6.183-11.036.963-.539 6.218 11.015zm10.127-1891.71l-6.292 10.975-.998-.582 6.346-10.935.944.542zm10.287 1879.906l-.942.563-6.492-10.86.98-.585 6.454 10.882zm10.111-1867.824l-6.564 10.817-.957-.574 6.558-10.824.963.58zm10.054 1855.58l-.946.582-6.705-10.727.97-.603 6.681 10.747zM1856.214-58.86l-6.875 10.634-.89-.574 6.764-10.694 1 .634zm9.822 1830.35l-.973.628-6.855-10.62.893-.591 6.935 10.583zm9.954-1817.429l-7.018 10.52-.93-.619 7.015-10.529.933.628zm9.664 1804.315l-.937.637-7.13-10.442.92-.633 7.147 10.438zm9.853-1790.961l-7.202 10.395-.95-.67 7.271-10.357.88.632zm9.479 1777.428l-.886.639-7.4-10.262.925-.664 7.361 10.287zm9.8-1763.614l-7.513 10.176-.875-.636 7.458-10.218.93.678zm9.244 1749.655l-.876.66-7.61-10.103.917-.684 7.569 10.127zM1933.69-4.577L1926 5.465l-.886-.678 7.696-10.041.882.677zm9.075 1721.1l-.86.667-7.827-9.93.897-.709 7.79 9.972zm9.53-1706.507l-7.881 9.892-.868-.7 7.881-9.89.868.698zm8.892 1691.735l-.822.683-8.079-9.745.9-.736 8.001 9.798zM1970.6 25.02l-8.106 9.704-.866-.719 8.117-9.705.855.72zm8.698 1661.563l-.816.698-8.268-9.57.878-.755 8.206 9.627zm9.286-1646.151l-8.376 9.468-.804-.69 8.298-9.557.882.779zm8.49 1630.596l-.802.71-8.468-9.393.865-.77 8.404 9.453zm9.119-1614.834l-8.552 9.316-.811-.735 8.517-9.352.846.77zm8.356 1598.876l-.846.78-8.606-9.27.8-.746 8.652 9.236zm8.908-1582.74l-8.73 9.146-.806-.772 8.721-9.145.815.77zm8.173 1566.421l-.805.79-8.812-9.07.79-.767 8.827 9.047zm8.736-1549.924l-8.903 8.987-.816-.808 8.947-8.954.772.775zm8.003 1533.25l-.743.766-9.07-8.816.816-.83 8.997 8.88zm8.564-1516.364l-9.11 8.768-.78-.798 9.11-8.78.78.81zm7.842 1499.302l-.763.81-9.234-8.65.765-.814 9.232 8.654zm8.325-1482.098l-9.267 8.609-.777-.848 9.316-8.559.728.798zm7.683 1464.699l-.743.83-9.419-8.448.745-.832 9.417 8.45zm8.13-1447.128l-9.467 8.383-.745-.832 9.475-8.393.736.842zm7.496 1429.398l-.71.825-9.609-8.22.755-.874 9.564 8.269zm7.943-1411.492l-9.668 8.17-.726-.856 9.666-8.16.728.846zm7.314 1393.406l-.735.888-9.712-8.096.688-.836 9.76 8.044zm7.713-1375.165l-9.856 7.926-.678-.847 9.818-7.975.716.896zm7.136 1356.76l-.666.849-9.965-7.791.717-.91 9.914 7.852zm7.487-1338.236l-9.993 7.743-.687-.888 9.998-7.732.682.877zm6.986 1319.504l-.67.88-10.101-7.603.676-.905 10.095 7.628zm7.26-1300.618l-10.21 7.457-.628-.852 10.148-7.55.69.945zm6.792 1281.566l-.647.9-10.28-7.365.663-.917 10.264 7.382zm6.994-1262.448l-10.33 7.31-.642-.919 10.326-7.305.646.914zm6.64 1243.12l-.62.892-10.445-7.127.662-.95 10.402 7.184zm6.743-1223.698l-10.456 7.118-.65-.953 10.5-7.061.606.896zm6.485 1204.05l-.625.95-10.559-6.96.613-.93 10.571 6.94zm6.468-1184.33l-10.597 6.905-.619-.96 10.625-6.869.59.923zm6.316 1164.402l-.598.965-10.712-6.748.583-.93 10.727 6.713zm6.257-1144.344l-10.82 6.544-.558-.906 10.769-6.642.61 1.004zm6.093 1124.155l-.557.936-10.875-6.447.593-.994 10.84 6.505zm5.976-1103.94l-10.918 6.39-.558-.971 10.912-6.383.564.963zm5.947 1083.466l-.545.96-11.007-6.225.565-.993 10.987 6.258zm5.703-1062.957l-11.048 6.154-.556-.985 11.071-6.128.533.96zm5.773 1042.236l-.532.966-11.131-5.988.533-1.004 11.13 6.026zm5.409-1021.508l-11.151 5.961-.539-1.011 11.19-5.896.5.946zm5.606 1000.514l-.507 1.008-11.268-5.76.514-.998 11.26 5.75zm5.134-979.526l-11.284 5.727-.516-1.048 11.32-5.616.48.937zm5.419 958.317l-.472.994-11.399-5.497.49-1.023 11.38 5.526zm4.87-937.09l-11.42 5.46-.49-1.048 11.45-5.384.46.971zm5.23 915.631l-.469 1.043-11.502-5.288.464-1.005 11.507 5.25zm4.586-894.197l-11.53 5.188-.47-1.047 11.558-5.144.442 1.003zM2271.73 1290l-.443 1.02-11.627-4.98.461-1.048 11.61 5.008zm4.3-850.919l-11.637 4.97-.46-1.075 11.678-4.873.42.978zm4.845 829.034l-.425 1.043-11.718-4.74.424-1.047 11.719 4.744zm4.02-807.198l-11.749 4.693-.42-1.086 11.772-4.596.396.99zm4.647 785.114l-.401 1.07-11.814-4.523.396-1.043 11.819 4.496zm3.77-763.026l-11.839 4.456-.405-1.105 11.876-4.344.368.993zm4.418 740.767l-.362 1.021-11.945-4.18.394-1.093 11.913 4.252zm3.525-718.48l-11.928 4.172-.389-1.09 11.967-4.102.35 1.02zm4.162 696.037l-.337 1.028-12.029-3.918.371-1.116 11.995 4.006zm3.298-673.563l-12.057 3.85-.34-1.069 12.06-3.85.337 1.069zm3.917 650.906l-.328 1.075-12.098-3.667.327-1.079 12.1 3.671zm3.025-628.316l-12.123 3.613-.308-1.076 12.12-3.601.311 1.064zm3.643 605.655l-.29 1.054-12.18-3.422.313-1.088 12.157 3.456zm2.818-582.878l-12.203 3.29-.29-1.056 12.195-3.339.298 1.105zm3.369 560.054l-.286 1.074-12.241-3.165.29-1.097 12.237 3.188zm2.59-537.173l-12.273 3.027-.275-1.062 12.271-3.089.276 1.124zm3.087 514.22l-.255 1.05-12.322-2.853.276-1.123 12.3 2.927zm2.361-491.252l-12.329 2.836-.25-1.12 12.335-2.777.244 1.061zm2.817 468.142l-.231 1.102-12.376-2.6.232-1.096 12.375 2.594zm2.135-444.995l-12.395 2.525-.223-1.097 12.394-2.523.224 1.095zm2.53 421.83l-.212 1.136-12.421-2.418.204-1.072 12.43 2.354zm1.913-398.61l-12.437 2.265-.206-1.116 12.446-2.244.197 1.094zm2.25 375.34l-.187 1.103-12.47-2.096.189-1.1 12.468 2.094zm1.69-351.987l-12.5 1.922-.158-1.058 12.48-2.02.179 1.156zm1.964 328.628l-.155 1.076-12.52-1.772.162-1.142 12.513 1.838zm1.455-305.29l-12.52 1.761-.162-1.15 12.538-1.675.144 1.065zm1.688 281.828l-.135 1.112-12.557-1.507.138-1.117 12.554 1.512zm1.245-258.38l-12.57 1.51-.132-1.16 12.573-1.416.129 1.065zm1.393 234.9l-.119 1.15-12.583-1.33.123-1.08 12.579 1.26zm1.004-211.34l-12.59 1.16-.098-1.101 12.592-1.181.096 1.122zm1.122 187.797l-.086 1.115-12.616-1.008.094-1.11 12.608 1.003zm.781-164.207l-12.618.848-.076-1.08 12.614-.913.08 1.145zm.832 140.631l-.066 1.079-12.626-.67.063-1.163 12.629.754zm.556-117.074l-12.622.673-.064-1.165 12.636-.59.05 1.082zm.56 93.42l-.035 1.113-12.643-.41.034-1.123 12.644.42zm.334-69.804l-12.645.428-.04-1.16 12.65-.33.035 1.062zm.268 46.179l-.024 1.164-12.643-.251.019-1.078 12.648.165zm.106-22.514l-12.641.084-.012-1.119 12.648-.085v1.12h.005z"/>
        </g>
        <g fill="#F69AB2">
            <path d="M2379.267 857.4c0 13.792-11.18 24.972-24.97 24.972-13.788 0-24.965-11.18-24.965-24.972 0-13.797 11.174-24.975 24.965-24.975 13.79 0 24.97 11.18 24.97 24.975"/>
            <path d="M2378.003 857.392c0-13.073-10.632-23.704-23.705-23.704-13.069 0-23.703 10.632-23.703 23.704 0 13.076 10.634 23.714 23.703 23.714 13.072-.001 23.705-10.638 23.705-23.714m-49.94 0c0-14.469 11.77-26.236 26.235-26.236 14.464 0 26.236 11.767 26.236 26.236 0 14.47-11.77 26.246-26.236 26.246-14.466 0-26.236-11.774-26.236-26.246M402.328 1478.55c0 8.044-6.52 14.568-14.565 14.568-8.038 0-14.558-6.524-14.558-14.568 0-8.042 6.52-14.563 14.558-14.563 8.045 0 14.565 6.521 14.565 14.563"/>
            <path d="M401.063 1478.55c0-7.327-5.967-13.302-13.3-13.302-7.325 0-13.297 5.975-13.297 13.302 0 7.341 5.972 13.3 13.297 13.3 7.334 0 13.3-5.959 13.3-13.3m-29.128 0c0-8.733 7.099-15.833 15.828-15.833 8.732 0 15.83 7.1 15.83 15.833 0 8.73-7.098 15.835-15.83 15.835-8.729 0-15.828-7.104-15.828-15.835M190.74 896.07c6.823 0 12.354 5.53 12.354 12.357 0 6.822-5.53 12.355-12.354 12.355-6.823 0-12.355-5.533-12.355-12.355 0-6.826 5.532-12.358 12.355-12.358"/>
            <path d="M201.824 908.431c0-6.126-4.971-11.1-11.082-11.1-6.122 0-11.09 4.974-11.09 11.1 0 6.11 4.97 11.079 11.09 11.079 6.11 0 11.082-4.969 11.082-11.079m-24.703 0c0-7.517 6.114-13.627 13.62-13.627 7.515 0 13.615 6.112 13.615 13.627 0 7.51-6.1 13.607-13.614 13.607-7.51.005-13.621-6.096-13.621-13.607M578.957 20.428a4.685 4.685 0 1 1 0 9.37 4.685 4.685 0 0 1 0-9.37M615.323-14.572c5.836 0 10.567 4.732 10.567 10.569 0 5.837-4.73 10.57-10.567 10.57s-10.568-4.733-10.568-10.57c0-5.837 4.731-10.57 10.568-10.57M2002.846 46.768c0 7.408-6.002 13.412-13.407 13.412-7.407 0-13.41-6.004-13.41-13.412 0-7.404 6.003-13.408 13.41-13.408 7.405 0 13.407 6.003 13.407 13.408M2230.48 852.62a4.691 4.691 0 1 1-.003 9.383 4.691 4.691 0 0 1 .002-9.383M453.06 434.56a4.694 4.694 0 0 1-9.386 0 4.693 4.693 0 0 1 9.385 0M1650.062 1696.315a4.687 4.687 0 1 1 0 9.374 4.687 4.687 0 0 1-4.684-4.688 4.685 4.685 0 0 1 4.684-4.686"/>
            <path d="M1272.52 1980.178v-2.531c151.437 0 298.346-29.663 436.64-88.168 133.584-56.506 253.553-137.403 356.57-240.442 103.02-103.047 183.908-223.03 240.407-356.63 58.493-138.325 88.15-285.26 88.15-436.718h2.536c0 151.803-29.73 299.067-88.354 437.706-56.625 133.902-137.695 254.159-240.946 357.43-103.252 103.27-223.49 184.359-357.374 240.99-138.614 58.636-285.848 88.363-437.63 88.363"/>
            <path d="M148.225 855.693c0-151.807 29.725-299.07 88.347-437.71 56.636-133.903 137.693-254.16 240.95-357.43 103.253-103.269 223.489-184.35 357.369-240.995 138.61-58.633 285.854-88.36 437.63-88.36 151.782 0 299.015 29.727 437.632 88.36 133.878 56.645 254.116 137.721 357.373 240.995 103.253 103.27 184.316 223.527 240.946 357.43 58.63 138.634 88.355 285.903 88.355 437.71h-2.536c0-151.466-29.658-298.398-88.15-436.72-56.499-133.6-137.385-253.594-240.408-356.627C1962.71-40.696 1842.745-121.589 1709.165-178.1c-138.3-58.509-285.21-88.173-436.645-88.173-151.433 0-298.347 29.664-436.643 88.173C702.295-121.594 582.325-40.696 479.306 62.346 376.286 165.38 295.4 285.374 238.9 418.972c-58.486 138.323-88.143 285.255-88.143 436.721 0 151.461 29.657 298.397 88.143 436.718 56.5 133.602 137.386 253.584 240.406 356.63 103.02 103.037 222.989 183.936 356.571 240.442 138.296 58.505 285.21 88.17 436.643 88.17v2.532c-151.775 0-299.02-29.728-437.63-88.365-133.889-56.646-254.12-137.722-357.372-240.991-103.258-103.27-184.313-223.527-240.95-357.428-58.623-138.641-88.343-285.905-88.343-437.708"/>
            <path d="M1272.52 1901.787v-7.595c140.175 0 276.157-27.46 404.166-81.612 123.644-52.298 234.686-127.183 330.043-222.558 95.362-95.379 170.227-206.44 222.526-330.098 54.144-128.033 81.593-264.04 81.593-404.239h7.59c0 141.221-27.662 278.218-82.195 407.185-52.673 124.573-128.093 236.443-224.148 332.521-96.056 96.075-207.91 171.492-332.456 224.179-128.95 54.553-265.923 82.217-407.12 82.217"/>
            <path d="M229.133 855.693c0-140.886 27.583-277.55 81.994-406.206C363.68 325.214 438.914 213.61 534.737 117.77 630.563 21.939 742.144-53.307 866.385-105.87c128.639-54.42 265.28-82.013 406.133-82.013 140.858 0 277.5 27.593 406.131 82.013 124.25 52.557 235.834 127.804 331.652 223.639 95.827 95.839 171.052 207.444 223.609 331.717 54.405 128.655 81.994 265.32 81.994 406.206h-2.526c0-140.537-27.518-276.877-81.795-405.215-52.427-123.97-127.475-235.3-223.064-330.907-95.59-95.608-206.908-170.67-330.849-223.099-128.324-54.288-264.633-81.81-405.15-81.81-140.513 0-276.824 27.524-405.143 81.81C743.43-51.1 632.117 23.968 536.531 119.571c-95.593 95.608-170.64 206.937-223.07 330.907-54.274 128.343-81.797 264.677-81.797 405.215 0 140.537 27.523 276.87 81.797 405.22 52.43 123.958 127.477 235.292 223.07 330.9 95.584 95.602 206.899 170.668 330.847 223.097 128.319 54.289 264.63 81.811 405.144 81.811v2.535c-140.854 0-277.5-27.592-406.132-82.008-124.242-52.562-235.823-127.814-331.65-223.652-95.823-95.84-171.056-207.437-223.61-331.705-54.413-128.665-81.997-265.324-81.997-406.198"/>
            <path d="M345.294 855.582c0-144.318 33.951-288.4 101.588-421.192l2.245 1.146c-67.428 132.408-101.3 276.137-101.307 420.04-.01 127.853 26.717 255.835 80.363 376.298 50.782 114.008 122.357 214.648 212.753 299.138 87.318 81.617 188.426 144.817 300.506 187.824 112.09 43 229.502 63.648 348.99 61.39 123.707-2.339 244.225-29.275 358.211-80.06l1.026 2.316c-114.296 50.911-235.14 77.918-359.188 80.28-119.813 2.267-237.555-18.449-349.945-61.577-112.387-43.118-213.767-106.484-301.32-188.323-90.646-84.731-162.431-185.646-213.333-299.966-53.798-120.76-80.589-249.127-80.589-377.314M2231.392 858.662h97.94v-2.533h-97.94z"/>
            <path d="M656.328 330.937c0-70.9-57.684-128.584-128.574-128.584-70.878 0-128.563 57.683-128.563 128.584 0 70.901 57.684 128.58 128.563 128.58 70.896 0 128.574-57.68 128.574-128.58m-259.026 0c0-71.948 58.52-130.483 130.457-130.483 71.937 0 130.467 58.54 130.467 130.483 0 71.948-58.53 130.478-130.467 130.478-71.937 0-130.457-58.526-130.457-130.478"/>
            <path d="M495.294 859.483c0 207.524 80.801 402.635 227.512 549.372 146.719 146.746 341.784 227.558 549.275 227.558 207.484 0 402.561-80.812 549.274-227.554 146.712-146.736 227.515-341.847 227.515-549.367 0-207.526-80.803-402.63-227.516-549.37C1674.636 163.386 1479.56 82.57 1272.081 82.57c-207.49 0-402.555 80.815-549.274 227.552-146.716 146.734-227.513 341.84-227.513 549.36m1558.63 0c0 208.88-81.32 405.255-229.002 552.95-147.664 147.692-344.005 229.038-552.843 229.038-208.844 0-405.185-81.346-552.854-229.038-147.669-147.697-229.003-344.07-229.003-552.95 0-208.876 81.33-405.248 229.005-552.939 147.669-147.698 344.01-229.045 552.852-229.045 208.838 0 405.18 81.343 552.843 229.045 147.682 147.692 229.001 344.07 229.001 552.94M165.334 857.776c0-13.792 11.18-24.972 24.969-24.972 13.79 0 24.966 11.179 24.966 24.972 0 13.795-11.176 24.975-24.966 24.975-13.79-.001-24.969-11.18-24.969-24.975"/>
            <path d="M166.598 857.786c0 13.072 10.633 23.703 23.705 23.703 13.07 0 23.703-10.63 23.703-23.703 0-13.077-10.633-23.715-23.703-23.715-13.072 0-23.705 10.637-23.705 23.715m49.942 0c0 14.468-11.771 26.233-26.237 26.233-14.463 0-26.236-11.766-26.236-26.233 0-14.47 11.771-26.247 26.236-26.247 14.466 0 26.237 11.773 26.237 26.247M2142.273 236.627c0-8.046 6.521-14.567 14.566-14.567 8.038 0 14.558 6.521 14.558 14.567 0 8.042-6.52 14.563-14.558 14.563-8.046 0-14.566-6.521-14.566-14.563"/>
            <path d="M2143.538 236.627c0 7.328 5.967 13.302 13.3 13.302 7.324 0 13.297-5.974 13.297-13.302 0-7.341-5.973-13.301-13.297-13.301-7.333 0-13.3 5.96-13.3 13.3m29.128 0c0 8.734-7.099 15.835-15.827 15.835-8.732 0-15.83-7.101-15.83-15.834 0-8.731 7.098-15.836 15.83-15.836 8.728 0 15.827 7.104 15.827 15.836M2353.862 794.393c6.823 0 12.355 5.533 12.355 12.356 0 6.824-5.532 12.357-12.355 12.357s-12.355-5.533-12.355-12.357c0-6.823 5.532-12.356 12.355-12.356"/>
            <path d="M2342.777 806.745c0 6.126 4.972 11.1 11.083 11.1 6.122 0 11.09-4.974 11.09-11.1 0-6.11-4.97-11.08-11.09-11.08-6.111 0-11.083 4.971-11.083 11.08m24.704 0c0 7.516-6.115 13.627-13.621 13.627-7.514 0-13.614-6.112-13.614-13.627 0-7.51 6.1-13.608 13.614-13.608 7.509-.003 13.621 6.099 13.621 13.608M1965.645 1685.378a4.685 4.685 0 0 1 4.683 4.686 4.685 4.685 0 1 1-4.683-4.686M1929.279 1708.61c5.836 0 10.568 4.731 10.568 10.569 0 5.836-4.732 10.568-10.568 10.568-5.835 0-10.568-4.732-10.568-10.568 0-5.838 4.733-10.57 10.568-10.57M555.163 1654.998c7.405 0 13.408 6.006 13.408 13.41 0 7.407-6.003 13.41-13.408 13.41-7.404 0-13.407-6.003-13.407-13.41 0-7.404 6.003-13.41 13.407-13.41M314.123 853.173a4.69 4.69 0 1 1 0 9.381 4.69 4.69 0 0 1 0-9.38M2091.542 1280.617a4.695 4.695 0 0 1 4.691-4.695 4.692 4.692 0 1 1-4.692 4.695M894.539 9.488a4.686 4.686 0 0 1 4.686 4.686 4.686 4.686 0 1 1-9.372 0 4.686 4.686 0 0 1 4.686-4.686"/>
            <path d="M1272.081-265.003v2.53c-151.438 0-298.346 29.664-436.642 88.17C701.857-117.799 581.887-36.9 478.87 66.138c-103.02 103.047-183.907 223.029-240.407 356.63-58.493 138.324-88.15 285.259-88.15 436.718h-2.536c0-151.803 29.73-299.068 88.355-437.708C292.756 287.878 373.825 167.621 477.077 64.35 580.33-38.92 700.567-120.009 834.452-176.64c138.613-58.636 285.848-88.363 437.63-88.363"/>
            <path d="M2396.377 859.483c0 151.806-29.725 299.07-88.347 437.713-56.637 133.898-137.694 254.155-240.95 357.428-103.253 103.27-223.49 184.35-357.37 240.996-138.61 58.632-285.853 88.36-437.63 88.36-151.782 0-299.016-29.728-437.633-88.36-133.877-56.647-254.116-137.722-357.373-240.996-103.252-103.273-184.315-223.53-240.946-357.428-58.63-138.639-88.354-285.905-88.354-437.712h2.535c0 151.468 29.658 298.399 88.15 436.72 56.497 133.6 137.383 253.593 240.408 356.626 103.02 103.04 222.986 183.935 356.568 240.446 138.298 58.51 285.208 88.175 436.643 88.175 151.433 0 298.349-29.665 436.643-88.175 133.582-56.506 253.552-137.405 356.571-240.446 103.02-103.033 183.907-223.027 240.406-356.626 58.486-138.323 88.144-285.252 88.144-436.72 0-151.46-29.658-298.396-88.144-436.718-56.5-133.602-137.386-253.583-240.406-356.63-103.02-103.037-222.989-183.936-356.571-240.442-138.296-58.505-285.21-88.17-436.643-88.17v-2.532c151.775 0 299.02 29.728 437.632 88.365C1843.6-119.997 1963.829-38.922 2067.08 64.35c103.258 103.269 184.313 223.525 240.951 357.427 58.623 138.64 88.345 285.904 88.345 437.706"/>
            <path d="M1272.081-186.611v7.596c-140.176 0-276.158 27.458-404.167 81.611C744.271-45.105 633.23 29.78 537.871 125.155 442.51 220.532 367.644 331.594 315.345 455.25c-54.144 128.036-81.593 264.042-81.593 404.24h-7.59c0-141.22 27.662-278.219 82.195-407.186 52.672-124.572 128.093-236.44 224.148-332.52 96.056-96.075 207.91-171.491 332.456-224.178 128.95-54.555 265.923-82.218 407.12-82.218"/>
            <path d="M2315.47 859.483c0 140.887-27.584 277.55-81.995 406.208-52.554 124.273-127.786 235.879-223.61 331.714-95.827 95.832-207.408 171.079-331.649 223.641-128.637 54.42-265.278 82.013-406.133 82.013-140.857 0-277.5-27.593-406.131-82.013-124.25-52.558-235.834-127.804-331.652-223.64-95.825-95.836-171.052-207.444-223.607-331.715-54.406-128.656-81.994-265.32-81.994-406.208h2.526c0 140.538 27.517 276.877 81.794 405.216 52.428 123.97 127.475 235.298 223.064 330.906 95.591 95.608 206.908 170.67 330.85 223.097 128.322 54.29 264.632 81.814 405.149 81.814 140.514 0 276.825-27.524 405.143-81.814 123.948-52.429 235.26-127.494 330.846-223.097 95.593-95.608 170.641-206.937 223.072-330.906 54.274-128.343 81.797-264.678 81.797-405.215 0-140.536-27.523-276.87-81.797-405.221-52.431-123.957-127.479-235.29-223.072-330.898-95.584-95.604-206.898-170.667-330.846-223.099-128.318-54.287-264.63-81.811-405.143-81.811v-2.533c140.853 0 277.5 27.591 406.132 82.008 124.241 52.562 235.822 127.813 331.65 223.652 95.823 95.839 171.056 207.437 223.61 331.704 54.41 128.664 81.995 265.324 81.995 406.197"/>
            <path d="M2199.308 859.595c0 144.32-33.952 288.4-101.589 421.193l-2.245-1.146c67.429-132.408 101.302-276.137 101.309-420.042.008-127.852-26.718-255.835-80.364-376.298-50.781-114.008-122.358-214.648-212.753-299.138-87.318-81.617-188.426-144.818-300.507-187.824-112.09-43-229.502-63.648-348.99-61.391-123.707 2.339-244.225 29.277-358.212 80.06l-1.026-2.315c114.295-50.912 235.14-77.919 359.189-80.278 119.813-2.27 237.554 18.445 349.945 61.576 112.388 43.116 213.767 106.483 301.32 188.322 90.647 84.73 162.432 185.647 213.334 299.966 53.797 120.761 80.589 249.128 80.589 377.315M215.268 859.046h97.94v-2.531h-97.94z"/>
            <path d="M1888.274 1384.238c0 70.9 57.684 128.586 128.574 128.586 70.878 0 128.563-57.683 128.563-128.586 0-70.9-57.684-128.58-128.563-128.58-70.896 0-128.574 57.68-128.574 128.58m259.025 0c0 71.948-58.519 130.484-130.456 130.484-71.938 0-130.468-58.538-130.468-130.484 0-71.945 58.53-130.479 130.468-130.479 71.936 0 130.456 58.527 130.456 130.48"/>
        </g>
        <g fill="#F69AB2">
            <path d="M1861.888 1272.96l-25.225-18.35c82.144-115.782 126.448-253.897 126.448-398.91 0-145.012-44.304-283.148-126.448-398.93l25.225-18.32c86.005 121.07 132.392 265.542 132.392 417.25 0 151.694-46.387 296.177-132.392 417.26M688.98 1281.17l25.448-18.034c83.411 114.87 200.083 201.029 337.454 247.404 137.371 46.38 282.4 48.575 418.354 7.757l9.285 29.766c-142.195 42.779-293.894 40.533-437.61-7.984-143.7-48.516-265.736-138.685-352.931-258.909" opacity=".77"/>
            <path d="M1272.14 137.556c73.887 0 146.036 11.024 214.642 32.263l-9.635 29.665c-65.52-20.25-134.439-30.773-205.007-30.773-184.638 0-358.115 71.808-488.484 202.214a699.684 699.684 0 0 0-65.164 75.188l-25.228-18.338c20.707-27.658 43.487-54.047 68.366-78.9 136.244-136.274 317.548-211.32 510.51-211.32" opacity=".25"/>
            <g>
                <path d="M1851.337 424a729.319 729.319 0 0 0-68.364-78.906c-136.245-136.29-317.55-211.335-510.512-211.335-73.888 0-146.037 11.046-214.641 32.28l9.634 29.67c65.52-20.247 134.44-30.783 205.007-30.783 184.638 0 358.116 71.814 488.484 202.219a699.268 699.268 0 0 1 65.164 75.192L1851.337 424zm-2.797-.428l-22.02 16.006a704.084 704.084 0 0 0-64.175-73.833c-130.732-130.776-304.716-202.8-489.888-202.8-69.484 0-138.014 10.186-203.728 30.289l-8.41-25.89c68.43-20.97 139.785-31.606 212.133-31.606 192.438 0 373.243 74.85 509.11 210.756 23.974 23.955 46.497 49.874 66.978 77.078z"/>
                <path d="M1962.67 868.415h31.173c-2.287 189.645-77.05 367.503-211.194 501.666-79.736 79.758-174.944 138.516-278.861 173.551l-9.634-29.675c99.298-33.537 190.245-89.69 266.455-165.93 128.257-128.28 199.774-298.292 202.06-479.612" opacity=".13"/>
                <path d="M687.225 439.666a729.216 729.216 0 0 0-54.082 89.304C545.31 700.515 529.59 896.132 588.856 1079.8c22.695 70.329 55.364 135.608 96.641 194.387l25.27-18.28c-39.386-56.148-70.583-118.51-92.255-185.68-56.712-175.743-41.662-362.92 42.375-527.062a699.88 699.88 0 0 1 51.533-85.12l-25.195-18.38zm.454 2.792l21.99 16.043a704.766 704.766 0 0 0-50.54 83.762c-84.281 164.603-99.371 352.326-42.497 528.577 21.34 66.139 52.078 128.24 91.391 184.612l-22.05 15.956c-40.971-58.691-73.007-123.342-95.23-192.206-59.104-183.168-43.418-378.253 44.168-549.318 15.427-30.177 33.173-59.574 52.768-87.426z"/>
            </g>
        </g>
        <g fill="#F69AB2" opacity=".25">
            <path d="M1253.08 1220.818l.026 267.611c-161.038-4.722-311.611-69.537-425.851-183.781-66.772-66.773-116.662-145.98-147.595-232.427l254.984-82.886c50.071 129.904 172.98 223.879 318.437 231.483M1609.597 989.321l254.956 82.79c-30.877 86.46-80.793 165.67-147.55 232.457-114.225 114.263-264.793 179.106-425.82 183.857l-.025-267.611c145.46-7.586 268.354-101.626 318.44-231.493" opacity=".2"/>
            <path d="M1716.925 414.613c118.777 118.775 184.15 276.775 184.162 444.977.006 60.51-8.484 119.757-24.897 176.294l-254.795-82.794a360.255 360.255 0 0 0 12.305-93.476c-.01-113.274-52.353-214.491-134.103-280.836l157.545-216.883c20.851 16.16 40.818 33.766 59.783 52.718" opacity=".5"/>
            <path d="M1272.027 230.54c128.325-.01 250.731 38.105 354.305 108.935l-157.54 216.924c-56.651-36.894-124.221-58.43-196.74-58.422-72.515.006-140.076 21.553-196.727 58.457L917.752 339.539c103.559-70.849 225.954-108.987 354.275-108.999" opacity=".2"/>
            <path d="M827.175 414.699a638.068 638.068 0 0 1 59.785-52.734l157.573 216.854c-81.739 66.356-134.069 167.587-134.059 280.86a360.368 360.368 0 0 0 12.323 93.473l-254.78 82.84c-16.417-56.573-24.93-115.777-24.937-176.289-.015-168.2 65.385-326.214 184.095-445.004" opacity=".5"/>
        </g>
        <path d="M841 421h879v879H841z"/>
        <path fill="#F69AB2" d="M1084.984 1093.956c-26.48 0-48.021 21.55-48.021 48.034 0 26.48 21.543 48.031 48.02 48.031 26.48 0 48.02-21.55 48.02-48.03 0-26.49-21.54-48.035-48.02-48.035zm0 96.77c-26.87 0-48.732-21.862-48.732-48.736 0-26.877 21.864-48.742 48.732-48.742 26.87 0 48.73 21.867 48.73 48.742 0 26.874-21.858 48.737-48.73 48.737zm484.214-555.116c-26.215 0-47.542 21.33-47.542 47.55s21.327 47.55 47.542 47.55c26.217 0 47.544-21.33 47.544-47.55-.003-26.22-21.328-47.55-47.544-47.55zm0 96.044c-26.733 0-48.483-21.756-48.483-48.496 0-26.74 21.752-48.495 48.483-48.495 26.739 0 48.488 21.753 48.488 48.495 0 26.74-21.75 48.496-48.488 48.496zm-288.07-226.143h.944v-36.59h-.944v36.59zm362.974 358.711h26.129v-.947h-26.13v.947zM1281.96 423.845l-.4-.01.056-2.835.436.012-.092 2.833zm-3.521.074l-.208-2.828.444-.029.15 2.833-.386.024zm6.635.152l-.39-.047.298-2.818.435.05-.343 2.815zm-9.742.21l-.45-2.797.432-.068.413 2.805-.395.06zm12.832.29l-.391-.08.543-2.78.428.087-.58 2.774zm-15.893.345l-.693-2.747.416-.105.676 2.755-.399.097zm18.916.43l-.377-.114.786-2.723.418.126-.827 2.712zm-21.902.48l-.939-2.674.408-.142.916 2.682-.385.135zm24.852.567l-.372-.149 1.026-2.639.413.161-1.067 2.627zm-27.738.604l-1.183-2.575.393-.178 1.154 2.589-.364.164zm30.59.71l-.374-.19 1.274-2.533.376.19-1.276 2.532zm-33.37.712l-1.408-2.458.377-.215 1.379 2.476-.348.197zm36.071.837l-.345-.215 1.495-2.41.368.23-1.518 2.395zm-38.712.835l-1.616-2.33.354-.244 1.595 2.345-.333.229zm41.273.955l-.32-.245 1.704-2.266.345.26-1.73 2.251zm-43.752.942l-1.818-2.173.332-.274 1.798 2.19-.312.257zm46.147 1.068l-.298-.271 1.895-2.106.323.29-1.92 2.087zm-48.453 1.043l-2.002-2.004.309-.307 1.977 2.03-.284.281zm50.658 1.17l-.272-.291 2.072-1.94.295.323-2.095 1.908zm-52.769 1.136l-2.17-1.82.275-.327 2.158 1.838-.263.309zm54.77 1.264l-.243-.314 2.23-1.745.27.348-2.256 1.711zm-56.663 1.22l-2.328-1.614.253-.36 2.306 1.65-.231.324zm58.44 1.35l-.215-.337 2.38-1.538.234.364-2.4 1.51zm-60.108 1.296l-2.462-1.4.212-.377 2.455 1.423-.205.354zm61.65 1.42l-.18-.357 2.51-1.32.194.38-2.523 1.298zm-63.076 1.363l-2.578-1.177.178-.388 2.57 1.192-.17.373zm64.371 1.474l-.151-.367 2.618-1.093.163.401-2.63 1.059zm-65.54 1.426l-2.673-.938.145-.414 2.663.976-.136.376zm66.58 1.532l-.124-.397 2.704-.846.126.403-2.707.84zm-67.484 1.458l-2.75-.691.112-.425 2.736.732-.098.384zm68.243 1.566l-.083-.4 2.77-.602.09.42-2.777.582zm-68.878 1.497l-2.798-.451.073-.43 2.791.486-.066.395zm69.367 1.573l-.042-.387 2.808-.354.054.442-2.82.3zm-69.722 1.533l-2.825-.207.033-.435 2.824.246-.032.396zm69.937 1.587l-.008-.397 2.83-.096.012.436-2.834.057zm2.845 1.328l-2.833-.037.005-.4h2.828v.437zm-75.693.258l-.005-.445h2.833l.005.388-2.833.057zm75.502 3.12l-2.817-.301.036-.388 2.822.244-.04.445zm-75.296.247l-.043-.433 2.825-.262.036.398-2.818.297zm74.818 3.083l-2.787-.531.075-.396 2.79.504-.078.423zm-74.31.254l-.082-.422 2.785-.525.077.4-2.78.547zm73.525 3.031l-2.73-.77.11-.392 2.736.75-.116.412zm-72.719.258l-.123-.424 2.73-.763.112.382-2.719.805zm71.645 2.948l-2.648-1.016.145-.381 2.657.992-.154.405zm-70.55.243l-.156-.402 2.648-1.012.146.376-2.637 1.038zm69.192 2.856l-2.542-1.252.172-.358 2.564 1.214-.194.396zm-67.811.224l-.194-.383 2.547-1.246.177.359-2.53 1.27zm66.179 2.742l-2.418-1.48.205-.343 2.44 1.446-.227.377zm-64.534.205l-.226-.362 2.422-1.475.21.349-2.406 1.488zm62.645 2.597l-2.275-1.69.235-.322 2.296 1.658-.256.354zm-60.745.19l-.258-.35 2.292-1.671.238.326-2.272 1.695zm58.62 2.431l-2.119-1.888.264-.298 2.142 1.857-.287.33zm-56.475.18l-.288-.325 2.13-1.871.265.299-2.107 1.897zm54.121 2.242l-1.945-2.06.29-.28 1.967 2.041-.312.299zm-51.753.167l-.318-.3 1.955-2.054.293.273-1.93 2.08zm49.196 2.042l-1.746-2.233.306-.245 1.787 2.201-.347.277zm-46.63.146l-.334-.266 1.763-2.216.318.25-1.746 2.232zm43.892 1.82l-1.55-2.374.333-.22 1.58 2.353-.363.241zm-41.134.135l-.361-.236 1.56-2.37.338.225-1.537 2.38zm38.235 1.581l-1.342-2.496.362-.194 1.354 2.488-.374.202zm-35.31.122l-.39-.207 1.35-2.494.353.188-1.313 2.513zm32.266 1.327l-1.119-2.604.376-.162 1.13 2.599-.387.167zm-29.205.105l-.398-.166 1.108-2.61.374.158-1.084 2.618zm26.031 1.073l-.863-2.7.375-.123.9 2.685-.412.138zm-22.85.08l-.42-.135.879-2.693.378.121-.837 2.707zm19.592.805l-.618-2.769.388-.089.655 2.756-.425.102zm-16.33.057l-.417-.093.62-2.769.398.089-.601 2.773zm13.004.53l-.374-2.812.405-.054.394 2.808-.425.058zm-9.673.033l-.437-.056.396-2.806.395.05-.354 2.812zm6.306.257l-.113-2.833.401-.018.148 2.83-.436.021zm-2.937.01l-.448-.017.153-2.832.386.016-.091 2.834zm2.616-34.733h-.403v-4.727l.431.001-.028 4.726zm-9.138.072l-.093-4.724.416-.009.097 4.725-.42.008zm17.883.05l-.43-.011.125-4.725.4.01-.095 4.726zm-26.595.213l-.186-4.722.414-.018.19 4.722-.418.018zm35.323.094l-.434-.02.224-4.72.4.017-.19 4.723zm-44.043.35l-.28-4.715.397-.025.318 4.714-.435.026zm52.742.142l-.414-.029.315-4.713.414.028-.315 4.714zm-61.436.497l-.408-4.708.432-.036.375 4.71-.4.034zm70.13.183l-.4-.036.402-4.708.437.038-.44 4.706zm-78.82.639l-.503-4.7.422-.044.496 4.7-.415.044zm87.528.233l-.433-.047.529-4.696.4.044-.496 4.699zm-96.204.777l-.597-4.686.416-.055.596 4.689-.415.052zm104.868.282l-.427-.055.623-4.683.4.053-.596 4.685zm-113.517.917l-.691-4.675.403-.06.714 4.67-.426.065zm122.146.328l-.415-.063.722-4.67.412.062-.72 4.67zm-130.754 1.058l-.813-4.654.426-.075.783 4.66-.396.07zm139.35.371l-.392-.07.81-4.653.43.075-.848 4.648zm-147.937 1.204l-.908-4.636.415-.08.9 4.64-.407.076zm156.537.424l-.426-.087.938-4.627.392.078-.904 4.636zm-165.092 1.335l-.997-4.619.405-.086 1.004 4.615-.412.09zm173.629.472l-.419-.093 1.025-4.612.398.088-1.004 4.617zm-182.141 1.477l-1.093-4.595.392-.094 1.122 4.59-.421.1zm190.625.515l-.402-.098 1.124-4.59.409.099-1.13 4.59zm-199.075 1.615l-1.219-4.562.403-.108 1.22 4.564-.404.106zm207.52.563l-.392-.107 1.218-4.562.421.114-1.248 4.555zm-215.937 1.756l-1.315-4.538.414-.12 1.287 4.548-.386.11zm224.34.607l-.386-.114 1.315-4.539.413.124-1.342 4.53zm-232.703 1.896l-1.41-4.51.404-.126 1.403 4.514-.397.122zm241.07.656l-.41-.129 1.428-4.504.393.124-1.41 4.509zm-249.38 2.031l-1.502-4.48.4-.135 1.496 4.482-.394.133zm257.69.707l-.393-.134 1.525-4.472.402.137-1.533 4.47zm-265.934 2.157l-1.596-4.445.391-.142 1.597 4.445-.392.142zm274.198.767l-.393-.144 1.616-4.438.395.143-1.618 4.439zm-282.38 2.281l-1.69-4.411.375-.146 1.718 4.404-.403.153zm290.573.822l-.393-.153 1.718-4.402.384.152-1.709 4.403zm-298.687 2.405l-1.78-4.377.367-.15 1.817 4.363-.404.164zm306.789.87l-.376-.154 1.812-4.366.401.168-1.837 4.352zm-314.792 2.515l-1.883-4.335.38-.166 1.883 4.334-.38.167zm322.832.94l-.367-.16 1.9-4.328.402.178-1.935 4.31zm-330.773 2.623l-1.974-4.294.376-.17 1.984 4.285-.386.179zm338.743 1.014l-.37-.175 2-4.279.381.18-2.01 4.274zm-346.597 2.72l-2.074-4.248.383-.184 2.062 4.251-.37.181zm354.467 1.078l-.356-.176 2.087-4.238.396.195-2.127 4.22zm-362.246 2.826l-2.16-4.2.363-.187 2.174 4.193-.377.194zm370.061 1.158l-.378-.196 2.187-4.19.367.19-2.176 4.196zm-377.748 2.916l-2.262-4.15.373-.2 2.249 4.153-.36.197zm385.442 1.224l-.364-.2 2.274-4.14.376.204-2.286 4.136zm-393.046 3.023l-2.347-4.103.367-.21 2.335 4.109-.355.204zm400.653 1.287l-.362-.21 2.375-4.084.36.21-2.373 4.084zm-408.162 3.116l-2.442-4.044.367-.222 2.423 4.055-.348.21zm415.692 1.366l-.376-.227 2.467-4.03.339.207-2.43 4.05zm-423.118 3.21l-2.51-4.001.338-.215 2.54 3.982-.368.234zm430.528 1.424l-.364-.231 2.537-3.98.346.217-2.519 3.994zm-437.838 3.304l-2.607-3.94.34-.226 2.621 3.931-.354.235zm445.12 1.476l-.327-.222 2.623-3.931.367.246-2.664 3.907zm-452.335 3.41l-2.693-3.882.339-.237 2.7 3.879-.346.24zm459.547 1.547l-.336-.238 2.712-3.868.351.248-2.727 3.858zm-466.65 3.498l-2.783-3.82.348-.25 2.766 3.83-.33.24zm473.753 1.616l-.35-.255 2.805-3.802.327.24-2.782 3.817zm-480.757 3.587l-2.854-3.765.326-.25 2.867 3.757-.34.258zm487.726 1.667l-.33-.255 2.876-3.751.332.254-2.878 3.752zm-494.608 3.68l-2.945-3.695.342-.271 2.917 3.718-.314.247zm501.47 1.725l-.327-.265 2.965-3.68.32.26-2.957 3.685zm-508.244 3.775l-3.012-3.637.314-.262 3.025 3.628-.327.271zm514.971 1.766l-.305-.255 3.03-3.624.335.283-3.06 3.596zm-521.615 3.879l-3.1-3.567.315-.275 3.1 3.566-.315.276zm528.252 1.827l-.318-.275 3.114-3.552.312.275-3.108 3.552zm-534.788 3.963l-3.165-3.51.296-.27 3.19 3.486-.32.294zm541.282 1.88l-.315-.29 3.198-3.479.298.275-3.181 3.495zm-547.676 4.041l-3.254-3.427.314-.298 3.233 3.45-.293.275zm554.034 1.924l-.298-.283 3.258-3.418.313.298-3.273 3.403zm-560.318 4.147l-3.313-3.364.296-.294 3.317 3.363-.3.295zm566.55 1.966l-.295-.294 3.343-3.338.294.295-3.342 3.337zm-572.689 4.233l-3.39-3.293.29-.296 3.394 3.284-.294.305zm578.798 2.016l-.299-.31 3.42-3.261.282.293-3.403 3.278zm-584.806 4.316l-3.462-3.214.287-.31 3.456 3.22-.28.304zm590.756 2.045l-.275-.301 3.477-3.196.291.314-3.493 3.183zm-596.63 4.418l-3.527-3.137.275-.311 3.536 3.136-.283.312zm602.448 2.075l-.26-.297 3.534-3.133.29.333-3.564 3.097zm-608.178 4.514l-3.596-3.062.271-.32 3.596 3.063-.27.32zm613.87 2.122l-.268-.321 3.613-3.046.266.32-3.61 3.047zm-619.457 4.593l-3.66-2.987.258-.32 3.672 2.977-.27.33zm624.988 2.141l-.258-.324 3.675-2.963.266.329-3.683 2.958zm-630.434 4.69l-3.72-2.91.25-.322 3.734 2.894-.264.338zm635.824 2.172l-.261-.338 3.75-2.875.25.325-3.739 2.888zm-641.115 4.78l-3.785-2.828.241-.326 3.803 2.806-.26.348zm646.351 2.193l-.253-.34 3.809-2.8.246.333-3.802 2.807zm-651.493 4.865l-3.848-2.737.238-.336 3.858 2.724-.248.349zm656.564 2.202l-.225-.325 3.856-2.729.252.36-3.883 2.694zm-661.558 4.975l-3.904-2.657.236-.347 3.907 2.66-.239.344zm666.496 2.221l-.232-.343 3.924-2.637.231.347-3.923 2.633zm-671.328 5.062l-3.962-2.575.226-.346 3.968 2.562-.232.36zm676.108 2.242l-.231-.361 3.98-2.543.218.342-3.967 2.562zm-680.78 5.144l-4.02-2.479.226-.363 4.013 2.494-.218.348zm685.389 2.249l-.228-.374 4.044-2.447.201.336-4.017 2.485zm-689.905 5.242l-4.07-2.398.208-.354 4.078 2.382-.216.37zm694.337 2.225l-.195-.345 4.078-2.382.223.377-4.106 2.35zm-698.686 5.36l-4.12-2.309.2-.357 4.127 2.298-.207.367zm702.978 2.23l-.198-.357 4.133-2.285.204.367-4.139 2.275zm-707.162 5.449l-4.175-2.212.2-.378 4.167 2.226-.192.364zm711.277 2.225l-.185-.361 4.178-2.201.196.374-4.19 2.188zm-715.296 5.55l-4.217-2.129.186-.373 4.22 2.125-.189.376zm719.25 2.213l-.186-.377 4.232-2.1.178.366-4.223 2.111zm-723.093 5.64l-4.268-2.025.188-.392 4.254 2.05-.174.368zm726.87 2.195l-.177-.376 4.275-2.011.177.375-4.275 2.012zM914.37 699.19l-4.31-1.936.172-.384 4.31 1.94-.172.38zm734.15 2.162l-.167-.377 4.317-1.919.173.386-4.323 1.91zm-737.65 5.858l-4.353-1.835.168-.4 4.344 1.858-.159.377zm741.086 2.14l-.166-.388 4.364-1.82.158.379-4.356 1.829zm-744.41 5.963l-4.391-1.745.155-.39 4.39 1.744-.155.391zm747.668 2.116l-.157-.408 4.402-1.715.143.368-4.388 1.755zm-750.818 6.06l-4.426-1.652.147-.391 4.425 1.651-.146.391zm753.903 2.086l-.143-.393 4.435-1.625.145.394-4.437 1.624zm-756.87 6.157l-4.46-1.562.136-.384 4.466 1.537-.142.409zm759.783 2.077l-.139-.397 4.474-1.53.135.395-4.47 1.532zm-762.569 6.226l-4.495-1.452.126-.396 4.5 1.445-.13.403zm765.3 2.064l-.128-.398 4.503-1.439.129.4-4.505 1.437zm-767.905 6.305l-4.521-1.358.116-.397 4.526 1.35-.12.405zm770.45 2.034l-.108-.388 4.522-1.342.126.417-4.54 1.313zm-772.857 6.353l-4.556-1.246.114-.416 4.55 1.273-.108.39zm775.226 2.073l-.113-.424 4.567-1.222.104.387-4.558 1.259zm-777.453 6.376l-4.581-1.163.103-.4 4.579 1.151-.1.412zm779.637 2.079l-.106-.428 4.587-1.124.099.387-4.58 1.165zm-781.677 6.4l-4.606-1.048.092-.407 4.61 1.044-.096.412zm783.669 2.08l-.093-.404 4.61-1.034.093.411-4.61 1.028zm-785.521 6.455l-4.63-.955.085-.41 4.629.956-.084.409zm787.329 2.09l-.083-.409 4.632-.938.081.409-4.63.938zm-788.996 6.474l-4.65-.844.075-.413 4.65.848-.075.409zm790.616 2.093l-.072-.4 4.652-.842.073.425-4.653.817zm-792.099 6.515l-4.665-.75.066-.41 4.664.745-.065.415zm793.535 2.114l-.065-.426 4.668-.723.059.402-4.662.747zm-794.827 6.516l-4.68-.64.059-.417 4.677.642-.056.415zm796.074 2.116l-.057-.418 4.684-.624.057.41-4.684.632zm-797.182 6.549l-4.691-.549.049-.416 4.691.548-.049.417zm798.238 2.117l-.047-.415 4.7-.533.046.416-4.7.532zm-799.15 6.56l-4.704-.438.042-.414 4.702.435-.04.417zm800.022 2.114l-.035-.4 4.707-.437.038.43-4.71.407zM880.32 834.1l-4.711-.344.029-.418 4.71.345-.028.417zm801.437 2.139l-.026-.432 4.708-.312.03.4-4.712.344zm-801.98 6.574l-4.718-.235.022-.419 4.719.233-.023.421zm802.476 2.13l-.02-.416 4.719-.218.02.417-4.72.217zm-802.831 6.595l-4.72-.14.01-.418 4.722.142-.012.416zm803.14 2.136l-.015-.417 4.725-.126.01.416-4.72.127zm-803.306 6.597l-4.724-.045.003-.412 4.726.034-.005.423zm808.15 2.116h-4.724v-.402l4.724-.032v.434zm-4.723 1.777h4.726v-.417h-4.726v.417zm-808.13 4.898l-.006-.418 4.724-.06.003.414-4.721.064zm812.75 3.947l-4.722-.125.005-.398 4.725.093-.008.43zm-812.541 4.867l-.017-.41 4.723-.174.013.425-4.72.159zm812.25 3.943l-4.72-.19.017-.42 4.724.191-.02.42zm-811.856 4.883l-.022-.425 4.715-.25.025.411-4.718.264zm811.377 3.928l-4.718-.278.027-.432 4.715.308-.024.402zm-810.792 4.883l-.031-.412 4.71-.375.034.429-4.713.358zm810.119 3.938l-4.705-.403.035-.417 4.71.399-.04.421zm-809.344 4.865l-.039-.425 4.702-.453.04.41-4.703.468zM1685 908.25l-4.696-.53.043-.403 4.698.504-.045.43zm-807.518 4.839l-.052-.404 4.69-.581.051.423-4.69.562zm806.47 3.911l-4.69-.593.055-.417 4.688.594-.053.416zm-805.313 4.85l-.06-.424 4.68-.657.057.408-4.677.673zm804.072 3.89l-4.675-.686.067-.428 4.67.723-.062.392zm-802.726 4.831l-.07-.4 4.658-.786.072.425-4.66.761zm801.291 3.903l-4.65-.818.071-.405 4.653.814-.074.409zm-799.755 4.803l-.078-.417 4.642-.862.077.4-4.641.879zm798.132 3.884l-4.627-.932.077-.397 4.636.908-.086.421zm-796.407 4.776l-.085-.398 4.617-.986.09.419-4.622.965zm794.602 3.871l-4.614-1.034.09-.39 4.615.998-.091.426zm-792.687 4.756l-.097-.41 4.602-1.07.094.398-4.599 1.082zm790.688 3.832l-4.592-1.097.103-.425 4.586 1.126-.097.396zm-788.586 4.744l-.104-.406 4.576-1.17.104.4-4.576 1.176zm786.398 3.826l-4.562-1.222.107-.405 4.566 1.219-.11.408zm-784.108 4.715l-.113-.405 4.546-1.287.112.403-4.545 1.29zm781.737 3.787l-4.538-1.316.113-.4 4.538 1.315-.113.4zm-779.26 4.678l-.123-.396 4.519-1.377.121.398-4.518 1.375zm776.696 3.787l-4.503-1.427.12-.391 4.512 1.402-.129.416zm-774.038 4.635l-.127-.385 4.485-1.486.134.406-4.492 1.465zm771.287 3.785l-4.477-1.51.14-.403 4.474 1.524-.137.39zm-768.443 4.582l-.138-.384 4.452-1.589.141.403-4.455 1.57zm765.508 3.777l-4.444-1.596.148-.406 4.441 1.614-.145.388zm-762.476 4.525l-.152-.405 4.428-1.646.141.376-4.417 1.675zm759.357 3.763l-4.418-1.68.161-.41 4.405 1.716-.148.374zm-756.15 4.465l-.158-.393 4.39-1.754.15.377-4.381 1.77zm752.843 3.771l-4.364-1.807.162-.39 4.364 1.813-.162.384zm-749.47 4.353l-.164-.38 4.34-1.858.167.381-4.344 1.857zm745.99 3.804l-4.322-1.915.171-.38 4.322 1.902-.17.393zm-742.439 4.25l-.172-.375 4.3-1.962.176.387-4.304 1.95zm738.788 3.8l-4.288-1.986.179-.384 4.282 2.002-.173.367zm-735.065 4.172l-.174-.359 4.25-2.068.188.39-4.264 2.037zm731.23 3.815l-4.239-2.086.189-.376 4.237 2.088-.188.374zm-727.328 4.084l-.188-.375 4.214-2.133.188.368-4.214 2.14zm723.325 3.807l-4.194-2.169.198-.381 4.188 2.186-.192.364zm-719.255 4.001l-.193-.359 4.161-2.24.2.374-4.168 2.225zm715.081 3.804l-4.147-2.262.204-.373 4.139 2.274-.196.361zm-710.837 3.926l-.21-.374 4.122-2.312.2.361-4.112 2.325zm706.498 3.78l-4.097-2.35.216-.37 4.085 2.369-.204.351zm-702.09 3.845l-.21-.351 4.057-2.424.218.366-4.064 2.41zm697.578 3.776l-4.04-2.452.214-.356 4.044 2.45-.218.358zm-693.004 3.757l-.219-.351 4.008-2.506.224.364-4.013 2.493zm688.323 3.77l-3.972-2.567.214-.335 3.994 2.529-.236.373zm-683.582 3.668l-.236-.362 3.967-2.56.22.332-3.951 2.59zm678.756 3.722l-3.927-2.626.229-.349 3.932 2.624-.234.351zm-673.86 3.608l-.237-.35 3.9-2.662.236.34-3.899 2.672zm668.873 3.682l-3.883-2.69.251-.357 3.867 2.717-.235.33zm-663.818 3.541l-.237-.33 3.831-2.766.249.344-3.843 2.752zm658.659 3.662l-3.8-2.808.237-.326 3.816 2.785-.253.349zm-653.445 3.452l-.247-.328 3.772-2.841.257.34-3.782 2.83zm648.142 3.61l-3.75-2.876.255-.328 3.75 2.873-.255.331zm-642.778 3.39l-.25-.322 3.709-2.925.265.335-3.724 2.911zm637.33 3.56l-3.694-2.944.263-.324 3.692 2.944-.262.324zm-631.813 3.323l-.256-.31 3.64-3.015.274.337-3.658 2.988zm626.209 3.517l-3.624-3.03.268-.322 3.625 3.03-.27.322zm-620.545 3.248l-.26-.305 3.575-3.086.28.325-3.595 3.066zm614.789 3.47l-3.536-3.13.258-.3 3.568 3.099-.29.33zm-608.98 3.17l-.265-.295 3.507-3.167.288.324-3.53 3.138zm603.093 3.406l-3.477-3.192.274-.302 3.492 3.178-.289.316zm-597.133 3.125l-.292-.316 3.463-3.219.278.3-3.449 3.235zm591.107 3.328l-3.416-3.263.288-.302 3.416 3.258-.288.307zm-585.014 3.055l-.294-.303 3.389-3.293.285.295-3.38 3.3zm578.852 3.26l-3.355-3.326.301-.305 3.344 3.344-.29.287zm-572.623 2.991l-.287-.28 3.293-3.386.31.307-3.316 3.359zm566.318 3.2l-3.274-3.404.297-.293 3.28 3.406-.303.29zm-559.946 2.929l-.302-.283 3.231-3.45.303.283-3.232 3.45zm553.52 3.11l-3.216-3.46.317-.292 3.196 3.481-.297.272zm-547.022 2.872l-.31-.28 3.155-3.517.31.279-3.155 3.518zm540.462 3.036l-3.133-3.535.31-.28 3.136 3.542-.313.273zm-533.84 2.8l-.308-.265 3.07-3.588.327.28-3.089 3.574zm527.15 2.968l-3.052-3.61.32-.274 3.048 3.612-.316.272zm-520.396 2.733l-.33-.276 3.023-3.627.312.258-3.005 3.645zm513.586 2.88l-2.961-3.68.317-.252 2.976 3.666-.332.266zm-506.713 2.666l-.316-.246 2.91-3.725.339.267-2.933 3.704zm499.792 2.798l-2.89-3.73.33-.259 2.887 3.734-.327.255zm-492.795 2.612l-.33-.251 2.84-3.774.339.25-2.849 3.775zm485.742 2.712l-2.784-3.816.318-.232 2.821 3.79-.355.258zm-478.627 2.538l-.336-.24 2.75-3.842.344.246-2.758 3.836zm471.487 2.612l-2.728-3.859.343-.24 2.727 3.856-.342.243zm-464.27 2.48l-.332-.232 2.663-3.903.355.25-2.685 3.884zm457.017 2.52l-2.659-3.906.358-.243 2.635 3.923-.334.225zm-449.678 2.42l-.354-.232 2.6-3.942.347.227-2.593 3.947zm442.313 2.422l-2.58-3.962.36-.231 2.564 3.97-.344.223zm-434.87 2.356l-.36-.224 2.52-4.003.348.22-2.508 4.007zm427.38 2.339l-2.445-4.044.337-.206 2.483 4.022-.376.228zm-419.84 2.275l-.35-.208 2.407-4.062.37.222-2.426 4.048zm412.29 2.232l-2.386-4.079.362-.208 2.383 4.076-.36.211zm-404.644 2.222l-.357-.204 2.324-4.11.372.21-2.339 4.104zm396.984 2.131l-2.299-4.128.368-.207 2.288 4.136-.357.199zm-389.244 2.157l-.362-.197 2.238-4.161.375.202-2.251 4.156zm381.501 2.022l-2.224-4.166.375-.203 2.205 4.182-.356.187zm-373.661 2.093l-.376-.19 2.15-4.207.374.19-2.148 4.207zm365.824 1.92l-2.139-4.217.39-.195 2.1 4.232-.351.18zm-357.903 2.022l-.371-.173 2.053-4.259.382.181-2.064 4.251zm349.977 1.82l-2.04-4.267.392-.182 2.01 4.278-.362.17zm-341.964 1.954l-.39-.175 1.975-4.297.376.174-1.96 4.298zm333.959 1.714l-1.94-4.308.393-.177 1.92 4.32-.373.165zm-325.866 1.884l-.382-.169 1.861-4.34.391.171-1.87 4.338zm317.792 1.606l-1.857-4.345.401-.177 1.82 4.365-.364.157zm-309.619 1.81l-.39-.16 1.77-4.377.391.16-1.77 4.377zm301.463 1.502l-1.753-4.39.405-.157 1.717 4.4-.37.147zm-293.217 1.735l-.4-.148 1.69-4.416.39.147-1.68 4.417zm284.968 1.41l-1.664-4.425.412-.152 1.625 4.44-.373.138zm-276.655 1.651l-.38-.136 1.56-4.463.409.145-1.59 4.454zm268.332 1.314l-1.559-4.455.41-.145 1.53 4.47-.381.13zm-259.95 1.557l-.384-.124 1.464-4.496.417.139-1.497 4.48zm251.557 1.233l-1.438-4.505.4-.13 1.44 4.506-.402.13zm-243.095 1.462l-.4-.123 1.37-4.52.402.122-1.372 4.521zm234.657 1.13l-1.349-4.531.402-.112 1.344 4.526-.397.118zm-226.193 1.36l-.395-.108 1.278-4.55.407.117-1.29 4.541zm217.688 1.055l-1.229-4.559.394-.11 1.25 4.556-.415.113zm-209.165 1.258l-.4-.107 1.181-4.571.41.106-1.191 4.572zm200.62.966l-1.13-4.584.396-.104 1.155 4.585-.422.103zm-192.048 1.156l-.391-.096 1.065-4.604.42.103-1.094 4.597zm183.467.88l-1.057-4.607.417-.092 1.037 4.608-.397.092zm-174.836 1.053l-.41-.084.97-4.626.41.086-.97 4.624zm166.193.797l-.942-4.629.41-.084.942 4.631-.41.082zm-157.54.947l-.425-.082.903-4.638.4.074-.879 4.646zm148.867.715l-.846-4.648.418-.074.839 4.65-.41.072zm-140.178.839l-.411-.07.782-4.657.411.068-.782 4.659zm131.46.631l-.72-4.67.395-.058.753 4.66-.428.068zm-122.735.736l-.401-.061.66-4.676.426.061-.685 4.676zm114.015.541l-.657-4.675.43-.06.624 4.684-.397.051zm-105.253.634l-.416-.052.563-4.693.419.051-.566 4.694zm96.497.463l-.565-4.697.433-.05.528 4.698-.396.05zm-87.729.519l-.428-.045.499-4.7.403.047-.474 4.698zm78.93.376l-.434-4.704.414-.035.44 4.705-.42.034zm-70.137.42l-.415-.034.375-4.712.415.035-.375 4.711zm61.328.288l-.316-4.711.404-.028.34 4.714-.428.025zm-52.523.315l-.402-.027.248-4.715.435.023-.281 4.719zm43.725.209l-.252-4.72.436-.022.22 4.718-.404.024zm-34.89.206l-.414-.014.152-4.724.419.014-.157 4.724zm26.07.126l-.16-4.725.431-.014.126 4.725-.397.014zm-17.246.099l-.433-.008.093-4.725.4.008-.06 4.725zm8.409.04l-.032-4.723.42-.003.03 4.723h-.418v.002zm-2.287-60.097c-53.899 0-107.71-12.683-157.304-37.954l.428-.836c49.45 25.19 103.129 37.843 156.872 37.848 47.751.004 95.548-9.98 140.537-30.027 42.577-18.969 80.165-45.711 111.719-79.48 30.48-32.624 54.084-70.397 70.145-112.27 16.06-41.878 23.771-85.741 22.929-130.385-.875-46.216-10.934-91.242-29.9-133.828l.863-.384c19.015 42.701 29.101 87.85 29.982 134.193.847 44.764-6.888 88.752-22.997 130.74-16.103 41.987-39.77 79.863-70.332 112.57-31.645 33.869-69.335 60.686-112.03 79.704-45.097 20.1-93.036 30.109-140.912 30.109zm.042 43.398c-52.617 0-103.657-10.307-151.706-30.633-46.413-19.632-88.094-47.739-123.887-83.54-35.79-35.8-63.892-77.485-83.523-123.905-20.325-48.059-30.63-99.106-30.63-151.729 0-52.624 10.305-103.675 30.63-151.73 19.63-46.423 47.732-88.11 83.523-123.908 35.793-35.801 77.474-63.905 123.887-83.54 48.049-20.328 99.089-30.632 151.706-30.632v.943c-52.488 0-103.405 10.28-151.336 30.559-46.3 19.587-87.879 47.625-123.584 83.336-35.705 35.712-63.74 77.3-83.32 123.605-20.274 47.943-30.554 98.869-30.554 151.365 0 52.496 10.28 103.423 30.554 151.363 19.58 46.308 47.617 87.894 83.32 123.604 35.707 35.713 77.284 63.75 123.585 83.337 47.932 20.278 98.849 30.56 151.337 30.56 52.486 0 103.401-10.282 151.337-30.56 46.296-19.586 87.874-47.624 123.583-83.337 35.704-35.71 63.736-77.296 83.318-123.604 20.276-47.94 30.553-98.867 30.553-151.363h.947c0 52.623-10.305 103.672-30.626 151.73-19.632 46.418-47.735 88.104-83.528 123.906-35.793 35.799-77.471 63.908-123.88 83.538-48.056 20.328-99.096 30.635-151.706 30.635zm390.684-389.81h-2.836c0-52.368-10.253-103.172-30.478-150.995-19.532-46.194-47.501-87.679-83.12-123.305-35.618-35.628-77.099-63.598-123.28-83.135-47.819-20.228-98.613-30.483-150.97-30.483v-2.836c52.739 0 103.905 10.334 152.069 30.707 46.523 19.68 88.304 47.856 124.186 83.743 35.881 35.886 64.047 77.675 83.724 124.205 20.375 48.174 30.705 99.348 30.705 152.1zm-390.684 420.036c-56.696 0-111.694-11.104-163.471-33.006-50.008-21.159-94.92-51.442-133.49-90.02-38.568-38.573-68.849-83.493-90.004-133.511-21.899-51.785-33-106.796-33-163.498 0-56.706 11.101-111.714 33-163.501 21.154-50.015 51.433-94.936 90.003-133.513 38.57-38.575 83.482-68.86 133.49-90.018 51.774-21.903 106.775-33.008 163.472-33.008v.947c-56.57 0-111.443 11.08-163.104 32.932-49.895 21.108-94.71 51.328-133.189 89.816-38.483 38.49-68.694 83.31-89.8 133.214-21.85 51.669-32.929 106.554-32.929 163.13 0 56.574 11.079 111.463 32.929 163.129 21.104 49.906 51.317 94.728 89.8 133.215 38.48 38.491 83.294 68.706 133.19 89.816 51.658 21.85 106.533 32.931 163.103 32.931 56.566 0 111.441-11.08 163.1-32.93 49.898-21.11 94.706-51.326 133.192-89.817 38.482-38.487 68.694-83.309 89.797-133.215 21.851-51.666 32.928-106.555 32.928-163.128h.947c0 56.702-11.101 111.713-33.003 163.498-21.154 50.02-51.434 94.939-90.002 133.514-38.57 38.58-83.48 68.86-133.489 90.02-51.777 21.902-106.775 33.003-163.47 33.003zm419.964-420.035h-.947c0-56.577-11.078-111.461-32.928-163.13-21.103-49.905-51.316-94.726-89.798-133.214-38.485-38.487-83.295-68.707-133.192-89.816-51.658-21.851-106.534-32.932-163.1-32.932v-.947c56.693 0 111.693 11.106 163.47 33.008 50.01 21.156 94.92 51.443 133.489 90.018 38.568 38.576 68.854 83.496 90.002 133.514 21.9 51.786 33.004 106.793 33.004 163.499zm-401.308 373.376a.48.48 0 0 1 .463-.48c.263 0 .48.207.48.46.01.263-.2.484-.46.484h-.01a.475.475 0 0 1-.473-.464zm3.267.539a.469.469 0 0 1-.436-.5.485.485 0 0 1 .504-.445v.01c.265.01.455.234.443.499a.469.469 0 0 1-.471.436h-.04zm-6.093-.312a.484.484 0 0 1 .417-.53c.264-.027.5.162.53.424a.481.481 0 0 1-.425.52h-.047a.482.482 0 0 1-.475-.414zm8.863.643a.481.481 0 0 1-.386-.549.475.475 0 0 1 .545-.387.478.478 0 0 1 .387.546.483.483 0 0 1-.47.398c-.02 0-.044 0-.076-.008zm-11.647-.16a.466.466 0 0 1 .367-.563.47.47 0 0 1 .556.366.462.462 0 0 1-.367.554c-.035.01-.066.01-.094.01a.464.464 0 0 1-.462-.367zm14.38.746a.47.47 0 0 1-.34-.578.473.473 0 0 1 .916.238.468.468 0 0 1-.456.347c-.046 0-.086 0-.12-.007zm-17.123-.008a.485.485 0 0 1 .323-.6.472.472 0 0 1 .585.323.472.472 0 0 1-.312.587c-.048.007-.093.016-.14.016a.482.482 0 0 1-.456-.326zm19.788.837a.462.462 0 0 1-.286-.605.463.463 0 0 1 .605-.28c.248.098.37.358.285.602a.478.478 0 0 1-.447.314.36.36 0 0 1-.157-.031zm-22.442.143a.473.473 0 1 1 .877-.358.47.47 0 0 1-.265.613.347.347 0 0 1-.167.036.479.479 0 0 1-.445-.291zm25.008.936a.474.474 0 0 1-.225-.634.475.475 0 0 1 .628-.217.471.471 0 0 1 .23.623.488.488 0 0 1-.437.277.534.534 0 0 1-.196-.05zm-27.56.293a.471.471 0 0 1 .199-.634.478.478 0 0 1 .644.201.459.459 0 0 1-.21.63.41.41 0 0 1-.208.058.49.49 0 0 1-.425-.255zm30.026 1.02a.478.478 0 0 1-.17-.656.466.466 0 0 1 .649-.158.469.469 0 0 1 .162.642.459.459 0 0 1-.407.234.483.483 0 0 1-.234-.061zm-32.454.435a.475.475 0 0 1 .142-.654.478.478 0 0 1 .654.14.478.478 0 0 1-.14.657.426.426 0 0 1-.256.074.461.461 0 0 1-.4-.217zm34.778 1.097a.489.489 0 0 1-.105-.664.472.472 0 0 1 .662-.103.459.459 0 0 1 .103.652.445.445 0 0 1-.374.197.54.54 0 0 1-.286-.082zm-37.065.583a.484.484 0 0 1 .084-.67.47.47 0 0 1 .661.085.472.472 0 0 1-.082.665.51.51 0 0 1-.293.103.483.483 0 0 1-.37-.183zm39.247 1.156c-.185-.182-.218-.474-.035-.676a.465.465 0 0 1 .661-.046.481.481 0 0 1 .046.675.473.473 0 0 1-.356.16.527.527 0 0 1-.316-.113zm-41.364.718a.466.466 0 0 1 .021-.662.464.464 0 0 1 .664.017.48.48 0 0 1-.024.672.45.45 0 0 1-.32.125.446.446 0 0 1-.341-.152zm43.385 1.21a.475.475 0 0 1 .011-.674.481.481 0 0 1 .677.02c.176.189.168.489-.024.671a.46.46 0 0 1-.318.125.498.498 0 0 1-.346-.141zm-45.33.861a.47.47 0 0 1-.038-.674c.17-.2.473-.219.664-.039a.466.466 0 0 1 .044.662.45.45 0 0 1-.359.162.523.523 0 0 1-.31-.11zm47.16 1.245a.475.475 0 0 1 .071-.66c.21-.162.516-.137.673.076.162.207.125.5-.084.662a.48.48 0 0 1-.282.103.494.494 0 0 1-.379-.181zm-48.909.98a.466.466 0 0 1-.093-.659.477.477 0 0 1 .66-.105.471.471 0 0 1 .094.663.456.456 0 0 1-.661.1v.001zm50.541 1.289v-.012a.473.473 0 0 1 .132-.654.477.477 0 0 1 .652.143h.01a.473.473 0 0 1-.4.73.464.464 0 0 1-.394-.207zm-52.068 1.095a.464.464 0 0 1-.163-.645.47.47 0 0 1 .65-.162c.22.133.293.427.164.645a.474.474 0 0 1-.408.228.436.436 0 0 1-.243-.066zm53.473 1.305a.49.49 0 0 1 .198-.644.484.484 0 0 1 .645.201.489.489 0 0 1-.197.64.574.574 0 0 1-.23.056.481.481 0 0 1-.416-.253zm-54.776 1.21a.462.462 0 0 1-.22-.634.47.47 0 0 1 .625-.217.47.47 0 0 1-.206.898.373.373 0 0 1-.2-.047zm55.967 1.312a.463.463 0 0 1 .255-.616c.235-.1.517.012.612.256a.46.46 0 0 1-.254.615.4.4 0 0 1-.175.039.471.471 0 0 1-.438-.294zm-57.039 1.315a.465.465 0 0 1-.28-.605.479.479 0 0 1 .614-.283c.234.094.368.37.275.614a.468.468 0 0 1-.609.274zm57.985 1.313a.477.477 0 0 1 .311-.598.489.489 0 0 1 .598.317.485.485 0 0 1-.315.593.729.729 0 0 1-.14.016.473.473 0 0 1-.454-.328zm-58.804 1.4a.461.461 0 0 1-.33-.58h-.011a.484.484 0 0 1 .587-.338.481.481 0 0 1 .33.585.481.481 0 0 1-.456.354.55.55 0 0 1-.12-.022zm59.504 1.29c-.058-.243.114-.499.372-.553.253-.046.499.113.553.371a.466.466 0 0 1-.368.556c-.024.008-.058.008-.093.008a.473.473 0 0 1-.464-.381zm-60.072 1.486a.472.472 0 0 1-.389-.548.484.484 0 0 1 .549-.387.48.48 0 0 1 .385.546h-.01a.47.47 0 0 1-.46.396s-.049-.007-.075-.007zm60.524 1.274a.475.475 0 0 1 .403-.53.485.485 0 0 1 .533.417.481.481 0 0 1-.416.53H1331.232a.466.466 0 0 1-.46-.417zm-60.837 1.542a.473.473 0 1 1 .038 0h-.038zm61.038 1.987c0-.157.072-.298.177-.38a.454.454 0 0 1-.187-.37.466.466 0 0 1 .462-.48.468.468 0 0 1 .477.462.503.503 0 0 1-.176.391.457.457 0 0 1 .186.377.472.472 0 0 1-.473.474.477.477 0 0 1-.466-.474zm-61.566.376a.473.473 0 0 1 .944-.007c0 .26-.21.469-.464.469l-.01.008a.475.475 0 0 1-.47-.47zm61.864 2.922a.463.463 0 0 1-.42-.512.467.467 0 0 1 .508-.435.474.474 0 0 1 .421.523.459.459 0 0 1-.468.424h-.04zm-61.702-.05a.491.491 0 0 1 .425-.521.478.478 0 0 1 .52.423.478.478 0 0 1-.427.524h-.045a.474.474 0 0 1-.473-.425zm61.268 2.846a.473.473 0 0 1-.376-.55.476.476 0 0 1 .935.169.477.477 0 0 1-.463.386.341.341 0 0 1-.096-.005zm-60.835 0a.471.471 0 1 1 .926-.182.478.478 0 0 1-.368.558h-.091a.458.458 0 0 1-.467-.376zm60.157 2.748c-.253-.063-.395-.328-.331-.586a.48.48 0 0 1 .588-.32c.253.076.395.33.326.587h-.005a.47.47 0 0 1-.457.34.947.947 0 0 1-.121-.02zm-59.47.05a.485.485 0 0 1 .311-.597.484.484 0 0 1 .587.32.47.47 0 0 1-.313.588c-.046.024-.092.024-.13.024a.484.484 0 0 1-.454-.335zm58.526 2.622a.465.465 0 0 1-.265-.603.464.464 0 0 1 .604-.273.471.471 0 0 1 .273.613.467.467 0 0 1-.436.303.34.34 0 0 1-.176-.04zm-57.59.089a.476.476 0 0 1 .265-.614.47.47 0 0 1 .613.265.469.469 0 0 1-.432.649.488.488 0 0 1-.447-.3zm56.416 2.494a.473.473 0 0 1 .414-.853.48.48 0 0 1 .219.635.47.47 0 0 1-.633.218zm-55.224.124a.472.472 0 0 1 .209-.632.458.458 0 0 1 .632.205.477.477 0 0 1-.197.636.491.491 0 0 1-.218.047.47.47 0 0 1-.426-.256zm53.808 2.332a.466.466 0 0 1-.154-.65h-.008a.476.476 0 0 1 .815.492h-.012a.44.44 0 0 1-.393.227.469.469 0 0 1-.248-.069zm-52.372.172a.47.47 0 0 1 .142-.652.475.475 0 0 1 .654.138.476.476 0 0 1-.397.73.455.455 0 0 1-.399-.216zm50.736 2.14a.47.47 0 0 1-.092-.662.472.472 0 1 1 .755.57.485.485 0 0 1-.379.19.509.509 0 0 1-.284-.098zm-49.09.21a.466.466 0 0 1 .083-.663c.21-.16.5-.117.664.084a.476.476 0 0 1-.084.666.441.441 0 0 1-.283.094.464.464 0 0 1-.38-.18zm47.247 1.949a.482.482 0 0 1-.026-.674.469.469 0 0 1 .66-.03.48.48 0 0 1 .036.675.484.484 0 0 1-.67.029zm-45.384.246a.468.468 0 0 1 .025-.674.477.477 0 0 1 .643.703.493.493 0 0 1-.321.123.446.446 0 0 1-.347-.152zm43.363 1.739a.47.47 0 0 1 .03-.673.46.46 0 0 1 .662.028.462.462 0 0 1-.032.666.45.45 0 0 1-.313.126.48.48 0 0 1-.347-.147zm-41.315.274a.483.483 0 0 1-.038-.668.471.471 0 0 1 .672-.032c.199.17.21.47.037.67a.453.453 0 0 1-.35.15.465.465 0 0 1-.32-.12zm39.113 1.5a.466.466 0 0 1 .088-.66.463.463 0 0 1 .657.098c.165.206.126.499-.082.659a.464.464 0 0 1-.285.096.49.49 0 0 1-.378-.192zm-36.884.323a.467.467 0 0 1-.097-.659.472.472 0 0 1 .666-.1.474.474 0 0 1 .091.66.464.464 0 0 1-.375.193.445.445 0 0 1-.285-.094zm34.529 1.257a.482.482 0 0 1 .144-.654.477.477 0 1 1 .511.806h-.007a.48.48 0 0 1-.25.073.472.472 0 0 1-.398-.225zm-32.138.351h-.011a.474.474 0 0 1-.151-.651.46.46 0 0 1 .642-.155.466.466 0 0 1 .16.644.47.47 0 0 1-.64.162zm29.647 1.001a.484.484 0 0 1 .209-.632.473.473 0 0 1 .633.206c.123.237.03.52-.209.638a.45.45 0 0 1-.206.056.487.487 0 0 1-.427-.268zm-27.126.376a.464.464 0 0 1-.216-.634.463.463 0 0 1 .621-.206c.239.113.34.39.217.626a.45.45 0 0 1-.411.266.374.374 0 0 1-.211-.052zm24.527.748a.471.471 0 0 1 .264-.615.47.47 0 0 1 .613.265.475.475 0 0 1-.264.614.485.485 0 0 1-.176.03.465.465 0 0 1-.437-.294zm-21.891.396a.454.454 0 0 1-.271-.603.462.462 0 0 1 .602-.275h.01a.47.47 0 0 1 .264.605.472.472 0 0 1-.434.312.538.538 0 0 1-.171-.04zm19.189.473c-.065-.254.078-.52.321-.581h.012a.458.458 0 0 1 .581.319.476.476 0 0 1-.46.606.49.49 0 0 1-.454-.344zm-16.457.427a.48.48 0 0 1-.322-.59.456.456 0 0 1 .576-.317v-.012c.245.073.4.326.333.585a.485.485 0 0 1-.46.352.635.635 0 0 1-.127-.018zm13.698.187a.473.473 0 0 1 .37-.55h.013c.253-.057.499.117.543.372a.48.48 0 0 1-.375.557c-.03 0-.058.007-.088.007a.474.474 0 0 1-.463-.386zm-10.895.443a.47.47 0 0 1 .17-.923.47.47 0 1 1-.08.935s-.059 0-.09-.012zm8.081-.082c-.018-.255.172-.494.426-.509a.47.47 0 0 1 .521.422c.029.253-.175.48-.427.513h-.046a.479.479 0 0 1-.474-.426zm-5.228.462a.479.479 0 0 1-.432-.509.485.485 0 0 1 .521-.436h-.012a.474.474 0 0 1-.035.945h-.042zm2.403-.359c0-.255.208-.471.46-.471h.007a.47.47 0 1 1 0 .942.465.465 0 0 1-.467-.47zM1119.74 647.501a272.53 272.53 0 0 0-29.47 25.54c-50.9 50.903-78.926 118.637-78.926 190.727 0 27.605 4.125 54.56 12.055 80.192l11.08-3.6c-7.56-24.478-11.496-50.229-11.496-76.592 0-68.98 26.821-133.792 75.523-182.497a261.142 261.142 0 0 1 28.082-24.344l-6.848-9.426zm-.16 1.044l5.978 8.227a262.93 262.93 0 0 0-27.573 23.975c-48.842 48.842-75.74 113.843-75.74 183.023 0 25.96 3.803 51.562 11.311 76.113l-9.669 3.142c-7.831-25.564-11.804-52.224-11.804-79.253 0-71.895 27.954-139.444 78.712-190.204a272.343 272.343 0 0 1 28.786-25.023zm405.817 298.164c-12.526 37.103-33.503 71.078-61.971 99.55-47.912 47.92-111.402 74.636-179.12 75.49v11.646c70.824-.853 137.25-28.783 187.356-78.902 29.788-29.79 51.734-65.357 64.816-104.181l-11.08-3.603zm.468.934l9.668 3.142a266.145 266.145 0 0 1-25.827 54.614c-10.867 17.505-23.842 33.847-38.566 48.574-49.704 49.709-115.763 77.63-186.089 78.67v-10.16c67.61-1.042 131.115-27.905 178.9-75.697 14.152-14.155 26.621-29.858 37.069-46.672a256.222 256.222 0 0 0 24.845-52.471zm70.797-226.697a1.75 1.75 0 1 1 .002 3.501 1.75 1.75 0 0 1-.002-3.5zm-472.978 448.95a1.754 1.754 0 0 1 0 3.508 1.754 1.754 0 1 1 0-3.51v.001zM1281.571 504.1a1.752 1.752 0 1 1 0 3.504 1.752 1.752 0 0 1 0-3.504zm362.545 357.898a1.752 1.752 0 1 1 0 3.504 1.752 1.752 0 0 1 0-3.504zm26.117-.004a1.753 1.753 0 0 1 0 3.504 1.752 1.752 0 1 1 0-3.504zM978.854 590.897a5.01 5.01 0 0 1 0 10.018 5.009 5.009 0 0 1 0-10.018zm-39.059 488.156c.97 0 1.753.785 1.753 1.756 0 .966-.784 1.753-1.753 1.753a1.754 1.754 0 1 1 0-3.51v.001zm10.005 14.46a1.754 1.754 0 1 1 0 3.51 1.754 1.754 0 0 1 0-3.51zm10.093 11.814a3.95 3.95 0 0 1 0 7.897 3.948 3.948 0 0 1 0-7.897zm10.875 15.784a1.752 1.752 0 0 1 0 3.502 1.75 1.75 0 0 1 0-3.502zm329.894 142.648a4.145 4.145 0 0 0-4.146 4.142 4.145 4.145 0 0 0 4.146 4.14 4.142 4.142 0 0 0 0-8.282zm0 9.229a5.097 5.097 0 0 1-5.091-5.087 5.094 5.094 0 0 1 5.091-5.089 5.088 5.088 0 0 1 5.08 5.089 5.087 5.087 0 0 1-5.08 5.087zm-.002-9.704a4.615 4.615 0 1 1-.004 9.23 4.615 4.615 0 0 1 .004-9.23zm212.923-73.961a4.977 4.977 0 0 0-4.969 4.968 4.978 4.978 0 0 0 4.969 4.97 4.974 4.974 0 0 0 4.968-4.97 4.973 4.973 0 0 0-4.968-4.968zm0 10.882a5.92 5.92 0 0 1-5.913-5.914 5.918 5.918 0 0 1 5.913-5.913 5.919 5.919 0 0 1 5.915 5.913 5.92 5.92 0 0 1-5.915 5.914zm0-11.356a5.442 5.442 0 0 1 0 10.883 5.44 5.44 0 0 1-5.437-5.441 5.44 5.44 0 0 1 5.437-5.442zm171.46-328.579a3.48 3.48 0 0 0-3.472 3.477 3.477 3.477 0 0 0 3.473 3.473 3.476 3.476 0 0 0 3.476-3.473 3.479 3.479 0 0 0-3.476-3.477zm0 7.894a4.42 4.42 0 0 1 0-8.838 4.428 4.428 0 0 1 4.425 4.42 4.425 4.425 0 0 1-4.424 4.418zm.002-8.364a3.948 3.948 0 1 1 0 7.897 3.948 3.948 0 0 1-3.944-3.95 3.945 3.945 0 0 1 3.944-3.947zm-403.446-409.061c-4.88 0-8.853 3.973-8.853 8.856 0 4.882 3.972 8.855 8.853 8.855 4.884 0 8.857-3.973 8.857-8.855 0-4.884-3.973-8.856-8.857-8.856zm0 18.658c-5.404 0-9.798-4.397-9.798-9.802 0-5.402 4.394-9.802 9.798-9.802 5.405 0 9.803 4.397 9.803 9.802 0 5.406-4.396 9.802-9.803 9.802zm.003-19.131c5.15 0 9.327 4.176 9.327 9.328a9.327 9.327 0 1 1-18.654 0 9.327 9.327 0 0 1 9.327-9.328zm-.637 123.272c-77.504 0-150.372 30.188-205.174 85-54.805 54.813-84.987 127.69-84.987 205.209 0 77.517 30.18 150.397 84.985 205.208 54.802 54.812 127.668 85 205.173 85 77.503 0 150.37-30.188 205.172-85 54.802-54.813 84.983-127.69 84.983-205.208 0-77.519-30.18-150.395-84.983-205.209-54.8-54.812-127.668-85-205.17-85zm0 582.305c-78.01 0-151.35-30.38-206.51-85.554-55.16-55.167-85.539-128.522-85.539-206.545 0-78.022 30.38-151.374 85.539-206.544 55.16-55.17 128.5-85.555 206.51-85.555 78.01 0 151.349 30.384 206.507 85.555 55.162 55.17 85.542 128.522 85.542 206.544 0 78.023-30.38 151.378-85.542 206.545-55.16 55.172-128.5 85.554-206.507 85.554zm269.618-292.075c0 27.605-4.118 54.56-12.05 80.192l-11.078-3.6c7.564-24.478 11.494-50.229 11.494-76.592 0-68.98-26.82-133.792-75.522-182.497a261.222 261.222 0 0 0-28.079-24.344l6.85-9.426a272.711 272.711 0 0 1 29.465 25.54c50.892 50.902 78.92 118.636 78.92 190.727zm-113.78-220.21l-6.853 9.426c-43.242-30.69-94.824-47.242-148.982-47.242-54.157 0-105.747 16.552-148.989 47.242l-6.842-9.425c45.216-32.13 99.173-49.463 155.831-49.463 56.652 0 110.614 17.332 155.835 49.463zm-159.175 478.193v11.647c-70.827-.856-137.25-28.786-187.357-78.903-29.787-29.789-51.732-65.359-64.816-104.183l11.082-3.598c12.526 37.098 33.497 71.075 61.971 99.545 47.91 47.92 111.403 74.636 179.12 75.492z" opacity=".5"/>
        <path fill="url(#a)" fill-rule="nonzero" d="M0 1689h2560v500H0z" transform="translate(0 -269)"/>
        <path fill="url(#a)" fill-rule="nonzero" d="M0 69h2560v500H0z" transform="matrix(1 0 0 -1 0 369)"/>
    </g>
</svg>
