<svg width="30" height="28" viewBox="0 0 30 28" xmlns="http://www.w3.org/2000/svg">
    <path d="M14.931 1.013c.178.017.21.044.225.08l3.897 8.844 9.798.888c.047.004.09.025.118.058.02.025.034.057.03.092a.132.132 0 0 1-.047.087l-7.409 6.362 2.17 9.41a.12.12 0 0 1-.017.092.165.165 0 0 1-.105.07.188.188 0 0 1-.135-.02L15 22.066l-8.456 4.908a.187.187 0 0 1-.14.02.163.163 0 0 1-.102-.072.12.12 0 0 1-.015-.09l2.17-9.41-7.409-6.361a.132.132 0 0 1-.048-.09.125.125 0 0 1 .034-.092.175.175 0 0 1 .115-.055l9.798-.888 3.897-8.844a.154.154 0 0 1 .087-.08z" fill-rule="nonzero" stroke="#5E6066" stroke-width="2" fill="none" opacity=".3"/>
</svg>
