<svg width="30" height="28" viewBox="0 0 30 28" xmlns="http://www.w3.org/2000/svg">
    <path d="M15.461.093c.274.115.492.329.61.596l3.66 8.305 9.21.835a1.148 1.148 0 0 1 1.054 1.24c-.028.29-.168.56-.392.752l-6.95 5.967 2.034 8.821a1.14 1.14 0 0 1-.88 1.363 1.19 1.19 0 0 1-.853-.132L15 23.224 7.046 27.84a1.181 1.181 0 0 1-1.599-.398c-.152-.25-.2-.549-.134-.833l2.033-8.82-6.95-5.968a1.122 1.122 0 0 1-.106-1.61c.197-.218.472-.355.769-.382l9.21-.835L13.93.69c.255-.578.94-.845 1.532-.596z" fill="#F2A218" fill-rule="evenodd"/>
</svg>
