<svg xmlns="http://www.w3.org/2000/svg" width="140" height="240" viewBox="0 0 140 240">
    <path fill="#FAFBFC" fill-rule="evenodd" d="M100.27 58.583c4.702 0 8.514 3.807 8.514 8.504 0 4.696-3.812 8.504-8.514 8.504h-2.838v30.14C122.459 116.389 140 141.188 140 170.079 140 208.695 108.66 240 70 240S0 208.695 0 170.079c0-28.891 17.542-53.69 42.567-64.348v-30.14H39.73c-4.702 0-8.514-3.808-8.514-8.504 0-4.697 3.812-8.504 8.514-8.504h60.54zm0 5.669H39.73a2.836 2.836 0 0 0-2.838 2.835 2.836 2.836 0 0 0 2.838 2.834h14.188v5.669h-5.675v34.005c-24.819 8.91-42.567 32.626-42.567 60.484 0 35.485 28.799 64.252 64.324 64.252s64.324-28.767 64.324-64.252c0-27.858-17.748-51.575-42.567-60.484l-.001-39.674h8.514a2.836 2.836 0 0 0 2.838-2.834 2.836 2.836 0 0 0-2.838-2.835zm-30.3 145.026a2.613 2.613 0 0 1 2.468 2.75 2.617 2.617 0 0 1-2.766 2.456 2.611 2.611 0 0 1-2.468-2.752 2.616 2.616 0 0 1 2.766-2.454zm-21.373-.954a2.04 2.04 0 0 1 .59 2.836 2.064 2.064 0 0 1-2.85.59 2.042 2.042 0 0 1-.591-2.836 2.066 2.066 0 0 1 2.85-.59zm45.947.692a2.042 2.042 0 0 1-.912 2.75 2.064 2.064 0 0 1-2.766-.906 2.043 2.043 0 0 1 .912-2.75 2.065 2.065 0 0 1 2.766.906zm-39.42-11.862a3.154 3.154 0 0 1 .917 4.382 3.193 3.193 0 0 1-4.407.91 3.155 3.155 0 0 1-.916-4.382 3.192 3.192 0 0 1 4.406-.91zm34.466 1.15c.79 1.56.16 3.464-1.41 4.249a3.19 3.19 0 0 1-4.274-1.401 3.157 3.157 0 0 1 1.409-4.251 3.19 3.19 0 0 1 4.275 1.402zM70 192.878c2.064.117 3.643 1.877 3.525 3.93-.117 2.053-1.885 3.623-3.951 3.505a3.73 3.73 0 0 1-3.526-3.93c.118-2.053 1.888-3.621 3.951-3.505zm-33.193-2.523a2.6 2.6 0 0 1-1.16 3.502 2.626 2.626 0 0 1-3.52-1.155 2.6 2.6 0 0 1 1.16-3.5 2.628 2.628 0 0 1 3.52 1.153zm70.253-1.162a2.6 2.6 0 0 1 .755 3.61 2.63 2.63 0 0 1-3.63.75 2.598 2.598 0 0 1-.753-3.61 2.63 2.63 0 0 1 3.628-.75zm-44.535-11.56c1.241 0 2.448.36 3.49 1.04a6.294 6.294 0 0 1 2.743 4.007 6.26 6.26 0 0 1-.909 4.764 6.365 6.365 0 0 1-5.332 2.861 6.369 6.369 0 0 1-3.488-1.037 6.287 6.287 0 0 1-2.744-4.009 6.261 6.261 0 0 1 .91-4.762 6.362 6.362 0 0 1 5.33-2.864zm15.006-.032a6.347 6.347 0 0 1 5.693 3.485c1.58 3.12.315 6.938-2.822 8.508a6.419 6.419 0 0 1-2.864.68 6.345 6.345 0 0 1-5.69-3.486 6.252 6.252 0 0 1-.361-4.835 6.302 6.302 0 0 1 3.181-3.675 6.413 6.413 0 0 1 2.863-.677zm-26.429 4.581a3.715 3.715 0 0 1-1.659 5.002 3.756 3.756 0 0 1-5.028-1.65 3.714 3.714 0 0 1 1.66-5 3.753 3.753 0 0 1 5.027 1.648zm43.248-1.536a3.712 3.712 0 0 1 1.078 5.156 3.757 3.757 0 0 1-5.185 1.073 3.713 3.713 0 0 1-1.077-5.157 3.76 3.76 0 0 1 5.184-1.072zM55.348 164.73c3.508.199 6.197 3.197 5.998 6.684-.192 3.353-2.983 5.978-6.356 5.978-.12 0-.243-.004-.367-.01-3.504-.2-6.196-3.2-5.997-6.686.2-3.473 3.193-6.17 6.722-5.966zm30.028-.065a6.327 6.327 0 0 1 4.39 2.107 6.268 6.268 0 0 1 1.606 4.578c-.191 3.35-2.983 5.975-6.354 5.975-.122 0-.245-.004-.367-.01-3.507-.199-6.196-3.198-5.997-6.686.198-3.47 3.194-6.168 6.722-5.964zm-48.565 3.27a3.172 3.172 0 0 1 2.998 3.34 3.177 3.177 0 0 1-3.36 2.981c-1.753-.1-3.096-1.595-2.996-3.34a3.176 3.176 0 0 1 3.358-2.98zm66.737-.147a3.173 3.173 0 0 1 2.998 3.342 3.177 3.177 0 0 1-3.358 2.98 3.171 3.171 0 0 1-2.998-3.34 3.178 3.178 0 0 1 3.358-2.982zm-78.669 1.289a2.052 2.052 0 0 1 1.939 2.16 2.057 2.057 0 0 1-2.174 1.93 2.052 2.052 0 0 1-1.938-2.161 2.055 2.055 0 0 1 2.173-1.93zm90.476-.2a2.051 2.051 0 0 1 1.939 2.163 2.055 2.055 0 0 1-2.173 1.928 2.05 2.05 0 0 1-1.94-2.161 2.058 2.058 0 0 1 2.174-1.93zM62.46 151.773a6.344 6.344 0 0 1 5.693 3.486c1.58 3.119.314 6.936-2.822 8.509a6.428 6.428 0 0 1-2.862.679 6.346 6.346 0 0 1-5.693-3.486c-1.58-3.12-.315-6.937 2.822-8.51a6.44 6.44 0 0 1 2.862-.678zm15.023-.033c1.241 0 2.447.36 3.488 1.04 2.937 1.913 3.76 5.85 1.834 8.772a6.368 6.368 0 0 1-5.333 2.86 6.376 6.376 0 0 1-3.488-1.038c-2.937-1.916-3.759-5.85-1.833-8.772a6.366 6.366 0 0 1 5.332-2.862zm-27.727 3.434a3.708 3.708 0 0 1 1.076 5.154 3.752 3.752 0 0 1-5.183 1.071 3.71 3.71 0 0 1-1.077-5.155 3.754 3.754 0 0 1 5.184-1.07zm45.83 1.34a3.716 3.716 0 0 1-1.66 5 3.753 3.753 0 0 1-5.028-1.65 3.712 3.712 0 0 1 1.658-5 3.755 3.755 0 0 1 5.03 1.65zm-59.772-8.02a2.597 2.597 0 0 1 .754 3.608 2.629 2.629 0 0 1-3.629.75 2.597 2.597 0 0 1-.754-3.608 2.63 2.63 0 0 1 3.63-.75zm72.059.85a2.602 2.602 0 0 1-1.161 3.502 2.629 2.629 0 0 1-3.52-1.156 2.599 2.599 0 0 1 1.16-3.5 2.629 2.629 0 0 1 3.52 1.154zm-37.718-7.612a3.732 3.732 0 0 1 3.527 3.93c-.118 2.053-1.887 3.623-3.951 3.506-2.065-.117-3.644-1.877-3.526-3.929.117-2.055 1.886-3.623 3.95-3.507zm-14.062-.835a3.154 3.154 0 0 1-1.41 4.25 3.19 3.19 0 0 1-4.273-1.402 3.158 3.158 0 0 1 1.41-4.252 3.192 3.192 0 0 1 4.273 1.404zm32.273-1.296a3.153 3.153 0 0 1 .915 4.381 3.193 3.193 0 0 1-4.406.913 3.157 3.157 0 0 1-.916-4.384 3.192 3.192 0 0 1 4.407-.91zm-39.232-8.413a2.044 2.044 0 0 1-.913 2.751 2.064 2.064 0 0 1-2.765-.908 2.042 2.042 0 0 1 .911-2.75 2.065 2.065 0 0 1 2.767.907zm44.528-.89c.95.621 1.215 1.89.592 2.837a2.066 2.066 0 0 1-2.85.589 2.043 2.043 0 0 1-.594-2.837 2.066 2.066 0 0 1 2.852-.588zm-23.604-2.734a2.612 2.612 0 0 1 2.468 2.75 2.617 2.617 0 0 1-2.765 2.456 2.613 2.613 0 0 1-2.47-2.75 2.617 2.617 0 0 1 2.767-2.456zm4.672-21.736a3.782 3.782 0 0 1 3.784 3.78 3.782 3.782 0 0 1-3.784 3.779 3.782 3.782 0 0 1-3.784-3.78 3.782 3.782 0 0 1 3.784-3.78zM63.593 83.783a4.977 4.977 0 0 1 4.983 4.97 4.977 4.977 0 0 1-4.983 4.97 4.977 4.977 0 0 1-4.983-4.97 4.977 4.977 0 0 1 4.983-4.97zM86.08 69.921v5.669H59.594v-5.669h26.487zm-9.674-37.73c5.504 0 9.967 4.451 9.967 9.94 0 5.49-4.463 9.941-9.967 9.941-5.504 0-9.966-4.45-9.966-9.94 0-5.49 4.462-9.94 9.966-9.94zM62.17 14.912c3.145 0 5.695 2.543 5.695 5.68 0 3.137-2.55 5.68-5.695 5.68-3.145 0-5.695-2.543-5.695-5.68 0-3.137 2.55-5.68 5.695-5.68zM76.407 0a2.844 2.844 0 0 1 2.848 2.84 2.844 2.844 0 0 1-2.848 2.84 2.844 2.844 0 0 1-2.848-2.84A2.844 2.844 0 0 1 76.407 0z"/>
</svg>
