<?xml version="1.0" encoding="UTF-8"?>
<svg width="160px" height="160px" viewBox="0 0 160 160" version="1.1" xmlns="http://www.w3.org/2000/svg" xmlns:xlink="http://www.w3.org/1999/xlink">
    <!-- Generator: Sketch 61 (89581) - https://sketch.com -->
    <title>untada</title>
    <desc>Created with Sketch.</desc>
    <g id="Page-1" stroke="none" stroke-width="1" fill="none" fill-rule="evenodd">
        <g id="remove-delegation" transform="translate(-610.000000, -1366.000000)">
            <g id="dialog-error" transform="translate(50.000000, 1226.000000)">
                <g id="untada" transform="translate(550.000000, 130.000000)">
                    <rect id="Rectangle" x="0" y="0" width="180" height="180"></rect>
                    <path d="M90,10 C134.18278,10 170,45.81722 170,90 C170,134.18278 134.18278,170 90,170 C45.81722,170 10,134.18278 10,90 C10,45.81722 45.81722,10 90,10 Z M90,14 C48.026359,14 14,48.026359 14,90 C14,131.304812 46.9506122,164.913596 87.9996716,165.974187 L88,158 C88,156.895431 88.8954305,156 90,156 C91.0543618,156 91.9181651,156.815878 91.9945143,157.850738 L92,158 L92.0013279,165.974161 C133.049923,164.91305 166,131.304477 166,90 C166,48.026359 131.973641,14 90,14 Z M90,108 C100.028064,108 108.520819,109.58117 114.065455,112.342027 C119.989044,115.291577 122.443278,119.723685 119.689479,124.070356 C118.055264,126.649844 115.669373,127.533636 112.543338,127.07863 C111.400253,126.912249 110.16647,126.584928 108.487613,126.037619 L108.487613,126.037619 L108.235807,125.954211 C107.362266,125.662213 105.222533,124.929926 104.22769,124.597603 L104.22769,124.597603 L103.239082,124.276003 C98.4565097,122.756355 94.4942863,122 90,122 C85.2917,122 81.1673422,122.830104 76.0719666,124.498289 C75.4205918,124.711544 73.503791,125.366658 72.3317003,125.763107 L72.3317003,125.763107 L71.1326975,126.160043 C69.6442537,126.634333 68.5118174,126.925048 67.4566618,127.07863 C64.3306266,127.533636 61.9447357,126.649844 60.3105213,124.070356 C57.5567224,119.723685 60.0109557,115.291577 65.9345447,112.342027 C71.4791807,109.58117 79.9719365,108 90,108 Z M90,112 C80.5424166,112 72.6410996,113.471057 67.7174756,115.922692 C63.640592,117.952706 62.4882891,120.033654 63.6894787,121.929644 C64.4084788,123.064533 65.2139806,123.362911 66.880518,123.12034 C67.7493005,122.993885 68.7923641,122.717161 70.2726004,122.234603 L70.2726004,122.234603 L74.8274014,120.696834 C80.2902544,118.908341 84.8033275,118 90,118 C95.1966725,118 99.7097456,118.908341 105.172599,120.696834 C105.901938,120.935614 108.063997,121.675214 109.172097,122.049064 L109.172097,122.049064 L110.061352,122.342334 C111.367076,122.758845 112.317529,123.003613 113.119482,123.12034 C114.786019,123.362911 115.591521,123.064533 116.310521,121.929644 C117.511711,120.033654 116.359408,117.952706 112.282524,115.922692 C107.3589,113.471057 99.4575834,112 90,112 Z M48.354412,90.8633206 C49.1495229,89.7122265 50.8504771,89.7122265 51.645588,90.8633206 C54.5482741,95.0655835 56,97.9690353 56,100 C56,103.313708 53.3137085,106 50,106 C46.6862915,106 44,103.313708 44,100 C44,97.9690353 45.4517259,95.0655835 48.354412,90.8633206 Z M50,95.647 L49.7158839,96.1154898 C48.5718789,98.031814 48,99.3725432 48,100 C48,101.104569 48.8954305,102 50,102 C51.1045695,102 52,101.104569 52,100 C52,99.3426643 51.3723597,97.9025081 50.1167948,95.8378285 L50.1167948,95.8378285 L50,95.647 Z M50,72 C53.3137085,72 56,74.6862915 56,78 C56,81.3137085 53.3137085,84 50,84 C46.6862915,84 44,81.3137085 44,78 C44,74.6862915 46.6862915,72 50,72 Z M130,72 C133.313708,72 136,74.6862915 136,78 C136,81.3137085 133.313708,84 130,84 C126.686292,84 124,81.3137085 124,78 C124,74.6862915 126.686292,72 130,72 Z M56,54 C57.1045695,54 58,54.8954305 58,56 C58,61.5346286 55.2977657,65.0089299 50.3824555,66.6473666 C46.970703,67.7846174 43.7399646,68 36,68 C34.8954305,68 34,67.1045695 34,66 C34,64.8954305 34.8954305,64 36,64 L37.3287727,63.9955057 C50.1635865,63.9052818 54,62.4172202 54,56 C54,54.8954305 54.8954305,54 56,54 Z M124,54 C125.104569,54 126,54.8954305 126,56 C126,62.4172202 129.836413,63.9052818 142.671227,63.9955057 L142.671227,63.9955057 L144,64 C145.104569,64 146,64.8954305 146,66 C146,67.1045695 145.104569,68 144,68 C136.260035,68 133.029297,67.7846174 129.617544,66.6473666 C124.702234,65.0089299 122,61.5346286 122,56 C122,54.8954305 122.895431,54 124,54 Z" id="Combined-Shape" fill="#5E6066" fill-rule="nonzero"></path>
                </g>
            </g>
        </g>
    </g>
</svg>