<svg xmlns="http://www.w3.org/2000/svg" width="44" height="44" viewBox="0 0 44 44">
    <g fill="none" fill-rule="evenodd">
        <g fill="#F2A218">
            <g>
                <g>
                    <g>
                        <path d="M44 22c0 12.15-9.85 22-22 22-8.103 0-15.183-4.38-19-10.903V37H0v-9h9v3H5.263C8.47 36.954 14.763 41 22 41c10.493 0 19-8.507 19-19zm-9-6v-3h3.738C35.53 7.048 29.238 3 22 3 11.507 3 3 11.507 3 22H0l.003-.364C.197 9.654 9.97 0 22 0c8.103 0 15.183 4.381 19 10.904V7h3v9h-9z" transform="translate(-1592.000000, -62.000000) translate(1514.000000, 60.000000) translate(78.000000, 0.000000) translate(0.000000, 2.000000)"/>
                        <g>
                            <path d="M0 16H4V20H0zM0 0H4V12H0z" transform="translate(-1592.000000, -62.000000) translate(1514.000000, 60.000000) translate(78.000000, 0.000000) translate(0.000000, 2.000000) translate(20.000000, 12.000000)"/>
                        </g>
                    </g>
                </g>
            </g>
        </g>
    </g>
</svg>
