<svg xmlns="http://www.w3.org/2000/svg" width="42" height="44" viewBox="0 0 42 44">
    <g fill="none" fill-rule="evenodd" transform="translate(-23 -22)">
        <circle cx="44" cy="44" r="44"/>
        <path fill="#5E6066" d="M55 46H33c-5.521 0-10 4.477-10 10 0 5.521 4.479 10 10 10h22c5.523 0 10-4.479 10-10 0-5.524-4.477-10-10-10zm0 18H33a8 8 0 0 1 0-16h22a8 8 0 0 1 0 16zm0-42H33c-5.521 0-10 4.477-10 10 0 5.521 4.479 10 10 10h22c5.523 0 10-4.479 10-10 0-5.524-4.477-10-10-10zm0 18H33a8 8 0 0 1 0-16h22a8 8 0 0 1 0 16zm0 10a6 6 0 0 0 0 12 6 6 0 0 0 0-12zm0 10a4 4 0 1 1 0-8 4 4 0 0 1 0 8zM33 26a6 6 0 0 0 0 12 6 6 0 0 0 0-12zm0 10a4 4 0 1 1 0-8 4 4 0 0 1 0 8z"/>
    </g>
</svg>
