<svg xmlns="http://www.w3.org/2000/svg" width="46" height="41" viewBox="0 0 46 41">
    <g fill="none" fill-rule="evenodd" transform="translate(-21 -23)">
        <circle cx="44" cy="44" r="44"/>
        <path fill="#5E6066" d="M63.001 31.995v-2a4 4 0 0 0-4-4h-3.609l-.854-2.346a.989.989 0 0 0-1.268-.589l-8.098 2.935H25a4 4 0 0 0-4 4V59A5 5 0 0 0 26 64h36a5 5 0 0 0 5-5V35.995c.001-2.21-1.79-4-3.999-4zm-4-4a2 2 0 0 1 2 2v2h-3.428l-1.455-4h2.883zm-13.557 0h.01l5.514-2h-.002l2.051-.744 1.062 2.925 1.389 3.82H34.406l11.038-4.001zm-20.443 0h14.65l-10.98 3.98c-.014.004-.021.015-.035.02h-3.635a2 2 0 0 1 0-4zm40 22.003h-4a2 2 0 0 1 0-4h4v4zm0-6h-4a4 4 0 0 0 0 8h4V59a3 3 0 0 1-3 3h-36a3 3 0 0 1-3-3V33.441c.59.343 1.268.555 2 .555h38a2 2 0 0 1 2 2v8.001zm-4 5h2v-2h-2v2z"/>
    </g>
</svg>
