<svg xmlns="http://www.w3.org/2000/svg" width="48" height="46" viewBox="0 0 48 46">
    <g fill="none" fill-rule="nonzero" opacity=".5">
        <path fill="#2D2D2D" d="M16.445 8.65c-4.727 0-8.572-3.88-8.572-8.65h3.025c0 3.086 2.488 5.597 5.547 5.597V8.65z"/>
        <path fill="#2D2D2D" d="M19.269 1.527h3.025v3.562h-3.025zM25.319 1.527h3.025v3.561H25.32z" opacity=".6"/>
        <g fill="#2D2D2D">
            <path d="M9.75 19.414L5.967 14.96H.007v-3.053H7.36l4.688 5.52zM8.829 27.615l-3.847-2.681H.008V21.88h5.916l4.624 3.221zM7.359 44.473H.008V41.42h5.96l3.782-4.453 2.297 1.987zM5.78 35.416H.007v-3.053h5.119l3.938-1.798 1.247 2.782z"/>
        </g>
        <g fill="#2D2D2D">
            <path d="M37.862 19.414l-2.297-1.987 4.688-5.52h7.351v3.053h-5.96zM38.783 27.615l-1.719-2.513 4.623-3.221h5.917v3.053H42.63zM47.604 44.473h-7.35l-4.689-5.52 2.297-1.986 3.783 4.453h5.96zM47.604 35.416h-5.771l-4.533-2.07 1.247-2.781 3.938 1.798h5.12z"/>
        </g>
        <path fill="#2D2D2D" d="M34.517 14.35H13.095l-4.92 4.965v11.827c0 7.966 6.289 14.477 14.118 14.746v.01h3.026v-.01c7.83-.269 14.117-6.78 14.117-14.746V19.315l-4.92-4.965z"/>
        <path fill="#000" d="M34.517 14.35H23.806v31.548h1.513v-.01c7.83-.269 14.117-6.78 14.117-14.746V19.315l-4.92-4.965z"/>
        <path fill="#515050" d="M35.403 17.403H12.209V9.545l5.928-5.983h11.338l5.928 5.983v7.858z"/>
        <path fill="#2D2D2D" d="M31.167 8.65V5.597c3.059 0 5.547-2.51 5.547-5.597h3.025c0 4.77-3.845 8.65-8.572 8.65z"/>
        <path fill="#2D2D2D" d="M35.403 9.545l-5.928-5.983h-5.669v13.84h11.597z"/>
    </g>
</svg>
