<svg xmlns="http://www.w3.org/2000/svg" width="88" height="88" viewBox="0 0 88 88">
    <g fill="none" fill-rule="evenodd">
        <circle cx="44" cy="44" r="44"/>
        <rect width="16" height="16" x="68" y="4" fill="#EA4C5B" rx="8"/>
        <path fill="#FAFBFC" fill-rule="nonzero" d="M56.977 21.572l.144.135 9.172 9.172c1.125 1.124 1.17 2.92.135 4.098l-.135.144-7.882 7.882c1.052 1.178 1.013 2.987-.118 4.118L42.707 62.707c-4.809 4.809-12.605 4.809-17.414 0-4.809-4.809-4.809-12.605 0-17.414l15.586-15.586c1.171-1.171 3.07-1.171 4.242 0l-.125-.119 7.883-7.88c1.124-1.126 2.92-1.17 4.098-.136zm-13.27 9.55c-.39-.391-1.024-.391-1.414 0L26.707 46.706c-4.028 4.028-4.028 10.558 0 14.586 4.028 4.028 10.558 4.028 14.586 0l15.586-15.586c.39-.39.39-1.024 0-1.414zM34 49c2.761 0 5 2.239 5 5s-2.239 5-5 5-5-2.239-5-5 2.239-5 5-5zm0 2c-1.657 0-3 1.343-3 3s1.343 3 3 3 3-1.343 3-3-1.343-3-3-3zm20.387-27.962l-.094.083L46.413 31 57 41.585l7.88-7.878c.36-.36.388-.928.083-1.32l-.083-.094-9.172-9.172c-.36-.36-.928-.388-1.32-.083zm6.32 8.255c.36.36.388.928.083 1.32l-.083.094-4 4c-.39.39-1.024.39-1.414 0-.36-.36-.388-.928-.083-1.32l.083-.094 4-4c.39-.39 1.024-.39 1.414 0zm-4-4c.36.36.388.928.083 1.32l-.083.094-4 4c-.39.39-1.024.39-1.414 0-.36-.36-.388-.928-.083-1.32l.083-.094 4-4c.39-.39 1.024-.39 1.414 0z"/>
    </g>
</svg>
