<svg xmlns="http://www.w3.org/2000/svg" width="64" height="58" viewBox="0 0 64 58">
    <path fill="#121326" fill-rule="evenodd" d="M33.71 1.837c-.056.96-.895 1.693-1.872 1.639-.978-.055-1.725-.877-1.67-1.835.055-.96.894-1.693 1.871-1.638.978.054 1.725.876 1.67 1.834zm23.128 15.034c-.875.431-1.94.086-2.381-.771a1.723 1.723 0 0 1 .785-2.336c.875-.431 1.94-.087 2.382.77.44.859.088 1.905-.786 2.337zM55.13 44.033a1.719 1.719 0 0 1-.51-2.409 1.794 1.794 0 0 1 2.454-.5 1.72 1.72 0 0 1 .511 2.408 1.795 1.795 0 0 1-2.455.5zM30.11 56.16c.055-.959.893-1.692 1.87-1.637.978.053 1.725.876 1.67 1.835-.055.96-.894 1.692-1.87 1.638-.98-.054-1.726-.876-1.67-1.836zM7.16 41.13c.875-.432 1.941-.087 2.382.77.44.858.089 1.904-.786 2.336-.874.433-1.94.087-2.38-.77a1.723 1.723 0 0 1 .784-2.336zm1.71-27.162a1.718 1.718 0 0 1 .51 2.408 1.794 1.794 0 0 1-2.455.5 1.718 1.718 0 0 1-.51-2.407 1.795 1.795 0 0 1 2.455-.5zm25.62-1.89c-.08 1.37-1.277 2.418-2.673 2.34-1.397-.078-2.465-1.252-2.386-2.621.08-1.371 1.276-2.418 2.673-2.34 1.397.077 2.465 1.252 2.386 2.621zm13.697 10.578c-1.25.617-2.773.125-3.402-1.101a2.461 2.461 0 0 1 1.121-3.336c1.25-.618 2.773-.125 3.403 1.1.63 1.225.126 2.719-1.122 3.337zm-2.492 16.922a2.457 2.457 0 0 1-.729-3.44c.767-1.147 2.338-1.467 3.507-.716a2.456 2.456 0 0 1 .73 3.44c-.768 1.148-2.337 1.467-3.508.716zm-16.37 6.344c.08-1.37 1.277-2.416 2.674-2.339 1.397.078 2.465 1.252 2.385 2.623-.08 1.369-1.276 2.417-2.673 2.338-1.397-.077-2.464-1.252-2.385-2.622zM15.813 35.346c1.25-.618 2.773-.125 3.402 1.1.63 1.225.127 2.72-1.122 3.337-1.25.617-2.772.124-3.402-1.1a2.462 2.462 0 0 1 1.122-3.337zm2.491-16.922a2.453 2.453 0 0 1 .728 3.44c-.765 1.147-2.336 1.467-3.506.714a2.454 2.454 0 0 1-.729-3.44c.767-1.147 2.337-1.467 3.507-.714zM48.41 3.72a1.41 1.41 0 0 1-1.93.394 1.352 1.352 0 0 1-.4-1.893 1.41 1.41 0 0 1 1.929-.393c.643.414.822 1.261.4 1.892zm14.118 26.579a1.375 1.375 0 0 1-1.313-1.442c.044-.753.702-1.33 1.471-1.287a1.376 1.376 0 0 1 1.312 1.442 1.384 1.384 0 0 1-1.47 1.287zm-16.41 25.281a1.354 1.354 0 0 1 .616-1.835 1.407 1.407 0 0 1 1.872.605c.346.674.07 1.495-.617 1.834a1.406 1.406 0 0 1-1.872-.604zM15.59 54.281a1.41 1.41 0 0 1 1.93-.394 1.35 1.35 0 0 1 .399 1.892 1.409 1.409 0 0 1-1.929.394 1.35 1.35 0 0 1-.4-1.892zM1.472 27.7a1.376 1.376 0 0 1 1.312 1.442c-.043.754-.703 1.33-1.47 1.288-.769-.044-1.356-.69-1.312-1.442.044-.754.702-1.33 1.47-1.287zm16.41-25.28a1.355 1.355 0 0 1-.617 1.835 1.406 1.406 0 0 1-1.871-.606 1.354 1.354 0 0 1 .617-1.834 1.407 1.407 0 0 1 1.872.605zm27.163 8.536c-.652.976-1.987 1.248-2.981.61a2.089 2.089 0 0 1-.62-2.926c.652-.976 1.988-1.247 2.982-.607a2.086 2.086 0 0 1 .619 2.923zm9.409 20.103c-1.189-.066-2.096-1.065-2.028-2.228.068-1.166 1.085-2.056 2.272-1.99 1.188.067 2.096 1.065 2.028 2.23-.067 1.163-1.085 2.054-2.272 1.988zM41.408 49.102a2.093 2.093 0 0 1 .953-2.836c1.064-.526 2.358-.107 2.893.935a2.092 2.092 0 0 1-.954 2.836c-1.062.524-2.357.106-2.892-.935zm-22.453-2.06a2.178 2.178 0 0 1 2.98-.607 2.087 2.087 0 0 1 .62 2.923c-.651.975-1.986 1.247-2.98.608a2.087 2.087 0 0 1-.62-2.924zM9.545 26.94c1.188.066 2.096 1.063 2.029 2.228-.068 1.164-1.085 2.055-2.273 1.989-1.187-.068-2.095-1.065-2.028-2.229.068-1.165 1.085-2.055 2.272-1.988zM22.591 8.898a2.09 2.09 0 0 1-.954 2.836c-1.062.525-2.356.106-2.89-.935a2.094 2.094 0 0 1 .952-2.837c1.062-.524 2.357-.105 2.892.936zm14.465 15.69c-.84 0-1.656-.24-2.36-.692-1.988-1.279-2.544-3.904-1.24-5.853a4.323 4.323 0 0 1 3.607-1.91c.84 0 1.655.24 2.36.694 1.987 1.276 2.543 3.903 1.24 5.853a4.325 4.325 0 0 1-3.607 1.909zm5.105 8.617a4.83 4.83 0 0 1-.248-.007c-2.373-.132-4.193-2.133-4.058-4.46.134-2.316 2.161-4.116 4.548-3.98a4.304 4.304 0 0 1 2.97 1.406 4.147 4.147 0 0 1 1.087 3.055c-.13 2.235-2.018 3.986-4.3 3.986zm-5.061 8.64c-1.638 0-3.113-.892-3.85-2.326a4.12 4.12 0 0 1-.244-3.226 4.223 4.223 0 0 1 2.152-2.452c.6-.297 1.27-.452 1.937-.452 1.639 0 3.114.89 3.852 2.326 1.07 2.081.213 4.628-1.91 5.676-.6.297-1.27.453-1.937.453zm-10.163.02c-.84 0-1.655-.239-2.36-.692a4.194 4.194 0 0 1-1.856-2.674 4.13 4.13 0 0 1 .615-3.178 4.32 4.32 0 0 1 3.607-1.91c.84 0 1.656.24 2.361.693a4.199 4.199 0 0 1 1.856 2.674 4.13 4.13 0 0 1-.615 3.178 4.323 4.323 0 0 1-3.608 1.91zm-5.092-8.615c-.082 0-.164-.003-.248-.007-2.372-.134-4.193-2.134-4.058-4.46.135-2.318 2.16-4.118 4.548-3.982 2.373.133 4.193 2.134 4.058 4.46-.13 2.237-2.019 3.989-4.3 3.989zm5.06-8.639c-1.64 0-3.115-.891-3.852-2.326-1.07-2.082-.213-4.628 1.91-5.678.599-.295 1.27-.452 1.936-.452 1.639 0 3.114.89 3.851 2.326 1.07 2.08.213 4.628-1.91 5.677-.599.296-1.269.453-1.935.453z"/>
</svg>
