<svg xmlns="http://www.w3.org/2000/svg" width="62" height="40" viewBox="0 0 62 40">
    <g fill="none" fill-rule="evenodd" transform="translate(-13 -24)">
        <circle cx="44" cy="44" r="44"/>
        <g transform="translate(13 24)">
            <path fill="var(--theme-icon-sidebar-color)" fill-rule="nonzero" d="M3 2a1 1 0 0 0-1 1v34a1 1 0 0 0 1 1h56a1 1 0 0 0 1-1V3a1 1 0 0 0-1-1H3zm0-2h56a3 3 0 0 1 3 3v34a3 3 0 0 1-3 3H3a3 3 0 0 1-3-3V3a3 3 0 0 1 3-3z"/>
            <rect width="6" height="6" x="1" y="1" stroke="var(--theme-icon-sidebar-color)" stroke-width="2" rx="3"/>
            <rect width="6" height="6" x="55" y="1" stroke="var(--theme-icon-sidebar-color)" stroke-width="2" rx="3"/>
            <rect width="6" height="6" x="55" y="33" stroke="var(--theme-icon-sidebar-color)" stroke-width="2" rx="3"/>
            <rect width="6" height="6" x="1" y="33" stroke="var(--theme-icon-sidebar-color)" stroke-width="2" rx="3"/>
            <path fill="var(--theme-icon-sidebar-color)" d="M29.383 29.585l-1.362-.217-1.01-2.82-1.229-1.778-.588-4.265-2.604.688L18 16.36 22.091 11l.431.252-2.065 4.414 2.265 2.173 1.9-.835 4.059-.235 2.046 1.877V29.8l-.822-.131c.046.2.15.38.295.52a1.095 1.095 0 0 0 1.837-.513l-.767.124V18.646l2.048-1.877 4.054.235 1.9.835 2.27-2.173-2.064-4.414.427-.252L44 16.36l-4.593 4.833-2.601-.688-.592 4.265-1.232 1.778-1.009 2.82-1.414.226c-.039.368-.207.7-.458.946-.289.287-.69.46-1.129.46-.44 0-.841-.173-1.13-.46a1.557 1.557 0 0 1-.459-.955z"/>
            <rect width="6" height="2" x="8" y="19" fill="var(--theme-icon-sidebar-color)" rx="1"/>
            <rect width="6" height="2" x="48" y="19" fill="var(--theme-icon-sidebar-color)" rx="1"/>
        </g>
    </g>
</svg>
