<svg xmlns="http://www.w3.org/2000/svg" xmlns:xlink="http://www.w3.org/1999/xlink" width="88" height="88" viewBox="0 0 88 88">
    <defs>
        <filter id="prefix__a" width="381%" height="690%" x="-140.5%" y="-245%" filterUnits="objectBoundingBox">
            <feOffset dy="5" in="SourceAlpha" result="shadowOffsetOuter1"/>
            <feGaussianBlur in="shadowOffsetOuter1" result="shadowBlurOuter1" stdDeviation="9"/>
            <feColorMatrix in="shadowBlurOuter1" values="0 0 0 0 0 0 0 0 0 0 0 0 0 0 0 0 0 0 0.25 0"/>
        </filter>
        <path id="prefix__b" d="M34.1 49V39h-1.6v10h1.6zm6.296 0v-8.586h3.236V39h-8.08v1.414h3.243V49h1.6zm6.252 0v-7.103h.114L52.057 49H53.5V39h-1.558v7.103h-.114L46.533 39H45.09v10h1.558z"/>
    </defs>
    <g fill="none" fill-rule="evenodd">
        <circle cx="44" cy="44" r="44"/>
        <path fill="#FAFBFC" d="M61.143 38.67h-.668c-.966-2.545-2.61-4.85-4.813-6.714v-.017c-.33-1.156-.083-2.396.718-3.686.413-.665.437-1.472.058-2.155-.372-.674-1.074-1.098-1.833-1.098-.091 0-.182.008-.264.017-3.063.382-4.896 1.789-5.953 3.095-1.833-.508-3.732-.766-5.664-.766-4.978 0-9.659 1.714-13.193 4.826C25.965 35.317 24 39.512 24 43.98c0 1.157.132 2.313.405 3.445 0 .017.008.042.016.058 0 0 .008.017.017.05.28 1.14.693 2.255 1.23 3.312.883 1.938 1.948 3.553 3.145 4.8 1.7 1.765 1.99 3.994 2.031 4.893v.524c0 .042 0 .084.008.117.1 1.023.966 1.814 1.99 1.814h6.15c1.099 0 1.999-.907 1.999-2.014v-.416c.957.075 1.923.092 2.89.042v.382c0 1.107.9 2.014 1.997 2.014h6.15c1.099 0 1.999-.907 1.999-2.014v-1.514c.008-.358.148-2.055 1.742-3.52.074-.066.157-.133.231-.2l.017-.016c.016-.016.04-.033.057-.05 2.064-1.864 3.608-4.135 4.5-6.615h.578c1.568 0 2.848-1.29 2.848-2.87v-4.626c-.008-1.615-1.288-2.904-2.857-2.904zm.867 7.498c0 .482-.388.873-.867.873h-1.287c-.438 0-.818.283-.95.707-.735 2.413-2.188 4.643-4.194 6.449l-.016.016-.009.009-.223.2c-.008.008-.016.016-.024.016-2.163 1.98-2.386 4.31-2.403 4.976v1.555c0 .01-.008.017-.016.017H45.87c-.008 0-.017-.008-.017-.016v-1.456c0-.283-.115-.55-.33-.74-.181-.167-.42-.259-.66-.259-.033 0-.066 0-.108.009-.677.074-1.362.108-2.039.108-.867 0-1.742-.059-2.592-.175-.28-.042-.57.05-.784.241-.215.192-.339.466-.339.75v1.522c0 .008-.008.016-.016.016h-6.151c-.008 0-.017-.008-.017-.016v-.508c-.05-1.115-.396-3.944-2.592-6.215-1.049-1.09-1.99-2.521-2.79-4.26-.009-.017-.009-.025-.017-.034-.47-.932-.842-1.905-1.082-2.904 0-.008-.008-.016-.008-.024v-.017c-.24-.99-.355-2.005-.355-3.012 0-8.071 7.513-14.644 16.743-14.644 1.973 0 3.897.3 5.73.882.42.133.875-.025 1.123-.391.734-1.099 2.196-2.472 5.003-2.83.066-.008.107.034.124.067.033.058.008.108-.009.125-1.098 1.764-1.42 3.594-.94 5.292 0 .008.007.025.007.033.009.291.14.566.372.749 2.246 1.83 3.872 4.152 4.706 6.715.132.407.512.69.941.69h1.362c.479 0 .867.391.867.874v4.61h.008z"/>
        <g fill-rule="nonzero">
            <use fill="#000" filter="url(#prefix__a)" xlink:href="#prefix__b"/>
            <use fill="#FAFBFC" xlink:href="#prefix__b"/>
        </g>
    </g>
</svg>
