<svg width="41" height="40" viewBox="0 0 41 40" fill="none" xmlns="http://www.w3.org/2000/svg">
<path d="M3.33344 22.9161V37.4999H1.25004C0.560017 37.4999 0 38.0599 0 38.75C0 39.44 0.560017 40 1.25004 40H4.58348H25.4508H28.7509C29.4409 40 30.0009 39.44 30.0009 38.75C30.0009 38.0599 29.4409 37.4999 28.7509 37.4999H26.7008V26.5946L28.6092 24.6612C28.6676 24.5995 28.7209 24.5345 28.7676 24.4628L33.8444 16.6309C34.2561 16.8493 34.7111 16.9776 35.1911 16.9793H35.2011C35.9795 16.9793 36.7111 16.6759 37.2628 16.1243L39.1496 14.2375C40.2879 13.1008 40.2879 11.2491 39.1496 10.1124L29.8893 0.853777C28.7526 -0.284592 26.9008 -0.284592 25.7641 0.853777L23.9307 2.68717C23.1524 3.46552 22.9191 4.57889 23.2091 5.57059L15.7938 7.45398C12.7521 8.22901 10.2087 10.2707 8.81361 13.0608C8.07525 14.5559 7.68357 16.2109 7.68357 17.8493C7.68357 19.171 7.95191 20.4561 8.4236 21.6661H4.58348C3.89345 21.6661 3.33344 22.2261 3.33344 22.9161ZM25.6975 4.45556C25.6975 4.45389 25.6975 4.45389 25.6975 4.45556L27.5309 2.6205C27.6109 2.53883 27.7175 2.49883 27.8242 2.49883C27.9309 2.49883 28.0375 2.53883 28.1192 2.6205L37.3795 11.8791C37.5428 12.0425 37.5428 12.3058 37.3795 12.4691L35.4928 14.3542C35.3878 14.4609 35.2628 14.4775 35.1978 14.4775H35.1961C35.1311 14.4775 35.0078 14.4609 34.9011 14.3542L25.6941 5.04224C25.5341 4.88057 25.5341 4.61723 25.6975 4.45556ZM10.1837 17.8493C10.1837 16.5943 10.4853 15.3209 11.052 14.1742C12.122 12.0375 14.0721 10.4707 16.4088 9.87739L24.8408 7.73399L31.9627 14.9359L26.7375 22.9945L19.5189 30.313C19.1023 30.728 18.6272 30.8147 18.3022 30.8147C17.7056 30.8147 17.1655 30.5064 16.8605 29.9947C16.4772 29.3447 16.6339 28.433 17.2372 27.8313L23.6191 21.4328C24.0441 21.0094 24.1058 20.3427 23.7707 19.8477L23.5007 19.4527C22.3907 17.911 20.6173 17.0476 18.6923 17.1443C16.7872 17.2426 15.0838 18.2893 14.1354 19.9427L13.1437 21.6661H11.167C10.5337 20.4977 10.1837 19.1977 10.1837 17.8493ZM19.854 21.6661H16.0255L16.3005 21.1877C16.8322 20.2594 17.7506 19.696 18.8189 19.641C19.6739 19.5927 20.4773 19.891 21.069 20.4477L19.854 21.6661ZM5.83352 24.1662H17.3605L15.4655 26.0662C14.0471 27.4863 13.7371 29.6263 14.7105 31.2731C15.4738 32.5531 16.8172 33.3181 18.3022 33.3181C19.4289 33.3181 20.489 32.8814 21.2923 32.0798L24.2008 29.1313V37.4999H5.83352V24.1662Z" fill="white"/>
</svg>
