<?xml version="1.0" encoding="UTF-8"?>
<svg width="172px" height="158px" viewBox="0 0 172 158" version="1.1" xmlns="http://www.w3.org/2000/svg" xmlns:xlink="http://www.w3.org/1999/xlink">
    <!-- Generator: sketchtool 42 (36781) - http://www.bohemiancoding.com/sketch -->
    <title>0C8A674E-719E-4805-BEA8-A7404F1A86C4</title>
    <desc>Created with sketchtool.</desc>
    <defs></defs>
    <g id="Page-1" stroke="none" stroke-width="1" fill="none" fill-rule="evenodd">
        <g id="app_network_status" transform="translate(-1194.000000, -532.000000)" fill="#5E6066">
            <path d="M1284.59387,537.005145 C1284.44408,539.619849 1282.1914,541.615688 1279.56522,541.468707 C1276.93515,541.319793 1274.92759,539.080276 1275.07543,536.469441 C1275.22522,533.856671 1277.4779,531.858898 1280.10602,532.007813 C1282.73414,532.154793 1284.74171,534.39431 1284.59387,537.005145 L1284.59387,537.005145 Z M1346.75259,577.958519 C1344.4007,579.134362 1341.53719,578.194462 1340.35249,575.858247 C1339.16585,573.522033 1340.11322,570.673321 1342.46316,569.495544 C1344.81311,568.319701 1347.67856,569.257668 1348.86326,571.593882 C1350.04796,573.932031 1349.10059,576.780742 1346.75259,577.958519 L1346.75259,577.958519 Z M1342.15969,651.951534 C1339.9576,650.516542 1339.34288,647.576934 1340.78825,645.389634 C1342.22778,643.204268 1345.18272,642.591205 1347.38482,644.026198 C1349.58692,645.463124 1350.19775,648.39693 1348.75821,650.586164 C1347.31089,652.775398 1344.3579,653.384593 1342.15969,651.951534 L1342.15969,651.951534 Z M1274.91591,684.991175 C1275.0657,682.378406 1277.31838,680.380633 1279.94456,680.529548 C1282.57268,680.676528 1284.58025,682.917979 1284.43241,685.528814 C1284.28456,688.143518 1282.02994,690.139356 1279.40376,689.992376 C1276.77369,689.843462 1274.76612,687.605879 1274.91591,684.991175 L1274.91591,684.991175 Z M1213.24547,644.041669 C1215.59735,642.863893 1218.46281,643.803793 1219.64556,646.138074 C1220.83026,648.476222 1219.88483,651.324934 1217.53489,652.502711 C1215.18689,653.680488 1212.3195,652.740587 1211.13674,650.404373 C1209.95204,648.068158 1210.89552,645.219446 1213.24547,644.041669 L1213.24547,644.041669 Z M1217.84031,570.048654 C1220.04046,571.483647 1220.65518,574.419387 1219.21175,576.606687 C1217.76833,578.795921 1214.81534,579.405116 1212.61324,577.970123 C1210.41308,576.537064 1209.79836,573.599391 1211.24179,571.412091 C1212.68521,569.224791 1215.63821,568.613662 1217.84031,570.048654 L1217.84031,570.048654 Z M1286.69481,564.900473 C1286.48082,568.633001 1283.26327,571.487515 1279.51075,571.27478 C1275.75629,571.062045 1272.885,567.863288 1273.09899,564.132694 C1273.31297,560.398232 1276.52858,557.547587 1280.2811,557.758388 C1284.03751,557.969188 1286.90685,561.169879 1286.69481,564.900473 L1286.69481,564.900473 Z M1323.5041,593.714429 C1320.14454,595.395033 1316.05354,594.054804 1314.36111,590.714869 C1312.66869,587.376867 1314.01874,583.307831 1317.37635,581.627227 C1320.73397,579.944688 1324.82692,581.286851 1326.52129,584.624853 C1328.21177,587.960921 1326.85977,592.03189 1323.5041,593.714429 L1323.5041,593.714429 Z M1316.80832,639.812116 C1313.66663,637.762126 1312.78735,633.56545 1314.84939,630.440183 C1316.90948,627.31685 1321.13276,626.444637 1324.27445,628.490759 C1327.42003,630.542682 1328.29736,634.739359 1326.23533,637.862692 C1324.17135,640.989893 1319.9539,641.860171 1316.80832,639.812116 L1316.80832,639.812116 Z M1272.81497,657.095847 C1273.02896,653.36332 1276.24651,650.512674 1279.99903,650.723475 C1283.75349,650.936209 1286.62478,654.134967 1286.40885,657.867494 C1286.19681,661.598088 1282.9812,664.452602 1279.22479,664.237933 C1275.47033,664.027133 1272.60293,660.828375 1272.81497,657.095847 L1272.81497,657.095847 Z M1236.4959,628.287694 C1239.85352,626.603222 1243.94646,627.947318 1245.63889,631.283386 C1247.33131,634.621388 1245.97932,638.692357 1242.6217,640.374896 C1239.26408,642.0555 1235.17308,640.711404 1233.47871,637.375336 C1231.78823,634.0354 1233.14023,629.968299 1236.4959,628.287694 L1236.4959,628.287694 Z M1243.18973,582.190007 C1246.33337,584.236129 1247.21071,588.432805 1245.14672,591.558072 C1243.08858,594.685273 1238.86724,595.557485 1235.72361,593.505562 C1232.57997,591.457506 1231.70069,587.262764 1233.76467,584.135563 C1235.82476,581.010296 1240.04416,580.138084 1243.18973,582.190007 L1243.18973,582.190007 Z M1324.10131,542.132053 C1322.96719,543.851337 1320.64449,544.330957 1318.91704,543.203463 C1317.1896,542.075968 1316.70522,539.768763 1317.83934,538.047546 C1318.9754,536.330196 1321.29617,535.848642 1323.02361,536.97807 C1324.75105,538.105564 1325.23349,540.412769 1324.10131,542.132053 L1324.10131,542.132053 Z M1362.04278,614.535359 C1359.97686,614.421256 1358.39726,612.661359 1358.51592,610.607502 C1358.63459,608.555579 1360.40288,606.987143 1362.46881,607.101247 C1364.53473,607.217284 1366.11239,608.97718 1365.99372,611.031038 C1365.87506,613.082961 1364.10676,614.65333 1362.04278,614.535359 L1362.04278,614.535359 Z M1317.94049,683.405335 C1317.01063,681.566146 1317.75374,679.328563 1319.59791,678.406068 C1321.44596,677.479705 1323.69669,678.218475 1324.6285,680.053795 C1325.55836,681.889116 1324.81525,684.126699 1322.96914,685.051128 C1321.12109,685.977491 1318.87036,685.238721 1317.94049,683.405335 L1317.94049,683.405335 Z M1235.89869,679.868136 C1237.03281,678.148852 1239.35357,677.669232 1241.08296,678.796726 C1242.8104,679.92422 1243.29284,682.229492 1242.15677,683.950709 C1241.0246,685.668059 1238.70383,686.151547 1236.97445,685.022119 C1235.247,683.894625 1234.76457,681.587419 1235.89869,679.868136 L1235.89869,679.868136 Z M1197.95722,607.462896 C1200.0212,607.580867 1201.59885,609.336895 1201.48213,611.390753 C1201.36541,613.442676 1199.59323,615.013045 1197.52925,614.897008 C1195.46527,614.779037 1193.88761,613.019141 1194.00628,610.969151 C1194.123,608.915294 1195.89324,607.346859 1197.95722,607.462896 L1197.95722,607.462896 Z M1242.05951,538.594854 C1242.98937,540.430175 1242.24431,542.669692 1240.40015,543.594121 C1238.5521,544.51855 1236.30331,543.781714 1235.3715,541.94446 C1234.44164,540.109139 1235.18281,537.871556 1237.02891,536.947127 C1238.87697,536.020764 1241.12575,536.759534 1242.05951,538.594854 L1242.05951,538.594854 Z M1315.05753,561.848697 C1313.30675,564.505947 1309.71958,565.248585 1307.04672,563.508028 C1304.3758,561.763603 1303.6288,558.197395 1305.38153,555.540144 C1307.13426,552.88096 1310.72337,552.14219 1313.39429,553.884681 C1316.06715,555.627172 1316.81027,559.19338 1315.05753,561.848697 L1315.05753,561.848697 Z M1340.34471,616.61049 C1337.1505,616.430632 1334.71302,613.711496 1334.89393,610.541748 C1335.07679,607.366198 1337.80997,604.941022 1341.00029,605.120879 C1344.19255,605.302671 1346.63392,608.021808 1346.45106,611.195424 C1346.27015,614.363237 1343.53503,616.792282 1340.34471,616.61049 L1340.34471,616.61049 Z M1305.28426,665.759954 C1303.84473,662.920912 1304.99441,659.464939 1307.84624,658.033814 C1310.70391,656.60269 1314.18214,657.743721 1315.61973,660.582763 C1317.05538,663.419872 1315.91153,666.879712 1313.0558,668.306969 C1310.20202,669.73616 1306.72185,668.597062 1305.28426,665.759954 L1305.28426,665.759954 Z M1244.94052,660.147624 C1246.69325,657.492308 1250.27847,656.74967 1252.95134,658.494095 C1255.62226,660.234652 1256.3712,663.80086 1254.61847,666.458111 C1252.86574,669.115361 1249.27858,669.856065 1246.60571,668.113574 C1243.93285,666.371083 1243.18779,662.804875 1244.94052,660.147624 L1244.94052,660.147624 Z M1219.65334,605.389699 C1222.84561,605.569556 1225.28503,608.286759 1225.10412,611.460375 C1224.92321,614.632057 1222.18809,617.057233 1218.99582,616.877375 C1215.80745,616.69365 1213.36608,613.978381 1213.54699,610.806699 C1213.72985,607.633083 1216.46302,605.207907 1219.65334,605.389699 L1219.65334,605.389699 Z M1254.71379,556.240235 C1256.15333,559.077343 1255.00559,562.537184 1252.14987,563.964441 C1249.29609,565.395565 1245.81786,564.252599 1244.38027,561.417425 C1242.94073,558.580317 1244.09042,555.120477 1246.94225,553.689352 C1249.79603,552.262095 1253.2762,553.403127 1254.71379,556.240235 L1254.71379,556.240235 Z M1293.58707,598.982515 C1291.3305,598.982515 1289.13813,598.328839 1287.24339,597.094977 C1281.90349,593.611929 1280.40949,586.462108 1283.91106,581.151475 C1286.06064,577.894699 1289.68282,575.949143 1293.60652,575.949143 C1295.86309,575.949143 1298.05546,576.602819 1299.94826,577.838614 C1305.28815,581.315861 1306.7841,588.471484 1303.28253,593.782117 C1301.13295,597.036959 1297.51077,598.982515 1293.58707,598.982515 L1293.58707,598.982515 Z M1307.30739,622.454894 C1307.08562,622.454894 1306.86191,622.447158 1306.64015,622.435554 C1300.2634,622.075839 1295.37287,616.624028 1295.7347,610.284532 C1296.09458,603.97598 1301.54342,599.073411 1307.95713,599.444729 C1311.04629,599.616851 1313.88256,600.978354 1315.93876,603.273955 C1317.99885,605.567622 1319.03765,608.522702 1318.86063,611.595752 C1318.51242,617.683834 1313.43709,622.454894 1307.30739,622.454894 L1307.30739,622.454894 Z M1293.70573,645.989159 C1289.30543,645.989159 1285.33892,643.562049 1283.35859,639.655466 C1281.9638,636.907319 1281.73231,633.78592 1282.70302,630.867586 C1283.67179,627.943451 1285.72604,625.572425 1288.48839,624.187715 C1290.09911,623.379323 1291.90048,622.955788 1293.69406,622.955788 C1298.09631,622.955788 1302.06282,625.382898 1304.04509,629.291415 C1306.91833,634.961763 1304.61702,641.900784 1298.91335,644.755298 C1297.30068,645.56369 1295.50126,645.989159 1293.70573,645.989159 L1293.70573,645.989159 Z M1266.39348,646.047178 C1264.13691,646.047178 1261.94454,645.395436 1260.05174,644.161574 C1257.46253,642.475168 1255.69034,639.88754 1255.06201,636.876376 C1254.43172,633.865212 1255.01921,630.790228 1256.71553,628.220006 C1258.86316,624.959362 1262.48923,623.01574 1266.40904,623.01574 C1268.66561,623.01574 1270.85993,623.669416 1272.75467,624.905211 C1275.34194,626.591618 1277.11218,629.179246 1277.74246,632.188476 C1278.37469,635.19964 1277.78526,638.274624 1276.08894,640.84678 C1273.93936,644.103556 1270.31718,646.047178 1266.39348,646.047178 L1266.39348,646.047178 Z M1252.70817,622.576733 C1252.48835,622.576733 1252.26658,622.568997 1252.04093,622.557393 C1245.66807,622.19381 1240.77365,616.743933 1241.13548,610.406371 C1241.49925,604.093951 1246.94225,599.191382 1253.35791,599.5627 C1259.7366,599.92435 1264.62713,605.374227 1264.2653,611.711789 C1263.91514,617.805673 1258.83981,622.576733 1252.70817,622.576733 L1252.70817,622.576733 Z M1266.30594,599.044401 C1261.8998,599.044401 1257.93524,596.615357 1255.95491,592.708774 C1253.08167,587.036491 1255.38298,580.099405 1261.08665,577.241023 C1262.69738,576.436499 1264.49874,576.009095 1266.29038,576.009095 C1270.69458,576.009095 1274.65913,578.434272 1276.64141,582.344723 C1279.51464,588.013137 1277.21333,594.952158 1271.50966,597.81054 C1269.89894,598.616998 1268.09758,599.044401 1266.30594,599.044401 L1266.30594,599.044401 Z" id="cardano-logo"></path>
        </g>
    </g>
</svg>