<svg width="109" height="147" viewBox="0 0 109 147" xmlns="http://www.w3.org/2000/svg"><title>23C984DC-966E-4307-A6AF-80B380D9FC04</title><g fill="none" fill-rule="evenodd"><path d="M1 47.521a9.812 9.812 0 0 0 4.286.979h2.067v85.804a6.349 6.349 0 0 0 6.353 6.348h82.588a6.35 6.35 0 0 0 6.353-6.348V39.087H74.06a3.174 3.174 0 0 1-3.177-3.174V7.348h-39.22A15.9 15.9 0 0 0 28.229 1h45.83c1.016 0 1.88.511 2.462 1.254l31.224 31.196c.747.58 1.255 1.447 1.255 2.463v98.391c0 7.012-5.69 12.696-12.706 12.696H13.706C6.689 147 1 141.316 1 134.304V47.521zm76.235-35.79v21.008H98.26L77.235 11.731z" fill="#9EABBB"/><g stroke="#9EABBB" stroke-width="6" stroke-linecap="round"><path stroke-linejoin="round" d="M31.58 102l23.17-55 23.17 55"/><path d="M35.266 71h38.968M30 84h49.5"/></g><path d="M26.714 19.9c2.364 0 4.286 1.882 4.286 4.2v14.7c0 2.316-1.922 4.2-4.286 4.2H5.286C2.922 43 1 41.116 1 38.8V24.1c0-2.318 1.922-4.2 4.286-4.2v-8.4C5.286 5.71 10.092 1 16 1s10.714 4.71 10.714 10.5v8.4zM5.286 38.8h21.43l-.002-14.7H5.286v14.7zM9.57 11.5v8.4H22.43v-8.4c0-3.473-2.885-6.3-6.429-6.3-3.544 0-6.429 2.827-6.429 6.3z" stroke="#9EABBB" fill="#9EABBB"/></g></svg>