<?xml version="1.0" encoding="utf-8"?>
<!-- Generator: Adobe Illustrator 15.1.0, SVG Export Plug-In . SVG Version: 6.00 Build 0)  -->
<!DOCTYPE svg PUBLIC "-//W3C//DTD SVG 1.1//EN" "http://www.w3.org/Graphics/SVG/1.1/DTD/svg11.dtd">
<svg version="1.1" id="Ebene_1" xmlns="http://www.w3.org/2000/svg" xmlns:xlink="http://www.w3.org/1999/xlink" x="0px" y="0px"
	 width="272px" height="236px" viewBox="61.14 265.445 272 236" enable-background="new 61.14 265.445 272 236"
	 xml:space="preserve">
<title>67C9F6CD-7A67-4E2A-A3CF-7D9868E99B84</title>
<desc>Created with sketchtool.</desc>
<g>
	<path fill="#6B6B6B" d="M92.14,485.197c0,7.708-5.818,13.224-13.98,13.224H67.355v-26.446h10.995
		C86.359,471.975,92.14,477.451,92.14,485.197z M86.964,485.235c0-5.176-3.741-8.804-8.69-8.804h-5.856v17.531h6.045
		C83.336,493.963,86.964,490.373,86.964,485.235z"/>
	<path fill="#6B6B6B" d="M121.423,492.829h-12.921l-2.343,5.592h-5.251l11.6-26.446h5.252l11.448,26.446h-5.441L121.423,492.829z
		 M119.609,488.484L115,477.377l-4.686,11.107H119.609z"/>
	<path fill="#6B6B6B" d="M160.114,471.975v4.42h-14.32v6.536h12.846v4.421h-12.846V494h14.772v4.421h-19.835v-26.446H160.114z"/>
	<path fill="#6B6B6B" d="M198.803,485.197c0,7.708-5.818,13.224-13.979,13.224h-10.805v-26.446h10.994
		C193.023,471.975,198.803,477.451,198.803,485.197z M193.628,485.235c0-5.176-3.741-8.804-8.69-8.804h-5.856v17.531h6.045
		C190.001,493.963,193.628,490.373,193.628,485.235z"/>
	<path fill="#6B6B6B" d="M228.086,492.829h-12.922l-2.342,5.592h-5.252l11.6-26.446h5.252l11.448,26.446h-5.441L228.086,492.829z
		 M226.273,488.484l-4.609-11.107l-4.685,11.107H226.273z"/>
	<path fill="#6B6B6B" d="M252.458,471.975v21.875h11.41v4.571h-16.473v-26.446H252.458z"/>
	<path fill="#6B6B6B" d="M287.369,494.114c4.005,0,6.537-2.494,6.537-6.726v-15.414h5.062v15.414c0,6.952-4.42,11.26-11.599,11.26
		c-7.216,0-11.751-4.308-11.751-11.26v-15.414h5.063v15.414C280.681,491.582,283.364,494.114,287.369,494.114z"/>
	<path fill="#6B6B6B" d="M321.943,476.356c-2.381,0-3.931,0.869-3.931,2.494c0,5.364,14.207,2.456,14.169,11.938
		c0,4.95-4.308,7.821-10.126,7.821c-4.231,0-8.35-1.7-11.184-4.232l2.116-4.269c2.721,2.418,6.31,3.891,9.144,3.891
		c2.833,0,4.533-1.057,4.533-2.908c0-5.517-14.206-2.382-14.206-11.788c0-4.609,3.967-7.557,9.899-7.557
		c3.513,0,7.027,1.134,9.559,2.796l-2.041,4.383C327.042,477.226,323.983,476.356,321.943,476.356z"/>
</g>
<linearGradient id="SVGID_1_" gradientUnits="userSpaceOnUse" x1="284.9524" y1="442.5723" x2="82.3915" y2="276.1436">
	<stop  offset="0" style="stop-color:#88CBF0"/>
	<stop  offset="1" style="stop-color:#3C59A7"/>
</linearGradient>
<polygon fill="url(#SVGID_1_)" points="133.865,384.875 232.707,333.208 255.782,377.711 "/>
<linearGradient id="SVGID_2_" gradientUnits="userSpaceOnUse" x1="144.8298" y1="396.6221" x2="265.4993" y2="396.6221">
	<stop  offset="0" style="stop-color:#88CBF0"/>
	<stop  offset="1" style="stop-color:#3C59A7"/>
</linearGradient>
<polygon fill="url(#SVGID_2_)" points="144.83,389.541 255.782,377.711 265.499,415.533 "/>
<linearGradient id="SVGID_3_" gradientUnits="userSpaceOnUse" x1="231.4949" y1="468.4336" x2="262.1517" y2="406.3927">
	<stop  offset="0" style="stop-color:#88CBF0"/>
	<stop  offset="1" style="stop-color:#3C59A7"/>
</linearGradient>
<polygon fill="url(#SVGID_3_)" points="265.273,416.021 249.371,416.315 249.444,442.439 "/>
<linearGradient id="SVGID_4_" gradientUnits="userSpaceOnUse" x1="144.8298" y1="417.2559" x2="174.7576" y2="417.2559">
	<stop  offset="0" style="stop-color:#88CBF0"/>
	<stop  offset="1" style="stop-color:#3C59A7"/>
</linearGradient>
<polygon fill="url(#SVGID_4_)" points="144.83,389.541 174.758,401.786 174.599,444.972 "/>
<linearGradient id="SVGID_5_" gradientUnits="userSpaceOnUse" x1="133.8645" y1="352.2432" x2="228.1785" y2="352.2432">
	<stop  offset="0" style="stop-color:#88CBF0"/>
	<stop  offset="1" style="stop-color:#3C59A7"/>
</linearGradient>
<polygon fill="url(#SVGID_5_)" points="228.178,329.559 133.865,384.875 133.873,319.612 "/>
<linearGradient id="SVGID_6_" gradientUnits="userSpaceOnUse" x1="298.762" y1="425.7627" x2="96.2061" y2="259.3382">
	<stop  offset="0" style="stop-color:#88CBF0"/>
	<stop  offset="1" style="stop-color:#3C59A7"/>
</linearGradient>
<polygon fill="url(#SVGID_6_)" points="133.873,319.612 190.082,320.633 174.163,294.064 "/>
<linearGradient id="SVGID_7_" gradientUnits="userSpaceOnUse" x1="290.7551" y1="229.4414" x2="213.0128" y2="330.1779">
	<stop  offset="0" style="stop-color:#88CBF0"/>
	<stop  offset="1" style="stop-color:#3C59A7"/>
</linearGradient>
<polygon fill="url(#SVGID_7_)" points="228.071,329.427 258.852,311.006 189.645,320.231 "/>
<linearGradient id="SVGID_8_" gradientUnits="userSpaceOnUse" x1="120.0032" y1="303.8477" x2="174.1633" y2="303.8477">
	<stop  offset="0" style="stop-color:#88CBF0"/>
	<stop  offset="1" style="stop-color:#3C59A7"/>
</linearGradient>
<polygon fill="url(#SVGID_8_)" points="174.163,294.064 120.003,320.637 120.302,304.582 144.095,287.059 "/>
<linearGradient id="SVGID_9_" gradientUnits="userSpaceOnUse" x1="215.3176" y1="257.8335" x2="145.2477" y2="284.841">
	<stop  offset="0" style="stop-color:#88CBF0"/>
	<stop  offset="1" style="stop-color:#3C59A7"/>
</linearGradient>
<polygon fill="url(#SVGID_9_)" points="155.485,286.622 144.737,286.789 163.423,272.106 "/>
</svg>
