<svg xmlns="http://www.w3.org/2000/svg" width="97" height="161" viewBox="0 0 97 161">
    <path fill="#5E6066" fill-rule="nonzero" d="M2 71.692L49.085 0l45.78 72.2-45.707-20.39L2 71.692zM49.225 45.27L79.15 58.619 48.997 11.065 17.84 58.5 49.225 45.27zM1 94l47.085 27.283L96.114 94 48.52 160.25 1 94zm47.524 55.96l26.733-37.212-27.201 15.453-25.908-15.012 26.376 36.772zm2.906-80.362v32.197L83.475 83.87 51.43 69.598zm-6 31.454v-30.99L13.695 83.424l31.735 17.628zM49.117 62l47.738 21.26-47.738 26.704L0 82.68 49.117 62zM45.43 10h6v40h-6V10zm.13 113h6v29h-6v-29z"/>
</svg>
