<svg xmlns="http://www.w3.org/2000/svg" width="97" height="161" viewBox="0 0 97 161">
    <g fill="none" fill-rule="evenodd">
        <path stroke="#5E6066" stroke-width="6" d="M49.04 5.532l2.553-3.885-5.041-.04 2.489 3.925zM87.008 65.41l5.324 8.397 3.756-4.346-9.08-4.05zM9.92 65.096L.835 68.927l3.673 4.411 5.413-8.242zm0 0L49.04 5.532 87.007 65.41 49.192 48.54 9.92 65.097zm1.653 38.498l36.948 51.511 37.163-51.73-37.615 21.367-36.496-21.148zm37.51-38.325L6.847 83.052l42.264 23.477 41.053-22.964L49.083 65.27z"/>
        <path fill="#5E6066" d="M45.43 66h6v40h-6zM45.43 10h6v40h-6zM45.56 123h6v29h-6z"/>
    </g>
</svg>
