<?xml version="1.0" encoding="utf-8"?>
<!-- Generator: Adobe Illustrator 18.1.1, SVG Export Plug-In . SVG Version: 6.00 Build 0)  -->
<svg version="1.1" id="Ebene_1" xmlns="http://www.w3.org/2000/svg" xmlns:xlink="http://www.w3.org/1999/xlink" x="0px" y="0px"
	 viewBox="104 136.3 563 83" enable-background="new 104 136.3 563 83" xml:space="preserve">
<title>67C9F6CD-7A67-4E2A-A3CF-7D9868E99B84</title>
<desc>Created with sketchtool.</desc>
<g id="Symbols">
	<g id="header" transform="translate(-997.000000, -42.000000)">
		<g id="header-logo">
			<g transform="translate(998.000000, 42.000000)">
				<g enable-background="new    ">
					<path fill="#FAFBFC" d="M291.1,194.3v-33.6h17.8c0.8,0,1.6,0.3,2.3,1l4.6,3.8c0.8,0.6,1.2,1.3,1.2,1.9v20.2
						c0,0.6-0.4,1.3-1.2,1.9l-4.6,3.8c-0.7,0.6-1.5,1-2.3,1H291.1z M312.9,186.2v-17.3c0-0.6-0.4-1.3-1.2-1.9l-2.3-1.9
						c-0.7-0.6-1.5-1-2.3-1h-12V191h12c0.8,0,1.6-0.3,2.3-1l2.3-1.9C312.5,187.5,312.9,186.8,312.9,186.2z"/>
					<path fill="#FAFBFC" d="M340.9,194.3l11.5-33.6h5.7l11.8,33.6h-4l-2.5-7h-16l-2.4,7H340.9z M355.4,163.6h-0.2
						c0,0.4-0.1,0.8-0.3,1.4l-6.5,19.2h14l-6.6-19.2C355.5,164.5,355.4,164,355.4,163.6z"/>
					<path fill="#FAFBFC" d="M416.6,191v3.4h-21.5v-33.6h21.5v3.4h-17.5v11.5h14.8v3.4h-14.8v12H416.6z"/>
					<path fill="#FAFBFC" d="M443,194.3v-33.6h17.8c0.8,0,1.6,0.3,2.3,1l4.6,3.8c0.8,0.6,1.2,1.3,1.2,1.9v20.2
						c0,0.6-0.4,1.3-1.2,1.9l-4.6,3.8c-0.7,0.6-1.5,1-2.3,1H443z M464.8,186.2v-17.3c0-0.6-0.4-1.3-1.2-1.9l-2.3-1.9
						c-0.7-0.6-1.5-1-2.3-1h-12V191h12c0.8,0,1.6-0.3,2.3-1l2.3-1.9C464.4,187.5,464.8,186.8,464.8,186.2z"/>
					<path fill="#FAFBFC" d="M492.8,194.3l11.5-33.6h5.7l11.8,33.6h-4l-2.5-7h-16l-2.4,7H492.8z M507.3,163.6h-0.2
						c0,0.4-0.1,0.8-0.3,1.4l-6.5,19.2h14l-6.6-19.2C507.4,164.5,507.3,164,507.3,163.6z"/>
					<path fill="#FAFBFC" d="M567.7,191v3.4H547v-33.6h4V191H567.7z"/>
					<path fill="#FAFBFC" d="M611.7,160.7h4V190c0,1-0.4,1.8-1.2,2.4l-1.2,1c-0.8,0.6-1.5,1-2.3,1h-16.3c-0.8,0-1.5-0.3-2.3-1
						l-1.2-1c-0.8-0.6-1.2-1.4-1.2-2.4v-29.3h4V189c0,0.5,0,0.8,0.1,0.9c0,0.1,0.2,0.3,0.5,0.6s0.5,0.4,0.7,0.4
						c0.2,0,0.5,0.1,1.1,0.1h12.8c0.6,0,0.9,0,1.1-0.1c0.2,0,0.4-0.2,0.7-0.4c0.3-0.2,0.5-0.4,0.5-0.6c0-0.1,0.1-0.5,0.1-0.9V160.7z
						"/>
				</g>
				<g enable-background="new    ">
					<path fill="none" stroke="#2F496E" d="M291.1,194.3v-33.6h17.8c0.8,0,1.6,0.3,2.3,1l4.6,3.8c0.8,0.6,1.2,1.3,1.2,1.9v20.2
						c0,0.6-0.4,1.3-1.2,1.9l-4.6,3.8c-0.7,0.6-1.5,1-2.3,1H291.1z M312.9,186.2v-17.3c0-0.6-0.4-1.3-1.2-1.9l-2.3-1.9
						c-0.7-0.6-1.5-1-2.3-1h-12V191h12c0.8,0,1.6-0.3,2.3-1l2.3-1.9C312.5,187.5,312.9,186.8,312.9,186.2z"/>
					<path fill="none" stroke="#2F496E" d="M340.9,194.3l11.5-33.6h5.7l11.8,33.6h-4l-2.5-7h-16l-2.4,7H340.9z M355.4,163.6h-0.2
						c0,0.4-0.1,0.8-0.3,1.4l-6.5,19.2h14l-6.6-19.2C355.5,164.5,355.4,164,355.4,163.6z"/>
					<path fill="none" stroke="#2F496E" d="M416.6,191v3.4h-21.5v-33.6h21.5v3.4h-17.5v11.5h14.8v3.4h-14.8v12H416.6z"/>
					<path fill="none" stroke="#2F496E" d="M443,194.3v-33.6h17.8c0.8,0,1.6,0.3,2.3,1l4.6,3.8c0.8,0.6,1.2,1.3,1.2,1.9v20.2
						c0,0.6-0.4,1.3-1.2,1.9l-4.6,3.8c-0.7,0.6-1.5,1-2.3,1H443z M464.8,186.2v-17.3c0-0.6-0.4-1.3-1.2-1.9l-2.3-1.9
						c-0.7-0.6-1.5-1-2.3-1h-12V191h12c0.8,0,1.6-0.3,2.3-1l2.3-1.9C464.4,187.5,464.8,186.8,464.8,186.2z"/>
					<path fill="none" stroke="#2F496E" d="M492.8,194.3l11.5-33.6h5.7l11.8,33.6h-4l-2.5-7h-16l-2.4,7H492.8z M507.3,163.6h-0.2
						c0,0.4-0.1,0.8-0.3,1.4l-6.5,19.2h14l-6.6-19.2C507.4,164.5,507.3,164,507.3,163.6z"/>
					<path fill="none" stroke="#2F496E" d="M567.7,191v3.4H547v-33.6h4V191H567.7z"/>
					<path fill="none" stroke="#2F496E" d="M611.7,160.7h4V190c0,1-0.4,1.8-1.2,2.4l-1.2,1c-0.8,0.6-1.5,1-2.3,1h-16.3
						c-0.8,0-1.5-0.3-2.3-1l-1.2-1c-0.8-0.6-1.2-1.4-1.2-2.4v-29.3h4V189c0,0.5,0,0.8,0.1,0.9c0,0.1,0.2,0.3,0.5,0.6
						s0.5,0.4,0.7,0.4c0.2,0,0.5,0.1,1.1,0.1h12.8c0.6,0,0.9,0,1.1-0.1c0.2,0,0.4-0.2,0.7-0.4c0.3-0.2,0.5-0.4,0.5-0.6
						c0-0.1,0.1-0.5,0.1-0.9V160.7z"/>
				</g>
				<g>
				</g>
				<g>
				</g>
				<g enable-background="new    ">
					<path fill="#FAFBFC" d="M658.7,179h-11.5c-0.8,0-1.5-0.3-2.3-1l-1.3-1.1c-0.7-0.5-1-1.2-1-1.9V165c0-1,0.4-1.8,1.2-2.4l1.2-1
						c0.8-0.6,1.5-1,2.3-1H660c0.8,0,1.5,0.3,2.3,1l1.2,1c0.8,0.6,1.2,1.4,1.2,2.4v1.9h-4v-0.9c0-0.5,0-0.8-0.1-0.9
						s-0.2-0.3-0.5-0.6s-0.5-0.4-0.7-0.4c-0.2,0-0.5-0.1-1.1-0.1H649c-0.6,0-0.9,0-1.1,0.1s-0.4,0.2-0.7,0.4s-0.5,0.4-0.5,0.6
						s-0.1,0.5-0.1,0.9v7.6c0,0.5,0,0.8,0.1,0.9c0,0.1,0.2,0.3,0.5,0.6c0.3,0.2,0.5,0.4,0.7,0.4s0.5,0.1,1.1,0.1h11.5
						c0.8,0,1.5,0.3,2.3,1l1.2,1c0.8,0.6,1.2,1.4,1.2,2.4V190c0,1-0.4,1.8-1.2,2.4l-1.2,1c-0.8,0.6-1.5,1-2.3,1h-13.7
						c-0.8,0-1.5-0.3-2.3-1l-1.2-1c-0.8-0.6-1.2-1.4-1.2-2.4v-1.9h4v0.9c0,0.5,0,0.8,0.1,0.9c0,0.1,0.2,0.3,0.5,0.6s0.5,0.4,0.7,0.4
						c0.2,0,0.5,0.1,1.1,0.1h10.2c0.6,0,0.9,0,1.1-0.1c0.2,0,0.4-0.2,0.7-0.4s0.5-0.4,0.5-0.6c0-0.1,0.1-0.5,0.1-0.9v-8.1
						c0-0.5,0-0.8-0.1-0.9c0-0.1-0.2-0.3-0.5-0.6c-0.3-0.2-0.5-0.4-0.7-0.4S659.3,179,658.7,179z"/>
				</g>
				<g enable-background="new    ">
					<path fill="none" stroke="#2F496E" d="M658.7,179h-11.5c-0.8,0-1.5-0.3-2.3-1l-1.3-1.1c-0.7-0.5-1-1.2-1-1.9V165
						c0-1,0.4-1.8,1.2-2.4l1.2-1c0.8-0.6,1.5-1,2.3-1H660c0.8,0,1.5,0.3,2.3,1l1.2,1c0.8,0.6,1.2,1.4,1.2,2.4v1.9h-4v-0.9
						c0-0.5,0-0.8-0.1-0.9s-0.2-0.3-0.5-0.6s-0.5-0.4-0.7-0.4c-0.2,0-0.5-0.1-1.1-0.1H649c-0.6,0-0.9,0-1.1,0.1s-0.4,0.2-0.7,0.4
						s-0.5,0.4-0.5,0.6s-0.1,0.5-0.1,0.9v7.6c0,0.5,0,0.8,0.1,0.9c0,0.1,0.2,0.3,0.5,0.6c0.3,0.2,0.5,0.4,0.7,0.4s0.5,0.1,1.1,0.1
						h11.5c0.8,0,1.5,0.3,2.3,1l1.2,1c0.8,0.6,1.2,1.4,1.2,2.4V190c0,1-0.4,1.8-1.2,2.4l-1.2,1c-0.8,0.6-1.5,1-2.3,1h-13.7
						c-0.8,0-1.5-0.3-2.3-1l-1.2-1c-0.8-0.6-1.2-1.4-1.2-2.4v-1.9h4v0.9c0,0.5,0,0.8,0.1,0.9c0,0.1,0.2,0.3,0.5,0.6s0.5,0.4,0.7,0.4
						c0.2,0,0.5,0.1,1.1,0.1h10.2c0.6,0,0.9,0,1.1-0.1c0.2,0,0.4-0.2,0.7-0.4s0.5-0.4,0.5-0.6c0-0.1,0.1-0.5,0.1-0.9v-8.1
						c0-0.5,0-0.8-0.1-0.9c0-0.1-0.2-0.3-0.5-0.6c-0.3-0.2-0.5-0.4-0.7-0.4S659.3,179,658.7,179z"/>
				</g>
				<g id="origami">
					<g id="picture">
						<g id="Line">
							<path fill="#FFFFFF" d="M117.4,147.9c-0.3,0-0.6-0.1-0.8-0.4l-7.4-9.6c-0.3-0.4-0.3-1.1,0.2-1.4c0.4-0.3,1.1-0.3,1.4,0.2
								l7.4,9.6c0.3,0.4,0.3,1.1-0.2,1.4C117.9,147.9,117.7,147.9,117.4,147.9z"/>
						</g>
						<g id="Line_1_">
							<path fill="#FFFFFF" d="M113,214.8c-0.1,0-0.3,0-0.4-0.1c-0.5-0.2-0.7-0.8-0.5-1.3l4-9.2c0.2-0.5,0.8-0.7,1.3-0.5
								c0.5,0.2,0.7,0.8,0.5,1.3l-4,9.2C113.8,214.6,113.4,214.8,113,214.8z"/>
						</g>
						<g id="Line_2_">
							<path fill="none" stroke="#FFFFFF" stroke-width="2" stroke-linecap="round" stroke-linejoin="round" d="M104,136.3"/>
						</g>
						<g id="Line_3_">
							<path fill="#FFFFFF" d="M184.9,211.4c-0.3,0-0.5-0.1-0.7-0.3l-7.9-8c-0.4-0.4-0.4-1,0-1.4c0.4-0.4,1-0.4,1.4,0l7.9,8
								c0.4,0.4,0.4,1,0,1.4C185.4,211.3,185.1,211.4,184.9,211.4z"/>
						</g>
						<g id="Line_4_">
							<path fill="#FFFFFF" d="M174.5,204.8c-0.3,0-0.7-0.2-0.9-0.5c-0.3-0.5-0.1-1.1,0.3-1.4l2.5-1.5c0.5-0.3,1.1-0.1,1.4,0.3
								s0.1,1.1-0.3,1.4l-2.5,1.5C174.9,204.8,174.7,204.8,174.5,204.8z"/>
						</g>
						<g id="Line_5_">
							<path fill="#FFFFFF" d="M117.4,147.9c-0.4,0-0.8-0.2-0.9-0.6c-0.2-0.5,0-1.1,0.6-1.3l6.8-2.7c0.5-0.2,1.1,0,1.3,0.6
								c0.2,0.5,0,1.1-0.6,1.3l-6.8,2.7C117.7,147.9,117.6,147.9,117.4,147.9z"/>
						</g>
						<g id="Line_6_">
							<path fill="#FFFFFF" d="M124.6,144.8c-0.2,0-0.4,0-0.5-0.1l-10.6-6.5c-0.5-0.3-0.6-0.9-0.3-1.4s0.9-0.6,1.4-0.3l10.6,6.5
								c0.5,0.3,0.6,0.9,0.3,1.4C125.3,144.6,124.9,144.8,124.6,144.8z"/>
						</g>
						<g id="Line_7_">
							<path fill="#FFFFFF" d="M110.5,138.8c-0.5,0-0.9-0.3-1-0.8c-0.1-0.5,0.3-1.1,0.8-1.2l2.8-0.5c0.5-0.1,1.1,0.3,1.2,0.8
								c0.1,0.5-0.3,1.1-0.8,1.2l-2.8,0.5C110.6,138.8,110.6,138.8,110.5,138.8z"/>
						</g>
						<g id="Line_8_">
							<path fill="#FFFFFF" d="M114,138.3h-4c-0.6,0-1-0.4-1-1s0.4-1,1-1h4c0.6,0,1,0.4,1,1S114.6,138.3,114,138.3z"/>
						</g>
						<g id="Line_9_">
							<path fill="#FFFFFF" d="M108.5,143.8c-0.1,0-0.2,0-0.3,0c-0.5-0.1-0.8-0.7-0.7-1.2l1.5-5.5c0.1-0.5,0.7-0.9,1.2-0.7
								c0.5,0.1,0.8,0.7,0.7,1.2l-1.5,5.5C109.4,143.5,109,143.8,108.5,143.8z"/>
						</g>
						<g id="Line_10_">
							<path fill="#FFFFFF" d="M108.5,143.8c-0.4,0-0.8-0.3-1-0.7c-0.2-0.5,0.1-1.1,0.7-1.3l4.4-1.4c0.5-0.2,1.1,0.1,1.3,0.7
								c0.2,0.5-0.1,1.1-0.7,1.3l-4.4,1.4C108.7,143.8,108.6,143.8,108.5,143.8z"/>
						</g>
						<g id="Line_11_">
							<path fill="#FFFFFF" d="M104.5,179c-0.1,0-0.2,0-0.3-0.1c-0.5-0.2-0.8-0.8-0.6-1.3l11.4-32.8c0.2-0.5,0.8-0.8,1.3-0.6
								c0.5,0.2,0.8,0.8,0.6,1.3l-11.4,32.8C105.3,178.7,104.9,179,104.5,179z"/>
						</g>
						<g id="Line_12_">
							<path fill="#FFFFFF" d="M122.1,216.1c-0.4,0-0.7-0.2-0.9-0.6l-17.6-37.1c-0.2-0.5,0-1.1,0.5-1.3c0.5-0.2,1.1,0,1.3,0.5
								l17.6,37.1c0.2,0.5,0,1.1-0.5,1.3C122.4,216.1,122.2,216.1,122.1,216.1z"/>
						</g>
						<g id="Line_13_">
							<path fill="#FFFFFF" d="M115,219.3c-0.4,0-0.8-0.2-0.9-0.6c-0.2-0.5,0-1.1,0.5-1.3l7.3-3c0.5-0.2,1.1,0,1.3,0.5
								c0.2,0.5,0,1.1-0.5,1.3l-7.3,3C115.3,219.3,115.1,219.3,115,219.3z"/>
						</g>
						<g id="Line_14_">
							<path fill="#FFFFFF" d="M115.6,218.3c-0.3,0-0.6-0.1-0.8-0.4l-4-5.2c-0.3-0.4-0.3-1.1,0.2-1.4c0.4-0.3,1.1-0.3,1.4,0.2l4,5.2
								c0.3,0.4,0.3,1.1-0.2,1.4C116,218.3,115.8,218.3,115.6,218.3z"/>
						</g>
						<g id="Line_15_">
							<path fill="#FFFFFF" d="M108,213.8c-0.5,0-0.9-0.3-1-0.8c-0.1-0.5,0.2-1.1,0.8-1.2l3.5-0.7c0.5-0.1,1.1,0.2,1.2,0.8
								s-0.2,1.1-0.8,1.2l-3.5,0.7C108.2,213.8,108.1,213.8,108,213.8z"/>
						</g>
						<g id="Line_16_">
							<path fill="#FFFFFF" d="M104,218.1c-0.2,0-0.5-0.1-0.7-0.3c-0.4-0.4-0.4-1,0-1.4l4-4.2c0.4-0.4,1-0.4,1.4,0s0.4,1,0,1.4
								l-4,4.2C104.5,218,104.3,218.1,104,218.1z"/>
						</g>
						<g id="Line_17_">
							<path fill="#FFFFFF" d="M111,219.3c-0.4,0-0.7-0.2-0.9-0.6l-2.6-5.4c-0.2-0.5,0-1.1,0.5-1.3c0.5-0.2,1.1,0,1.3,0.5l2.6,5.4
								c0.2,0.5,0,1.1-0.5,1.3C111.3,219.3,111.1,219.3,111,219.3z"/>
						</g>
						<g id="Line_18_">
							<path fill="#FFFFFF" d="M115,219.3h-4c-0.6,0-1-0.4-1-1s0.4-1,1-1h4c0.6,0,1,0.4,1,1S115.6,219.3,115,219.3z"/>
						</g>
						<g id="Line_19_">
							<path fill="#FFFFFF" d="M104,218.1c-0.5,0-0.9-0.4-1-0.9c-0.1-0.5,0.3-1,0.9-1.1l6-0.8c0.5-0.1,1,0.3,1.1,0.9
								c0.1,0.5-0.3,1-0.9,1.1l-6,0.8C104.1,218.1,104,218.1,104,218.1z"/>
						</g>
						<g id="Line_20_">
							<path fill="#FFFFFF" d="M122.3,216.3c-0.1,0-0.2,0-0.3,0c-0.5-0.1-0.8-0.7-0.7-1.2l4.7-17c0.1-0.5,0.7-0.8,1.2-0.7
								c0.5,0.1,0.8,0.7,0.7,1.2l-4.7,17C123.2,216.1,122.8,216.3,122.3,216.3z"/>
						</g>
						<g id="Line_21_">
							<path fill="#FFFFFF" d="M127,199.3c-0.1,0-0.2,0-0.3,0l-14.6-3.8c-0.5-0.1-0.9-0.7-0.7-1.2c0.1-0.5,0.7-0.9,1.2-0.7l14.6,3.8
								c0.5,0.1,0.9,0.7,0.7,1.2C127.9,199,127.4,199.3,127,199.3z"/>
						</g>
						<g id="Line_22_">
							<path fill="#FFFFFF" d="M125,198.3c-0.4,0-0.7-0.2-0.9-0.6l-15.3-33.5c-0.2-0.5,0-1.1,0.5-1.3c0.5-0.2,1.1,0,1.3,0.5
								l15.3,33.5c0.2,0.5,0,1.1-0.5,1.3C125.3,198.3,125.1,198.3,125,198.3z"/>
						</g>
						<g id="Line_23_">
							<path fill="#FFFFFF" d="M126,198.3c-0.3,0-0.6-0.1-0.8-0.4c-0.3-0.4-0.3-1.1,0.1-1.4l49.7-40.4c0.4-0.3,1.1-0.3,1.4,0.1
								c0.3,0.4,0.3,1.1-0.1,1.4l-49.7,40.4C126.4,198.3,126.2,198.3,126,198.3z"/>
						</g>
						<g id="Line_24_">
							<path fill="#FFFFFF" d="M109.7,164.6c-0.4,0-0.8-0.3-0.9-0.7c-0.2-0.5,0.1-1.1,0.6-1.3l33-11.1c0.5-0.2,1.1,0.1,1.3,0.6
								c0.2,0.5-0.1,1.1-0.6,1.3l-33,11.1C109.9,164.6,109.8,164.6,109.7,164.6z"/>
						</g>
						<g id="Line_25_">
							<path fill="#FFFFFF" d="M175.7,157.9c0,0-0.1,0-0.1,0l-33-4.4c-0.5-0.1-0.9-0.6-0.9-1.1c0.1-0.5,0.6-0.9,1.1-0.9l33,4.4
								c0.5,0.1,0.9,0.6,0.9,1.1C176.7,157.5,176.2,157.9,175.7,157.9z"/>
						</g>
						<g id="Line_26_">
							<path fill="#FFFFFF" d="M125.5,159.1c-0.5,0-1-0.4-1-0.9l-0.9-14.3c0-0.6,0.4-1,0.9-1.1c0.6,0,1,0.4,1.1,0.9l0.9,14.3
								C126.5,158.6,126.1,159.1,125.5,159.1C125.5,159.1,125.5,159.1,125.5,159.1z"/>
						</g>
						<g id="Line_27_">
							<path fill="#FFFFFF" d="M125.4,157c-0.4,0-0.8-0.2-0.9-0.6c-0.2-0.5,0-1.1,0.6-1.3l18.3-7.2c0.5-0.2,1.1,0,1.3,0.6
								c0.2,0.5,0,1.1-0.6,1.3l-18.3,7.2C125.6,157,125.5,157,125.4,157z"/>
						</g>
						<g id="Line_28_">
							<path fill="#FFFFFF" d="M173.7,152.4C173.7,152.4,173.7,152.4,173.7,152.4l-30.1-2.6c-0.6,0-1-0.5-0.9-1.1
								c0-0.5,0.5-1,1.1-0.9l30,2.6c0.6,0,1,0.5,0.9,1.1C174.7,152,174.2,152.4,173.7,152.4z"/>
						</g>
						<g id="Line_29_">
							<path fill="#FFFFFF" d="M167.6,156.8c-0.3,0-0.6-0.1-0.8-0.4c-0.3-0.5-0.2-1.1,0.2-1.4l6.2-4.4c0.5-0.3,1.1-0.2,1.4,0.2
								c0.3,0.5,0.2,1.1-0.2,1.4l-6.2,4.4C168,156.7,167.8,156.8,167.6,156.8z"/>
						</g>
						<g id="Line_30_">
							<path fill="#FFFFFF" d="M129,203.3c-0.4,0-0.7-0.2-0.9-0.6l-2-4c-0.2-0.5,0-1.1,0.4-1.3c0.5-0.2,1.1,0,1.3,0.4l2,4
								c0.2,0.5,0,1.1-0.4,1.3C129.3,203.3,129.2,203.3,129,203.3z"/>
						</g>
						<g id="Line_31_">
							<path fill="#FFFFFF" d="M146.8,203.3H129c-0.6,0-1-0.4-1-1s0.4-1,1-1h17.8c0.6,0,1,0.4,1,1S147.4,203.3,146.8,203.3z"/>
						</g>
						<g id="Line_32_">
							<path fill="#FFFFFF" d="M147.2,204.1c-0.5,0-0.9-0.3-1-0.8l-3.6-19.8c-0.1-0.5,0.3-1.1,0.8-1.2c0.5-0.1,1.1,0.3,1.2,0.8
								l3.6,19.8c0.1,0.5-0.3,1.1-0.8,1.2C147.3,204.1,147.3,204.1,147.2,204.1z"/>
						</g>
						<g id="Line_33_">
							<path fill="#FFFFFF" d="M184,218.3c-0.1,0-0.2,0-0.4-0.1l-36.8-14.2c-0.5-0.2-0.8-0.8-0.6-1.3c0.2-0.5,0.8-0.8,1.3-0.6
								l36.8,14.2c0.5,0.2,0.8,0.8,0.6,1.3C184.8,218.1,184.4,218.3,184,218.3z"/>
						</g>
						<g id="Line_34_">
							<path fill="none" stroke="#FFFFFF" stroke-width="2" stroke-linecap="round" stroke-linejoin="round" d="M104,136.3"/>
						</g>
						<g id="Line_35_">
							<path fill="#FFFFFF" d="M174,218.3c-0.3,0-0.5-0.1-0.7-0.3c-0.4-0.4-0.3-1,0.1-1.4l3.5-3.1c0.4-0.4,1-0.3,1.4,0.1
								c0.4,0.4,0.3,1-0.1,1.4l-3.5,3.1C174.5,218.2,174.2,218.3,174,218.3z"/>
						</g>
						<g id="Line_36_">
							<path fill="#FFFFFF" d="M184,218.3h-10c-0.6,0-1-0.4-1-1s0.4-1,1-1h10c0.6,0,1,0.4,1,1S184.6,218.3,184,218.3z"/>
						</g>
						<g id="Line_37_">
							<path fill="#FFFFFF" d="M184,218.3c0,0-0.1,0-0.1,0c-0.5-0.1-0.9-0.6-0.8-1.1l1-6.8c0.1-0.5,0.6-0.9,1.1-0.8
								c0.5,0.1,0.9,0.6,0.8,1.1l-1,6.8C184.9,218,184.5,218.3,184,218.3z"/>
						</g>
						<g id="Line_38_">
							<path fill="#FFFFFF" d="M177.4,215.1c-0.4,0-0.7-0.2-0.9-0.6c-0.2-0.5,0-1.1,0.5-1.3l7.5-3.5c0.5-0.2,1.1,0,1.3,0.5
								c0.2,0.5,0,1.1-0.5,1.3l-7.5,3.5C177.6,215.1,177.5,215.1,177.4,215.1z"/>
						</g>
						<g id="Line_39_">
							<path fill="#FFFFFF" d="M177.7,215.2c-0.4,0-0.8-0.3-0.9-0.7l-13.3-36.9c-0.2-0.5,0.1-1.1,0.6-1.3c0.5-0.2,1.1,0.1,1.3,0.6
								l13.3,36.9c0.2,0.5-0.1,1.1-0.6,1.3C178,215.2,177.8,215.2,177.7,215.2z"/>
						</g>
						<g id="Line_40_">
							<path fill="#FFFFFF" d="M164.4,178.3c-0.1,0-0.3,0-0.4-0.1l-8.9-3.9c-0.5-0.2-0.7-0.8-0.5-1.3c0.2-0.5,0.8-0.7,1.3-0.5
								l8.9,3.9c0.5,0.2,0.7,0.8,0.5,1.3C165.2,178.1,164.8,178.3,164.4,178.3z"/>
						</g>
						<g id="Line_41_">
							<path fill="#FFFFFF" d="M169.8,178.7c-0.1,0-0.3,0-0.4-0.1l-12.7-5.6c-0.5-0.2-0.7-0.8-0.5-1.3c0.2-0.5,0.8-0.7,1.3-0.5
								l12.7,5.6c0.5,0.2,0.7,0.8,0.5,1.3C170.6,178.5,170.2,178.7,169.8,178.7z"/>
						</g>
						<g id="Line_42_">
							<path fill="#FFFFFF" d="M169.2,190.8C169.2,190.8,169.2,190.8,169.2,190.8c-0.6,0-1-0.5-1-1.1l0.6-11.8c0-0.6,0.5-1,1.1-0.9
								c0.6,0,1,0.5,0.9,1.1l-0.6,11.8C170.2,190.4,169.7,190.8,169.2,190.8z"/>
						</g>
						<g id="Line_43_">
							<path fill="#FFFFFF" d="M187.7,194.2c-0.1,0-0.1,0-0.2,0l-18.5-3.4c-0.5-0.1-0.9-0.6-0.8-1.2c0.1-0.5,0.6-0.9,1.2-0.8
								l18.5,3.4c0.5,0.1,0.9,0.6,0.8,1.2C188.6,193.8,188.1,194.2,187.7,194.2z"/>
						</g>
						<g id="Line_44_">
							<path fill="#FFFFFF" d="M187.3,194c-0.2,0-0.5-0.1-0.7-0.2l-17.3-15.2c-0.4-0.4-0.5-1-0.1-1.4c0.4-0.4,1-0.5,1.4-0.1
								l17.3,15.2c0.4,0.4,0.5,1,0.1,1.4C187.8,193.9,187.6,194,187.3,194z"/>
						</g>
						<g id="Line_45_">
							<path fill="#FFFFFF" d="M178.7,186.6c-0.5,0-1-0.4-1-0.9c0-0.6,0.4-1,0.9-1.1l24.5-1.6c0.6,0,1,0.4,1.1,0.9
								c0,0.6-0.4,1-0.9,1.1L178.7,186.6C178.8,186.6,178.8,186.6,178.7,186.6z"/>
						</g>
						<g id="Line_46_">
							<path fill="#FFFFFF" d="M187.7,194.2c-0.3,0-0.7-0.2-0.9-0.5c-0.3-0.5-0.1-1.1,0.4-1.4l15.7-9.1c0.5-0.3,1.1-0.1,1.4,0.4
								c0.3,0.5,0.1,1.1-0.4,1.4l-15.7,9.1C188,194.1,187.8,194.2,187.7,194.2z"/>
						</g>
						<g id="Line_47_">
							<path fill="#FFFFFF" d="M203.5,184.9c-0.1,0-0.1,0-0.2,0c-0.5-0.1-0.9-0.6-0.8-1.2l2.4-14.3c0.1-0.5,0.6-0.9,1.2-0.8
								c0.5,0.1,0.9,0.6,0.8,1.2l-2.4,14.3C204.4,184.6,204,184.9,203.5,184.9z"/>
						</g>
						<g id="Line_48_">
							<path fill="#FFFFFF" d="M196.7,185.2c-0.2,0-0.4,0-0.5-0.2c-0.5-0.3-0.6-0.9-0.3-1.4l9.2-14.6c0.3-0.5,0.9-0.6,1.4-0.3
								c0.5,0.3,0.6,0.9,0.3,1.4l-9.2,14.6C197.4,185,197,185.2,196.7,185.2z"/>
						</g>
					</g>
				</g>
			</g>
		</g>
	</g>
</g>
</svg>
