<?xml version="1.0" encoding="UTF-8"?>
<svg width="146px" height="104px" viewBox="0 0 146 104" version="1.1" xmlns="http://www.w3.org/2000/svg" xmlns:xlink="http://www.w3.org/1999/xlink">
    <!-- Generator: sketchtool 40.3 (33839) - http://www.bohemiancoding.com/sketch -->
    <title>3472FA1F-2BB7-4248-97CD-341168D61AC6</title>
    <desc>Created with sketchtool.</desc>
    <defs>
        <path d="M87.6166338,11.8552656 C85.1515132,3.72078204 78.5245062,0 67,0 C51.9681282,0 45.2683829,6.3345555 45.2683829,20.5281653 C45.2683829,24.3437932 47.2368422,35.4533594 48.4764043,41.5557354 L48.6509905,42.6333984 C50.0782326,44.0790439 54.0675273,47.9165754 57.6159918,50.3785534 L62.6309804,52.573306 L62.6309804,56.9540498 C62.5960631,56.5992096 62.6309804,65.7155374 62.6309804,65.7155374 C62.6309804,72.7992 57.8080366,74.8450074 51.1824904,74.8450074 C36.3470281,75.4276463 34.0424902,80.3340793 33.5230963,80.903576 C33.0560782,81.6001143 32.5454136,90.4623589 32.0434783,92 L101.956522,92 C101.604955,90.9166512 101.259926,86.196289 100.89988,83.2380952 L134,83.2380952 C133.574992,81.9238721 133.161168,74.3652116 132.706334,73.6818156 C132.531112,73.4715399 130.86836,69.1045642 117.931705,68.5413257 C111.989045,68.5413257 107.865719,66.7840216 107.865719,60.7085558 C107.865719,60.7085558 107.936554,52.6692652 107.865719,53.1987094 L107.865719,49.4437861 L112.190365,47.686482 C114.352687,45.9366878 119.814417,40.7511388 119.814417,40.7511388 L119.963542,40.0151739 C121.096898,34.3377299 122.703727,24.991726 122.703727,21.9765227 C122.703727,9.80681646 116.981028,4.38095238 104.141304,4.38095238 C95.6653097,4.38095238 90.2907913,6.74708638 87.6166338,11.8552656 Z M87.0606538,33.2873087 C86.5523348,36.24115 86.0019436,39.1853375 85.5235957,41.5732584 L85.3490095,42.4318842 C85.3490095,42.4318842 78.95479,48.4816913 76.4232901,50.5231179 L71.3602903,52.573306 L71.3602903,56.9540498 C71.4432188,56.3363649 71.3602903,65.7155374 71.3602903,65.7155374 C71.3602903,69.8181247 72.9775062,72.2329601 75.6889004,73.5393743 C76.3785942,72.5826112 78.9836005,68.9928235 90.6305149,68.5338159 C96.2898356,68.5338159 100.409433,66.7802667 100.409433,60.7085558 C100.409433,60.7085558 100.379608,52.8945606 100.409433,53.1987094 L100.409433,49.4437861 L96.1257973,47.5625696 C93.0948172,45.4523027 89.6872947,42.16299 88.468192,40.9238653 L88.3190663,40.0001542 C87.9436361,38.1454674 87.4899267,35.7511656 87.0606538,33.2873087 Z" id="path-1"></path>
        <mask id="mask-2" maskContentUnits="userSpaceOnUse" maskUnits="objectBoundingBox" x="-6" y="-6" width="113.956522" height="104">
            <rect x="26.0434783" y="-6" width="113.956522" height="104" fill="white"></rect>
            <use xlink:href="#path-1" fill="black"></use>
        </mask>
        <path d="M58.342449,73.5458447 C61.0042561,72.2442209 62.6309804,69.8294849 62.6309804,65.7155374 C62.6309804,65.7155374 62.5960631,56.5992096 62.6309804,56.9540498 L62.6309804,52.573306 L57.6159918,50.3785534 C54.0675273,47.9165754 50.0782326,44.0790439 48.6509905,42.6333984 L48.4764043,41.5557354 C48.0149738,39.2841088 47.4525385,36.3186249 46.9282384,33.2938239 C46.5126377,35.6967747 46.0690266,38.0710567 45.6809337,40.0151739 L45.531808,40.7511388 C45.531808,40.7511388 40.0700788,45.9366878 37.9077559,47.686482 L33.5831103,49.4437861 L33.5831103,53.1987094 C33.653945,52.6692652 33.5831103,60.7085558 33.5831103,60.7085558 C33.5831103,66.7840216 37.7064362,68.5413257 43.6490959,68.5413257 C55.500537,69.0573159 57.8902029,72.7656437 58.342449,73.5458447 Z M46.3840324,11.8548701 C48.8496807,3.72268622 55.4765319,0 67,0 C82.0318718,0 88.7316171,6.33017475 88.7316171,20.5281653 C88.7316171,24.0459026 86.8504509,34.9495738 85.5235957,41.5732584 L85.3490095,42.4318842 C85.3490095,42.4318842 78.95479,48.4816913 76.4232901,50.5231179 L71.3602903,52.573306 L71.3602903,56.9540498 C71.4432188,56.3363649 71.3602903,65.7155374 71.3602903,65.7155374 C71.3602903,72.8035808 76.1875987,74.8537689 83.1448588,74.8537689 C98.2902116,75.5108804 100.236848,80.6056854 100.441986,80.8510071 C100.974474,81.6483025 101.458951,90.4667397 101.956522,92 L32.0434783,92 C32.3979902,90.9139794 32.7568567,86.1741125 33.1016242,83.2380952 L0,83.2380952 C0.428736422,81.9201172 0.864929129,74.3239075 1.26384041,73.7268747 C1.7074894,73.2387347 3.6759488,69.0332206 16.3479062,68.5338159 C22.0072269,68.5338159 26.1268247,66.7802667 26.1268247,60.7085558 C26.1268247,60.7085558 26.0969996,52.8945606 26.1268247,53.1987094 L26.1268247,49.4437861 L21.8431886,47.5625696 C18.8122085,45.4523027 15.404686,42.16299 14.1855833,40.9238653 L14.0364576,40.0001542 C12.9776651,34.7695461 11.2962727,25.2470608 11.2962727,21.9765227 C11.2962727,9.81057138 17.0189719,4.38095238 29.8586957,4.38095238 C38.3353943,4.38095238 43.7101015,6.74584285 46.3840324,11.8548701 Z" id="path-3"></path>
        <mask id="mask-4" maskContentUnits="userSpaceOnUse" maskUnits="objectBoundingBox" x="-6" y="-6" width="113.956522" height="104">
            <rect x="-6" y="-6" width="113.956522" height="104" fill="white"></rect>
            <use xlink:href="#path-3" fill="black"></use>
        </mask>
        <path d="M33.5230963,80.903576 C34.0424902,80.3340793 36.3470281,75.4276463 51.1824904,74.8450074 C57.8080366,74.8450074 62.6309804,72.7992 62.6309804,65.7155374 C62.6309804,65.7155374 62.5960631,56.5992096 62.6309804,56.9540498 L62.6309804,52.573306 L57.6159918,50.3785534 C54.0675273,47.9165754 50.0782326,44.0790439 48.6509905,42.6333984 L48.4764043,41.5557354 C47.2368422,35.4533594 45.2683829,24.3437932 45.2683829,20.5281653 C45.2683829,6.3345555 51.9681282,0 67,0 C82.0318718,0 88.7316171,6.33017475 88.7316171,20.5281653 C88.7316171,24.0459026 86.8504509,34.9495738 85.5235957,41.5732584 L85.3490095,42.4318842 C85.3490095,42.4318842 78.95479,48.4816913 76.4232901,50.5231179 L71.3602903,52.573306 L71.3602903,56.9540498 C71.4432188,56.3363649 71.3602903,65.7155374 71.3602903,65.7155374 C71.3602903,72.8035808 76.1875987,74.8537689 83.1448588,74.8537689 C98.2902116,75.5108804 100.236848,80.6056854 100.441986,80.8510071 C100.974474,81.6483025 101.458951,90.4667397 101.956522,92 L32.0434783,92 C32.5454136,90.4623589 33.0560782,81.6001143 33.5230963,80.903576 Z" id="path-5"></path>
        <mask id="mask-6" maskContentUnits="userSpaceOnUse" maskUnits="objectBoundingBox" x="-6" y="-6" width="81.9130435" height="104">
            <rect x="26.0434783" y="-6" width="81.9130435" height="104" fill="white"></rect>
            <use xlink:href="#path-5" fill="black"></use>
        </mask>
    </defs>
    <g id="Page-1" stroke="none" stroke-width="1" fill="none" fill-rule="evenodd">
        <g id="wallet_add_wallet" transform="translate(-1257.000000, -1029.000000)">
            <g id="dialog" transform="translate(1000.000000, 355.000000)">
                <g id="join" transform="translate(40.000000, 570.000000)">
                    <g id="join-shared-ic" transform="translate(196.000000, 61.000000)">
                        <circle id="Oval" cx="94" cy="94" r="94"></circle>
                        <g id="people" transform="translate(27.000000, 49.000000)" stroke="#8A98AB" stroke-width="12" stroke-linecap="round" stroke-linejoin="round">
                            <use id="Combined-Shape" mask="url(#mask-2)" xlink:href="#path-1"></use>
                            <use id="Combined-Shape" mask="url(#mask-4)" xlink:href="#path-3"></use>
                            <use id="Path" mask="url(#mask-6)" xlink:href="#path-5"></use>
                        </g>
                    </g>
                </g>
            </g>
        </g>
    </g>
</svg>