<?xml version="1.0" encoding="UTF-8"?>
<svg width="146px" height="104px" viewBox="0 0 146 104" version="1.1" xmlns="http://www.w3.org/2000/svg" xmlns:xlink="http://www.w3.org/1999/xlink">
    <!-- Generator: Sketch 41.2 (35397) - http://www.bohemiancoding.com/sketch -->
    <title>join-shared-ic</title>
    <desc>Created with Sketch.</desc>
    <defs>
        <path d="M42.6981525,43.4073795 C41.0267983,44.9576652 39.0260417,46.7815432 37.9077559,47.686482 L33.5831103,49.4437861 L33.5831103,53.1987094 C33.653945,52.6692652 33.5831103,60.7085558 33.5831103,60.7085558 C33.5831103,66.7840216 37.7064362,68.5413257 43.6490959,68.5413257 C45.4835937,68.6211964 47.0913847,68.7775564 48.5003754,68.987706 C42.3246429,69.4480391 37.6124066,70.6929716 34.1120158,72.6113544 C32.4618198,73.5157413 31.1333732,74.5410068 30.066224,75.6650907 C29.6640117,76.0887618 29.3306124,76.4910494 29.0899308,76.8604282 C28.8893293,77.0803805 28.7053754,77.3149572 28.5395931,77.5622146 C28.0618939,78.2746834 27.838629,78.8533734 27.6480807,79.5410664 C27.5645125,79.8426656 27.4978605,80.1455884 27.436558,80.4767076 C27.3507742,80.9400606 27.2724142,81.4794858 27.1912225,82.134669 C27.1461717,82.4982104 27.1069286,82.8331259 27.0626986,83.2380952 L-7.10542736e-15,83.2380952 C0.428736422,81.9201172 0.864929129,74.3239075 1.26384041,73.7268747 C1.7074894,73.2387347 3.6759488,69.0332206 16.3479062,68.5338159 C22.0072269,68.5338159 26.1268247,66.7802667 26.1268247,60.7085558 C26.1268247,60.7085558 26.0969996,52.8945606 26.1268247,53.1987094 L26.1268247,49.4437861 L21.8431886,47.5625696 C18.8122085,45.4523027 15.404686,42.16299 14.1855833,40.9238653 L14.0364576,40.0001542 C12.9776651,34.7695461 11.2962727,25.2470608 11.2962727,21.9765227 C11.2962727,9.81057138 17.0189719,4.38095238 29.8586957,4.38095238 C34.9282311,4.38095238 38.8882765,5.22680341 41.8246543,6.99962878 C40.1264338,10.7196018 39.2683829,15.2317728 39.2683829,20.5281653 C39.2683829,24.3362686 40.8199111,33.9858157 42.5726185,42.6324998 L42.6981525,43.4073795 Z" id="path-1"></path>
        <mask id="mask-2" maskContentUnits="userSpaceOnUse" maskUnits="objectBoundingBox" x="-6" y="-6" width="60.5003754" height="90.8571429">
            <rect x="-6" y="-1.61904762" width="60.5003754" height="90.8571429" fill="white"></rect>
            <use xlink:href="#path-1" fill="black"></use>
        </mask>
        <path d="M106.941033,83.2380952 L134,83.2380952 C133.574992,81.9238721 133.161168,74.3652116 132.706334,73.6818156 C132.531112,73.4715399 130.86836,69.1045642 117.931705,68.5413257 C111.989045,68.5413257 107.865719,66.7840216 107.865719,60.7085558 C107.865719,60.7085558 107.936554,52.6692652 107.865719,53.1987094 L107.865719,49.4437861 L112.190365,47.686482 C114.352687,45.9366878 119.814417,40.7511388 119.814417,40.7511388 L119.963542,40.0151739 C121.096898,34.3377299 122.703727,24.991726 122.703727,21.9765227 C122.703727,9.80681646 116.981028,4.38095238 104.141304,4.38095238 C99.0723891,4.38095238 95.1126925,5.22718168 92.1764234,7.00004069 C93.873971,10.7197465 94.7316171,15.2316988 94.7316171,20.5281653 C94.7316171,24.1520194 93.1747208,33.9258607 91.403282,42.7687875 L91.2393734,43.5749 C92.7017626,44.9050054 94.4699686,46.4097278 96.1257973,47.5625696 L100.409433,49.4437861 L100.409433,53.1987094 C100.379608,52.8945606 100.409433,60.7085558 100.409433,60.7085558 C100.409433,66.7802667 96.2898356,68.5338159 90.6305149,68.5338159 C88.7179353,68.6091911 87.0491803,68.768991 85.5926919,68.9876925 C91.7419427,69.4466485 96.4414759,70.6681236 99.9140101,72.5417856 C101.708431,73.5099946 103.13066,74.6299041 104.216908,75.8588647 C104.652872,76.3521064 105.012504,76.8369829 105.319347,77.3225792 C105.398303,77.4475307 105.460004,77.5497807 105.52517,77.6616584 C106.118015,78.5857351 106.317617,79.2791849 106.53511,80.379801 C106.630538,80.8627147 106.715847,81.4180313 106.802075,82.0838639 C106.849642,82.4511578 106.893688,82.8161792 106.941033,83.2380952 Z" id="path-3"></path>
        <mask id="mask-4" maskContentUnits="userSpaceOnUse" maskUnits="objectBoundingBox" x="-6" y="-6" width="60.4073081" height="90.8571429">
            <rect x="79.5926919" y="-1.61904762" width="60.4073081" height="90.8571429" fill="white"></rect>
            <use xlink:href="#path-3" fill="black"></use>
        </mask>
        <path d="M33.5230963,80.903576 C34.0424902,80.3340793 36.3470281,75.4276463 51.1824904,74.8450074 C57.8080366,74.8450074 62.6309804,72.7992 62.6309804,65.7155374 C62.6309804,65.7155374 62.5960631,56.5992096 62.6309804,56.9540498 L62.6309804,52.573306 L57.6159918,50.3785534 C54.0675273,47.9165754 50.0782326,44.0790439 48.6509905,42.6333984 L48.4764043,41.5557354 C47.2368422,35.4533594 45.2683829,24.3437932 45.2683829,20.5281653 C45.2683829,6.3345555 51.9681282,0 67,0 C82.0318718,0 88.7316171,6.33017475 88.7316171,20.5281653 C88.7316171,24.0459026 86.8504509,34.9495738 85.5235957,41.5732584 L85.3490095,42.4318842 C85.3490095,42.4318842 78.95479,48.4816913 76.4232901,50.5231179 L71.3602903,52.573306 L71.3602903,56.9540498 C71.4432188,56.3363649 71.3602903,65.7155374 71.3602903,65.7155374 C71.3602903,72.8035808 76.1875987,74.8537689 83.1448588,74.8537689 C98.2902116,75.5108804 100.236848,80.6056854 100.441986,80.8510071 C100.974474,81.6483025 101.458951,90.4667397 101.956522,92 L32.0434783,92 C32.5454136,90.4623589 33.0560782,81.6001143 33.5230963,80.903576 Z" id="path-5"></path>
        <mask id="mask-6" maskContentUnits="userSpaceOnUse" maskUnits="objectBoundingBox" x="-6" y="-6" width="81.9130435" height="104">
            <rect x="26.0434783" y="-6" width="81.9130435" height="104" fill="white"></rect>
            <use xlink:href="#path-5" fill="black"></use>
        </mask>
    </defs>
    <g id="Page-1" stroke="none" stroke-width="1" fill="none" fill-rule="evenodd">
        <g id="wallet_add_wallet" transform="translate(-1257.000000, -1029.000000)">
            <g id="dialog" transform="translate(1000.000000, 355.000000)">
                <g id="join" transform="translate(40.000000, 570.000000)">
                    <g id="join-shared-ic" transform="translate(196.000000, 61.000000)">
                        <circle id="Oval" cx="94" cy="94" r="94"></circle>
                        <g id="people" transform="translate(27.000000, 49.000000)" stroke="#8A98AB" stroke-width="12" stroke-linecap="round" stroke-linejoin="round">
                            <use id="Combined-Shape" mask="url(#mask-2)" xlink:href="#path-1"></use>
                            <use id="Combined-Shape" mask="url(#mask-4)" xlink:href="#path-3"></use>
                            <use id="Path" mask="url(#mask-6)" xlink:href="#path-5"></use>
                        </g>
                    </g>
                </g>
            </g>
        </g>
    </g>
</svg>