<svg xmlns="http://www.w3.org/2000/svg" width="147" height="104" viewBox="0 0 147 104">
    <g fill="none" fill-rule="evenodd" transform="translate(-21 -43)">
        <circle cx="94" cy="94" r="94"/>
        <path fill="#8A98AB" fill-rule="nonzero" d="M81.491 117.62c1.755-.35 2.14-1.168 2.14-2.881l-.002-.676a3017.733 3017.733 0 0 1-.01-3.721 862.337 862.337 0 0 1-.003-3.134c.001-.45.003-.794.005-1.031.002-.158.004-.277.008-.385.017-.245-.456-.551-1.419-.917a6 6 0 0 1-1.014-.567c-2.635-1.828-5.62-4.398-8.152-6.823-1.876 1.73-3.372 3.064-4.362 3.866a6 6 0 0 1-1.516.894c-.37.44-.554.755-.553.944.003.679.001 1.627-.004 2.781a912.192 912.192 0 0 1-.026 3.739c0 .652.077 1.043.166 1.232.49.324 1.792.6 3.9.6a6 6 0 0 1 .261.006c1.975.086 3.797.256 5.475.506 3.29.491 4.968 2.985 5.106 5.567zm-28.048 20.618H27c-4.077 0-6.967-3.979-5.706-7.856-.058.18-.076.253-.082.289.015-.083.037-.217.062-.393.094-.668.185-1.51.364-3.31.184-1.856.25-2.49.349-3.289.07-.577.14-1.054.217-1.47.056-.306.118-.588.197-.874.185-.67.403-1.236.874-1.941a6 6 0 0 1 .549-.703c.17-.277.477-.647.845-1.037.974-1.029 2.18-1.963 3.67-2.782 3.504-1.927 8.327-3.08 14.773-3.334a6 6 0 0 1 .236-.004c1.948 0 3.155-.265 3.607-.576.094-.198.172-.595.172-1.227l-.002-.58a2596.666 2596.666 0 0 1-.01-3.19c-.001-1.11-.002-2.027 0-2.689 0-.258-.228-.664-.684-1.216a6 6 0 0 1-1.016-.57c-2.821-1.963-6.076-4.884-8.506-7.354a6 6 0 0 1-1.647-3.252l-.13-.807c-1.508-7.469-2.836-15.756-2.836-19.096 0-15.556 8.48-23.596 24.563-23.596 6.11 0 11.095 1.084 15.067 3.482l.133.083C76.677 45.665 84.026 43 94 43c9.976 0 17.325 2.664 21.942 7.946l.133-.082c3.972-2.398 8.957-3.483 15.066-3.483 16.084 0 24.563 8.038 24.563 23.596 0 3.184-1.334 11.586-2.86 19.23l-.15.736a6 6 0 0 1-1.748 3.16 210.754 210.754 0 0 1-1.27 1.196c-.952.894-1.914 1.788-2.827 2.626l-.23.21c-1.562 1.43-2.794 2.52-3.654 3.216a6 6 0 0 1-1.516.894c-.37.44-.554.755-.553.944.003.679 0 1.627-.005 2.781a911.923 911.923 0 0 1-.025 3.739c0 .652.077 1.043.166 1.232.49.324 1.792.6 3.9.6a6 6 0 0 1 .26.006c6.307.275 11.049 1.401 14.487 3.262 1.622.879 2.918 1.903 3.914 3.034a10.593 10.593 0 0 1 1.205 1.663c.577.904.766 1.562.972 2.61.086.435.161.928.237 1.515.107.826.192 1.632.359 3.308.17 1.72.233 2.32.316 2.98.037.301.07.537.098.697 1.182 3.651-1.707 7.622-5.78 7.622h-26.43l.021.178c.046.364.087.653.121.855 1.104 3.896-1.754 7.729-5.755 7.729H59.043c-4.08 0-6.97-3.984-5.703-7.862l.103-.9zm61.252-40.78a390.918 390.918 0 0 1-3.006 2.78l-.268.244c-1.814 1.654-3.245 2.917-4.231 3.712a6 6 0 0 1-1.515.89l-1.315.87c.03.317.034.68.036 1.16.003.788 0 1.891-.006 3.235a1058.966 1058.966 0 0 1-.03 4.367c0 1.75.405 2.575 2.24 2.92.132-2.586 1.809-5.087 5.102-5.582a52.28 52.28 0 0 1 5.692-.516 6 6 0 0 1 .237-.004c1.947 0 3.155-.265 3.606-.576.094-.198.172-.595.172-1.227l-.002-.58a2594.785 2594.785 0 0 1-.009-3.19c-.002-1.11-.002-2.027-.001-2.689 0-.258-.228-.664-.684-1.216a6 6 0 0 1-1.016-.57c-1.577-1.098-3.267-2.475-5.002-4.027zm19.246 34.78H161c-.425-1.314-.839-8.873-1.294-9.556-.175-.21-1.838-4.577-14.774-5.14-5.943 0-10.066-1.758-10.066-7.833 0 0 .07-8.04 0-7.51v-3.755l4.324-1.758c2.163-1.75 7.624-6.935 7.624-6.935l.15-.736c1.133-5.677 2.74-15.023 2.74-18.038 0-12.17-5.723-17.596-18.563-17.596-5.069 0-9.028.846-11.965 2.619 1.698 3.72 2.556 8.232 2.556 13.528 0 3.624-1.557 13.398-3.329 22.24l-.164.807c1.463 1.33 3.231 2.835 4.887 3.988l4.283 1.88v3.756c-.03-.304 0 7.51 0 7.51 0 6.071-4.12 7.825-9.778 7.825a46.269 46.269 0 0 0-5.038.454c6.149.459 10.848 1.68 14.321 3.554 1.794.968 3.217 2.088 4.303 3.317a11.364 11.364 0 0 1 1.308 1.803c.593.924.793 1.617 1.01 2.718.096.483.18 1.038.267 1.704.048.367.092.732.139 1.154zM64.908 96.686c1.118-.904 3.119-2.728 4.79-4.279l-.125-.775c-1.753-8.646-3.305-18.296-3.305-22.104 0-5.296.858-9.808 2.557-13.528-2.937-1.773-6.897-2.619-11.966-2.619-12.84 0-18.563 5.43-18.563 17.596 0 3.27 1.682 12.793 2.74 18.023l.15.924c1.219 1.239 4.626 4.528 7.657 6.639l4.284 1.88v3.756c-.03-.304 0 7.51 0 7.51 0 6.071-4.12 7.825-9.78 7.825-12.671.5-14.64 4.705-15.083 5.193-.4.597-.835 8.193-1.264 9.511h27.063c.044-.405.083-.74.128-1.103.081-.656.16-1.195.246-1.658.06-.331.128-.634.211-.936.19-.688.414-1.266.892-1.979a6 6 0 0 1 .55-.702c.24-.369.574-.771.976-1.195 1.067-1.124 2.396-2.15 4.046-3.054 3.5-1.918 8.213-3.163 14.388-3.623a46.734 46.734 0 0 0-4.85-.447c-5.944 0-10.067-1.757-10.067-7.832 0 0 .07-8.04 0-7.51v-3.755l4.325-1.758zm-4.385 33.218c-.467.696-.978 9.558-1.48 11.096h69.914c-.498-1.533-.983-10.352-1.515-11.149-.205-.245-2.152-5.34-17.297-5.997-6.957 0-11.785-2.05-11.785-9.138 0 0 .083-9.38 0-8.762v-4.38l5.063-2.05c2.532-2.042 8.926-8.092 8.926-8.092s3.383-18.386 3.383-21.904C115.732 55.33 109.032 49 94 49s-21.732 6.335-21.732 20.528c0 3.816 3.383 22.105 3.383 22.105 1.427 1.446 5.417 5.284 8.965 7.746l5.015 2.194v4.381c-.035-.355 0 8.762 0 8.762 0 7.083-4.823 9.129-11.449 9.129-14.835.583-17.14 5.49-17.659 6.059z"/>
    </g>
</svg>
