<?xml version="1.0" encoding="UTF-8"?>
<svg width="369px" height="354px" viewBox="0 0 369 354" version="1.1" xmlns="http://www.w3.org/2000/svg" xmlns:xlink="http://www.w3.org/1999/xlink">
    <!-- Generator: sketchtool 41.2 (35397) - http://www.bohemiancoding.com/sketch -->
    <title>DF08D37A-D34B-4DA4-AF3F-B2679E3E88FF</title>
    <desc>Created with sketchtool.</desc>
    <defs>
        <path d="M97,134.012873 L97,210.450012 L37,210.450012 L37,88.7996305 L97,134.012873 Z" id="path-1"></path>
        <filter x="-50%" y="-50%" width="200%" height="200%" filterUnits="objectBoundingBox" id="filter-2">
            <feOffset dx="0" dy="4" in="SourceAlpha" result="shadowOffsetOuter1"></feOffset>
            <feGaussianBlur stdDeviation="8" in="shadowOffsetOuter1" result="shadowBlurOuter1"></feGaussianBlur>
            <feColorMatrix values="0 0 0 0 0   0 0 0 0 0   0 0 0 0 0  0 0 0 0.24 0" type="matrix" in="shadowBlurOuter1"></feColorMatrix>
        </filter>
        <path d="M36.9924895,210.43026 L175.7798,105.84652 L175.7798,180.97466 L86.8416937,247.99433 L36.9924895,210.43026 Z" id="path-3"></path>
        <filter x="-50%" y="-50%" width="200%" height="200%" filterUnits="objectBoundingBox" id="filter-4">
            <feOffset dx="0" dy="4" in="SourceAlpha" result="shadowOffsetOuter1"></feOffset>
            <feGaussianBlur stdDeviation="8" in="shadowOffsetOuter1" result="shadowBlurOuter1"></feGaussianBlur>
            <feColorMatrix values="0 0 0 0 0   0 0 0 0 0   0 0 0 0 0  0 0 0 0.24 0" type="matrix" in="shadowBlurOuter1"></feColorMatrix>
        </filter>
        <polygon id="path-5" points="215.988708 60.8034735 41.2193586 60.8034735 -3.99388441 120.803474 170.775465 120.803474"></polygon>
        <filter x="-50%" y="-50%" width="200%" height="200%" filterUnits="objectBoundingBox" id="filter-6">
            <feOffset dx="0" dy="4" in="SourceAlpha" result="shadowOffsetOuter1"></feOffset>
            <feGaussianBlur stdDeviation="8" in="shadowOffsetOuter1" result="shadowBlurOuter1"></feGaussianBlur>
            <feColorMatrix values="0 0 0 0 0   0 0 0 0 0   0 0 0 0 0  0 0 0 0.24 0" type="matrix" in="shadowBlurOuter1"></feColorMatrix>
        </filter>
    </defs>
    <g id="Page-1" stroke="none" stroke-width="1" fill="none" fill-rule="evenodd">
        <g id="login_screen" transform="translate(-295.000000, -90.000000)">
            <g id="logo" transform="translate(295.000000, 100.000000)">
                <g id="D" transform="translate(77.000000, 0.000000)">
                    <g id="Combined-Shape">
                        <use fill="black" fill-opacity="1" filter="url(#filter-2)" xlink:href="#path-1"></use>
                        <use fill="#007EAC" fill-rule="evenodd" xlink:href="#path-1"></use>
                    </g>
                    <g id="Combined-Shape">
                        <use fill="black" fill-opacity="1" filter="url(#filter-4)" xlink:href="#path-3"></use>
                        <use fill="#009CD6" fill-rule="evenodd" xlink:href="#path-3"></use>
                    </g>
                    <g id="shape" transform="translate(105.997412, 90.803474) scale(-1, 1) rotate(-37.000000) translate(-105.997412, -90.803474) ">
                        <use fill="black" fill-opacity="1" filter="url(#filter-6)" xlink:href="#path-5"></use>
                        <use fill="#00AEEF" fill-rule="evenodd" xlink:href="#path-5"></use>
                    </g>
                </g>
                <path d="M0.738,343 L0.738,301.82 L15.354,301.82 C18.67935,301.82 21.5889875,302.361328 24.083,303.444 C26.5770125,304.526672 28.6649916,305.995991 30.347,307.852 C32.0290084,309.708009 33.2953291,311.882988 34.146,314.377 C34.9966709,316.871012 35.422,319.529319 35.422,322.352 C35.422,325.484016 34.9483381,328.316321 34.001,330.849 C33.0536619,333.381679 31.7100087,335.546991 29.97,337.345 C28.2299913,339.143009 26.122679,340.534995 23.648,341.521 C21.173321,342.507005 18.4086819,343 15.354,343 L0.738,343 Z M28.81,322.352 C28.81,320.186656 28.5103363,318.195342 27.911,316.378 C27.3116637,314.560658 26.4320058,313.00434 25.272,311.709 C24.1119942,310.41366 22.700675,309.39867 21.038,308.664 C19.375325,307.92933 17.4806773,307.562 15.354,307.562 L7.234,307.562 L7.234,337.258 L15.354,337.258 C17.5193442,337.258 19.4429916,336.881004 21.125,336.127 C22.8070084,335.372996 24.2183276,334.329007 25.359,332.995 C26.4996724,331.660993 27.3599971,330.085342 27.94,328.268 C28.5200029,326.450658 28.81,324.478677 28.81,322.352 Z M62.938,301.82 L68.622,301.82 L84.862,343 L78.018,343 L73.668,331.806 L57.776,331.806 L53.484,343 L46.582,343 L62.938,301.82 Z M72.392,326.992 L65.78,309.302 L58.936,326.992 L72.392,326.992 Z M128.212,337.258 L128.212,343 L99.966,343 L99.966,301.82 L127.69,301.82 L127.69,307.562 L106.462,307.562 L106.462,319.278 L124.848,319.278 L124.848,324.672 L106.462,324.672 L106.462,337.258 L128.212,337.258 Z M144.94,343 L144.94,301.82 L159.556,301.82 C162.88135,301.82 165.790988,302.361328 168.285,303.444 C170.779012,304.526672 172.866992,305.995991 174.549,307.852 C176.231008,309.708009 177.497329,311.882988 178.348,314.377 C179.198671,316.871012 179.624,319.529319 179.624,322.352 C179.624,325.484016 179.150338,328.316321 178.203,330.849 C177.255662,333.381679 175.912009,335.546991 174.172,337.345 C172.431991,339.143009 170.324679,340.534995 167.85,341.521 C165.375321,342.507005 162.610682,343 159.556,343 L144.94,343 Z M173.012,322.352 C173.012,320.186656 172.712336,318.195342 172.113,316.378 C171.513664,314.560658 170.634006,313.00434 169.474,311.709 C168.313994,310.41366 166.902675,309.39867 165.24,308.664 C163.577325,307.92933 161.682677,307.562 159.556,307.562 L151.436,307.562 L151.436,337.258 L159.556,337.258 C161.721344,337.258 163.644992,336.881004 165.327,336.127 C167.009008,335.372996 168.420328,334.329007 169.561,332.995 C170.701672,331.660993 171.561997,330.085342 172.142,328.268 C172.722003,326.450658 173.012,324.478677 173.012,322.352 Z M207.14,301.82 L212.824,301.82 L229.064,343 L222.22,343 L217.87,331.806 L201.978,331.806 L197.686,343 L190.784,343 L207.14,301.82 Z M216.594,326.992 L209.982,309.302 L203.138,326.992 L216.594,326.992 Z M244.168,343 L244.168,301.82 L250.664,301.82 L250.664,337.258 L272.762,337.258 L272.762,343 L244.168,343 Z M302.656,337.432 C304.821344,337.432 306.619326,337.006671 308.05,336.156 C309.480674,335.305329 310.630996,334.193674 311.501,332.821 C312.371004,331.448326 312.989665,329.882342 313.357,328.123 C313.724335,326.363658 313.908,324.556009 313.908,322.7 L313.908,301.82 L320.462,301.82 L320.462,322.7 C320.462,325.522681 320.133337,328.180988 319.476,330.675 C318.818663,333.169012 317.774674,335.353657 316.344,337.229 C314.913326,339.104343 313.067011,340.583328 310.805,341.666 C308.542989,342.748672 305.826683,343.29 302.656,343.29 C299.369317,343.29 296.595011,342.719672 294.333,341.579 C292.070989,340.438328 290.244007,338.91101 288.852,336.997 C287.459993,335.08299 286.45467,332.888679 285.836,330.414 C285.21733,327.939321 284.908,325.368013 284.908,322.7 L284.908,301.82 L291.404,301.82 L291.404,322.7 C291.404,324.594676 291.587665,326.421658 291.955,328.181 C292.322335,329.940342 292.940996,331.506326 293.811,332.879 C294.681004,334.251674 295.840993,335.353663 297.291,336.185 C298.741007,337.016337 300.529323,337.432 302.656,337.432 Z M363.464,311.506 C363.077331,311.080665 362.51667,310.626336 361.782,310.143 C361.04733,309.659664 360.187005,309.205335 359.201,308.78 C358.214995,308.354665 357.132339,308.006668 355.953,307.736 C354.773661,307.465332 353.56534,307.33 352.328,307.33 C349.582653,307.33 347.56234,307.832662 346.267,308.838 C344.97166,309.843338 344.324,311.235324 344.324,313.014 C344.324,314.019338 344.526998,314.840997 344.933,315.479 C345.339002,316.117003 345.967329,316.677664 346.818,317.161 C347.668671,317.644336 348.731994,318.069665 350.008,318.437 C351.284006,318.804335 352.772658,319.200665 354.474,319.626 C356.56201,320.128669 358.446992,320.68933 360.129,321.308 C361.811008,321.92667 363.231994,322.680662 364.392,323.57 C365.552006,324.459338 366.450997,325.55166 367.089,326.847 C367.727003,328.14234 368.046,329.717991 368.046,331.574 C368.046,333.66201 367.649671,335.459992 366.857,336.968 C366.064329,338.476008 364.981674,339.703662 363.609,340.651 C362.236326,341.598338 360.641342,342.294331 358.824,342.739 C357.006658,343.183669 355.05401,343.406 352.966,343.406 C349.833984,343.406 346.808348,342.932338 343.889,341.985 C340.969652,341.037662 338.330678,339.655342 335.972,337.838 L338.93,332.27 C339.432669,332.772669 340.157662,333.33333 341.105,333.952 C342.052338,334.57067 343.154327,335.140997 344.411,335.663 C345.667673,336.185003 347.030659,336.629665 348.5,336.997 C349.969341,337.364335 351.496659,337.548 353.082,337.548 C355.634013,337.548 357.605993,337.103338 358.998,336.214 C360.390007,335.324662 361.086,334.010009 361.086,332.27 C361.086,331.225995 360.825003,330.356003 360.303,329.66 C359.780997,328.963997 359.036672,328.355003 358.07,327.833 C357.103328,327.310997 355.924007,326.837335 354.532,326.412 C353.139993,325.986665 351.554676,325.542002 349.776,325.078 C347.726656,324.536664 345.938341,323.966336 344.411,323.367 C342.883659,322.767664 341.617338,322.042671 340.612,321.192 C339.606662,320.341329 338.843003,319.345672 338.321,318.205 C337.798997,317.064328 337.538,315.682008 337.538,314.058 C337.538,312.047323 337.924663,310.259008 338.698,308.693 C339.471337,307.126992 340.524993,305.812339 341.859,304.749 C343.193007,303.685661 344.768658,302.883336 346.586,302.342 C348.403342,301.800664 350.375323,301.53 352.502,301.53 C355.286014,301.53 357.857322,301.974662 360.216,302.864 C362.574678,303.753338 364.643324,304.855327 366.422,306.17 L363.464,311.506 Z" id="Daedalus" fill="#2F496E"></path>
            </g>
        </g>
    </g>
</svg>