<svg width="16" height="16" viewBox="0 0 16 16" xmlns="http://www.w3.org/2000/svg">
    <path d="M4 0a1 1 0 0 1 .117 1.993L4 2H3a1 1 0 0 0-.993.883L2 3v10a1 1 0 0 0 .883.993L3 14h10a1 1 0 0 0 .993-.883L14 13v-1a1 1 0 0 1 1.993-.117L16 12v1a3 3 0 0 1-2.824 2.995L13 16H3a3 3 0 0 1-2.995-2.824L0 13V3A3 3 0 0 1 2.824.005L3 0h1zm11 0h.02c.023 0 .046.002.07.004L15 0a1.008 1.008 0 0 1 .617.213c.063.05.12.106.17.17l-.08-.09a1.008 1.008 0 0 1 .286.59l.003.03.003.055L16 1v6a1 1 0 0 1-1.993.117L14 7V3.414L8.707 8.707a1 1 0 0 1-1.497-1.32l.083-.094L12.584 2H9a1 1 0 0 1-.993-.883L8 1a1 1 0 0 1 .883-.993L9 0h6z" fill="#5E6066" fill-rule="nonzero"/>
</svg>
