<svg xmlns="http://www.w3.org/2000/svg" width="30" height="30" viewBox="0 0 30 30">
    <g fill="none" fill-rule="evenodd" opacity=".65">
        <g fill="#5E6066">
            <g>
                <g>
                    <g>
                        <g>
                            <path d="M21.506 31.714c3.298-4.627 2.871-11.093-1.28-15.244-4.627-4.627-12.129-4.627-16.756 0-4.627 4.627-4.627 12.129 0 16.756 4.151 4.151 10.617 4.578 15.244 1.28L27.207 43 30 40.207l-8.494-8.493zm-4.073-1.28c3.085-3.085 3.085-8.087 0-11.171-3.084-3.085-8.086-3.085-11.17 0-3.085 3.084-3.085 8.086 0 11.17 3.084 3.085 8.086 3.085 11.17 0z" transform="translate(-80 -787) translate(40 564) translate(0 184) translate(2 2) translate(38 24)"/>
                        </g>
                    </g>
                </g>
            </g>
        </g>
    </g>
</svg>
