<svg xmlns="http://www.w3.org/2000/svg" width="28" height="28" viewBox="0 0 28 28">
    <g fill="none" fill-rule="evenodd">
        <g fill="#FAFBFC" fill-rule="nonzero">
            <g>
                <g>
                    <g>
                        <path d="M11.627 5.27c1.029-1.03 2.653-1.1 3.763-.21L19.622.827C20.679-.23 22.367-.274 23.477.696l.142.132 3.553 3.553c1.058 1.058 1.102 2.746.132 3.856l-.132.141-4.231 4.232c.853 1.066.822 2.606-.092 3.638l-.118.125-9.328 9.327c-3.066 3.067-8.037 3.067-11.103 0-3.008-3.007-3.065-7.847-.174-10.924l.174-.18 9.327-9.327zm1.332 1.332l-9.327 9.327c-2.33 2.33-2.33 6.109 0 8.439 2.277 2.277 5.938 2.329 8.278.155l.161-.155 9.327-9.327c.342-.342.366-.88.073-1.25l-.073-.083-7.106-7.106c-.368-.368-.965-.368-1.333 0zm7.995-4.442l-4.22 4.22 4.886 4.885 4.22-4.219c.337-.337.365-.867.084-1.236l-.084-.096-3.554-3.554c-.337-.337-.866-.365-1.236-.084l-.096.084zM5.631 17.928c1.226-1.227 3.215-1.227 4.441 0 1.227 1.226 1.227 3.215 0 4.441-1.226 1.227-3.215 1.227-4.441 0-1.227-1.226-1.227-3.215 0-4.441zM22.953 5.936c.245-.246.643-.246.888 0 .245.245.245.643 0 .888L22.064 8.6c-.245.245-.643.245-.888 0-.245-.246-.245-.643 0-.889l1.777-1.776zM6.963 19.26c-.49.49-.49 1.286 0 1.777.49.49 1.286.49 1.777 0 .49-.49.49-1.286 0-1.777-.49-.49-1.286-.49-1.777 0zM21.176 4.16c.245-.245.643-.245.888 0 .246.245.246.643 0 .888l-1.776 1.777c-.246.245-.643.245-.889 0-.245-.245-.245-.643 0-.888l1.777-1.777z" transform="translate(-473 -555) translate(168 31) translate(40 514) translate(265 10)"/>
                    </g>
                </g>
            </g>
        </g>
    </g>
</svg>
