<svg xmlns="http://www.w3.org/2000/svg" width="188" height="188" viewBox="0 0 188 188">
    <g fill="none" fill-rule="evenodd">
        <g>
            <g>
                <g>
                    <g transform="translate(-1644 -305) translate(208 264) translate(1240) translate(196 41)">
                        <circle cx="94" cy="94" r="94"/>
                        <path fill="#8A98AB" d="M109 69c4.633 0 8.448 3.5 8.945 8H137c4.97 0 9 4.03 9 9v16c0 4.97-4.03 9-9 9h-19.055c-.488 4.414-4.168 7.866-8.68 7.996L109 119H67c-13.807 0-25-11.193-25-25 0-13.669 10.97-24.776 24.587-24.997L67 69h42zm0 6H67c-10.493 0-19 8.507-19 19 0 10.38 8.325 18.817 18.662 18.997L67 113h42c1.598 0 2.904-1.249 2.995-2.824L112 110V78c0-1.657-1.343-3-3-3zm28 8h-19v22h19c1.657 0 3-1.343 3-3V86c0-1.657-1.343-3-3-3zm-70 1c5.523 0 10 4.477 10 10s-4.477 10-10 10-10-4.477-10-10 4.477-10 10-10zm66 12c1.105 0 2 .895 2 2s-.895 2-2 2h-8c-1.105 0-2-.895-2-2s.895-2 2-2h8zm-66-6c-2.21 0-4 1.79-4 4s1.79 4 4 4 4-1.79 4-4-1.79-4-4-4zm66-2c1.105 0 2 .895 2 2s-.895 2-2 2h-8c-1.105 0-2-.895-2-2s.895-2 2-2h8z" transform="rotate(-45 94 94)"/>
                    </g>
                </g>
            </g>
        </g>
    </g>
</svg>
