<svg xmlns="http://www.w3.org/2000/svg" width="48" height="48" viewBox="0 0 48 48">
    <g fill="none" fill-rule="evenodd">
        <path d="M0 0H64V64H0z" transform="translate(-8 -8)"/>
        <path fill="#5E6066" fill-rule="nonzero" d="M50 8c3.314 0 6 2.686 6 6v36c0 3.314-2.686 6-6 6H14c-3.314 0-6-2.686-6-6V14c0-3.314 2.686-6 6-6h36zm0 3H14c-1.598 0-2.904 1.249-2.995 2.824L11 14v36c0 1.598 1.249 2.904 2.824 2.995L14 53h36c1.598 0 2.904-1.249 2.995-2.824L53 50V14c0-1.598-1.249-2.904-2.824-2.995L50 11zm-5.862 7.506L44 18.5c.073 0 .145.005.216.015l.11.02c.081.019.16.043.234.073l.051.022c.025.01.05.022.073.035.023.011.045.023.066.036l.06.036.05.034c.025.017.048.035.071.053.014.01.027.022.04.033.024.02.047.041.07.063l.02.02.02.02.062.068-.082-.089c.041.042.08.085.115.13l.053.07.035.052.035.059c.013.021.025.043.036.065.085.165.14.348.158.54L45.5 20v12c0 .828-.672 1.5-1.5 1.5-.78 0-1.42-.595-1.493-1.356L42.5 32v-8.38L21.06 45.06c-.585.586-1.535.586-2.12 0-.55-.549-.584-1.418-.104-2.007l.103-.114L40.378 21.5H32c-.78 0-1.42-.595-1.493-1.356L30.5 20c0-.78.595-1.42 1.356-1.493L32 18.5h11.979c.053 0 .106.001.159.006z" transform="translate(-8 -8)"/>
    </g>
</svg>
