<svg xmlns="http://www.w3.org/2000/svg" width="500" height="150" viewBox="0 0 500 150">
    <g fill="#5E6066">
        <path d="M326 36H134c-3.314 0-6 2.686-6 6v66c0 3.314 2.686 6 6 6h192c3.314 0 6-2.686 6-6V42c0-3.314-2.686-6-6-6zm-192 4h192c1.105 0 2 .895 2 2v66c0 1.105-.895 2-2 2H134c-1.105 0-2-.895-2-2V42c0-1.105.895-2 2-2zM420 36c-21.54 0-39 17.46-39 39s17.46 39 39 39 39-17.46 39-39-17.46-39-39-39zm0 4c19.33 0 35 15.67 35 35s-15.67 35-35 35-35-15.67-35-35 15.67-35 35-35zM75 36c-21.54 0-39 17.46-39 39s17.46 39 39 39 39-17.46 39-39-17.46-39-39-39zm0 4c19.33 0 35 15.67 35 35s-15.67 35-35 35-35-15.67-35-35 15.67-35 35-35z"/>
        <path d="M452 0v8H20C13.475 8 8.166 13.209 8.004 19.695L8 20v110c0 6.525 5.209 11.834 11.695 11.996L20 142h432v8H20c-10.93 0-19.813-8.769-20-19.656V20C0 9.07 8.769.187 19.656.003L20 0h432z"/>
        <path d="M496 0c2.21 0 4 1.79 4 4 0 2.142-1.684 3.891-3.8 3.995L496 8h-76c-37.003 0-67 29.997-67 67 0 36.633 29.4 66.4 65.892 66.991L420 142h76c2.21 0 4 1.79 4 4 0 2.142-1.684 3.891-3.8 3.995l-.2.005h-76c-41.421 0-75-33.579-75-75C345 33.993 377.91.672 418.76.01L420 0h76z"/>
    </g>
</svg>
