<?xml version="1.0" encoding="UTF-8"?>
<svg width="500px" height="156px" viewBox="0 0 500 156" version="1.1" xmlns="http://www.w3.org/2000/svg" xmlns:xlink="http://www.w3.org/1999/xlink">
    <g id="Page-1" stroke="none" stroke-width="1" fill="none" fill-rule="evenodd">
        <g id="hardware-wallet-connect" transform="translate(-838.000000, -769.000000)" fill="#5E6066" fill-rule="nonzero">
            <g id="info-1" transform="translate(168.000000, 168.000000)">
                <g id="ledger-cropped" transform="translate(670.000000, 601.000000)">
                    <path d="M113,0 C114.104569,-2.02906125e-16 115,0.8954305 115,2 L115,6 L261,6 L261,2 C261,0.8954305 261.895431,2.02906125e-16 263,0 L312,0 C313.104569,-2.02906125e-16 314,0.8954305 314,2 L314,6 L496,6 C498.209139,6 500,7.790861 500,10 C500,12.1421954 498.316032,13.8910789 496.19964,13.9951047 L496,14 L420,14 C382.996922,14 353,43.9969218 353,81 C353,117.633047 382.399983,147.399361 418.892032,147.991024 L420,148 L496,148 C498.209139,148 500,149.790861 500,152 C500,154.142195 498.316032,155.891079 496.19964,155.995105 L496,156 L20,156 C9.06936433,156 0.186774951,147.231271 0,136.344489 L0,26 C0,15.0693643 8.76872859,6.18677495 19.6555106,6.00290706 L20,6 L62,6 L62,2 C62,0.8954305 62.8954305,2.02906125e-16 64,0 L113,0 Z M386.261695,13.9987834 L20,14 C13.4745433,14 8.16560725,19.2085444 8.00379986,25.6950252 L8,26 L8,136 C8,142.525457 13.2085444,147.834393 19.6950252,147.9962 L20,148 L386.263664,148.00221 C361.78691,135.653643 345,110.287218 345,81 C345,51.7135675 361.78601,26.3477175 386.261695,13.9987834 Z M294,42 C297.313708,42 300,44.6862915 300,48 L300,48 L300,114 C300,117.313708 297.313708,120 294,120 L294,120 L82,120 C78.6862915,120 76,117.313708 76,114 L76,114 L76,48 C76,44.6862915 78.6862915,42 82,42 L82,42 Z M420,42 C441.539105,42 459,59.4608948 459,81 C459,102.539105 441.539105,120 420,120 C398.460895,120 381,102.539105 381,81 C381,59.4608948 398.460895,42 420,42 Z M294,46 L82,46 C80.8954305,46 80,46.8954305 80,48 L80,48 L80,114 C80,115.104569 80.8954305,116 82,116 L82,116 L294,116 C295.104569,116 296,115.104569 296,114 L296,114 L296,48 C296,46.8954305 295.104569,46 294,46 L294,46 Z M420,46 C400.670034,46 385,61.6700338 385,81 C385,100.329966 400.670034,116 420,116 C439.329966,116 455,100.329966 455,81 C455,61.6700338 439.329966,46 420,46 Z" id="Combined-Shape"></path>
                </g>
            </g>
        </g>
    </g>
</svg>
