<?xml version="1.0" encoding="UTF-8"?>
<svg width="500px" height="150px" viewBox="0 0 500 150" version="1.1" xmlns="http://www.w3.org/2000/svg" xmlns:xlink="http://www.w3.org/1999/xlink">
    <g id="Page-1" stroke="none" stroke-width="1" fill="none" fill-rule="evenodd">
        <g id="hardware-wallet-connect" transform="translate(-838.000000, -579.000000)" fill="#5E6066" fill-rule="nonzero">
            <g id="info-1" transform="translate(168.000000, 168.000000)">
                <g id="ledger-x-cropped" transform="translate(670.000000, 411.000000)">
                    <path d="M496,142 C498.209139,142 500,143.790861 500,146 C500,148.142195 498.316032,149.891079 496.19964,149.995105 L496,150 L20,150 C9.06936433,150 0.186774951,141.231271 0,130.344489 L0,20 C0,9.06936433 8.76872859,0.186774951 19.6555106,0.00290705581 L20,0 L496,0 C498.209139,0 500,1.790861 500,4 C500,6.14219539 498.316032,7.89107888 496.19964,7.99510469 L496,8 L420,8 C382.996922,8 353,37.9969218 353,75 C353,111.633047 382.399983,141.399361 418.892032,141.991024 L420,142 L496,142 Z M386.261695,7.99878342 L20,8 C13.4745433,8 8.16560725,13.2085444 8.00379986,19.6950252 L8,20 L8,130 C8,136.525457 13.2085444,141.834393 19.6950252,141.9962 L20,142 L386.263664,142.00221 C361.78691,129.653643 345,104.287218 345,75 C345,45.7135675 361.78601,20.3477175 386.261695,7.99878342 Z M326,36 C329.313708,36 332,38.6862915 332,42 L332,42 L332,108 C332,111.313708 329.313708,114 326,114 L326,114 L134,114 C130.686292,114 128,111.313708 128,108 L128,108 L128,42 C128,38.6862915 130.686292,36 134,36 L134,36 Z M420,36 C441.539105,36 459,53.4608948 459,75 C459,96.5391052 441.539105,114 420,114 C398.460895,114 381,96.5391052 381,75 C381,53.4608948 398.460895,36 420,36 Z M75,36 C96.5391052,36 114,53.4608948 114,75 C114,96.5391052 96.5391052,114 75,114 C53.4608948,114 36,96.5391052 36,75 C36,53.4608948 53.4608948,36 75,36 Z M326,40 L134,40 C132.895431,40 132,40.8954305 132,42 L132,42 L132,108 C132,109.104569 132.895431,110 134,110 L134,110 L326,110 C327.104569,110 328,109.104569 328,108 L328,108 L328,42 C328,40.8954305 327.104569,40 326,40 L326,40 Z M420,40 C400.670034,40 385,55.6700338 385,75 C385,94.3299662 400.670034,110 420,110 C439.329966,110 455,94.3299662 455,75 C455,55.6700338 439.329966,40 420,40 Z M75,40 C55.6700338,40 40,55.6700338 40,75 C40,94.3299662 55.6700338,110 75,110 C94.3299662,110 110,94.3299662 110,75 C110,55.6700338 94.3299662,40 75,40 Z" id="Combined-Shape"></path>
                </g>
            </g>
        </g>
    </g>
</svg>
