<svg xmlns="http://www.w3.org/2000/svg" width="64" height="64" viewBox="0 0 64 64">
    <g fill="none" fill-rule="evenodd">
        <path d="M0 0H64V64H0z"/>
        <path fill="#5E6066" fill-rule="nonzero" d="M28.672 18.15c1.246-1.246 3.2-1.356 4.57-.328l7.45-7.45c1.367-1.366 3.583-1.366 4.95 0l8.485 8.486c1.367 1.367 1.367 3.583 0 4.95l-7.449 7.45c1.027 1.37.918 3.324-.329 4.57L30.793 51.385c-4.882 4.881-12.796 4.881-17.678 0-4.881-4.882-4.881-12.796 0-17.678zm2.12 2.122L15.238 35.828c-3.71 3.71-3.71 9.725 0 13.435 3.71 3.71 9.725 3.71 13.435 0l15.556-15.556c.195-.195.195-.512 0-.707L31.5 20.272c-.195-.195-.512-.195-.707 0zm12.022-7.778l-7.425 7.425 9.192 9.192 7.425-7.425c.195-.195.195-.512 0-.707l-8.485-8.485c-.195-.195-.512-.195-.707 0zM18.065 38.657c2.148-2.148 5.63-2.148 7.778 0 2.148 2.148 2.148 5.63 0 7.778-2.148 2.148-5.63 2.148-7.778 0-2.148-2.148-2.148-5.63 0-7.778zm28.284-18.385c.586-.586 1.536-.586 2.122 0 .55.551.583 1.425.097 2.014l-.097.107-2.829 2.829c-.586.586-1.535.586-2.121 0-.552-.552-.584-1.425-.097-2.014l.097-.107 2.828-2.829zM20.186 40.778c-.976.976-.976 2.56 0 3.536.977.976 2.56.976 3.536 0 .976-.977.976-2.56 0-3.536s-2.56-.976-3.536 0zm21.92-24.749c.586-.585 1.536-.585 2.122 0 .551.552.584 1.425.097 2.015l-.097.107-2.829 2.828c-.585.586-1.535.586-2.12 0-.552-.551-.585-1.425-.098-2.014l.097-.107 2.829-2.829z"/>
    </g>
</svg>
