<?xml version="1.0" encoding="UTF-8"?>
<svg width="500px" height="156px" viewBox="0 0 500 156" version="1.1" xmlns="http://www.w3.org/2000/svg" xmlns:xlink="http://www.w3.org/1999/xlink">
    <title>ledgerSP-cropped.inline</title>
    <g id="Page-1" stroke="none" stroke-width="1" fill="none" fill-rule="evenodd">
        <g id="ledgerSP-cropped.inline" fill="#5E6066" fill-rule="nonzero">
            <path d="M123,0 C124.104569,-2.02906125e-16 125,0.8954305 125,2 L125,6 L251,6 L251,2 C251,0.8954305 251.895431,2.02906125e-16 253,0 L302,0 C303.104569,-2.02906125e-16 304,0.8954305 304,2 L304,6 L496,6 C498.209139,6 500,7.790861 500,10 C500,12.1421954 498.316032,13.8910789 496.19964,13.9951047 L496,14 L442,14 C404.996922,14 375,43.9969218 375,81 C375,117.633047 404.399983,147.399361 440.892032,147.991024 L442,148 L496,148 C498.209139,148 500,149.790861 500,152 C500,154.142195 498.316032,155.891079 496.19964,155.995105 L496,156 L20,156 C9.06936433,156 0.186774951,147.231271 0,136.344489 L0,26 C0,15.0693643 8.76872859,6.18677495 19.6555106,6.00290706 L20,6 L72,6 L72,2 C72,0.8954305 72.8954305,2.02906125e-16 74,0 L123,0 Z M408.261695,13.9987834 L20,14 C13.4745433,14 8.16560725,19.2085444 8.00379986,25.6950252 L8,26 L8,136 C8,142.525457 13.2085444,147.834393 19.6950252,147.9962 L20,148 L408.263664,148.00221 C383.78691,135.653643 367,110.287218 367,81 C367,51.7135675 383.78601,26.3477175 408.261695,13.9987834 Z M298,30 C301.238397,30 303.877572,32.5655749 303.995862,35.7750617 L304,36 L304,126 C304,129.238397 301.434425,131.877572 298.224938,131.995862 L298,132 L78,132 C74.7616031,132 72.1224282,129.434425 72.0041385,126.224938 L72,126 L72,36 C72,32.7616031 74.5655749,30.1224282 77.7750617,30.0041385 L78,30 L298,30 Z M298,34 L78,34 C76.9456382,34 76.0818349,34.8158778 76.0054857,35.8507377 L76,36 L76,126 C76,127.054362 76.8158778,127.918165 77.8507377,127.994514 L78,128 L298,128 C299.054362,128 299.918165,127.184122 299.994514,126.149262 L300,126 L300,36 C300,34.8954305 299.104569,34 298,34 Z M442,42 C463.539105,42 481,59.4608948 481,81 C481,102.539105 463.539105,120 442,120 C420.460895,120 403,102.539105 403,81 C403,59.4608948 420.460895,42 442,42 Z M442,46 C422.670034,46 407,61.6700338 407,81 C407,100.329966 422.670034,116 442,116 C461.329966,116 477,100.329966 477,81 C477,61.6700338 461.329966,46 442,46 Z" id="Combined-Shape"></path>
        </g>
    </g>
</svg>