<?xml version="1.0" encoding="UTF-8"?>
<svg width="466px" height="156px" viewBox="0 0 466 156" version="1.1" xmlns="http://www.w3.org/2000/svg" xmlns:xlink="http://www.w3.org/1999/xlink">
  <g id="Page-1" stroke="none" stroke-width="1" fill="none" fill-rule="evenodd">
    <path d="M105.316,0 C106.345458,-2.02906125e-16 107.18,0.8954305 107.18,2 L107.18,6 L243.252,6 L243.252,2 C243.252,0.8954305 244.086542,2.02906125e-16 245.116,0 L290.784,0 C291.813458,-2.02906125e-16 292.648,0.8954305 292.648,2 L292.648,6 L462.272,6 C464.330918,6 466,7.790861 466,10 C466,12.1421954 464.430542,13.8910789 462.458064,13.9951047 L462.272,14 L391.44,14 C356.953131,14 328.996,43.9969218 328.996,81 C328.996,117.633047 356.396784,147.399361 390.407374,147.991024 L391.44,148 L462.272,148 C464.330918,148 466,149.790861 466,152 C466,154.142195 464.430542,155.891079 462.458064,155.995105 L462.272,156 L18.64,156 C8.45264756,156 0.174074254,147.231271 0,136.344489 L0,26 C0,15.0693643 8.17245505,6.18677495 18.3189359,6.00290706 L18.64,6 L57.784,6 L57.784,2 C57.784,0.8954305 58.6185412,2.02906125e-16 59.648,0 L105.316,0 Z M352.263664,13.9987834 L18.9213873,14 C12.9824673,14 8.15072174,19.2085444 8.00345831,25.6950252 L8,26 L8,136 C8,142.525457 12.7403775,147.834393 18.643825,147.9962 L18.9213873,148 L352.263664,148.00221 C329.986988,135.653643 314.708959,110.287218 314.708959,81 C314.708959,51.7135675 329.986169,26.3477175 352.263664,13.9987834 Z M277.785714,30 C281.217769,30 284,33.4784031 284,37.7692308 L284,123.230769 C284,127.521596 281.217769,131 277.785714,131 L58.2142857,131 C54.7822305,131 52,127.521596 52,123.230769 L52,37.7692308 C52,33.4784031 54.7822305,30 58.2142857,30 L277.785714,30 Z M386,42 C407.539105,42 425,59.4608948 425,81 C425,102.539105 407.539105,120 386,120 C364.460895,120 347,102.539105 347,81 C347,59.4608948 364.460895,42 386,42 Z M285.777778,26 L50.2222222,26 C48.9949228,26 48,27.4071051 48,29.1428571 L48,132.857143 C48,134.592894 48.9949228,136 50.2222222,136 L285.777778,136 C287.005077,136 288,134.592894 288,132.857143 L288,29.1428571 C288,27.4071051 287.005077,26 285.777778,26 Z M386,46 C366.670034,46 351,61.6700338 351,81 C351,100.329966 366.670034,116 386,116 C405.329966,116 421,100.329966 421,81 C421,61.6700338 405.329966,46 386,46 Z" id="Combined-Shape" fill="#5E6066" fill-rule="nonzero"></path>
  </g>
</svg>
