<?xml version="1.0" encoding="UTF-8"?>
<svg width="654px" height="278px" viewBox="0 0 654 278" version="1.1" xmlns="http://www.w3.org/2000/svg" xmlns:xlink="http://www.w3.org/1999/xlink">
    <g id="Page-1" stroke="none" stroke-width="1" fill="none" fill-rule="evenodd">
        <g id="trezor-ledger" transform="translate(1.000000, 1.000000)" fill="#5E6066" fill-rule="nonzero">
            <path d="M70.5,-1 C88.0063349,-1 105.51196,0.551671602 123.014921,3.65466254 C133.736478,5.55542056 141.634258,14.706375 141.987747,25.551386 L141.996939,25.9260149 L142,26.3015256 L142,180.918583 C142,197.922271 137.790459,214.655477 129.752999,229.630844 L129.318761,230.431406 L128.879555,231.224304 L109.84466,265.233316 C105.920371,272.244713 98.6291763,276.688708 90.6174987,276.984402 L90.1951805,276.996126 L89.7744682,277 L51.2255318,277 C43.1906244,277 35.751663,272.808049 31.5806912,265.961341 L31.3641983,265.598545 L31.1553398,265.233316 L12.1204449,231.224304 C3.81575756,216.386596 -0.683507476,199.728954 -0.983927991,182.735658 L-0.996002955,181.82499 L-1,180.918583 L-1,26.3015255 C-1,15.1478264 7.00263098,5.60167227 17.9850787,3.65466252 C35.4880397,0.551671595 52.9936652,-1 70.5,-1 Z M70.5,5 C53.3455133,5 36.1903147,6.5207288 19.0324495,9.56253984 C11.1505421,10.9598741 5.33117074,17.6595864 5.01379576,25.6066344 L5.00337449,25.9580358 L5,26.3015255 L5,180.918583 C5,196.921674 8.95933243,212.670424 16.5154001,226.759538 L16.9311141,227.526381 L17.3561472,228.293874 L36.3910421,262.302886 C39.2760994,267.457522 44.6237577,270.735412 50.4930452,270.984539 L50.8605373,270.996156 L51.2255318,271 L89.7744682,271 C95.6815679,271 101.153734,267.934481 104.237717,262.934515 L104.427338,262.619509 L104.608958,262.302886 L123.643853,228.293874 C131.459843,214.329304 135.696632,198.652918 135.984273,182.668096 L135.996044,181.795899 L136,180.918583 L136,26.3015256 C136,18.0574871 130.085012,11.0016341 121.967551,9.56253986 C104.809685,6.5207288 87.6544868,5 70.5,5 Z M642,163 C647.978702,163 652.843365,167.769764 652.996293,173.711593 L653,174 L653,229 C653,234.978702 648.230236,239.843365 642.288407,239.996293 L642,240 L232,240 C226.021298,240 221.156635,235.230236 221.003707,229.288407 L221,229 L221,174 C221,168.021298 225.769764,163.156635 231.711593,163.003707 L232,163 L642,163 Z M411.352193,168.999341 L232,169 C229.311245,169 227.118182,171.122307 227.00462,173.78311 L227,174 L227,229 C227,231.688755 229.122307,233.881818 231.78311,233.99538 L232,234 L411.353191,234.001295 C400.62019,227.168793 393.5,215.165901 393.5,201.5 C393.5,187.834522 400.619749,175.831951 411.352193,168.999341 Z M642,169 L432,169 C414.050746,169 399.5,183.550746 399.5,201.5 C399.5,219.269762 413.761186,233.708645 431.462553,233.995646 L432,234 L642,234 C644.688755,234 646.881818,231.877693 646.99538,229.21689 L647,229 L647,174 C647,171.238576 644.761424,169 642,169 Z M385,181 C387.142195,181 388.891079,182.683968 388.995105,184.80036 L389,185 L389,218 C389,220.142195 387.316032,221.891079 385.19964,221.995105 L385,222 L289,222 C286.857805,222 285.108921,220.316032 285.004895,218.19964 L285,218 L285,185 C285,182.857805 286.683968,181.108921 288.80036,181.004895 L289,181 L385,181 Z M432,181 C443.321837,181 452.5,190.178163 452.5,201.5 C452.5,212.821837 443.321837,222 432,222 C420.678163,222 411.5,212.821837 411.5,201.5 C411.5,190.178163 420.678163,181 432,181 Z M259.5,181 C270.821837,181 280,190.178163 280,201.5 C280,212.821837 270.821837,222 259.5,222 C248.178163,222 239,212.821837 239,201.5 C239,190.178163 248.178163,181 259.5,181 Z M385,185 L289,185 L289,218 L385,218 L385,185 Z M432,185 C422.887302,185 415.5,192.387302 415.5,201.5 C415.5,210.612698 422.887302,218 432,218 C441.112698,218 448.5,210.612698 448.5,201.5 C448.5,192.387302 441.112698,185 432,185 Z M259.5,185 C250.387302,185 243,192.387302 243,201.5 C243,210.612698 250.387302,218 259.5,218 C268.612698,218 276,210.612698 276,201.5 C276,192.387302 268.612698,185 259.5,185 Z M53,144.5 C57.2312995,144.5 60.7111385,147.790563 60.9833357,151.98948 L60.9957988,152.242486 L61,152.5 L61,160.5 C61,164.731299 57.7094374,168.211138 53.5105203,168.483336 L53.2575143,168.495799 L53,168.5 L20,168.5 C15.7687005,168.5 12.2888615,165.209437 12.0166643,161.01052 L12.0042012,160.757514 L12,160.5 L12,152.5 C12,148.268701 15.2905626,144.788862 19.4894797,144.516664 L19.7424857,144.504201 L20,144.5 L53,144.5 Z M121,144.5 C125.231299,144.5 128.711138,147.790563 128.983336,151.98948 L128.995799,152.242486 L129,152.5 L129,160.5 C129,164.731299 125.709437,168.211138 121.51052,168.483336 L121.257514,168.495799 L121,168.5 L88,168.5 C83.7687005,168.5 80.2888615,165.209437 80.0166643,161.01052 L80.0042012,160.757514 L80,160.5 L80,152.5 C80,148.268701 83.2905626,144.788862 87.4894797,144.516664 L87.7424857,144.504201 L88,144.5 L121,144.5 Z M53,148.5 L20,148.5 C17.9226229,148.5 16.2052252,150.087417 16.0177229,152.107592 L16.0043928,152.304404 L16,152.5 L16,160.5 C16,162.577377 17.5874174,164.294775 19.6075915,164.482277 L19.8044045,164.495607 L20,164.5 L53,164.5 C55.0773771,164.5 56.7947748,162.912583 56.9822771,160.892408 L56.9956072,160.695596 L57,160.5 L57,152.5 C57,150.290861 55.209139,148.5 53,148.5 Z M121,148.5 L88,148.5 C85.9226229,148.5 84.2052252,150.087417 84.0177229,152.107592 L84.0043928,152.304404 L84,152.5 L84,160.5 C84,162.577377 85.5874174,164.294775 87.6075915,164.482277 L87.8044045,164.495607 L88,164.5 L121,164.5 C123.077377,164.5 124.794775,162.912583 124.982277,160.892408 L124.995607,160.695596 L125,160.5 L125,152.5 C125,150.290861 123.209139,148.5 121,148.5 Z M121,65.5 C125.231299,65.5 128.711138,68.7905626 128.983336,72.9894797 L128.995799,73.2424857 L129,73.5 L129,125.5 C129,129.731299 125.709437,133.211138 121.51052,133.483336 L121.257514,133.495799 L121,133.5 L20,133.5 C15.7687005,133.5 12.2888615,130.209437 12.0166643,126.01052 L12.0042012,125.757514 L12,125.5 L12,73.5 C12,69.2687005 15.2905626,65.7888615 19.4894797,65.5166643 L19.7424857,65.5042012 L20,65.5 L121,65.5 Z M121,69.5 L20,69.5 C17.9226229,69.5 16.2052252,71.0874174 16.0177229,73.1075915 L16.0043928,73.3044045 L16,73.5 L16,125.5 C16,127.577377 17.5874174,129.294775 19.6075915,129.482277 L19.8044045,129.495607 L20,129.5 L121,129.5 C123.077377,129.5 124.794775,127.912583 124.982277,125.892408 L124.995607,125.695596 L125,125.5 L125,73.5 C125,71.290861 123.209139,69.5 121,69.5 Z M277.5,36 C278.554362,36 279.418165,36.8158778 279.494514,37.8507377 L279.5,38 L279.5,39 L350.5,39 L350.5,38 C350.5,36.9983563 351.23633,36.1686916 352.197226,36.0227694 L352.350738,36.0054857 L352.5,36 L377,36 C378.054362,36 378.918165,36.8158778 378.994514,37.8507377 L379,38 L379,39 L427.999193,39 L427.999,39.117 L428.52846,39.0781518 L428.939543,39.0543146 L429.351888,39.0347743 L430.180769,39.0086023 L431,39 L641,39 C646.862791,39 651.672365,43.5931037 651.984235,49.4143033 L652,49.7063711 L652,105 C652,110.862791 647.406896,115.672365 641.585697,115.984235 L641.293629,115.996064 L641,116 L431,116 C430.44864,116 429.898673,115.988404 429.350344,115.965278 L428.529107,115.921952 L427.999,115.882 L427.999193,116 L231,116 C225.092555,116 220.261126,111.339012 220.008707,105.462232 L220,105.172245 L220,50 C220,44.0922684 224.661326,39.260968 230.529748,39.0101177 L230.819317,39.0014891 L251,39 L251,38 C251,36.9983563 251.73633,36.1686916 252.697226,36.0227694 L252.850738,36.0054857 L253,36 L277.5,36 Z M410.349,44.999 L231,45 C228.359354,45 226.189311,47.0499744 226.011957,49.6426877 L226,49.8599712 L226,105 C226,107.640646 228.049974,109.810689 230.642688,109.988043 L230.859971,109.998178 L231,110 L410.351,110.001 L409.997886,109.774217 C399.370707,102.854141 392.664976,91.0288165 392.503002,77.9837032 L392.5,77.5 C392.5,64.2646587 399.238746,52.2326116 409.996154,45.2269121 L410.349,44.999 Z M641,45 L431,45 C413.050746,45 398.5,59.5507456 398.5,77.5 C398.5,95.0714189 412.457041,109.418794 429.923759,109.982687 L430.454117,109.995545 L431,110 L641,110 C643.616725,110 645.77479,107.98572 645.982995,105.427148 L645.996031,105.206543 L646,105 L646,50 C646,47.2385763 643.761424,45 641,45 Z M368,57 C370.053328,57 371.757766,58.551265 371.977507,60.5894465 L371.99449,60.7948483 L372,61 L372,94 C372,96.0533278 370.448735,97.7577655 368.410554,97.9775071 L368.205152,97.9944902 L368,98 L262,98 C259.946672,98 258.242234,96.448735 258.022493,94.4105535 L258.00551,94.2051517 L258,94 L258,61 C258,58.9466722 259.551265,57.2422345 261.589446,57.0224929 L261.794848,57.0055098 L262,57 L368,57 Z M431,57 C442.321837,57 451.5,66.1781626 451.5,77.5 C451.5,88.8218374 442.321837,98 431,98 C419.678163,98 410.5,88.8218374 410.5,77.5 C410.5,66.1781626 419.678163,57 431,57 Z M261.95,95.998 L262,96 L367.971121,96.0004171 L261.95,95.998 Z M368,61 L262,61 L262,94 L368,94.0008801 L368,61 Z M431,61 C421.887302,61 414.5,68.3873016 414.5,77.5 C414.5,86.6126984 421.887302,94 431,94 C440.112698,94 447.5,86.6126984 447.5,77.5 C447.5,68.3873016 440.112698,61 431,61 Z" id="Combined-Shape"></path>
        </g>
    </g>
</svg>
