<?xml version="1.0" encoding="UTF-8"?>
<svg width="654px" height="278px" viewBox="0 0 654 278" version="1.1" xmlns="http://www.w3.org/2000/svg" xmlns:xlink="http://www.w3.org/1999/xlink">
    <title>trezor-ledger.inline</title>
    <g id="Page-1" stroke="none" stroke-width="1" fill="none" fill-rule="evenodd">
        <g id="z" transform="translate(-1165.000000, -1122.000000)" fill="#5E6066" fill-rule="nonzero">
            <g id="trezor-ledger.inline" transform="translate(1165.000000, 1122.000000)">
                <path d="M71.5,0 C89.0063349,0 106.51196,1.5516716 124.014921,4.65466254 C134.736478,6.55542056 142.634258,15.706375 142.987747,26.551386 L142.996939,26.9260149 L143,27.3015256 L143,181.918583 C143,198.922271 138.790459,215.655477 130.752999,230.630844 L130.318761,231.431406 L129.879555,232.224304 L110.84466,266.233316 C106.920371,273.244713 99.6291763,277.688708 91.6174987,277.984402 L91.1951805,277.996126 L90.7744682,278 L52.2255318,278 C44.1906244,278 36.751663,273.808049 32.5806912,266.961341 L32.3641983,266.598545 L32.1553398,266.233316 L13.1204449,232.224304 C4.81575756,217.386596 0.316492524,200.728954 0.016072009,183.735658 L0.003997045,182.82499 L0,181.918583 L0,27.3015255 C0,16.1478264 8.00263098,6.60167227 18.9850787,4.65466252 C36.4880397,1.55167159 53.9936652,0 71.5,0 Z M71.5,6 C54.3455133,6 37.1903147,7.5207288 20.0324495,10.5625398 C12.1505421,11.9598741 6.33117074,18.6595864 6.01379576,26.6066344 L6.00337449,26.9580358 L6,27.3015255 L6,181.918583 C6,197.921674 9.95933243,213.670424 17.5154001,227.759538 L17.9311141,228.526381 L18.3561472,229.293874 L37.3910421,263.302886 C40.2760994,268.457522 45.6237577,271.735412 51.4930452,271.984539 L51.8605373,271.996156 L52.2255318,272 L90.7744682,272 C96.6815679,272 102.153734,268.934481 105.237717,263.934515 L105.427338,263.619509 L105.608958,263.302886 L124.643853,229.293874 C132.459843,215.329304 136.696632,199.652918 136.984273,183.668096 L136.996044,182.795899 L137,181.918583 L137,27.3015256 C137,19.0574871 131.085012,12.0016341 122.967551,10.5625399 C105.809685,7.5207288 88.6544868,6 71.5,6 Z M643,164 C648.978702,164 653.843365,168.769764 654,174.711593 L654,175 L654,230 C654,235.978702 649.230236,240.843365 643.288407,240.996293 L643,241 L233,241 C227.021298,241 222.156635,236.230236 222,230.288407 L222,230 L222,175 C222,169.021298 226.769764,164.156635 232.711593,164.003707 L233,164 L643,164 Z M412.353191,169.999341 L233,170 C230.311245,170 228.118182,172.122307 228.00462,174.78311 L228,175 L228,230 C228,232.688755 230.122307,234.881818 232.78311,234.99538 L233,235 L412.353191,235.001295 C401.62019,228.168793 394.5,216.165901 394.5,202.5 C394.5,188.834522 401.619749,176.831951 412.353191,169.999341 Z M643,170 L433,170 C415.050746,170 400.5,184.550746 400.5,202.5 C400.5,220.269762 414.761186,234.708645 432.462553,234.995646 L433,235 L643,235 C645.688755,235 647.881818,232.877693 647.99538,230.21689 L648,230 L648,175 C648,172.238576 645.761424,170 643,170 Z M386,182 C388.142195,182 389.891079,183.683968 389.995105,185.80036 L390,186 L390,219 C390,221.142195 388.316032,222.891079 386.19964,222.995105 L386,223 L290,223 C287.857805,223 286.108921,221.316032 286.004895,219.19964 L286,219 L286,186 C286,183.857805 287.683968,182.108921 289.80036,182.004895 L290,182 L386,182 Z M433,182 C444.321837,182 453.5,191.178163 453.5,202.5 C453.5,213.821837 444.321837,223 433,223 C421.678163,223 412.5,213.821837 412.5,202.5 C412.5,191.178163 421.678163,182 433,182 Z M260.5,182 C271.821837,182 281,191.178163 281,202.5 C281,213.821837 271.821837,223 260.5,223 C249.178163,223 240,213.821837 240,202.5 C240,191.178163 249.178163,182 260.5,182 Z M386,186 L290,186 L290,219 L386,219 L386,186 Z M433,186 C423.887302,186 416.5,193.387302 416.5,202.5 C416.5,211.612698 423.887302,219 433,219 C442.112698,219 449.5,211.612698 449.5,202.5 C449.5,193.387302 442.112698,186 433,186 Z M260.5,186 C251.387302,186 244,193.387302 244,202.5 C244,211.612698 251.387302,219 260.5,219 C269.612698,219 277,211.612698 277,202.5 C277,193.387302 269.612698,186 260.5,186 Z M122,46.5 C126.231299,46.5 129.711138,49.7905626 129.983336,53.9894797 L129.995799,54.2424857 L130,54.5 L130,161.5 C130,165.731299 126.709437,169.211138 122.51052,169.483336 L122.257514,169.495799 L122,169.5 L21,169.5 C16.7687005,169.5 13.2888615,166.209437 13.0166643,162.01052 L13.0042012,161.757514 L13,161.5 L13,54.5 C13,50.2687005 16.2905626,46.7888615 20.4894797,46.5166643 L20.7424857,46.5042012 L21,46.5 L122,46.5 Z M122,50.5 L21,50.5 C18.9226229,50.5 17.2052252,52.0874174 17.0177229,54.1075915 L17.0043928,54.3044045 L17,54.5 L17,161.5 C17,163.577377 18.5874174,165.294775 20.6075915,165.482277 L20.8044045,165.495607 L21,165.5 L122,165.5 C124.077377,165.5 125.794775,163.912583 125.982277,161.892408 L125.995607,161.695596 L126,161.5 L126,54.5 C126,52.290861 124.209139,50.5 122,50.5 Z M278.5,37 C279.554362,37 280.418165,37.8158778 280.494514,38.8507377 L280.5,39 L280.5,40 L351.5,40 L351.5,39 C351.5,37.9983563 352.23633,37.1686916 353.197226,37.0227694 L353.350738,37.0054857 L353.5,37 L378,37 C379.054362,37 379.918165,37.8158778 379.994514,38.8507377 L380,39 L380,40 L428.999193,40 L428.999,40.117 L429.52846,40.0781518 L429.939543,40.0543146 L430.351888,40.0347743 L431.180769,40.0086023 L432,40 L642,40 C647.862791,40 652.672365,44.5931037 652.984235,50.4143033 L653,50.7063711 L653,106 C653,111.862791 648.406896,116.672365 642.585697,116.984235 L642.293629,116.996064 L642,117 L432,117 C431.44864,117 430.898673,116.988404 430.350344,116.965278 L429.529107,116.921952 L428.999,116.882 L428.999193,117 L232,117 C226.092555,117 221.261126,112.339012 221.008707,106.462232 L221,106.172245 L221,51 C221,45.0922684 225.661326,40.260968 231.529748,40.0101177 L231.819317,40.0014891 L252,40 L252,39 C252,37.9983563 252.73633,37.1686916 253.697226,37.0227694 L253.850738,37.0054857 L254,37 L278.5,37 Z M411.349,45.999 L232,46 C229.359354,46 227.189311,48.0499744 227.011957,50.6426877 L227,50.8599712 L227,106 C227,108.640646 229.049974,110.810689 231.642688,110.988043 L231.859971,110.998178 L232,111 L411.351,111.001 L410.997886,110.774217 C400.370707,103.854141 393.664976,92.0288165 393.503002,78.9837032 L393.5,78.5 C393.5,65.2646587 400.238746,53.2326116 410.996154,46.2269121 L411.349,45.999 Z M642,46 L432,46 C414.050746,46 399.5,60.5507456 399.5,78.5 C399.5,96.0714189 413.457041,110.418794 430.923759,110.982687 L431.454117,110.995545 L432,111 L642,111 C644.616725,111 646.77479,108.98572 646.982995,106.427148 L646.996031,106.206543 L647,106 L647,51 C647,48.2385763 644.761424,46 642,46 Z M369,58 C371.053328,58 372.757766,59.551265 372.977507,61.5894465 L372.99449,61.7948483 L373,62 L373,95 C373,97.0533278 371.448735,98.7577655 369.410554,98.9775071 L369.205152,98.9944902 L369,99 L263,99 C260.946672,99 259.242234,97.448735 259.022493,95.4105535 L259.00551,95.2051517 L259,95 L259,62 C259,59.9466722 260.551265,58.2422345 262.589446,58.0224929 L262.794848,58.0055098 L263,58 L369,58 Z M432,58 C443.321837,58 452.5,67.1781626 452.5,78.5 C452.5,89.8218374 443.321837,99 432,99 C420.678163,99 411.5,89.8218374 411.5,78.5 C411.5,67.1781626 420.678163,58 432,58 Z M262.95,96.998 L263,97 L368.971121,97.0004171 L262.95,96.998 Z M369,62 L263,62 L263,95 L369,95.0008801 L369,62 Z M432,62 C422.887302,62 415.5,69.3873016 415.5,78.5 C415.5,87.6126984 422.887302,95 432,95 C441.112698,95 448.5,87.6126984 448.5,78.5 C448.5,69.3873016 441.112698,62 432,62 Z" id="Combined-Shape"></path>
            </g>
        </g>
    </g>
</svg>