<svg xmlns="http://www.w3.org/2000/svg" width="653" height="278" viewBox="0 0 653 278">
    <g fill="#5E6066" stroke="#5E6066" stroke-width="2">
        <path d="M277.5 99c.552 0 1 .448 1 1v2h73v-2c0-.552.448-1 1-1H377c.552 0 1 .448 1 1v2h49v.21c1.314-.139 2.649-.21 4-.21h210c5.523 0 10 4.477 10 10h0v55c0 5.523-4.477 10-10 10h0-210c-1.351 0-2.686-.071-4-.21v.21H231c-5.465 0-9.907-4.384-10-9.828V112c0-5.465 4.384-9.907 9.828-9.999L231 102h21v-2c0-.552.448-1 1-1h24.5zm136.63 7H231c-3.263 0-5.917 2.604-5.998 5.848L225 112v55c0 3.263 2.604 5.917 5.848 5.998L231 173l183.132.001c-12.238-6.174-20.632-18.857-20.632-33.501 0-14.643 8.393-27.326 20.63-33.5zM641 106H431c-18.502 0-33.5 14.998-33.5 33.5 0 18.502 14.998 33.5 33.5 33.5h210c3.314 0 6-2.686 6-6h0v-55c0-3.314-2.686-6-6-6h0zm-273 14c1.657 0 3 1.343 3 3h0v33c0 1.657-1.343 3-3 3h0-106c-1.657 0-3-1.343-3-3h0v-33c0-1.657 1.343-3 3-3h0zm63 0c10.77 0 19.5 8.73 19.5 19.5S441.77 159 431 159s-19.5-8.73-19.5-19.5S420.23 120 431 120zm-63 2H262c-.552 0-1 .448-1 1h0v33c0 .552.448 1 1 1h106c.552 0 1-.448 1-1h0v-33c0-.552-.448-1-1-1h0zm63 0c-9.665 0-17.5 7.835-17.5 17.5S421.335 157 431 157s17.5-7.835 17.5-17.5S440.665 122 431 122zM70.5 0c17.448 0 34.895 1.547 52.34 4.64C133.345 6.501 141 15.632 141 26.301h0v154.617c0 17.443-4.474 34.595-12.993 49.817h0l-19.035 34.009C105.082 271.695 97.739 276 89.774 276h0-38.548c-7.965 0-15.308-4.305-19.198-11.255h0l-19.035-34.01C4.473 215.516 0 198.363 0 180.92h0V26.302c0-10.67 7.655-19.8 18.16-21.663C35.605 1.547 53.052 0 70.5 0zm0 4C53.287 4 36.073 5.526 18.858 8.578 10.263 10.102 4 17.573 4 26.302h0v154.617c0 16.76 4.298 33.239 12.484 47.863h0l19.034 34.01c3.183 5.686 9.19 9.208 15.708 9.208h38.548c6.517 0 12.525-3.522 15.708-9.209h0l19.034-34.009C132.702 214.158 137 197.678 137 180.92h0V26.302c0-8.73-6.263-16.2-14.858-17.724C104.927 5.526 87.712 4 70.5 4zM53 145.5c3.866 0 7 3.134 7 7h0v8c0 3.866-3.134 7-7 7h0-33c-3.866 0-7-3.134-7-7h0v-8c0-3.866 3.134-7 7-7h0zm68 0c3.866 0 7 3.134 7 7h0v8c0 3.866-3.134 7-7 7h0-33c-3.866 0-7-3.134-7-7h0v-8c0-3.866 3.134-7 7-7h0zm-68 2H20c-2.761 0-5 2.239-5 5h0v8c0 2.761 2.239 5 5 5h33c2.761 0 5-2.239 5-5h0v-8c0-2.761-2.239-5-5-5h0zm68 0H88c-2.761 0-5 2.239-5 5h0v8c0 2.761 2.239 5 5 5h33c2.761 0 5-2.239 5-5h0v-8c0-2.761-2.239-5-5-5h0zm0-81c3.866 0 7 3.134 7 7h0v52c0 3.866-3.134 7-7 7h0H20c-3.866 0-7-3.134-7-7h0v-52c0-3.866 3.134-7 7-7h0zm0 2H20c-2.761 0-5 2.239-5 5h0v52c0 2.761 2.239 5 5 5h101c2.761 0 5-2.239 5-5h0v-52c0-2.761-2.239-5-5-5h0z" transform="translate(1 1)"/>
    </g>
</svg>
