<?xml version="1.0" encoding="UTF-8"?>
<svg width="143px" height="278px" viewBox="0 0 143 278" version="1.1" xmlns="http://www.w3.org/2000/svg" xmlns:xlink="http://www.w3.org/1999/xlink">
    <title>trezor.inline</title>
    <g id="Page-1" stroke="none" stroke-width="1" fill="none" fill-rule="evenodd">
        <g id="z" transform="translate(-936.000000, -1122.000000)" fill="#5E6066" fill-rule="nonzero">
            <g id="trezor.inline" transform="translate(936.000000, 1122.000000)">
                <path d="M71.5,0 C89.0063349,0 106.51196,1.5516716 124.014921,4.65466254 C134.736478,6.55542056 142.634258,15.706375 142.987747,26.551386 L142.996939,26.9260149 L143,27.3015256 L143,181.918583 C143,198.922271 138.790459,215.655477 130.752999,230.630844 L130.318761,231.431406 L129.879555,232.224304 L110.84466,266.233316 C106.920371,273.244713 99.6291763,277.688708 91.6174987,277.984402 L91.1951805,277.996126 L90.7744682,278 L52.2255318,278 C44.1906244,278 36.751663,273.808049 32.5806912,266.961341 L32.3641983,266.598545 L32.1553398,266.233316 L13.1204449,232.224304 C4.81575756,217.386596 0.316492524,200.728954 0.016072009,183.735658 L0.00399704484,182.82499 L0,181.918583 L0,27.3015255 C0,16.1478264 8.00263098,6.60167227 18.9850787,4.65466252 C36.4880397,1.5516716 53.9936652,0 71.5,0 Z M71.5,6 C54.3455133,6 37.1903147,7.5207288 20.0324495,10.5625398 C12.1505421,11.9598741 6.33117074,18.6595864 6.01379576,26.6066344 L6.00337449,26.9580358 L6,27.3015255 L6,181.918583 C6,197.921674 9.95933243,213.670424 17.5154001,227.759538 L17.9311141,228.526381 L18.3561472,229.293874 L37.3910421,263.302886 C40.2760994,268.457522 45.6237577,271.735412 51.4930452,271.984539 L51.8605373,271.996156 L52.2255318,272 L90.7744682,272 C96.6815679,272 102.153734,268.934481 105.237717,263.934515 L105.427338,263.619509 L105.608958,263.302886 L124.643853,229.293874 C132.459843,215.329304 136.696632,199.652918 136.984273,183.668096 L136.996044,182.795899 L137,181.918583 L137,27.3015256 C137,19.0574871 131.085012,12.0016341 122.967551,10.5625399 C105.809685,7.5207288 88.6544868,6 71.5,6 Z M122,46.5 C126.231299,46.5 129.711138,49.7905626 129.983336,53.9894797 L129.995799,54.2424857 L130,54.5 L130,161.5 C130,165.731299 126.709437,169.211138 122.51052,169.483336 L122.257514,169.495799 L122,169.5 L21,169.5 C16.7687005,169.5 13.2888615,166.209437 13.0166643,162.01052 L13.0042012,161.757514 L13,161.5 L13,54.5 C13,50.2687005 16.2905626,46.7888615 20.4894797,46.5166643 L20.7424857,46.5042012 L21,46.5 L122,46.5 Z M122,50.5 L21,50.5 C18.9226229,50.5 17.2052252,52.0874174 17.0177229,54.1075915 L17.0043928,54.3044045 L17,54.5 L17,161.5 C17,163.577377 18.5874174,165.294775 20.6075915,165.482277 L20.8044045,165.495607 L21,165.5 L122,165.5 C124.077377,165.5 125.794775,163.912583 125.982277,161.892408 L125.995607,161.695596 L126,161.5 L126,54.5 C126,52.290861 124.209139,50.5 122,50.5 Z" id="Combined-Shape"></path>
            </g>
        </g>
    </g>
</svg>