<?xml version="1.0" encoding="UTF-8"?>
<svg width="143px" height="278px" viewBox="0 0 143 278" version="1.1" xmlns="http://www.w3.org/2000/svg" xmlns:xlink="http://www.w3.org/1999/xlink">
    <title>trezor</title>
    <g id="Page-1" stroke="none" stroke-width="1" fill="none" fill-rule="evenodd">
        <g id="hardware-wallet-connect-step-0" transform="translate(-762.000000, -481.000000)" fill="#5E6066" fill-rule="nonzero" stroke="#5E6066" stroke-width="2">
            <g id="info-0" transform="translate(448.000000, 482.000000)">
                <g id="trezor-ledger" transform="translate(315.000000, 0.000000)">
                    <g id="trezor">
                        <path d="M70.5,0 C87.9479198,0 105.395141,1.54655457 122.84036,4.63930876 C133.34531,6.50166601 141,15.6327699 141,26.3015256 L141,26.3015256 L141,180.918583 C141,198.362181 136.526479,215.514318 128.006938,230.735899 L128.006938,230.735899 L108.972043,264.744911 C105.082009,271.695105 97.7392378,276 89.7744682,276 L89.7744682,276 L51.2255318,276 C43.2607622,276 35.9179906,271.695105 32.0279569,264.744911 L32.0279569,264.744911 L12.993062,230.735899 C4.47352055,215.514318 0,198.362181 0,180.918583 L0,180.918583 L0,26.3015255 C0,15.6327698 7.65469052,6.50166589 18.1596405,4.63930874 C35.6048593,1.54655456 53.0520803,0 70.5,0 Z M70.5,4 C53.2870958,4 36.0734928,5.52584623 18.8578877,8.57789362 C10.2629286,10.1016404 4,17.5725436 4,26.3015255 L4,26.3015255 L4,180.918583 C4,197.678118 8.29808837,214.157623 16.4835301,228.782279 L16.4835301,228.782279 L35.518425,262.791291 C38.7011799,268.477813 44.7089021,272 51.2255318,272 L51.2255318,272 L89.7744682,272 C96.2910979,272 102.29882,268.477813 105.481575,262.791291 L105.481575,262.791291 L124.51647,228.782279 C132.701912,214.157623 137,197.678118 137,180.918583 L137,180.918583 L137,26.3015256 C137,17.5725437 130.737071,10.1016405 122.142112,8.57789364 C104.926507,5.52584623 87.7129042,4 70.5,4 Z M53,145.5 C56.8659932,145.5 60,148.634007 60,152.5 L60,152.5 L60,160.5 C60,164.365993 56.8659932,167.5 53,167.5 L53,167.5 L20,167.5 C16.1340068,167.5 13,164.365993 13,160.5 L13,160.5 L13,152.5 C13,148.634007 16.1340068,145.5 20,145.5 L20,145.5 Z M121,145.5 C124.865993,145.5 128,148.634007 128,152.5 L128,152.5 L128,160.5 C128,164.365993 124.865993,167.5 121,167.5 L121,167.5 L88,167.5 C84.1340068,167.5 81,164.365993 81,160.5 L81,160.5 L81,152.5 C81,148.634007 84.1340068,145.5 88,145.5 L88,145.5 Z M53,147.5 L20,147.5 C17.2385763,147.5 15,149.738576 15,152.5 L15,152.5 L15,160.5 C15,163.261424 17.2385763,165.5 20,165.5 L20,165.5 L53,165.5 C55.7614237,165.5 58,163.261424 58,160.5 L58,160.5 L58,152.5 C58,149.738576 55.7614237,147.5 53,147.5 L53,147.5 Z M121,147.5 L88,147.5 C85.2385763,147.5 83,149.738576 83,152.5 L83,152.5 L83,160.5 C83,163.261424 85.2385763,165.5 88,165.5 L88,165.5 L121,165.5 C123.761424,165.5 126,163.261424 126,160.5 L126,160.5 L126,152.5 C126,149.738576 123.761424,147.5 121,147.5 L121,147.5 Z M121,66.5 C124.865993,66.5 128,69.6340068 128,73.5 L128,73.5 L128,125.5 C128,129.365993 124.865993,132.5 121,132.5 L121,132.5 L20,132.5 C16.1340068,132.5 13,129.365993 13,125.5 L13,125.5 L13,73.5 C13,69.6340068 16.1340068,66.5 20,66.5 L20,66.5 Z M121,68.5 L20,68.5 C17.2385763,68.5 15,70.7385763 15,73.5 L15,73.5 L15,125.5 C15,128.261424 17.2385763,130.5 20,130.5 L20,130.5 L121,130.5 C123.761424,130.5 126,128.261424 126,125.5 L126,125.5 L126,73.5 C126,70.7385763 123.761424,68.5 121,68.5 L121,68.5 Z" id="Combined-Shape"></path>
                    </g>
                </g>
            </g>
        </g>
    </g>
</svg>