<svg width="40" height="32" viewBox="0 0 40 32" fill="none" xmlns="http://www.w3.org/2000/svg">
<path d="M38 12V13.5C38.8284 13.5 39.5 12.8284 39.5 12H38ZM38 20H39.5C39.5 19.1716 38.8284 18.5 38 18.5V20ZM2 20V18.5C1.17157 18.5 0.5 19.1716 0.5 20H2ZM2 12H0.5C0.5 12.8284 1.17157 13.5 2 13.5L2 12ZM6 0.5C2.96243 0.5 0.5 2.96243 0.5 6H3.5C3.5 4.61929 4.61929 3.5 6 3.5V0.5ZM34 0.5H6V3.5H34V0.5ZM39.5 6C39.5 2.96243 37.0376 0.5 34 0.5V3.5C35.3807 3.5 36.5 4.61929 36.5 6H39.5ZM39.5 12V6H36.5V12H39.5ZM35.5 16C35.5 14.6193 36.6193 13.5 38 13.5V10.5C34.9624 10.5 32.5 12.9624 32.5 16H35.5ZM38 18.5C36.6193 18.5 35.5 17.3807 35.5 16H32.5C32.5 19.0376 34.9624 21.5 38 21.5V18.5ZM39.5 26V20H36.5V26H39.5ZM34 31.5C37.0376 31.5 39.5 29.0376 39.5 26H36.5C36.5 27.3807 35.3807 28.5 34 28.5V31.5ZM6 31.5H34V28.5H6V31.5ZM0.5 26C0.5 29.0376 2.96243 31.5 6 31.5V28.5C4.61929 28.5 3.5 27.3807 3.5 26H0.5ZM0.5 20V26H3.5V20H0.5ZM4.5 16C4.5 17.3807 3.38071 18.5 2 18.5V21.5C5.03757 21.5 7.5 19.0376 7.5 16H4.5ZM2 13.5C3.38071 13.5 4.5 14.6193 4.5 16H7.5C7.5 12.9624 5.03757 10.5 2 10.5V13.5ZM0.5 6V12H3.5V6H0.5Z" fill="white"/>
</svg>
