<svg width="48" height="48" viewBox="0 0 48 48" fill="none" xmlns="http://www.w3.org/2000/svg">
<path d="M46 19.1114V20.9448C47.0125 20.9448 47.8333 20.1239 47.8333 19.1114H46ZM46 28.8892H47.8333C47.8333 27.8767 47.0125 27.0559 46 27.0559V28.8892ZM2 28.8892L1.99978 27.0559C0.987345 27.056 0.166667 27.8768 0.166667 28.8892H2ZM2 19.1114H0.166667C0.166667 20.1239 0.987345 20.9446 1.99978 20.9448L2 19.1114ZM6.88889 5.05632C3.17631 5.05632 0.166667 8.06596 0.166667 11.7785H3.83333C3.83333 10.091 5.20135 8.72298 6.88889 8.72298V5.05632ZM41.1111 5.05632H6.88889V8.72298H41.1111V5.05632ZM47.8333 11.7785C47.8333 8.06596 44.8237 5.05632 41.1111 5.05632V8.72298C42.7986 8.72298 44.1667 10.091 44.1667 11.7785H47.8333ZM47.8333 19.1114V11.7785H44.1667V19.1114H47.8333ZM45.9994 20.9448H46V17.2781H45.9994V20.9448ZM42.9438 24.0003C42.9438 22.3128 44.3119 20.9448 45.9994 20.9448V17.2781C42.2868 17.2781 39.2772 20.2877 39.2772 24.0003H42.9438ZM45.9994 27.0559C44.3119 27.0559 42.9438 25.6878 42.9438 24.0003H39.2772C39.2772 27.7129 42.2868 30.7225 45.9994 30.7225V27.0559ZM46 27.0559H45.9994V30.7225H46V27.0559ZM47.8333 36.223V28.8892H44.1667V36.223H47.8333ZM41.1111 42.9452C44.8237 42.9452 47.8333 39.9356 47.8333 36.223H44.1667C44.1667 37.9105 42.7986 39.2785 41.1111 39.2785V42.9452ZM6.88889 42.9452H41.1111V39.2785H6.88889V42.9452ZM0.166667 36.223C0.166667 39.9356 3.17631 42.9452 6.88889 42.9452V39.2785C5.20135 39.2785 3.83333 37.9105 3.83333 36.223H0.166667ZM0.166667 28.8892V36.223H3.83333V28.8892H0.166667ZM5.05496 24.0003C5.05496 25.6877 3.68714 27.0557 1.99978 27.0559L2.00022 30.7225C5.71243 30.7221 8.72163 27.7126 8.72163 24.0003H5.05496ZM1.99978 20.9448C3.68714 20.945 5.05496 22.3129 5.05496 24.0003H8.72163C8.72163 20.288 5.71243 17.2785 2.00022 17.2781L1.99978 20.9448ZM0.166667 11.7785V19.1114H3.83333V11.7785H0.166667Z" fill="white"/>
<path d="M31.334 6.88867V11.7776" stroke="white" stroke-width="3.66667" stroke-linecap="round"/>
<path d="M31.334 21.5557V26.4446" stroke="white" stroke-width="3.66667" stroke-linecap="round" stroke-linejoin="round"/>
<path d="M31.334 36.2217V41.1106" stroke="white" stroke-width="3.66667" stroke-linecap="round" stroke-linejoin="round"/>
</svg>
