<svg xmlns="http://www.w3.org/2000/svg" width="60" height="46" viewBox="0 0 60 46">
    <g fill="none" fill-rule="evenodd" transform="translate(-8 -19)">
        <circle cx="44" cy="44" r="44"/>
        <path fill="#5E6066" fill-rule="nonzero" d="M38.543 34.994a1.94 1.94 0 0 0-.591-.708c-.126-.195-.195-.543.012-.907a2812015.862 2812015.862 0 0 0 .658-.385h17.846l-1.389-3.819-1.062-2.924-2.049.743-5.524 2-6.093 2.208a5.02 5.02 0 0 0 .338-4.208h5.483l8.098-2.934a.989.989 0 0 1 1.268.59l.854 2.344h3.609a4 4 0 0 1 4 4v2c2.209 0 4 1.791 3.999 4v23a5 5 0 0 1-5 5H27a5 5 0 0 1-5-5V52h2.001v7.994a3 3 0 0 0 3 3h36a3 3 0 0 0 3-3v-7h-4a4 4 0 0 1 0-8h4v-8a2 2 0 0 0-2-2H38.543zm23.458-4a2 2 0 0 0-2-2h-2.883l1.455 4h3.428v-2zm0 20h4v-4h-4a2 2 0 0 0 0 4zm2-1h-2v-2h2v2z"/>
        <path fill="#5E6066" d="M35.52 40.134l-.992 1.732a.987.987 0 0 1-1.355.366l-2.755-1.604a9.883 9.883 0 0 1-5.435 3.171V46c0 .553-.443 1-.991 1h-1.984a.995.995 0 0 1-.991-1v-2.201a9.883 9.883 0 0 1-5.435-3.171l-2.756 1.604a.987.987 0 0 1-1.355-.366l-.992-1.732a1.003 1.003 0 0 1 .363-1.365l2.767-1.612A10.019 10.019 0 0 1 13.082 34c0-1.106.198-2.162.527-3.157l-2.767-1.611a1.004 1.004 0 0 1-.363-1.366l.992-1.732a.988.988 0 0 1 1.355-.366l2.756 1.604a9.883 9.883 0 0 1 5.435-3.171V22c0-.553.443-1 .99-1h1.985c.548 0 .991.447.991 1v2.201a9.883 9.883 0 0 1 5.435 3.171l2.755-1.604a.988.988 0 0 1 1.355.366l.992 1.732c.274.479.111 1.09-.363 1.366l-2.766 1.611c.33.995.526 2.051.526 3.157 0 1.106-.197 2.163-.526 3.157l2.766 1.612c.474.275.637.887.363 1.365zm1.488-2.598l-2.323-1.352c.13-.71.216-1.435.216-2.184 0-.748-.086-1.474-.216-2.184l2.323-1.352a2.008 2.008 0 0 0 .725-2.732l-1.983-3.464a1.974 1.974 0 0 0-2.709-.732l-2.347 1.365c-1.096-.94-2.342-1.709-3.727-2.204V21c0-1.104-.888-2-1.984-2h-3.966a1.992 1.992 0 0 0-1.984 2v1.697c-1.385.495-2.631 1.264-3.727 2.204l-2.348-1.365a1.974 1.974 0 0 0-2.709.732l-1.983 3.464a2.01 2.01 0 0 0 .725 2.732l2.323 1.352c-.13.71-.216 1.436-.216 2.184 0 .749.086 1.474.216 2.184l-2.323 1.352a2.01 2.01 0 0 0-.725 2.732l1.983 3.464a1.974 1.974 0 0 0 2.71.732l2.347-1.365c1.096.94 2.342 1.71 3.727 2.204V47c0 1.104.888 2 1.984 2h3.966a1.992 1.992 0 0 0 1.984-2v-1.697c1.385-.494 2.631-1.264 3.727-2.204l2.347 1.365a1.974 1.974 0 0 0 2.71-.732l1.982-3.464a2.008 2.008 0 0 0-.725-2.732zM23 37c-1.643 0-2.975-1.343-2.975-3 0-1.656 1.332-3 2.975-3s2.975 1.344 2.975 3c0 1.657-1.332 3-2.975 3zm0-8c-2.74 0-4.958 2.238-4.958 5S20.26 39 23 39c2.739 0 4.96-2.238 4.96-5s-2.221-5-4.96-5z"/>
    </g>
</svg>
