<svg xmlns="http://www.w3.org/2000/svg" width="1217" height="290" viewBox="0 0 1217 290">
    <g fill="#2D2D2D" fill-rule="evenodd">
        <path d="M0 10h36v52H0V10zm50 0h36v52H50V10zm50 0h36v52h-36V10zM0 76h36v52H0V76zm50 0h36v52H50V76zm50 0h36v52h-36V76zM0 142h36v52H0v-52zm50 0h36v52H50v-52zm50 0h36v52h-36v-52zM0 208h36v52H0v-52zm50 0h36v52H50v-52zm50 0h36v52h-36v-52zm50-198h36v52h-36V10zm50 0h36v52h-36V10zm-50 66h36v52h-36V76zm50 0h36v52h-36V76zm-50 66h36v52h-36v-52zm50 0h36v52h-36v-52zm-50 66h36v52h-36v-52zm50 0h36v52h-36v-52z" opacity=".05"/>
        <path d="M10 20h36v52H10V20zm50 0h36v52H60V20zm50 0h36v52h-36V20zM10 86h36v52H10V86zm50 0h36v52H60V86zm50 0h36v52h-36V86zM10 152h36v52H10v-52zm50 0h36v52H60v-52zm50 0h36v52h-36v-52zM10 218h36v52H10v-52zm50 0h36v52H60v-52zm50 0h36v52h-36v-52zm50-198h36v52h-36V20zm50 0h36v52h-36V20zm-50 66h36v52h-36V86zm50 0h36v52h-36V86zm-50 66h36v52h-36v-52zm50 0h36v52h-36v-52zm-50 66h36v52h-36v-52zm50 0h36v52h-36v-52z" opacity=".2"/>
        <path d="M20 30h36v52H20V30zm50 0h36v52H70V30zm50 0h36v52h-36V30zM20 96h36v52H20V96zm50 0h36v52H70V96zm50 0h36v52h-36V96zM20 162h36v52H20v-52zm50 0h36v52H70v-52zm50 0h36v52h-36v-52zM20 228h36v52H20v-52zm50 0h36v52H70v-52zm50 0h36v52h-36v-52zm50-198h36v52h-36V30zm50 0h36v52h-36V30zm-50 66h36v52h-36V96zm50 0h36v52h-36V96zm-50 66h36v52h-36v-52zm50 0h36v52h-36v-52z" opacity=".4"/>
        <path d="M30 40h36v52H30V40zm50 0h36v52H80V40zm50 0h36v52h-36V40zM30 106h36v52H30v-52zm50 0h36v52H80v-52zm50 0h36v52h-36v-52zM30 172h36v52H30v-52zm50 0h36v52H80v-52zm50 0h36v52h-36v-52zM30 238h36v52H30v-52zm50 0h36v52H80v-52zM180 40h36v52h-36V40zm50 0h36v52h-36V40zm-50 66h36v52h-36v-52zm50 0h36v52h-36v-52z" opacity=".6"/>
        <g>
            <path d="M967 0h250v250H967z" opacity=".2"/>
            <path d="M947 20h250v250H947z" opacity=".4"/>
            <path d="M927 40h250v250H927z" opacity=".6"/>
        </g>
        <g>
            <path d="M344 201h36v52h-36zM448 98h36v43h-36z" opacity=".6"/>
            <path d="M594 139h30v42h-30zM412 164h30v42h-30z" opacity=".4"/>
            <path d="M513 186h30v42h-30zM704 108h36v52h-36zM813 47h36v52h-36z" opacity=".6"/>
        </g>
    </g>
</svg>
