<svg width="128" height="128" viewBox="0 0 128 128" fill="none" xmlns="http://www.w3.org/2000/svg">
<path d="M108.197 56.375H40.0244C38.9887 56.375 38.1494 57.2145 38.1494 58.25C38.1494 59.2855 38.9887 60.125 40.0244 60.125H108.196C109.232 60.125 110.071 59.2855 110.071 58.25C110.071 57.2145 109.232 56.375 108.197 56.375Z" fill="#EA4C5B"/>
<path d="M108.197 66.3488H59.7559C58.7201 66.3488 57.8809 67.1883 57.8809 68.2238C57.8809 69.2593 58.7201 70.0988 59.7559 70.0988H108.197C109.233 70.0988 110.072 69.2593 110.072 68.2238C110.072 67.1883 109.233 66.3488 108.197 66.3488Z" fill="#EA4C5B"/>
<path d="M108.197 76.3225H66.2402C65.2045 76.3225 64.3652 77.162 64.3652 78.1975C64.3652 79.233 65.2045 80.0725 66.2402 80.0725H108.197C109.232 80.0725 110.072 79.233 110.072 78.1975C110.072 77.162 109.232 76.3225 108.197 76.3225Z" fill="#EA4C5B"/>
<path d="M77.4636 86.2963H68.9839C67.9481 86.2963 67.1089 87.1358 67.1089 88.1713C67.1089 89.2068 67.9481 90.0463 68.9839 90.0463H77.4636C78.4994 90.0463 79.3386 89.2068 79.3386 88.1713C79.3386 87.1358 78.4991 86.2963 77.4636 86.2963Z" fill="#EA4C5B"/>
<path d="M40.0244 32.4615H65.0674C66.1032 32.4615 66.9424 31.622 66.9424 30.5865C66.9424 29.551 66.1032 28.7115 65.0674 28.7115H40.0244C38.9887 28.7115 38.1494 29.551 38.1494 30.5865C38.1494 31.622 38.9887 32.4615 40.0244 32.4615Z" fill="#EA4C5B"/>
<path d="M17.6946 110.307C18.0609 110.673 18.5409 110.856 19.0206 110.856C19.5004 110.856 19.9804 110.673 20.3466 110.307L32.8751 97.778L45.4036 110.307C45.7699 110.673 46.2499 110.856 46.7296 110.856C47.2094 110.856 47.6894 110.673 48.0556 110.307C48.7879 109.574 48.7879 108.387 48.0556 107.655L35.5271 95.1265L48.0556 82.598C48.7879 81.8658 48.7879 80.6785 48.0556 79.9465C47.3231 79.2143 46.1361 79.2143 45.4039 79.9465L32.8754 92.475L20.3469 79.9465C19.6144 79.2143 18.4274 79.2143 17.6951 79.9465C16.9629 80.6788 16.9629 81.866 17.6951 82.598L30.2236 95.1265L17.6951 107.655C16.9624 108.387 16.9624 109.574 17.6946 110.307Z" fill="#EA4C5B"/>
<path d="M127.126 49.57C127.126 43.064 124.989 36.6037 121.109 31.3795C120.492 30.548 119.317 30.375 118.486 30.9923C117.655 31.6098 117.481 32.7843 118.099 33.6155C119.825 35.94 121.158 38.5435 122.053 41.29C118.788 37.926 114.221 35.8325 109.174 35.8325H99.3865C94.9242 35.8325 91.294 32.2012 91.294 27.7375V17.9525C91.294 12.9087 89.2027 8.3435 85.8422 5.07925C89.8222 6.3805 93.4942 8.602 96.478 11.5857L112.573 27.6807C113.305 28.413 114.492 28.4132 115.225 27.6807C115.957 26.9485 115.957 25.7612 115.225 25.0292L99.1297 8.93425C93.3685 3.17275 85.707 0 77.5565 0H33.3817C26.8517 0 21.5392 5.31375 21.5392 11.845V64.2667C18.487 65.387 15.5975 66.9603 12.9772 68.9585C12.1537 69.5865 11.9952 70.763 12.6232 71.5865C13.251 72.4098 14.4275 72.5685 15.2512 71.9405C26.7737 63.1537 43.2037 64.2682 53.4682 74.5328C64.8232 85.8878 64.8232 104.364 53.4682 115.719C47.9677 121.22 40.6545 124.25 32.8752 124.25C25.096 124.25 17.783 121.22 12.2822 115.718C2.01647 105.455 0.899968 89.025 9.68547 77.501C10.3132 76.6775 10.1545 75.501 9.33097 74.8733C8.50722 74.245 7.33097 74.4045 6.70297 75.2275C1.92222 81.4987 -0.435032 89.3075 0.0662184 97.2158C0.571968 105.197 3.96872 112.71 9.63072 118.37C15.8395 124.58 24.0945 128 32.8752 128H115.281C121.811 128 127.124 122.687 127.124 116.155L127.126 49.57ZM115.281 124.25H48.152C51.0517 122.724 53.737 120.753 56.12 118.37C68.937 105.553 68.937 84.6982 56.12 71.881C50.4587 66.2197 42.946 62.824 34.9652 62.319C31.6885 62.111 28.4295 62.3957 25.2892 63.139V11.845C25.2892 7.3815 28.9195 3.75 33.3817 3.75H73.3417C81.173 3.75 87.5442 10.1212 87.5442 17.9525V27.7375C87.5442 34.2687 92.8567 39.5825 99.3867 39.5825H109.174C116.973 39.5825 123.322 45.9018 123.374 53.6888V116.155C123.374 120.619 119.744 124.25 115.281 124.25Z" fill="#EA4C5B"/>
</svg>
