<svg width="128" height="128" viewBox="0 0 128 128" fill="none" xmlns="http://www.w3.org/2000/svg">
<path d="M108.839 56.375H69.2075C68.1718 56.375 67.3325 57.2145 67.3325 58.25C67.3325 59.2855 68.1718 60.125 69.2075 60.125H108.839C109.875 60.125 110.714 59.2855 110.714 58.25C110.714 57.2145 109.875 56.375 108.839 56.375Z" fill="#CCCDD0"/>
<path d="M108.839 66.3488H76.8557C75.82 66.3488 74.9807 67.1883 74.9807 68.2238C74.9807 69.2593 75.82 70.0988 76.8557 70.0988H108.839C109.875 70.0988 110.714 69.2593 110.714 68.2238C110.714 67.1883 109.875 66.3488 108.839 66.3488Z" fill="#CCCDD0"/>
<path d="M108.839 76.3225H81.844C80.8082 76.3225 79.969 77.162 79.969 78.1975C79.969 79.233 80.8082 80.0725 81.844 80.0725H108.839C109.875 80.0725 110.714 79.233 110.714 78.1975C110.714 77.162 109.875 76.3225 108.839 76.3225Z" fill="#CCCDD0"/>
<path d="M94.1477 86.2963H82.2322C81.1964 86.2963 80.3572 87.1358 80.3572 88.1713C80.3572 89.2068 81.1964 90.0463 82.2322 90.0463H94.1477C95.1834 90.0463 96.0227 89.2068 96.0227 88.1713C96.0227 87.1358 95.1834 86.2963 94.1477 86.2963Z" fill="#CCCDD0"/>
<path d="M65.71 28.7115H40.667C39.6312 28.7115 38.792 29.551 38.792 30.5865C38.792 31.622 39.6312 32.4615 40.667 32.4615H65.71C66.7457 32.4615 67.585 31.622 67.585 30.5865C67.585 29.551 66.7455 28.7115 65.71 28.7115Z" fill="#CCCDD0"/>
<path d="M23.6747 75.5115C22.9952 76.293 23.0779 77.4773 23.8594 78.1568L34.4812 87.3903C34.3224 87.8695 34.2334 88.3798 34.2334 88.9115C34.2334 91.5878 36.4107 93.7648 39.0867 93.7648C41.7627 93.7648 43.9399 91.5878 43.9399 88.9115C43.9399 88.7253 43.9269 88.542 43.9064 88.3613L49.2124 85.389C50.1159 84.883 50.4379 83.7403 49.9319 82.8368C49.4259 81.9333 48.2827 81.6118 47.3799 82.1173L42.0702 85.0918C41.2462 84.4465 40.2119 84.0583 39.0867 84.0583C38.3172 84.0583 37.5919 84.243 36.9449 84.563L26.3199 75.3265C25.5382 74.647 24.3539 74.7298 23.6747 75.5115V75.5115ZM40.1899 88.9115C40.1899 89.52 39.6952 90.0148 39.0867 90.0148C38.4782 90.0148 37.9834 89.52 37.9834 88.9115C37.9834 88.303 38.4782 87.808 39.0867 87.808C39.6952 87.808 40.1899 88.303 40.1899 88.9115Z" fill="#CCCDD0"/>
<path d="M37.528 66.18C38.4458 67.5715 40.6593 67.0747 40.9368 65.4472C41.2198 63.7877 39.2465 62.643 37.9333 63.6605C37.1643 64.2562 36.9973 65.3732 37.528 66.18V66.18Z" fill="#CCCDD0"/>
<path d="M40.6458 111.645C39.7548 110.26 37.5693 110.735 37.248 112.317C37.0808 113.141 37.5115 114.001 38.264 114.368C38.951 114.704 39.7973 114.58 40.3595 114.061C41.0268 113.446 41.1543 112.4 40.6458 111.645Z" fill="#CCCDD0"/>
<path d="M25.6405 69.365C26.586 70.7467 28.8012 70.268 29.0545 68.5992C29.3092 66.9205 27.2682 65.7975 25.9825 66.8975C25.2672 67.509 25.1255 68.5812 25.6405 69.365V69.365Z" fill="#CCCDD0"/>
<path d="M50.608 107.662C49.7715 107.819 49.145 108.564 49.1003 109.408C49.0598 110.175 49.5193 110.909 50.2205 111.216C51.75 111.887 53.3598 110.277 52.689 108.748C52.3418 107.955 51.4583 107.491 50.608 107.662V107.662Z" fill="#CCCDD0"/>
<path d="M20.2307 76.3075C19.932 75.6012 19.223 75.1315 18.4525 75.1512C17.685 75.1707 16.9935 75.671 16.735 76.3932C16.471 77.1307 16.7047 77.9762 17.3095 78.474C17.9392 78.9922 18.8597 79.0355 19.5382 78.5852C20.2705 78.0987 20.5732 77.1205 20.2307 76.3075V76.3075Z" fill="#CCCDD0"/>
<path d="M57.8355 101.165C58.012 102.015 58.7583 102.65 59.6293 102.671C60.3463 102.689 61.0275 102.281 61.3483 101.64C61.6938 100.95 61.579 100.097 61.0545 99.5287C60.5048 98.9327 59.6073 98.7597 58.8743 99.1042C58.0975 99.469 57.682 100.328 57.8355 101.165Z" fill="#CCCDD0"/>
<path d="M17.1506 88.545C16.8496 86.937 14.6521 86.5195 13.7556 87.87C13.3126 88.5372 13.3431 89.4292 13.8336 90.0622C14.3444 90.7212 15.2611 90.9617 16.0306 90.6425C16.8451 90.3045 17.3266 89.411 17.1506 88.545V88.545Z" fill="#CCCDD0"/>
<path d="M61.1281 88.195C60.8211 88.9208 61.0286 89.7913 61.6141 90.3133C62.2076 90.8425 63.0931 90.9308 63.7828 90.5413C65.2071 89.7373 64.9318 87.5438 63.3593 87.1055C62.4601 86.8548 61.4838 87.3313 61.1281 88.195Z" fill="#CCCDD0"/>
<path d="M28.7581 108.46C27.8733 107.082 25.6731 107.547 25.3606 109.133C25.2053 109.921 25.5826 110.733 26.2773 111.13C26.9523 111.514 27.8196 111.433 28.4116 110.931C29.1256 110.325 29.2848 109.239 28.7581 108.46Z" fill="#CCCDD0"/>
<path d="M52.298 66.9975C51.1015 65.8012 48.9745 66.7635 49.104 68.461C49.1673 69.2897 49.7888 70.003 50.6083 70.1625C51.3313 70.3032 52.0895 69.999 52.5118 69.3952C53.0258 68.6602 52.9308 67.6297 52.298 66.9975V66.9975Z" fill="#CCCDD0"/>
<path d="M20.2308 100.08C19.9258 99.3587 19.1923 98.8885 18.4066 98.9265C17.6223 98.9645 16.9341 99.505 16.7061 100.254C16.4803 100.997 16.7488 101.824 17.3678 102.292C18.0291 102.792 18.9686 102.792 19.6296 102.292C20.3018 101.783 20.5516 100.859 20.2308 100.08V100.08Z" fill="#CCCDD0"/>
<path d="M61.4057 76.3075C60.794 74.783 58.5687 74.8122 57.943 76.3075C57.6242 77.0692 57.8632 77.9877 58.5137 78.4967C59.12 78.9712 59.972 79.0277 60.6332 78.635C61.42 78.1677 61.7625 77.1542 61.4057 76.3075Z" fill="#CCCDD0"/>
<path d="M69.6074 88.9125C69.6074 72.0823 55.9162 58.39 39.0874 58.39C22.2574 58.39 8.56494 72.0823 8.56494 88.9125C8.56494 95.7538 10.7752 102.216 14.9562 107.6C15.5917 108.418 16.7694 108.566 17.5872 107.931C18.4049 107.296 18.5529 106.118 17.9179 105.3C14.2524 100.58 12.3149 94.913 12.3149 88.9125C12.3149 74.1503 24.3249 62.14 39.0874 62.14C53.8484 62.14 65.8574 74.1503 65.8574 88.9125C65.8574 103.674 53.8484 115.683 39.0874 115.683C33.4827 115.683 28.1152 113.969 23.5652 110.728C22.7217 110.127 21.5504 110.324 20.9502 111.167C20.3494 112.011 20.5459 113.182 21.3894 113.782C26.5784 117.479 32.6982 119.433 39.0874 119.433C55.9164 119.433 69.6074 105.741 69.6074 88.9125V88.9125Z" fill="#CCCDD0"/>
<path d="M127.545 49.5667C127.544 41.415 124.371 33.7545 118.611 27.9967L99.5505 8.93375C93.787 3.17275 86.1255 0 77.9775 0H33.8027C27.2725 0 21.96 5.3135 21.96 11.845V53.7825C8.9685 60.142 0 73.4982 0 88.9115C0 110.424 17.4702 127.932 38.9685 127.997C39.0102 127.999 39.0502 128 39.087 128H115.702C122.232 128 127.545 122.686 127.545 116.155V49.57V49.5675C127.545 49.5673 127.545 49.567 127.545 49.5667V49.5667ZM3.75 88.9115C3.75 69.4267 19.602 53.5747 39.087 53.5747C58.572 53.5747 74.424 69.4267 74.424 88.9115C74.424 108.396 58.572 124.248 39.087 124.248C19.602 124.248 3.75 108.396 3.75 88.9115ZM123.795 116.155C123.795 120.618 120.165 124.25 115.702 124.25H55.7777C69.004 117.978 78.1738 104.496 78.1738 88.9115C78.1738 67.359 60.6392 49.8247 39.0868 49.8247C34.3903 49.8247 29.885 50.658 25.71 52.1833V11.845C25.71 7.3815 29.3402 3.75 33.8025 3.75H73.76C81.5913 3.75 87.9627 10.1212 87.9627 17.9525V27.7375C87.9627 32.3835 90.6988 36.6215 94.9335 38.5337C95.8783 38.9602 96.9883 38.54 97.414 37.5965C97.8403 36.6528 97.4207 35.5423 96.477 35.116C93.583 33.809 91.7127 30.9127 91.7127 27.7375V17.9525C91.7127 12.908 89.6217 8.34325 86.2605 5.07875C90.2405 6.38 93.9137 8.60175 96.8992 11.5855L115.96 30.6485C119.005 33.6928 121.226 37.3433 122.51 41.3298C119.243 37.9425 114.659 35.8325 109.592 35.8325H104.003C102.967 35.8325 102.128 36.672 102.128 37.7075C102.128 38.743 102.967 39.5825 104.003 39.5825H109.592C117.423 39.5825 123.795 45.9537 123.795 53.785V116.155Z" fill="#CCCDD0"/>
</svg>
