<svg width="180" height="60" viewBox="0 0 180 60" fill="none" xmlns="http://www.w3.org/2000/svg">
<path fill-rule="evenodd" clip-rule="evenodd" d="M165.202 -5.79297e-05H14.302C13.752 -5.79297e-05 13.2085 -5.79296e-05 12.6599 0.00294207C12.296 0.00531925 11.9344 0.0112848 11.5693 0.0173087L11.2815 0.0219921C10.2743 0.0338448 9.26941 0.122456 8.27565 0.287057C7.28329 0.455241 6.32201 0.772316 5.42433 1.22756C4.52775 1.68665 3.70852 2.28319 2.99636 2.99555C2.28045 3.7059 1.68369 4.52697 1.22903 5.42718C0.7731 6.32561 0.456961 7.28835 0.291525 8.28216C0.124516 9.27472 0.0346476 10.2787 0.022725 11.2852C0.0132672 11.5976 0.00955677 11.9108 0.00584916 12.2238C0.00409992 12.3714 0.0023513 12.519 0 12.6665V47.3378C0.00232357 47.4854 0.00405859 47.6315 0.00578727 47.777L0.00578765 47.777C0.00951591 48.091 0.0132149 48.4024 0.022725 48.7207C0.0346512 49.7271 0.12452 50.731 0.291525 51.7235C0.456504 52.7179 0.772662 53.6812 1.22903 54.58C1.68349 55.4773 2.28033 56.295 2.99636 57.0014C3.70582 57.717 4.52558 58.3139 5.42433 58.7695C6.322 59.226 7.28318 59.5449 8.27565 59.7157C9.26958 59.879 10.2743 59.9676 11.2815 59.9809C11.7451 59.9911 12.2007 59.9969 12.6599 59.9969C13.2085 59.9999 13.752 59.9999 14.302 59.9999H165.202C165.741 59.9999 166.289 59.9999 166.828 59.9969C167.285 59.9969 167.754 59.9911 168.211 59.9809C169.216 59.9683 170.219 59.8797 171.211 59.7157C172.207 59.5437 173.171 59.2248 174.073 58.7695C174.971 58.3136 175.79 57.7167 176.499 57.0014C177.213 56.2923 177.811 55.4751 178.271 54.58C178.724 53.6806 179.038 52.7174 179.2 51.7235C179.367 50.7309 179.46 49.7272 179.479 48.7207C179.484 48.2548 179.484 47.8036 179.484 47.3378C179.496 46.7929 179.496 46.2509 179.496 45.6971V14.3041C179.496 13.7548 179.496 13.2099 179.484 12.6665C179.484 12.2065 179.484 11.7451 179.479 11.2851C179.46 10.2786 179.367 9.2748 179.2 8.2821C179.037 7.28887 178.724 6.3262 178.271 5.42712C177.346 3.62274 175.877 2.15398 174.073 1.22742C173.171 0.773293 172.207 0.456303 171.211 0.286922C170.219 0.121596 169.216 0.0329537 168.211 0.0217821L167.958 0.0176441C167.582 0.0114301 167.201 0.00513467 166.828 0.00274707C166.289 -0.00025293 165.741 -0.00025293 165.202 -0.00025293V-5.79297e-05ZM12.6672 58.6874C12.2102 58.6874 11.7642 58.6816 11.3108 58.6714C10.3715 58.6592 9.43435 58.5774 8.5071 58.4267C7.64249 58.2778 6.80491 58.0008 6.02199 57.6049C5.24625 57.2122 4.53872 56.6974 3.92649 56.08C3.3054 55.4699 2.78832 54.7623 2.39573 53.9852C1.99881 53.2031 1.72412 52.3648 1.58123 51.4994C1.42691 50.5696 1.34342 49.6294 1.33148 48.6869C1.32196 48.3706 1.30951 47.3173 1.30951 47.3173V12.6665C1.30951 12.6665 1.32278 11.6293 1.33155 11.3246C1.34299 10.3837 1.42599 9.44492 1.57984 8.51654C1.723 7.64882 1.99791 6.80807 2.39504 6.02339C2.78618 5.24686 3.3004 4.53873 3.91775 3.92646C4.5344 3.30837 5.2442 2.79085 6.02126 2.39276C6.80237 1.99808 7.63837 1.72304 8.50124 1.57685C9.43153 1.4247 10.3719 1.34244 11.3145 1.33076L12.668 1.31244H166.821L168.19 1.33149C169.124 1.34259 170.056 1.42412 170.978 1.57538C171.85 1.7234 172.694 2.00037 173.484 2.39715C175.041 3.19942 176.308 4.46869 177.107 6.02705C177.498 6.80631 177.768 7.6402 177.91 8.50043C178.065 9.43643 178.153 10.3825 178.17 11.3312C178.175 11.756 178.175 12.2123 178.175 12.6665C178.187 13.229 178.187 13.7643 178.187 14.3041V45.6971C178.187 46.2421 178.187 46.7738 178.175 47.3099V47.3137C178.175 47.8001 178.175 48.2458 178.169 48.7045C178.151 49.6363 178.066 50.5655 177.913 51.4847C177.773 52.3563 177.499 53.2012 177.103 53.9897C176.707 54.7584 176.193 55.4598 175.579 56.0683C174.966 56.689 174.258 57.2069 173.48 57.602C172.692 58.001 171.849 58.2791 170.978 58.4267C170.051 58.5782 169.114 58.66 168.174 58.6714C167.735 58.6816 167.275 58.6874 166.828 58.6874L165.202 58.6904L12.6672 58.6874ZM33.2342 17.2152C34.5 15.6955 35.1237 13.7423 34.9727 11.7703C33.0387 11.9734 31.2523 12.8977 29.9693 14.3591C28.7025 15.8008 28.0607 17.6871 28.1853 19.6023C30.1452 19.6225 32.0061 18.7426 33.2342 17.2152ZM37.4951 29.834C37.5292 27.1877 38.9165 24.7434 41.1709 23.3574C39.7422 21.317 37.435 20.0697 34.9454 19.9918C33.3431 19.8236 31.7708 20.4476 30.4859 20.9576C29.6701 21.2813 28.9702 21.5591 28.4519 21.5591C27.8622 21.5591 27.1422 21.2699 26.3354 20.9459C25.2804 20.5221 24.0771 20.0388 22.8231 20.0646C19.9114 20.1587 17.2627 21.774 15.8461 24.3196C12.8294 29.5426 15.0796 37.2187 17.9694 41.4406C19.4152 43.508 21.1049 45.8172 23.3159 45.7354C24.3189 45.6938 25.0306 45.3942 25.7657 45.0849C26.6163 44.7269 27.4983 44.3557 28.8992 44.3557C30.2202 44.3557 31.0644 44.7153 31.8745 45.0604C32.6511 45.3913 33.3965 45.7088 34.5006 45.6833C36.8223 45.6456 38.285 43.6068 39.6801 41.5199C40.719 40.0468 41.5183 38.4188 42.0486 36.696C39.2912 35.5298 37.4983 32.8279 37.4951 29.834ZM112.017 43.6141C109.565 43.6141 107.771 42.4013 107.564 40.5541L104.711 40.554C104.891 43.9231 107.68 46.0545 111.811 46.0545C116.226 46.0545 119 43.8719 119 40.387C119 37.6625 117.414 36.1273 113.592 35.2234L111.54 34.7195C109.139 34.1263 108.157 33.3514 108.157 32.0345C108.157 30.3822 109.694 29.2469 111.94 29.2469C114.185 29.2469 115.722 30.369 115.89 32.2279H118.704C118.614 29.014 115.915 26.8065 111.978 26.8065C108.002 26.8065 105.201 29.014 105.201 32.2279C105.201 34.8236 106.789 36.4232 110.21 37.2494L112.624 37.8309C115.038 38.4242 116.057 39.2899 116.057 40.7357C116.057 42.4013 114.367 43.6141 112.017 43.6141ZM63.4527 40.7094H56.3526L54.6475 45.7441H51.6402L58.3653 27.1171H61.4898L68.2149 45.7441H65.1563L63.4527 40.7094ZM57.0879 38.3862H62.7159L59.9415 30.2153H59.8638L57.0879 38.3862ZM82.7388 38.9545C82.7388 43.1748 80.48 45.8862 77.0713 45.8862C75.3094 45.9783 73.6498 45.0555 72.7984 43.5102H72.7339V50.2367H69.9463V32.1635H72.6445V34.4223H72.6958C73.585 32.8867 75.2464 31.9642 77.02 32.0214C80.4668 32.0214 82.7388 34.746 82.7388 38.9545ZM79.8736 38.9545C79.8736 36.205 78.4527 34.3974 76.2847 34.3974C74.1548 34.3974 72.7222 36.2431 72.7222 38.9545C72.7222 41.6909 74.1548 43.5234 76.2847 43.5234C78.4527 43.5234 79.8735 41.729 79.8735 38.9545H79.8736ZM92.0186 45.8862C95.4273 45.8862 97.6868 43.1748 97.6868 38.9545C97.6868 34.746 95.4141 32.0214 91.9673 32.0214C90.1937 31.9642 88.5323 32.8867 87.6431 34.4223H87.5918V32.1635H84.8935V50.2367H87.6811V43.5102H87.7456C88.597 45.0555 90.2567 45.9783 92.0186 45.8862ZM91.232 34.3974C93.3999 34.3974 94.8208 36.205 94.8208 38.9545C94.8208 41.729 93.3999 43.5234 91.232 43.5234C89.1021 43.5234 87.6695 41.6909 87.6695 38.9545C87.6695 36.2431 89.1021 34.3974 91.232 34.3974ZM125.019 28.9496V32.1635H127.602V34.371H125.019V41.8578C125.019 43.0209 125.536 43.5629 126.672 43.5629C126.978 43.5576 127.284 43.536 127.589 43.4984V45.6928C127.078 45.7881 126.559 45.8313 126.04 45.8217C123.291 45.8217 122.219 44.789 122.219 42.1552V34.371H120.244V32.1635H122.219V28.9496H125.019ZM129.096 38.9545C129.096 34.6816 131.613 31.9965 135.537 31.9965C139.474 31.9965 141.979 34.6815 141.979 38.9545C141.979 43.2392 139.488 45.9125 135.537 45.9125C131.588 45.9125 129.096 43.2392 129.096 38.9545ZM139.139 38.9545C139.139 36.0234 137.796 34.2934 135.537 34.2934C133.278 34.2934 131.935 36.0366 131.935 38.9545C131.935 41.8974 133.278 43.6142 135.537 43.6142C137.796 43.6142 139.139 41.8974 139.139 38.9545ZM144.278 32.1635H146.936V34.475H147.001C147.372 32.987 148.735 31.9629 150.267 32.0214C150.589 32.0203 150.909 32.0552 151.222 32.1254V34.7328C150.817 34.6089 150.394 34.552 149.97 34.5644C149.15 34.5311 148.357 34.8577 147.799 35.4585C147.24 36.0592 146.972 36.8739 147.065 37.6889V45.7441H144.278L144.278 32.1635ZM164.075 41.7553C163.7 44.2206 161.299 45.9125 158.227 45.9125C154.277 45.9125 151.824 43.2655 151.824 39.019C151.824 34.7592 154.29 31.9965 158.11 31.9965C161.867 31.9965 164.23 34.5776 164.23 38.6952V39.6503H154.638V39.8188C154.549 40.8298 154.898 41.8306 155.597 42.5666C156.296 43.3026 157.277 43.7028 158.292 43.6655C159.645 43.7922 160.92 43.0154 161.428 41.7553L164.075 41.7553ZM154.652 37.7021L161.441 37.7021C161.492 36.7936 161.161 35.9052 160.529 35.2509C159.896 34.5966 159.02 34.2358 158.11 34.2553C157.193 34.2498 156.312 34.6108 155.663 35.2581C155.013 35.9053 154.649 36.7852 154.652 37.7021ZM88.6407 12.6554H89.9737V22.0466H88.6407V12.6554ZM56.7393 13.0964C57.9227 13.0115 59.0818 13.4618 59.8976 14.3232C60.7134 15.1847 61.0999 16.3667 60.9507 17.5437C60.9507 20.4031 59.4053 22.0467 56.7393 22.0467H53.5064V13.0964H56.7393ZM54.8965 20.7809H56.584C57.4297 20.8315 58.2532 20.4983 58.8258 19.8738C59.3984 19.2494 59.6592 18.4001 59.5357 17.5619C59.6502 16.7272 59.3857 15.885 58.8145 15.2656C58.2433 14.6463 57.4252 14.3146 56.584 14.3613H54.8965V20.7809ZM62.521 18.6665C62.4052 17.4558 62.9857 16.2841 64.0191 15.6428C65.0525 15.0016 66.3601 15.0016 67.3935 15.6428C68.4269 16.2841 69.0074 17.4558 68.8916 18.6665C69.0096 19.8784 68.4296 21.0524 67.3953 21.695C66.361 22.3377 65.0516 22.3377 64.0173 21.695C62.983 21.0524 62.403 19.8784 62.521 18.6665ZM67.5205 18.6665C67.5205 17.2023 66.8628 16.3461 65.7085 16.3461C64.5498 16.3461 63.898 17.2023 63.898 18.6665C63.898 20.1423 64.5499 20.9919 65.7085 20.9919C66.8628 20.9919 67.5205 20.1364 67.5205 18.6665ZM77.3599 22.0466H75.9771L74.5811 17.072H74.4756L73.0855 22.0466H71.7159L69.854 15.2922H71.2061L72.4161 20.4462H72.5157L73.9043 15.2922H75.1832L76.5718 20.4462H76.6773L77.8814 15.2922H79.2144L77.3599 22.0466ZM82.0635 15.2922H80.7803L80.7803 22.0466H82.1133V18.0951C82.0655 17.6456 82.2163 17.1977 82.5263 16.8687C82.8363 16.5397 83.2745 16.3625 83.7261 16.3835C84.7119 16.3835 85.1836 16.9233 85.1836 18.0087V22.0465H86.5166V17.674C86.6143 17.0136 86.4064 16.3446 85.9516 15.8558C85.4968 15.3671 84.8445 15.1117 84.1787 15.1618C83.319 15.0919 82.5095 15.5752 82.1631 16.3652H82.0635V15.2922ZM91.8267 18.6665C91.711 17.4557 92.2916 16.284 93.325 15.6427C94.3585 15.0014 95.6662 15.0014 96.6997 15.6427C97.7331 16.284 98.3138 17.4557 98.198 18.6665C98.3159 19.8785 97.7358 21.0524 96.7014 21.695C95.6671 22.3376 94.3576 22.3376 93.3233 21.695C92.2889 21.0524 91.7088 19.8785 91.8267 18.6665ZM96.8262 18.6665C96.8262 17.2023 96.1685 16.3461 95.0142 16.3461C93.8555 16.3461 93.2037 17.2023 93.2037 18.6665C93.2037 20.1423 93.8555 20.9919 95.0142 20.9919C96.1685 20.9919 96.8262 20.1364 96.8262 18.6665ZM102.114 18.1201C100.507 18.2197 99.6013 18.9206 99.6013 20.1364C99.6036 20.7129 99.8496 21.2615 100.279 21.6467C100.708 22.0318 101.279 22.2175 101.853 22.1579C102.671 22.1957 103.446 21.7906 103.882 21.0974H103.987V22.0466H105.27V17.4316C105.27 16.0048 104.315 15.1618 102.622 15.1618C101.09 15.1618 99.9983 15.906 99.8621 17.0661H101.153C101.301 16.5886 101.816 16.3154 102.56 16.3154C103.471 16.3154 103.943 16.7182 103.943 17.4316V18.0146L102.114 18.1201ZM103.943 18.9946V19.5593C103.914 19.9898 103.711 20.39 103.382 20.6683C103.052 20.9467 102.623 21.0793 102.194 21.0358C101.469 21.0358 100.942 20.6821 100.942 20.0742C100.942 19.4787 101.364 19.1623 102.294 19.1L103.943 18.9946ZM107.022 18.6665C107.022 16.5322 108.119 15.1801 109.826 15.1801C110.688 15.1404 111.495 15.6022 111.897 16.3651H111.997V12.6554H113.33V22.0466H112.053V20.9794H111.947C111.514 21.736 110.697 22.19 109.826 22.1579C108.108 22.1579 107.022 20.8059 107.022 18.6665ZM108.399 18.6665C108.399 20.0991 109.075 20.9611 110.204 20.9611C111.327 20.9611 112.022 20.0866 112.022 18.6723C112.022 17.2646 111.32 16.3776 110.204 16.3776C109.082 16.3776 108.399 17.2455 108.399 18.6665ZM120.343 15.6428C119.31 16.2841 118.729 17.4558 118.845 18.6665C118.727 19.8784 119.307 21.0524 120.341 21.695C121.376 22.3377 122.685 22.3377 123.719 21.695C124.754 21.0524 125.334 19.8784 125.216 18.6665C125.331 17.4558 124.751 16.2841 123.717 15.6428C122.684 15.0016 121.377 15.0016 120.343 15.6428ZM122.032 16.3461C123.187 16.3461 123.844 17.2023 123.844 18.6665C123.844 20.1364 123.187 20.9919 122.032 20.9919C120.874 20.9919 120.222 20.1423 120.222 18.6665C120.222 17.2023 120.874 16.3461 122.032 16.3461ZM128.287 15.2922H127.004V22.0466H128.337V18.0951C128.289 17.6456 128.44 17.1977 128.75 16.8687C129.06 16.5397 129.498 16.3625 129.95 16.3835C130.936 16.3835 131.408 16.9233 131.408 18.0087V22.0465H132.741V17.674C132.838 17.0136 132.63 16.3446 132.176 15.8558C131.721 15.3671 131.068 15.1117 130.403 15.1618C129.543 15.0919 128.733 15.5752 128.387 16.3652H128.287V15.2922ZM140.273 13.6105V15.3229H141.736V16.4457H140.273V19.9189C140.273 20.6264 140.564 20.9362 141.228 20.9362C141.398 20.9357 141.567 20.9254 141.736 20.9055V22.0158C141.497 22.0586 141.254 22.0814 141.011 22.0839C139.529 22.0839 138.938 21.5624 138.938 20.2602V16.4457H137.866V15.3229H138.938V13.6105H140.273ZM144.878 12.6554H143.557L143.557 22.0465H144.89V18.1017C144.849 17.6382 145.014 17.1802 145.342 16.85C145.67 16.5199 146.127 16.3513 146.591 16.3893C147.533 16.3893 148.035 16.9357 148.035 18.0146V22.0466H149.369V17.6857C149.458 17.0287 149.248 16.3665 148.798 15.8796C148.349 15.3926 147.705 15.1316 147.043 15.1677C146.17 15.0968 145.347 15.5807 144.984 16.3776H144.878V12.6554ZM154.215 22.1769C155.535 22.3201 156.768 21.4969 157.142 20.2228L155.859 20.2228C155.539 20.7964 154.904 21.1199 154.252 21.0416C153.749 21.0472 153.267 20.8404 152.924 20.472C152.582 20.1036 152.411 19.6079 152.453 19.1066V19.0319H157.222V18.5668C157.222 16.4458 156.089 15.1618 154.209 15.1618C153.306 15.1541 152.444 15.5386 151.847 16.2156C151.249 16.8926 150.975 17.7956 151.095 18.6906C150.972 19.5831 151.247 20.4847 151.848 21.156C152.449 21.8274 153.314 22.2007 154.215 22.1769ZM155.864 18.0461H152.453C152.447 17.5803 152.629 17.1319 152.958 16.8024C153.288 16.473 153.736 16.2905 154.202 16.2963C154.661 16.2858 155.104 16.4698 155.421 16.803C155.737 17.1362 155.898 17.5877 155.864 18.0461Z" fill="white"/>
</svg>
