<svg width="90" height="120" viewBox="0 0 90 120" fill="none" xmlns="http://www.w3.org/2000/svg">
<g opacity="0.7">
<path fill-rule="evenodd" clip-rule="evenodd" d="M84.8008 11.7252V9.40612C84.8008 4.21966 80.581 0 75.3946 0H14.4379C9.2514 0 5.03174 4.21966 5.03174 9.40612V11.7252C2.2284 11.8991 0 14.2337 0 17.081V24.4656C0 27.312 2.22748 29.6466 5.03082 29.8206V30.3048C2.22748 30.4798 0 32.8144 0 35.6608V43.0454C0 45.8918 2.22748 48.2264 5.03082 48.4012L5.03174 110.595C5.03174 115.781 9.2514 120 14.4379 120H75.3946C80.581 120 84.8008 115.78 84.8008 110.595V37.0038C87.604 36.8298 89.8316 34.4952 89.8316 31.6488V17.081C89.8316 14.2346 87.604 11.9 84.8008 11.7252ZM8.59588 15.2783H81.2366V100.183H8.59588V15.2783ZM75.3946 3.56414H14.4379C11.217 3.56414 8.59588 6.1853 8.59588 9.40612V11.7133H81.2366V9.40612C81.2366 6.1853 78.6164 3.56414 75.3946 3.56414ZM3.56414 24.4656V17.081C3.56414 16.2021 4.19678 15.4669 5.03082 15.3094V26.2362C4.19678 26.0788 3.56414 25.3446 3.56414 24.4656ZM3.56414 35.6608V43.0454C3.56414 43.9242 4.19678 44.6586 5.03082 44.816V33.8892C4.19678 34.0476 3.56414 34.7818 3.56414 35.6608ZM75.3946 116.436H14.4379C11.217 116.436 8.5968 113.815 8.5968 110.594V103.748H81.2366V110.594C81.2366 113.815 78.6164 116.436 75.3946 116.436ZM84.8008 33.4204C85.6348 33.262 86.2674 32.5278 86.2674 31.6488V17.081C86.2674 16.2021 85.6348 15.4678 84.8008 15.3094V33.4204ZM50.7998 9.6103H39.0326C38.0484 9.6103 37.25 8.81288 37.25 7.82868C37.25 6.84448 38.0484 6.04614 39.0326 6.04614H50.7998C51.784 6.04614 52.5814 6.84448 52.5814 7.82868C52.5814 8.81288 51.784 9.6103 50.7998 9.6103ZM39.0326 107.824H50.7998C51.784 107.824 52.5814 108.622 52.5814 109.606C52.5814 110.59 51.784 111.389 50.7998 111.389H39.0326C38.0484 111.389 37.25 110.59 37.25 109.606C37.25 108.622 38.0484 107.824 39.0326 107.824ZM63.4846 35.0402C64.5686 36.8464 65.3716 38.7818 65.8778 40.8108C72.5988 41.4396 77.8776 47.1132 77.8776 53.9962C77.8776 61.2994 71.936 67.2412 64.6328 67.2412H56.2612V72.7278H62.6194C63.329 72.7278 63.9718 73.1482 64.2538 73.799C64.5366 74.45 64.4066 75.2062 63.9232 75.7254L46.2196 94.7024C45.8826 95.064 45.4112 95.2692 44.9168 95.2692C44.4224 95.2692 43.951 95.064 43.614 94.7024L38.3524 89.0636C37.6814 88.344 37.7208 87.2162 38.4404 86.5442C39.16 85.873 40.287 85.9124 40.959 86.632L44.9168 90.8736L58.5198 76.292H54.4786C53.4944 76.292 52.697 75.4946 52.697 74.5104V59.6038H37.1348V74.5104C37.1348 75.4946 36.3364 76.292 35.3522 76.292H31.3112L36.102 81.4282C36.7732 82.1478 36.7348 83.2756 36.0142 83.9468C35.2956 84.6188 34.1676 84.5794 33.4956 83.8598L25.9086 75.7254C25.4242 75.2062 25.2942 74.45 25.5772 73.799C25.86 73.1482 26.5018 72.7278 27.2114 72.7278H33.5706V67.2412H27.91C19.1117 67.2412 11.9541 60.0826 11.9541 51.2844C11.9541 42.8652 18.5212 35.9392 26.804 35.3688C30.5998 28.765 37.5706 24.7066 45.2428 24.7066C50.0602 24.7066 54.6022 26.2776 58.376 29.2494C59.1496 29.8582 59.2824 30.9788 58.6736 31.7516C58.0648 32.5252 56.9442 32.658 56.1704 32.049C53.0312 29.5772 49.2528 28.2706 45.2428 28.2706C38.5612 28.2706 32.5168 31.9694 29.471 37.924C29.166 38.5182 28.5554 38.8936 27.887 38.8944C21.0664 38.9074 15.5183 44.4654 15.5183 51.2844C15.5183 58.117 21.0774 63.676 27.91 63.676H33.5706V57.8212C33.5706 56.837 34.368 56.0386 35.3522 56.0386H54.4786C55.4628 56.0386 56.2612 56.837 56.2612 57.8212V63.676H64.6328C69.9702 63.676 74.3136 59.3336 74.3136 53.9952C74.3136 48.6586 69.9702 44.3172 64.6328 44.3172L64.5906 44.318C64.5356 44.3208 64.4808 44.3218 64.4258 44.3218C63.5624 44.3218 62.8228 43.7028 62.6716 42.8532C62.2926 40.7348 61.5382 38.7232 60.4286 36.8748C59.9224 36.0308 60.196 34.9358 61.0392 34.4294C61.8834 33.9222 62.9784 34.196 63.4846 35.0402Z" fill="white"/>
</g>
</svg>
