<svg width="140" height="120" viewBox="0 0 140 120" fill="none" xmlns="http://www.w3.org/2000/svg">
<g opacity="0.7">
<path fill-rule="evenodd" clip-rule="evenodd" d="M109.801 11.7252V9.40612C109.801 4.21966 105.581 0 100.395 0H39.4379C34.2514 0 30.0317 4.21966 30.0317 9.40612V11.7252C27.2284 11.8991 25 14.2337 25 17.081V24.4656C25 27.312 27.2275 29.6466 30.0308 29.8206V30.3048C27.2275 30.4798 25 32.8144 25 35.6608V43.0454C25 45.8918 27.2275 48.2264 30.0308 48.4012L30.0317 110.595C30.0317 115.781 34.2514 120 39.4379 120H100.395C105.581 120 109.801 115.78 109.801 110.595V37.0038C112.604 36.8298 114.832 34.4952 114.832 31.6488V17.081C114.832 14.2346 112.604 11.9 109.801 11.7252ZM33.5959 15.2783H106.237V100.183H33.5959V15.2783ZM100.395 3.56414H39.4379C36.217 3.56414 33.5959 6.1853 33.5959 9.40612V11.7133H106.237V9.40612C106.237 6.1853 103.616 3.56414 100.395 3.56414ZM28.5641 24.4656V17.081C28.5641 16.2021 29.1968 15.4669 30.0308 15.3094V26.2362C29.1968 26.0788 28.5641 25.3446 28.5641 24.4656ZM28.5641 35.6608V43.0454C28.5641 43.9242 29.1968 44.6586 30.0308 44.816V33.8892C29.1968 34.0476 28.5641 34.7818 28.5641 35.6608ZM100.395 116.436H39.4379C36.217 116.436 33.5968 113.815 33.5968 110.594V103.748H106.237V110.594C106.237 113.815 103.616 116.436 100.395 116.436ZM109.801 33.4204C110.635 33.262 111.267 32.5278 111.267 31.6488V17.081C111.267 16.2021 110.635 15.4678 109.801 15.3094V33.4204ZM75.7998 9.6103H64.0326C63.0484 9.6103 62.25 8.81288 62.25 7.82868C62.25 6.84448 63.0484 6.04614 64.0326 6.04614H75.7998C76.784 6.04614 77.5814 6.84448 77.5814 7.82868C77.5814 8.81288 76.784 9.6103 75.7998 9.6103ZM64.0326 107.824H75.7998C76.784 107.824 77.5814 108.622 77.5814 109.606C77.5814 110.59 76.784 111.389 75.7998 111.389H64.0326C63.0484 111.389 62.25 110.59 62.25 109.606C62.25 108.622 63.0484 107.824 64.0326 107.824ZM88.4846 35.0402C89.5686 36.8464 90.3716 38.7818 90.8778 40.8108C97.5988 41.4396 102.878 47.1132 102.878 53.9962C102.878 61.2994 96.936 67.2412 89.6328 67.2412H81.2612V72.7278H87.6194C88.329 72.7278 88.9718 73.1482 89.2538 73.799C89.5366 74.45 89.4066 75.2062 88.9232 75.7254L71.2196 94.7024C70.8826 95.064 70.4112 95.2692 69.9168 95.2692C69.4224 95.2692 68.951 95.064 68.614 94.7024L63.3524 89.0636C62.6814 88.344 62.7208 87.2162 63.4404 86.5442C64.16 85.873 65.287 85.9124 65.959 86.632L69.9168 90.8736L83.5198 76.292H79.4786C78.4944 76.292 77.697 75.4946 77.697 74.5104V59.6038H62.1348V74.5104C62.1348 75.4946 61.3364 76.292 60.3522 76.292H56.3112L61.102 81.4282C61.7732 82.1478 61.7348 83.2756 61.0142 83.9468C60.2956 84.6188 59.1676 84.5794 58.4956 83.8598L50.9086 75.7254C50.4242 75.2062 50.2942 74.45 50.5772 73.799C50.86 73.1482 51.5018 72.7278 52.2114 72.7278H58.5706V67.2412H52.91C44.1117 67.2412 36.9541 60.0826 36.9541 51.2844C36.9541 42.8652 43.5212 35.9392 51.804 35.3688C55.5998 28.765 62.5706 24.7066 70.2428 24.7066C75.0602 24.7066 79.6022 26.2776 83.376 29.2494C84.1496 29.8582 84.2824 30.9788 83.6736 31.7516C83.0648 32.5252 81.9442 32.658 81.1704 32.049C78.0312 29.5772 74.2528 28.2706 70.2428 28.2706C63.5612 28.2706 57.5168 31.9694 54.471 37.924C54.166 38.5182 53.5554 38.8936 52.887 38.8944C46.0664 38.9074 40.5183 44.4654 40.5183 51.2844C40.5183 58.117 46.0774 63.676 52.91 63.676H58.5706V57.8212C58.5706 56.837 59.368 56.0386 60.3522 56.0386H79.4786C80.4628 56.0386 81.2612 56.837 81.2612 57.8212V63.676H89.6328C94.9702 63.676 99.3136 59.3336 99.3136 53.9952C99.3136 48.6586 94.9702 44.3172 89.6328 44.3172L89.5906 44.318C89.5356 44.3208 89.4808 44.3218 89.4258 44.3218C88.5624 44.3218 87.8228 43.7028 87.6716 42.8532C87.2926 40.7348 86.5382 38.7232 85.4286 36.8748C84.9224 36.0308 85.196 34.9358 86.0392 34.4294C86.8834 33.9222 87.9784 34.196 88.4846 35.0402Z" fill="#BBBCC1"/>
</g>
</svg>
