<svg width="200" height="60" viewBox="0 0 200 60" fill="none" xmlns="http://www.w3.org/2000/svg">
<path fill-rule="evenodd" clip-rule="evenodd" d="M192.593 0H7.40741C3.33333 0 0 3.33333 0 7.40741V51.8519C0 55.9259 3.33333 59.2593 7.40741 59.2593H192.593C196.667 59.2593 200 55.9259 200 51.8519V7.40741C200 3.33333 196.667 0 192.593 0ZM192.593 1.18519C196.03 1.18519 198.815 3.97037 198.815 7.40741V51.8519C198.815 55.2889 196.03 58.0741 192.593 58.0741H7.40741C3.97037 58.0741 1.18519 55.2889 1.18519 51.8519V7.40741C1.18519 3.97037 3.97037 1.18519 7.40741 1.18519H192.593ZM69.1407 18.1333C69.8815 17.4074 70.2519 16.4148 70.2519 15.1704C70.2519 14.963 70.2222 14.7407 70.1926 14.5185H65.8815V15.5852H69.1111C69.0518 16.3556 68.8 16.963 68.3704 17.3926C67.7037 18.0593 66.8741 18.3852 65.8815 18.3852C64.9482 18.3852 64.1333 18.0444 63.4519 17.3926C62.7704 16.7407 62.4296 15.8815 62.4296 14.8296C62.4296 13.7778 62.7704 12.9185 63.4519 12.2667C64.1333 11.6 64.9482 11.2741 65.8815 11.2741C66.9185 11.2741 67.7185 11.6296 68.3111 12.3259L69.0963 11.5407C68.7407 11.1259 68.2815 10.8 67.7037 10.5481C67.1259 10.2963 66.5185 10.1778 65.8815 10.1778C64.5926 10.1778 63.5111 10.6222 62.6074 11.5111C61.7037 12.4 61.2593 13.4963 61.2593 14.8148C61.2593 16.1185 61.7037 17.2296 62.6074 18.1185C63.5111 19.0074 64.5926 19.4519 65.8815 19.4519C67.2148 19.4519 68.3111 19.0074 69.1407 18.1333ZM73.037 11.4667H77.0815V10.3704H71.8963V19.2593H77.0815V18.163H73.037V15.3481H76.6815V14.2815H73.037V11.4667ZM81.8815 19.2593H80.7556V11.4667H78.2667V10.3704H84.3704V11.4667H81.8815V19.2593ZM89.9407 10.3704H88.8V19.2593H89.9407V10.3704ZM94.9926 19.2593H93.8667V11.4667H91.3778V10.3704H97.4815V11.4667H94.9926V19.2593ZM109.052 18.1037C108.178 19.0074 107.096 19.4519 105.793 19.4519C104.489 19.4519 103.407 19.0074 102.533 18.1037C101.659 17.2 101.23 16.1037 101.23 14.8148C101.23 13.5259 101.659 12.4148 102.533 11.5259C103.407 10.6222 104.489 10.1778 105.793 10.1778C107.081 10.1778 108.163 10.6222 109.052 11.5259C109.926 12.4296 110.37 13.5259 110.37 14.8148C110.356 16.1185 109.926 17.2148 109.052 18.1037ZM103.378 17.363C104.03 18.0296 104.844 18.3556 105.793 18.3556C106.741 18.3556 107.556 18.0296 108.207 17.363C108.859 16.6963 109.2 15.8519 109.2 14.8148C109.2 13.7778 108.874 12.9333 108.207 12.2667C107.556 11.6 106.741 11.2741 105.793 11.2741C104.844 11.2741 104.03 11.6 103.378 12.2667C102.726 12.9333 102.385 13.7778 102.385 14.8148C102.385 15.8519 102.726 16.6963 103.378 17.363ZM111.97 10.3704H113.363L117.689 17.2889H117.733L117.689 15.5704V10.3704H118.83V19.2593H117.644L113.126 12.0148H113.081L113.126 13.7333V19.2593H111.97V10.3704ZM70.7259 34.1778V36.8296H77.1259C76.9333 38.3259 76.4296 39.437 75.6741 40.1926C74.7407 41.1259 73.2889 42.1481 70.7407 42.1481C66.8 42.1481 63.7185 38.9778 63.7185 35.037C63.7185 31.0963 66.8 27.9259 70.7407 27.9259C72.8593 27.9259 74.4148 28.7556 75.5556 29.837L77.437 27.9556C75.837 26.4296 73.7185 25.2593 70.7259 25.2593C65.3333 25.2593 60.8 29.6444 60.8 35.0519C60.8 40.4444 65.3333 44.8444 70.7259 44.8444C73.6444 44.8444 75.837 43.8963 77.5556 42.1037C79.3185 40.3407 79.8667 37.8519 79.8667 35.8519C79.8667 35.2296 79.8222 34.6519 79.7185 34.1778H70.7259ZM87.1407 32.2222C83.6593 32.2222 80.8148 34.8741 80.8148 38.5185C80.8148 42.1481 83.6593 44.8148 87.1407 44.8148C90.6222 44.8148 93.4667 42.1481 93.4667 38.5185C93.4667 34.8741 90.6222 32.2222 87.1407 32.2222ZM94.6222 38.5185C94.6222 34.8741 97.4667 32.2222 100.948 32.2222C104.43 32.2222 107.274 34.8741 107.274 38.5185C107.274 42.1481 104.43 44.8148 100.948 44.8148C97.4667 44.8148 94.6222 42.1481 94.6222 38.5185ZM97.3926 38.5185C97.3926 40.7704 99.037 42.3407 100.948 42.3407C102.844 42.3407 104.504 40.7704 104.504 38.5185C104.504 36.2519 102.859 34.6963 100.948 34.6963C99.037 34.6963 97.3926 36.2519 97.3926 38.5185ZM83.5852 38.5185C83.5852 40.7704 85.2296 42.3407 87.1407 42.3407C89.0518 42.3407 90.6963 40.7704 90.6963 38.5185C90.6963 36.2519 89.0518 34.6963 87.1407 34.6963C85.2296 34.6963 83.5852 36.2519 83.5852 38.5185ZM132.459 32.2222C135.733 32.2222 137.333 34.8296 137.852 36.237L138.148 36.9482L129.719 40.4296C130.356 41.6889 131.363 42.3407 132.77 42.3407C134.178 42.3407 135.156 41.6444 135.867 40.5926L138.015 42.0296C137.333 43.0519 135.659 44.8148 132.77 44.8148C129.185 44.8148 126.519 42.0444 126.519 38.5185C126.519 34.7704 129.215 32.2222 132.459 32.2222ZM129.259 38.3407C129.185 35.9111 131.141 34.6667 132.548 34.6667C133.644 34.6667 134.578 35.2148 134.889 36L129.259 38.3407ZM125.185 44.4444H122.415V25.9259H125.185V44.4444ZM117.867 33.6296H117.778C117.156 32.8889 115.97 32.2222 114.459 32.2222C111.304 32.2222 108.415 34.9926 108.415 38.5481C108.415 42.0741 111.304 44.8296 114.459 44.8296C115.956 44.8296 117.156 44.163 117.778 43.3926H117.867V44.2963C117.867 46.7111 116.578 48 114.504 48C112.815 48 111.763 46.7852 111.333 45.763L108.919 46.7704C109.615 48.4444 111.452 50.4889 114.504 50.4889C117.748 50.4889 120.489 48.5778 120.489 43.9259V32.6074H117.867V33.6296ZM111.185 38.5481C111.185 40.7407 112.785 42.3407 114.696 42.3407C116.593 42.3407 118.074 40.7407 118.059 38.5481C118.059 36.3407 116.578 34.7111 114.696 34.7111C112.785 34.7111 111.185 36.3259 111.185 38.5481ZM150.83 25.9259H144.207V44.4444H146.978V37.4222H150.844C153.911 37.4222 156.919 35.2 156.919 31.6741C156.919 28.1481 153.881 25.9259 150.83 25.9259ZM146.963 34.8444H150.889C152.963 34.8444 154.133 33.1111 154.133 31.6593C154.133 30.2074 152.963 28.4889 150.889 28.4889H146.963V34.8444ZM167.985 32.1926C165.985 32.1926 163.911 33.0815 163.052 35.0222L165.511 36.0444C166.03 35.0222 167.007 34.6815 168.03 34.6815C169.452 34.6815 170.919 35.5407 170.933 37.0667V37.2593C170.43 36.9778 169.363 36.5481 168.044 36.5481C165.393 36.5481 162.711 38 162.711 40.7111C162.711 43.1852 164.874 44.7852 167.304 44.7852C169.156 44.7852 170.193 43.9556 170.83 42.9778H170.919V44.4148H173.585V37.3185C173.6 34.0296 171.141 32.1926 167.985 32.1926ZM165.481 40.7704C165.481 41.8815 166.741 42.3407 167.644 42.3407C169.244 42.3407 170.726 41.1259 170.933 39.4222C170.207 39.0667 169.63 38.8 168.415 38.8C167.052 38.8 165.481 39.3481 165.481 40.7704ZM183.319 32.5926L180.148 40.6222H180.059L176.77 32.5926H173.793L178.726 43.8222L175.911 50.0593H178.8L186.4 32.5926H183.319ZM161.2 44.4444H158.43V25.9259H161.2V44.4444ZM16.0809 48.75C15.4262 48.5668 15 47.8916 15 46.8467V12.3576C15 11.3899 15.3608 10.7373 15.9329 10.5L32.25 29.7203L16.0809 48.75ZM18.75 48L38.25 36.4021L33.5005 30.75L18.75 48ZM18.75 11.25L38.25 22.7139L33.3257 28.5L18.75 11.25ZM39.8848 24L47.6432 28.427C49.1122 29.2652 49.1256 30.6164 47.6432 31.462L39.6885 36L34.5 30.0401L39.8848 24Z" fill="white"/>
</svg>
