<svg width="90" height="120" viewBox="0 0 90 120" fill="none" xmlns="http://www.w3.org/2000/svg">
<g opacity="0.7">
<path fill-rule="evenodd" clip-rule="evenodd" d="M84.8008 9.40612V11.7252C87.604 11.9 89.8316 14.2346 89.8316 17.081V31.6488C89.8316 34.4952 87.604 36.8298 84.8008 37.0038V110.595C84.8008 115.78 80.581 120 75.3946 120H14.4379C9.2514 120 5.03174 115.781 5.03174 110.595L5.03082 48.4012C2.22748 48.2264 0 45.8918 0 43.0454V35.6608C0 32.8144 2.22748 30.4798 5.03082 30.3048V29.8206C2.22748 29.6466 0 27.312 0 24.4656V17.081C0 14.2337 2.2284 11.8991 5.03174 11.7252V9.40612C5.03174 4.21966 9.2514 0 14.4379 0H75.3946C80.581 0 84.8008 4.21966 84.8008 9.40612ZM81.2366 15.2783H8.59588V100.183H81.2366V15.2783ZM14.4379 3.56414H75.3946C78.6164 3.56414 81.2366 6.1853 81.2366 9.40612V11.7133H8.59588V9.40612C8.59588 6.1853 11.217 3.56414 14.4379 3.56414ZM3.56414 17.081V24.4656C3.56414 25.3446 4.19678 26.0788 5.03082 26.2362V15.3094C4.19678 15.4669 3.56414 16.2021 3.56414 17.081ZM3.56414 43.0454V35.6608C3.56414 34.7818 4.19678 34.0476 5.03082 33.8892V44.816C4.19678 44.6586 3.56414 43.9242 3.56414 43.0454ZM14.4379 116.436H75.3946C78.6164 116.436 81.2366 113.815 81.2366 110.594V103.748H8.5968V110.594C8.5968 113.815 11.217 116.436 14.4379 116.436ZM86.2674 31.6488C86.2674 32.5278 85.6348 33.262 84.8008 33.4204V15.3094C85.6348 15.4678 86.2674 16.2021 86.2674 17.081V31.6488ZM39.0326 9.6103H50.7998C51.784 9.6103 52.5814 8.81288 52.5814 7.82868C52.5814 6.84448 51.784 6.04614 50.7998 6.04614H39.0326C38.0484 6.04614 37.25 6.84448 37.25 7.82868C37.25 8.81288 38.0484 9.6103 39.0326 9.6103ZM50.7998 107.824H39.0326C38.0484 107.824 37.25 108.622 37.25 109.606C37.25 110.59 38.0484 111.389 39.0326 111.389H50.7998C51.784 111.389 52.5814 110.59 52.5814 109.606C52.5814 108.622 51.784 107.824 50.7998 107.824Z" fill="white"/>
</g>
</svg>
