<svg width="129" height="117" viewBox="0 0 129 117" fill="none" xmlns="http://www.w3.org/2000/svg">
<rect x="16" y="29" width="96" height="30" fill="#FBE6D3"/>
<path opacity="0.7" d="M55.9001 12H73.1C74 12 74.7 11.3 74.7 10.4C74.7 9.50005 74 8.80005 73.1 8.80005H55.9001C55.0001 8.80005 54.3 9.50005 54.3 10.4C54.3 11.3 55.0001 12 55.9001 12Z" fill="#5E6066"/>
<path d="M112.1 26.1H17.0999C15.5999 26.1 14.3999 27.3 14.3999 28.8V59.2C14.3999 60.7 15.5999 61.9 17.0999 61.9H112.1C113.6 61.9 114.8 60.7 114.8 59.2V28.8C114.8 27.3 113.6 26.1 112.1 26.1ZM111.8 58.8H17.4999V29.1H111.9V58.8H111.8Z" fill="#F2994A"/>
<path d="M97.6 51.4C101.7 51.4 105 48.1 105 44C105 39.9 101.7 36.6 97.6 36.6C93.5 36.6 90.2 39.9 90.2 44C90.2 48.1 93.4 51.4 97.6 51.4ZM95.8 41.8C95.3 41.3 95.3 40.6 95.8 40.1C96.3 39.6 97 39.6 97.5 40.1L100.5 43.1C101 43.6 101 44.3 100.5 44.8L97.5 47.8C97.3 48 97 48.1 96.7 48.1C96.4 48.1 96 48 95.8 47.8C95.3 47.3 95.3 46.6 95.8 46.1L98 44L95.8 41.8Z" fill="#F2994A"/>
<path d="M50.9 45.3H44.7C43.7 45.3 43 46.1 43 47C43 48 43.8 48.7001 44.7 48.7001H59.5H65.7C66.7 48.7001 67.4 47.9 67.4 47C67.4 46 66.6 45.3 65.7 45.3H50.9Z" fill="#F2994A"/>
<path d="M44.7 42.9H59.5H74C75 42.9 75.7 42.1 75.7 41.2C75.7 40.2 74.9 39.5 74 39.5H59.1H44.7C43.7 39.5 43 40.3 43 41.2C43 42.1 43.8 42.9 44.7 42.9Z" fill="#F2994A"/>
<path d="M30.8999 43.8C32.5999 43.8 33.8999 42.2 33.8999 40.2C33.8999 38.2 33.4999 36.6 30.8999 36.6C28.2999 36.6 27.8999 38.2 27.8999 40.2C27.8999 42.2 29.1999 43.8 30.8999 43.8Z" fill="#F2994A"/>
<path d="M30.9 51.4C35.7 51.4 36.6 49.7 36.6 49.7C36.6 49.6 36.6 49.5 36.6 49.4C36.6 49.4 36.6 49.4 36.6 49.2C36.5 45.7 36.1 44.7 32.6 44.1C32.6 44.1 32.1 44.7 31 44.7C29.9 44.7 29.4 44.1 29.4 44.1C25.9 44.7 25.5 45.7 25.4 49.1C25.4 49.4 25.4 49.4 25.4 49.4C25.4 49.5 25.4 49.6 25.4 49.8C25.2 49.7 26 51.4 30.9 51.4Z" fill="#F2994A"/>
<path opacity="0.7" d="M6.4 68.6L7.3 68.7V69.6V117H10.5V21.3V20.3H11.5H117.4H118.4V21.3V117H121.6V53V52L122.5 51.9C126.1 51.7 128.9 48.7 128.9 45.1V23.9C128.9 20.3 126.1 17.3 122.5 17.1L121.6 17V16.1V12.7C121.7 5.7 116 0 109 0H20.1C13 0 7.3 5.7 7.3 12.7V16.1V17L6.4 17.1C2.8 17.3 0 20.3 0 23.9V34.7C0 38.3 2.8 41.3 6.4 41.5L7.3 41.6V42.5V43.2V44.1L6.4 44.2C2.8 44.4 0 47.4 0 51V61.8C0 65.4 2.8 68.4 6.4 68.6ZM121.7 47.7V21.3V20.1L122.9 20.3C124.6 20.6 125.9 22.1 125.9 23.9V45.1C125.9 46.9 124.6 48.3 122.9 48.7L121.7 48.9V47.7ZM10.5 16.1V12.7C10.5 7.5 14.8 3.2 20 3.2H109C114.3 3.2 118.5 7.5 118.5 12.7V16.1V17.1H117.5H11.5H10.5V16.1ZM6.2 38.2C4.5 37.9 3.2 36.4 3.2 34.6V23.9C3.2 22.1 4.5 20.7 6.2 20.3L7.4 20.1V21.3V37.2V38.4L6.2 38.2ZM3.2 51C3.2 49.2 4.5 47.8 6.2 47.4L7.4 47.2V48.4V64.3V65.5L6.2 65.3C4.5 65 3.2 63.5 3.2 61.7V51Z" fill="#5E6066"/>
</svg>
