<svg width="140" height="120" viewBox="0 0 140 120" fill="none" xmlns="http://www.w3.org/2000/svg">
<rect x="20.4102" y="29.7436" width="98.4615" height="30.7692" fill="#FBE6D3"/>
<path opacity="0.7" d="M61.3334 12.3077H78.9744C79.8975 12.3077 80.6155 11.5897 80.6155 10.6667C80.6155 9.74358 79.8975 9.02563 78.9744 9.02563H61.3334C60.4103 9.02563 59.6924 9.74358 59.6924 10.6667C59.6924 11.5897 60.4103 12.3077 61.3334 12.3077Z" fill="#BBBCC1"/>
<path d="M118.974 26.7692H21.5383C19.9998 26.7692 18.769 28 18.769 29.5385V60.7179C18.769 62.2564 19.9998 63.4872 21.5383 63.4872H118.974C120.513 63.4872 121.743 62.2564 121.743 60.7179V29.5385C121.743 28 120.513 26.7692 118.974 26.7692ZM118.666 60.3077H21.9485V29.8461H118.769V60.3077H118.666Z" fill="#F2994A"/>
<path d="M104.102 52.7179C108.308 52.7179 111.692 49.3333 111.692 45.1282C111.692 40.9231 108.308 37.5385 104.102 37.5385C99.8973 37.5385 96.5127 40.9231 96.5127 45.1282C96.5127 49.3333 99.7947 52.7179 104.102 52.7179ZM102.256 42.8718C101.743 42.359 101.743 41.641 102.256 41.1282C102.769 40.6154 103.487 40.6154 104 41.1282L107.077 44.2051C107.59 44.7179 107.59 45.4359 107.077 45.9487L104 49.0256C103.795 49.2308 103.487 49.3333 103.179 49.3333C102.872 49.3333 102.461 49.2308 102.256 49.0256C101.743 48.5128 101.743 47.7949 102.256 47.282L104.513 45.1282L102.256 42.8718Z" fill="#F2994A"/>
<path d="M56.2051 46.4615H49.8461C48.8205 46.4615 48.1025 47.2821 48.1025 48.2051C48.1025 49.2308 48.9231 49.9487 49.8461 49.9487H65.0256H71.3846C72.4102 49.9487 73.1282 49.1282 73.1282 48.2051C73.1282 47.1795 72.3077 46.4615 71.3846 46.4615H56.2051Z" fill="#F2994A"/>
<path d="M49.8461 44H65.0256H79.8974C80.9231 44 81.641 43.1795 81.641 42.2564C81.641 41.2308 80.8205 40.5128 79.8974 40.5128H64.6154H49.8461C48.8205 40.5128 48.1025 41.3333 48.1025 42.2564C48.1025 43.1795 48.9231 44 49.8461 44Z" fill="#F2994A"/>
<path d="M35.6922 44.9231C37.4357 44.9231 38.7691 43.282 38.7691 41.2308C38.7691 39.1795 38.3588 37.5385 35.6922 37.5385C33.0255 37.5385 32.6152 39.1795 32.6152 41.2308C32.6152 43.282 33.9486 44.9231 35.6922 44.9231Z" fill="#F2994A"/>
<path d="M35.6924 52.7179C40.6155 52.7179 41.5385 50.9743 41.5385 50.9743C41.5385 50.8717 41.5385 50.7692 41.5385 50.6666C41.5385 50.6666 41.5385 50.6666 41.5385 50.4615C41.436 46.8717 41.0257 45.8461 37.436 45.2307C37.436 45.2307 36.9231 45.8461 35.7949 45.8461C34.6667 45.8461 34.1539 45.2307 34.1539 45.2307C30.5642 45.8461 30.1539 46.8717 30.0514 50.3589C30.0514 50.6666 30.0514 50.6666 30.0514 50.6666C30.0514 50.7692 30.0514 50.8717 30.0514 51.0769C29.8462 50.9743 30.6667 52.7179 35.6924 52.7179Z" fill="#F2994A"/>
<path opacity="0.7" d="M10.5641 70.359L11.4872 70.4615V71.3846V120H14.7692V21.8462V20.8205H15.7949H124.41H125.436V21.8462V120H128.718V54.359V53.3333L129.641 53.2308C133.333 53.0256 136.205 49.9487 136.205 46.2564V24.5128C136.205 20.8205 133.333 17.7436 129.641 17.5385L128.718 17.4359V16.5128V13.0256C128.821 5.84615 122.974 0 115.795 0H24.6154C17.3333 0 11.4872 5.84615 11.4872 13.0256V16.5128V17.4359L10.5641 17.5385C6.8718 17.7436 4 20.8205 4 24.5128V35.5897C4 39.2821 6.8718 42.359 10.5641 42.5641L11.4872 42.6667V43.5897V44.3077V45.2308L10.5641 45.3333C6.8718 45.5385 4 48.6154 4 52.3077V63.3846C4 67.0769 6.8718 70.1538 10.5641 70.359ZM128.821 48.9231V21.8462V20.6154L130.051 20.8205C131.795 21.1282 133.128 22.6667 133.128 24.5128V46.2564C133.128 48.1026 131.795 49.5385 130.051 49.9487L128.821 50.1539V48.9231ZM14.7692 16.5128V13.0256C14.7692 7.69231 19.1795 3.28205 24.5128 3.28205H115.795C121.231 3.28205 125.538 7.69231 125.538 13.0256V16.5128V17.5385H124.513H15.7949H14.7692V16.5128ZM10.359 39.1795C8.61538 38.8718 7.28205 37.3333 7.28205 35.4872V24.5128C7.28205 22.6667 8.61538 21.2308 10.359 20.8205L11.5897 20.6154V21.8462V38.1538V39.3846L10.359 39.1795ZM7.28205 52.3077C7.28205 50.4615 8.61538 49.0256 10.359 48.6154L11.5897 48.4103V49.641V65.9487V67.1795L10.359 66.9744C8.61538 66.6667 7.28205 65.1282 7.28205 63.2821V52.3077Z" fill="#BBBCC1"/>
</svg>
