<svg width="125" height="120" viewBox="0 0 125 120" fill="none" xmlns="http://www.w3.org/2000/svg">
<g opacity="0.7">
<path fill-rule="evenodd" clip-rule="evenodd" d="M84.4444 0.5H66.8644C62.563 0.5 59.0628 4.00016 59.0628 8.30162C59.0628 11.8116 61.4142 14.8618 64.7308 15.8054L64.9814 15.8722L65.3606 15.9666V22.979L64.9697 23.0664C56.0103 25.0688 47.7863 29.5414 41.1696 36.1582C39.9068 37.4209 38.7203 38.7438 37.6127 40.1219L37.0655 40.8155L36.9009 41.0282L36.5216 41.0009L19.0856 41.0002C18.0135 41.0002 17.144 41.8696 17.144 42.9418C17.144 43.9631 17.9326 44.8003 18.9339 44.8778L19.0856 44.8836H34.2289L33.7771 45.64C32.1672 48.335 30.8278 51.1748 29.7703 54.1223L29.4889 54.9288L29.3738 55.2682H2.44166C1.36944 55.2682 0.5 56.1376 0.5 57.21C0.5 58.2311 1.28863 59.0683 2.28994 59.1458L2.44166 59.1516H28.2623L28.1231 59.7626C27.4914 62.536 27.1023 65.3598 26.9591 68.2005L26.9235 69.0531L26.9075 69.5366H15.6266C14.5543 69.5366 13.6849 70.4059 13.6849 71.4782C13.6849 72.4995 14.4735 73.3365 15.4749 73.414L15.6266 73.4198H26.9703L27.0007 73.8873C27.1867 76.7401 27.6208 79.5712 28.299 82.3467L28.5098 83.1776L28.6747 83.8048H12.2083C11.1361 83.8048 10.2666 84.6742 10.2666 85.7466C10.2666 86.7677 11.0552 87.6049 12.0566 87.6824L12.2083 87.6882H29.9301L30.0523 88.0114C32.4742 94.4185 36.2283 100.261 41.1696 105.203C49.1319 113.165 59.6787 118.159 70.8651 119.264C72.4573 119.422 74.0551 119.5 75.6552 119.5C85.115 119.5 94.4219 116.755 102.299 111.626C103.197 111.041 103.451 109.838 102.866 108.939C102.281 108.041 101.078 107.786 100.179 108.372C82.5095 119.878 58.8492 117.391 43.9154 102.457C26.3936 84.9349 26.3936 56.4263 43.9154 38.9044C61.4369 21.3828 89.9455 21.3828 107.468 38.9044C122.382 53.8187 124.883 77.4589 113.414 95.1201C112.83 96.0195 113.086 97.2222 113.985 97.806C114.885 98.39 116.087 98.1344 116.671 97.2349C122.668 87.9994 125.368 76.8435 124.272 65.8237C123.161 54.649 118.168 44.113 110.214 36.158C103.732 29.6765 95.7091 25.2524 86.9655 23.1924L85.948 22.9624V15.9665L86.3273 15.8722C89.7755 15.0143 92.246 11.8996 92.246 8.30162C92.246 4.08288 88.8792 0.634918 84.6917 0.503864L84.4444 0.5ZM82.0646 16.1035V22.2932L81.5056 22.2267C77.8975 21.7976 74.2502 21.7695 70.637 22.1423L69.8038 22.2354L69.244 22.3028V16.1035H82.0646ZM88.3628 8.30186C88.3628 6.14077 86.6055 4.38356 84.4444 4.38356H66.8644L66.663 4.38867C64.5953 4.49378 62.9462 6.20834 62.9462 8.30186C62.9462 10.4628 64.7035 12.2202 66.8644 12.2202H84.4444L84.6458 12.2151C86.7137 12.11 88.3628 10.3954 88.3628 8.30186ZM108.842 101.887C109.35 101.887 109.851 102.095 110.215 102.457C110.575 102.816 110.783 103.319 110.783 103.828C110.783 104.337 110.575 104.84 110.214 105.201C109.852 105.563 109.352 105.77 108.842 105.77C108.329 105.77 107.829 105.563 107.47 105.202C107.108 104.841 106.9 104.34 106.9 103.828C106.9 103.317 107.108 102.815 107.468 102.457C107.83 102.095 108.331 101.887 108.842 101.887ZM75.6916 33.303C55.0822 33.303 38.3144 50.0707 38.3144 70.6802C38.3144 91.2896 55.0822 108.057 75.6916 108.057C96.301 108.057 113.069 91.2896 113.069 70.6802C113.069 50.0707 96.301 33.303 75.6916 33.303ZM75.6916 37.1862C94.1606 37.1862 109.185 52.2112 109.185 70.6802C109.185 89.1491 94.1606 104.174 75.6916 104.174C57.2226 104.174 42.1978 89.1491 42.1978 70.6802C42.1978 52.2112 57.2226 37.1862 75.6916 37.1862ZM91.6135 52.0223C92.3766 51.3797 93.5174 51.4175 94.2359 52.1358C94.994 52.8941 94.994 54.1235 94.2358 54.8816L81.8888 67.2285L82.0478 67.5501L82.1845 67.8431C82.5742 68.7305 82.7786 69.6911 82.7786 70.68C82.7786 74.5874 79.5989 77.7672 75.6914 77.7672C71.7839 77.7672 68.6042 74.5874 68.6042 70.68C68.6042 69.5809 68.8565 68.5171 69.3349 67.5501L69.4941 67.2285L63.828 61.5624L63.7145 61.439C63.0719 60.6762 63.1097 59.5349 63.828 58.8165C64.5866 58.0584 65.8156 58.0584 66.5741 58.8166L72.2401 64.4828L72.5617 64.3238L72.8547 64.1871C73.7421 63.7974 74.7025 63.593 75.6914 63.593C76.7902 63.593 77.854 63.8454 78.8211 64.3238L79.1427 64.4828L91.49 52.1358L91.6135 52.0223ZM78.8954 70.6802C78.8954 68.9131 77.4585 67.4762 75.6914 67.4762C73.9244 67.4762 72.4876 68.9131 72.4876 70.6802C72.4876 72.4471 73.9245 73.884 75.6914 73.884C77.4585 73.884 78.8954 72.4472 78.8954 70.6802ZM101.798 68.7684H99.5354C98.4632 68.7684 97.5938 69.6377 97.5938 70.71C97.5938 71.7822 98.4633 72.6516 99.5354 72.6516H101.798C102.87 72.6516 103.739 71.7822 103.739 70.71C103.739 69.6377 102.87 68.7684 101.798 68.7684ZM49.5856 68.7088H51.8476C52.9198 68.7088 53.7892 69.5781 53.7892 70.6504C53.7892 71.7226 52.9197 72.592 51.8476 72.592H49.5856C48.5135 72.592 47.644 71.7226 47.644 70.6504C47.644 69.5781 48.5134 68.7088 49.5856 68.7088ZM77.663 44.5742C77.663 43.5019 76.7936 42.6326 75.7214 42.6326C74.6492 42.6326 73.7798 43.5019 73.7798 44.5742V46.836C73.7798 47.9084 74.6492 48.7778 75.7214 48.7778C76.7936 48.7778 77.663 47.9084 77.663 46.836V44.5742ZM75.6618 92.5822C76.7339 92.5822 77.6034 93.4516 77.6034 94.5238V96.7858C77.6034 97.8581 76.734 98.7274 75.6618 98.7274C74.5896 98.7274 73.7202 97.8581 73.7202 96.7858V94.5238C73.7202 93.4516 74.5897 92.5822 75.6618 92.5822ZM3.81393 84.3728C3.45373 84.0124 2.95099 83.804 2.44162 83.804C1.93225 83.804 1.42946 84.0124 1.0689 84.373C0.708435 84.7334 0.5 85.2362 0.5 85.7456C0.5 86.2566 0.70762 86.7571 1.06888 87.1182C1.42969 87.4788 1.93233 87.6872 2.44162 87.6872C2.95099 87.6872 3.45373 87.4788 3.81402 87.1183C4.17472 86.7575 4.38324 86.2548 4.38324 85.7456C4.38324 85.2362 4.17478 84.7334 3.81393 84.3728Z" fill="white"/>
</g>
</svg>
