<svg width="140" height="120" viewBox="0 0 140 120" fill="none" xmlns="http://www.w3.org/2000/svg">
<g opacity="0.7">
<path fill-rule="evenodd" clip-rule="evenodd" d="M91.6498 0H73.9221C69.5845 0 66.0549 3.52957 66.0549 7.86718C66.0549 11.4067 68.4261 14.4825 71.7706 15.434L72.0232 15.5014L72.4056 15.5965V22.6679L72.0114 22.756C62.9767 24.7752 54.6837 29.2855 48.0113 35.9578C46.738 37.2312 45.5415 38.5651 44.4246 39.9548L43.8728 40.6543L43.7068 40.8687L43.3243 40.8412L25.7418 40.8405C24.6606 40.8405 23.7839 41.7173 23.7839 42.7985C23.7839 43.8283 24.5791 44.6726 25.5888 44.7507L25.7418 44.7566H41.0123L40.5567 45.5193C38.9334 48.237 37.5827 51.1006 36.5163 54.0729L36.2325 54.8862L36.1164 55.2284H8.95798C7.87674 55.2284 7 56.1052 7 57.1866C7 58.2163 7.79525 59.0605 8.80498 59.1386L8.95798 59.1445H34.9956L34.8552 59.7607C34.2182 62.5573 33.8259 65.4048 33.6815 68.2694L33.6456 69.1292L33.6295 69.6167H22.2537C21.1724 69.6167 20.2957 70.4933 20.2957 71.5747C20.2957 72.6045 21.0909 73.4486 22.1007 73.5267L22.2537 73.5326H33.6927L33.7234 74.004C33.9109 76.8808 34.3487 79.7356 35.0326 82.5345L35.2451 83.3724L35.4115 84.0048H18.8067C17.7254 84.0048 16.8487 84.8816 16.8487 85.963C16.8487 86.9927 17.6439 87.8369 18.6537 87.915L18.8067 87.9209H36.6774L36.8006 88.2468C39.2429 94.7078 43.0286 100.6 48.0113 105.583C56.0406 113.612 66.676 118.648 77.9564 119.762C79.562 119.921 81.1732 120 82.7868 120C92.3261 120 101.711 117.232 109.654 112.06C110.56 111.47 110.816 110.257 110.226 109.351C109.636 108.444 108.423 108.188 107.517 108.778C89.6986 120.381 65.8396 117.873 50.7803 102.814C33.1112 85.1444 33.1112 56.3963 50.7803 38.7272C68.449 21.0583 97.1971 21.0583 114.866 38.7272C129.906 53.7668 132.428 77.6056 120.863 95.4152C120.274 96.3222 120.532 97.535 121.439 98.1237C122.346 98.7127 123.558 98.4548 124.147 97.5478C130.194 88.2347 132.917 76.985 131.812 65.8726C130.692 54.604 125.657 43.9795 117.636 35.9576C111.099 29.4216 103.009 24.9604 94.1921 22.8831L93.166 22.6512V15.5965L93.5485 15.5014C97.0257 14.6363 99.517 11.4954 99.517 7.86718C99.517 3.61299 96.1219 0.136052 91.8991 0.00389659L91.6498 0ZM89.2499 15.7346V21.9763L88.6862 21.9093C85.0478 21.4766 81.3699 21.4483 77.7262 21.8242L76.8861 21.9181L76.3216 21.9861V15.7346H89.2499ZM95.6012 7.86741C95.6012 5.68816 93.8292 3.91618 91.6499 3.91618H73.9222L73.7191 3.92133C71.634 4.02733 69.971 5.7563 69.971 7.86741C69.971 10.0465 71.7431 11.8187 73.9222 11.8187H91.6499L91.853 11.8135C93.9382 11.7075 95.6012 9.97857 95.6012 7.86741ZM116.252 102.239C116.765 102.239 117.27 102.449 117.637 102.813C118 103.176 118.21 103.683 118.21 104.197C118.21 104.71 118 105.217 117.636 105.581C117.271 105.946 116.767 106.155 116.252 106.155C115.735 106.155 115.231 105.946 114.869 105.582C114.503 105.218 114.294 104.712 114.294 104.197C114.294 103.681 114.503 103.175 114.867 102.814C115.232 102.448 115.737 102.239 116.252 102.239ZM82.8235 33.0786C62.0409 33.0786 45.1322 49.9872 45.1322 70.7699C45.1322 91.5525 62.041 108.461 82.8235 108.461C103.606 108.461 120.515 91.5525 120.515 70.7699C120.515 49.9872 103.606 33.0786 82.8235 33.0786ZM82.8233 36.9945C101.448 36.9945 116.599 52.1457 116.599 70.7699C116.599 89.394 101.448 104.545 82.8233 104.545C64.1991 104.545 49.0481 89.394 49.0481 70.7699C49.0481 52.1457 64.1991 36.9945 82.8233 36.9945ZM98.8791 51.9553C99.6487 51.3073 100.799 51.3454 101.524 52.0697C102.288 52.8343 102.288 54.0741 101.523 54.8386L89.0727 67.2892L89.233 67.6135L89.3709 67.909C89.7638 68.8039 89.9699 69.7726 89.9699 70.7698C89.9699 74.71 86.7635 77.9165 82.8232 77.9165C78.8828 77.9165 75.6764 74.71 75.6764 70.7698C75.6764 69.6615 75.9309 68.5887 76.4133 67.6136L76.5738 67.2893L70.8601 61.5756L70.7457 61.4511C70.0977 60.6819 70.1358 59.531 70.8601 58.8066C71.6251 58.0421 72.8644 58.0421 73.6293 58.8067L79.3429 64.5205L79.6671 64.3601L79.9627 64.2222C80.8575 63.8293 81.8259 63.6232 82.8232 63.6232C83.9312 63.6232 85.004 63.8777 85.9792 64.3601L86.3035 64.5205L98.7545 52.0697L98.8791 51.9553ZM86.0542 70.7699C86.0542 68.988 84.6052 67.539 82.8233 67.539C81.0414 67.539 79.5925 68.988 79.5925 70.7699C79.5925 72.5517 81.0415 74.0007 82.8233 74.0007C84.6052 74.0007 86.0542 72.5518 86.0542 70.7699ZM109.149 68.8421H106.868C105.786 68.8421 104.91 69.7187 104.91 70.8C104.91 71.8812 105.786 72.7579 106.868 72.7579H109.149C110.23 72.7579 111.107 71.8812 111.107 70.8C111.107 69.7187 110.23 68.8421 109.149 68.8421ZM56.4981 68.782H58.7791C59.8604 68.782 60.7371 69.6586 60.7371 70.7399C60.7371 71.8211 59.8603 72.6978 58.7791 72.6978H56.4981C55.417 72.6978 54.5402 71.8211 54.5402 70.7399C54.5402 69.6586 55.4169 68.782 56.4981 68.782ZM84.8114 44.4445C84.8114 43.3632 83.9347 42.4866 82.8535 42.4866C81.7723 42.4866 80.8956 43.3632 80.8956 44.4445V46.7253C80.8956 47.8067 81.7723 48.6835 82.8535 48.6835C83.9347 48.6835 84.8114 47.8067 84.8114 46.7253V44.4445ZM82.7934 92.856C83.8746 92.856 84.7513 93.7327 84.7513 94.8139V97.0949C84.7513 98.1763 83.8746 99.0529 82.7934 99.0529C81.7122 99.0529 80.8355 98.1763 80.8355 97.0949V94.8139C80.8355 93.7327 81.7123 92.856 82.7934 92.856ZM10.3418 84.5777C9.97856 84.2142 9.47159 84.0041 8.95794 84.0041C8.44429 84.0041 7.93727 84.2142 7.57368 84.5778C7.21019 84.9412 7 85.4483 7 85.962C7 86.4773 7.20937 86.9819 7.57366 87.3461C7.93751 87.7098 8.44436 87.9199 8.95794 87.9199C9.47159 87.9199 9.97856 87.7097 10.3419 87.3462C10.7056 86.9824 10.9159 86.4754 10.9159 85.962C10.9159 85.4483 10.7057 84.9412 10.3418 84.5777Z" fill="#BBBCC1"/>
</g>
</svg>
