<svg xmlns="http://www.w3.org/2000/svg" width="88" height="88" viewBox="0 0 88 88">
    <g fill="none" fill-rule="evenodd">
        <rect width="88" height="88" fill="#EA4C5B" opacity=".8" rx="20"/>
        <path fill="#FAFBFC" stroke="#FAFBFC" d="M45.414 44l12.722-12.722c.396-.395.397-1.03.006-1.42a1.002 1.002 0 0 0-1.42.006L44 42.586 31.278 29.864a1.003 1.003 0 0 0-1.42-.006 1.002 1.002 0 0 0 .006 1.42L42.586 44 29.864 56.722a1.003 1.003 0 0 0-.006 1.42 1.002 1.002 0 0 0 1.42-.006L44 45.414l12.722 12.722c.395.396 1.03.397 1.42.006a1.002 1.002 0 0 0-.006-1.42L45.414 44z"/>
    </g>
</svg>
