<?xml version="1.0" encoding="UTF-8"?>
<svg width="38px" height="32px" viewBox="0 0 38 32" version="1.1" xmlns="http://www.w3.org/2000/svg" xmlns:xlink="http://www.w3.org/1999/xlink">
    <!-- Generator: sketchtool 42 (36781) - http://www.bohemiancoding.com/sketch -->
    <title>7A9CBCEB-71FD-4B9F-B25C-671F2B8ABF1D</title>
    <desc>Created with sketchtool.</desc>
    <defs></defs>
    <g id="Page-1" stroke="none" stroke-width="1" fill="none" fill-rule="evenodd" opacity="0.600000024">
        <g id="new_wallet_screen_summary" transform="translate(-1467.000000, -259.000000)">
            <g id="menu" transform="translate(720.000000, 168.000000)">
                <g id="receive-ic" transform="translate(722.000000, 65.000000)">
                    <circle id="Oval" cx="44" cy="44" r="44"></circle>
                    <path d="M43.3998069,45.8686322 C43.3758311,45.8525872 43.3518554,45.8285199 43.3278796,45.8044525 L39.5317153,42.0018051 C39.1560949,41.6247493 39.1560949,41.0150421 39.5317153,40.6379864 C39.9073358,40.2609306 40.5147221,40.2609306 40.8903425,40.6379864 L43.0481622,42.8040513 L43.0481622,27.4626955 C43.0481622,26.933213 43.4797262,26.5 44.0071932,26.5 C44.5346602,26.5 44.9662242,26.933213 44.9662242,27.4626955 L44.9662242,42.8040513 L47.1640035,40.6219414 C47.5396239,40.2448857 48.1470102,40.2448857 48.5226307,40.6219414 C48.8982511,40.9989972 48.8982511,41.6087044 48.5226307,41.9857601 L44.7104826,45.8124749 C44.6944987,45.8285199 44.6705229,45.8525872 44.6465472,45.8686322 C44.6305633,45.8766546 44.6225714,45.8846771 44.6065875,45.8926996 C44.5906037,45.9087445 44.5826118,45.9167669 44.5666279,45.9247894 C44.558636,45.9328119 44.5426521,45.9408343 44.5266683,45.9488568 C44.5106844,45.9568793 44.5026925,45.9649017 44.4867087,45.9729242 C44.4707248,45.9809467 44.454741,45.9889691 44.4387571,45.9969916 C44.4227733,45.9969916 44.4147814,46.005014 44.3987975,46.0130365 C44.3828137,46.021059 44.3668298,46.021059 44.350846,46.0290814 C44.3348621,46.0371039 44.3188783,46.0371039 44.3028944,46.0451264 C44.2869106,46.0451264 44.2709267,46.0531488 44.2549429,46.0531488 C44.238959,46.0531488 44.2229752,46.0611713 44.2069913,46.0611713 C44.1910075,46.0611713 44.1750236,46.0691937 44.1590398,46.0691937 C44.1510478,46.0691937 44.135064,46.0772162 44.1190801,46.0772162 C44.0871124,46.0852387 44.0551447,46.0852387 44.023177,46.0852387 C43.9912093,46.0852387 43.9592416,46.0772162 43.9272739,46.0772162 C43.9112901,46.0772162 43.9032982,46.0691937 43.8873143,46.0691937 C43.8713305,46.0691937 43.8553466,46.0611713 43.8393628,46.0611713 C43.8233789,46.0611713 43.8073951,46.0531488 43.7914112,46.0531488 C43.7754274,46.0531488 43.7594435,46.0531488 43.7434597,46.0451264 C43.7274758,46.0371039 43.711492,46.0371039 43.6955081,46.0290814 C43.6795243,46.021059 43.6635404,46.021059 43.6475566,46.0130365 C43.6315727,46.0130365 43.6235808,46.005014 43.607597,45.9969916 C43.5916131,45.9889691 43.5756293,45.9809467 43.5596454,45.9729242 C43.5436616,45.9649017 43.5356696,45.9568793 43.5196858,45.9488568 C43.5116939,45.9408343 43.49571,45.9328119 43.4797262,45.9247894 C43.4637423,45.9087445 43.4557504,45.900722 43.4397665,45.8926996 C43.4237827,45.8846771 43.4077988,45.8766546 43.3998069,45.8686322 Z M31,51 C31,50.4477153 31.4512787,50 32.0032996,50 L55.9967004,50 C56.5508075,50 57,50.4438648 57,51 C57,51.5522847 56.5487213,52 55.9967004,52 L32.0032996,52 C31.4491925,52 31,51.5561352 31,51 Z M27.0057371,39.9999602 L27.0057371,53.9998938 C27.0057371,55.1099416 27.9009917,56 29.0053441,56 L59.0008027,56 C60.1086084,56 61.0004098,55.104522 61.0004098,53.9998938 L61.0004098,39.9999602 C61.0004098,39.4547089 61.4480333,39 62.0002049,39 C62.5562261,39 63,39.4452369 63,39.9944644 L63,53.9891819 C63,56.2072186 61.2113423,57.9944171 59.0049213,57.9947572 L28.9928443,57.9993841 C26.7797212,57.9997253 24.9985568,56.2063655 24.9995328,53.9938052 L25.0057081,39.9947712 C25.005948,39.4509254 25.4537704,39 26.005942,39 C26.5619632,39 27.0057371,39.4476974 27.0057371,39.9999602 Z" id="Combined-Shape" fill="#FAFBFC"></path>
                </g>
            </g>
        </g>
    </g>
</svg>