<svg xmlns="http://www.w3.org/2000/svg" width="38" height="32" viewBox="0 0 38 32">
    <g fill="none" fill-rule="evenodd" transform="translate(-25 -26)">
        <circle cx="44" cy="44" r="44"/>
        <path fill="#5E6066" d="M43.4 45.869c-.024-.016-.048-.04-.072-.065l-3.796-3.802a.966.966 0 0 1 0-1.364.957.957 0 0 1 1.358 0l2.158 2.166V27.463c0-.53.432-.963.96-.963.527 0 .958.433.958.963v15.341l2.198-2.182a.957.957 0 0 1 1.359 0 .966.966 0 0 1 0 1.364l-3.813 3.826a.457.457 0 0 1-.063.057c-.016.008-.024.016-.04.024a.14.14 0 0 1-.04.032c-.008.008-.024.016-.04.024s-.024.016-.04.024l-.048.024c-.016 0-.024.008-.04.016s-.032.008-.048.016-.032.008-.048.016c-.016 0-.032.008-.048.008s-.032.008-.048.008-.032.008-.048.008c-.008 0-.024.008-.04.008-.032.008-.064.008-.096.008s-.064-.008-.096-.008c-.016 0-.024-.008-.04-.008s-.032-.008-.048-.008-.032-.008-.048-.008-.032 0-.048-.008-.032-.008-.047-.016c-.016-.008-.032-.008-.048-.016-.016 0-.024-.008-.04-.016l-.048-.024c-.016-.008-.024-.016-.04-.024-.008-.008-.024-.016-.04-.024-.016-.016-.024-.024-.04-.032s-.032-.016-.04-.024zM31 51c0-.552.451-1 1.003-1h23.994a1 1 0 1 1 0 2H32.003A1 1 0 0 1 31 51zm-3.994-11v14c0 1.11.895 2 2 2H59c1.108 0 2-.895 2-2V40c0-.545.447-1 1-1 .555 0 .999.445.999.994V53.99a3.997 3.997 0 0 1-3.995 4.006l-30.012.004A3.993 3.993 0 0 1 25 53.994l.006-14c0-.543.448-.994 1-.994.556 0 1 .448 1 1z"/>
    </g>
</svg>
