<?xml version="1.0" encoding="UTF-8"?>
<svg width="38px" height="32px" viewBox="0 0 38 32" version="1.1" xmlns="http://www.w3.org/2000/svg" xmlns:xlink="http://www.w3.org/1999/xlink">
    <!-- Generator: sketchtool 42 (36781) - http://www.bohemiancoding.com/sketch -->
    <title>B560F1C3-AE66-4803-89DB-FF418458234A</title>
    <desc>Created with sketchtool.</desc>
    <defs></defs>
    <g id="Page-1" stroke="none" stroke-width="1" fill="none" fill-rule="evenodd" opacity="0.600000024">
        <g id="new_wallet_screen_summary" transform="translate(-1159.000000, -259.000000)">
            <g id="menu" transform="translate(720.000000, 168.000000)">
                <g id="send-ic" transform="translate(414.000000, 65.000000)">
                    <circle id="Oval" cx="44" cy="44" r="44"></circle>
                    <path d="M43.3998069,26.7166065 C43.4077988,26.708584 43.4237827,26.7005616 43.4397665,26.6925391 C43.4557504,26.6845166 43.4637423,26.6764942 43.4797262,26.6604493 C43.49571,26.6524268 43.5116939,26.6444043 43.5196858,26.6363819 C43.5356696,26.6283594 43.5436616,26.6203369 43.5596454,26.6123145 C43.5756293,26.604292 43.5916131,26.5962696 43.607597,26.5882471 C43.6235808,26.5802246 43.6315727,26.5722022 43.6475566,26.5722022 C43.6635404,26.5641797 43.6795243,26.5641797 43.6955081,26.5561572 C43.711492,26.5481348 43.7274758,26.5481348 43.7434597,26.5401123 C43.7594435,26.5320899 43.7754274,26.5320899 43.7914112,26.5320899 C43.8073951,26.5320899 43.8233789,26.5240674 43.8393628,26.5240674 C43.8553466,26.5240674 43.8713305,26.5160449 43.8873143,26.5160449 C43.9032982,26.5160449 43.9112901,26.5080225 43.9272739,26.5080225 C43.9592416,26.5080225 43.9912093,26.5 44.023177,26.5 C44.0551447,26.5 44.0871124,26.5 44.1190801,26.5080225 C44.135064,26.5080225 44.1510478,26.5160449 44.1590398,26.5160449 C44.1750236,26.5160449 44.1910075,26.5240674 44.2069913,26.5240674 C44.2229752,26.5240674 44.238959,26.5320899 44.2549429,26.5320899 C44.2709267,26.5320899 44.2869106,26.5401123 44.3028944,26.5401123 C44.3188783,26.5481348 44.3348621,26.5481348 44.350846,26.5561572 C44.3668298,26.5641797 44.3828137,26.5641797 44.3987975,26.5722022 C44.4147814,26.5802246 44.4227733,26.5882471 44.4387571,26.5882471 C44.454741,26.5962696 44.4707248,26.604292 44.4867087,26.6123145 C44.5026925,26.6203369 44.5106844,26.6283594 44.5266683,26.6363819 C44.5426521,26.6444043 44.558636,26.6524268 44.5666279,26.6604493 C44.5826118,26.6684717 44.5906037,26.6764942 44.6065875,26.6925391 C44.6225714,26.7005616 44.6305633,26.708584 44.6465472,26.7166065 C44.6705229,26.7326514 44.6944987,26.7567188 44.7104826,26.7727637 L48.5226307,30.5994785 C48.8982511,30.9765343 48.8982511,31.5862415 48.5226307,31.9632972 C48.1470102,32.340353 47.5396239,32.340353 47.1640035,31.9632972 L44.9662242,29.7811873 L44.9662242,45.1225431 C44.9662242,45.6520257 44.5346602,46.0852387 44.0071932,46.0852387 C43.4797262,46.0852387 43.0481622,45.6520257 43.0481622,45.1225431 L43.0481622,29.7811873 L40.8903425,31.9472523 C40.5147221,32.3243081 39.9073358,32.3243081 39.5317153,31.9472523 C39.1560949,31.5701966 39.1560949,30.9604894 39.5317153,30.5834336 L43.3278796,26.7807862 C43.3518554,26.7567188 43.3758311,26.7326514 43.3998069,26.7166065 Z M31,51 C31,50.4477153 31.4512787,50 32.0032996,50 L55.9967004,50 C56.5508075,50 57,50.4438648 57,51 C57,51.5522847 56.5487213,52 55.9967004,52 L32.0032996,52 C31.4491925,52 31,51.5561352 31,51 Z M27.0057371,39.9999602 L27.0057371,53.9998938 C27.0057371,55.1099416 27.9009917,56 29.0053441,56 L59.0008027,56 C60.1086084,56 61.0004098,55.104522 61.0004098,53.9998938 L61.0004098,39.9999602 C61.0004098,39.4547089 61.4480333,39 62.0002049,39 C62.5562261,39 63,39.4452369 63,39.9944644 L63,53.9891819 C63,56.2072186 61.2113423,57.9944171 59.0049213,57.9947572 L28.9928443,57.9993841 C26.7797212,57.9997253 24.9985568,56.2063655 24.9995328,53.9938052 L25.0057081,39.9947712 C25.005948,39.4509254 25.4537704,39 26.005942,39 C26.5619632,39 27.0057371,39.4476974 27.0057371,39.9999602 Z" id="Combined-Shape" fill="#FAFBFC"></path>
                </g>
            </g>
        </g>
    </g>
</svg>