<svg xmlns="http://www.w3.org/2000/svg" width="38" height="32" viewBox="0 0 38 32">
    <g fill="none" fill-rule="evenodd" transform="translate(-25 -26)">
        <circle cx="44" cy="44" r="44"/>
        <path fill="#5E6066" d="M43.4 26.717c.008-.008.024-.016.04-.024s.024-.017.04-.033c.016-.008.032-.016.04-.024.016-.008.024-.016.04-.024l.048-.024c.016-.008.024-.016.04-.016.016-.008.032-.008.048-.016.015-.008.031-.008.047-.016s.032-.008.048-.008.032-.008.048-.008.032-.008.048-.008.024-.008.04-.008c.032 0 .064-.008.096-.008s.064 0 .096.008c.016 0 .032.008.04.008.016 0 .032.008.048.008s.032.008.048.008.032.008.048.008c.016.008.032.008.048.016s.032.008.048.016.024.016.04.016l.048.024c.016.008.024.016.04.024a.175.175 0 0 1 .04.024c.016.008.024.016.04.033.016.008.024.016.04.024.024.016.047.04.063.056l3.813 3.826a.966.966 0 0 1 0 1.364.957.957 0 0 1-1.359 0l-2.198-2.182v15.342c0 .529-.431.962-.959.962a.964.964 0 0 1-.959-.962V29.78l-2.158 2.166a.957.957 0 0 1-1.358 0 .966.966 0 0 1 0-1.364l3.796-3.802c.024-.024.048-.048.072-.064zM31 51c0-.552.451-1 1.003-1h23.994a1 1 0 1 1 0 2H32.003A1 1 0 0 1 31 51zm-3.994-11v14c0 1.11.895 2 2 2H59c1.108 0 2-.895 2-2V40c0-.545.447-1 1-1 .555 0 .999.445.999.994V53.99a3.997 3.997 0 0 1-3.995 4.006l-30.012.004A3.993 3.993 0 0 1 25 53.994l.006-14c0-.543.448-.994 1-.994.556 0 1 .448 1 1z"/>
    </g>
</svg>
