<svg xmlns="http://www.w3.org/2000/svg" width="38" height="38" viewBox="0 0 38 38">
    <g fill="none" fill-rule="evenodd" transform="translate(-25 -25)">
        <circle cx="44" cy="44" r="44"/>
        <path fill="#5E6066" d="M58.187 41.598c0-9.149-7.44-16.598-16.59-16.598C32.45 25 25 32.441 25 41.598c0 9.148 7.441 16.59 16.59 16.59a.976.976 0 0 0 .675-.278.943.943 0 0 0 .278-.676V42.551h14.691a.95.95 0 0 0 .953-.953zm-16.59-.953a.956.956 0 0 0-.952.953V56.25c-7.656-.493-13.731-6.878-13.731-14.652 0-8.1 6.591-14.692 14.692-14.692 7.774 0 14.167 6.075 14.66 13.739H41.598zm20.458 4.812c.524 0 .953.43.945.953 0 4.432-1.723 8.593-4.86 11.73A16.457 16.457 0 0 1 46.41 63a.956.956 0 0 1-.953-.953V46.41c0-.524.429-.953.953-.953h15.645zM47.363 61.07c7.338-.476 13.23-6.36 13.707-13.707H47.363V61.07z"/>
    </g>
</svg>
