<?xml version="1.0" encoding="UTF-8"?>
<svg width="38px" height="38px" viewBox="0 0 38 38" version="1.1" xmlns="http://www.w3.org/2000/svg" xmlns:xlink="http://www.w3.org/1999/xlink">
    <!-- Generator: sketchtool 42 (36781) - http://www.bohemiancoding.com/sketch -->
    <title>D32C0180-5A5D-4B9F-AE42-7EC2D1B6AF75</title>
    <desc>Created with sketchtool.</desc>
    <defs></defs>
    <g id="Page-1" stroke="none" stroke-width="1" fill="none" fill-rule="evenodd">
        <g id="new_wallet_screen_summary" transform="translate(-851.000000, -258.000000)">
            <g id="menu" transform="translate(720.000000, 168.000000)">
                <g id="summary-ic" transform="translate(106.000000, 65.000000)">
                    <circle id="Oval" cx="44" cy="44" r="44"></circle>
                    <path d="M58.187366,41.5977011 C58.187366,32.4491118 50.7462169,25 41.5976537,25 C32.4490905,25 25,32.4411703 25,41.5977011 C25,50.7462905 32.4411491,58.1874608 41.5897123,58.1874608 L41.5897123,58.1874608 C41.843839,58.1874608 42.0820829,58.0842215 42.2647365,57.9095089 C42.4473901,57.7268548 42.5426876,57.4886102 42.5426876,57.2344828 L42.5426876,42.5506792 L57.2343907,42.5506792 C57.7664686,42.5506792 58.187366,42.1218391 58.187366,41.5977011 L58.187366,41.5977011 Z M41.5976537,40.6447231 C41.0735173,40.6447231 40.6446784,41.0735632 40.6446784,41.5977011 L40.6446784,56.2497388 C32.9891099,55.7573668 26.9138921,49.3724138 26.9138921,41.5977011 C26.9138921,33.4973877 33.5053049,26.9059561 41.6055952,26.9059561 C49.3802856,26.9059561 55.7731618,32.9811912 56.2655324,40.6447231 L41.5976537,40.6447231 L41.5976537,40.6447231 Z M62.0548576,45.4572623 C62.578994,45.4572623 63.0078329,45.8861024 62.9998914,46.4102403 C62.9998914,50.8415883 61.2765944,55.0029258 58.1397172,58.1398119 C55.0107816,61.276698 50.8415145,63 46.4101792,63 C45.8860427,63 45.4572038,62.5711599 45.4572038,62.0470219 L45.4572038,46.4102403 C45.4572038,45.8861024 45.8860427,45.4572623 46.4101792,45.4572623 L62.0548576,45.4572623 Z M47.3631545,61.0702194 C54.7010646,60.5937304 60.5936287,54.7090909 61.0701164,47.3632184 L47.3631545,47.3632184 L47.3631545,61.0702194 Z" id="pie-chart" fill="#1D2E47"></path>
                </g>
            </g>
        </g>
    </g>
</svg>