<svg xmlns="http://www.w3.org/2000/svg" width="38" height="38" viewBox="0 0 38 38">
    <g fill="none" fill-rule="evenodd" transform="translate(-25 -25)">
        <circle cx="44" cy="44" r="44"/>
        <path fill="#5E6066" d="M61.522 25H26.478a.978.978 0 0 0-.978.973c0 .535.44.973.978.973h2.11v35.057a.976.976 0 0 0 1.517.81L34.35 60l4.262 2.822a.977.977 0 0 0 1.084 0l4.246-2.814 4.262 2.822a.977.977 0 0 0 1.084 0l4.246-2.814 4.263 2.822c.163.105.35.162.537.162.155 0 .318-.04.465-.114a.976.976 0 0 0 .513-.859l-.016-35.057h2.225a.978.978 0 0 0 .978-.973c0-.535-.44-.997-.978-.997zm-4.156 35.187l-3.285-2.173a.977.977 0 0 0-1.084 0l-4.246 2.821-4.262-2.821a.977.977 0 0 0-1.084 0l-4.246 2.813-4.262-2.813a.977.977 0 0 0-1.084 0l-3.268 2.165V26.938h26.812l.009 33.249zM35.043 40.534h10.245a.978.978 0 0 0 .978-.973.978.978 0 0 0-.978-.973H35.043a.973.973 0 0 0 0 1.946zm0 3.38h7.677a.978.978 0 0 0 .978-.972.978.978 0 0 0-.978-.973h-7.677a.973.973 0 0 0 0 1.946zm15.363-3.38h2.559a.978.978 0 0 0 .978-.973.978.978 0 0 0-.978-.973h-2.56a.973.973 0 0 0 0 1.946zm0 3.38h2.559a.978.978 0 0 0 .978-.972.978.978 0 0 0-.978-.973h-2.56a.973.973 0 0 0 0 1.946zM35.043 32.727h10.245a.978.978 0 0 0 .978-.972.978.978 0 0 0-.978-.973H35.043a.973.973 0 0 0 0 1.946zm0 3.373h7.677a.978.978 0 0 0 .978-.973.978.978 0 0 0-.978-.973h-7.677a.973.973 0 0 0 0 1.946zm15.363-3.373h2.559a.978.978 0 0 0 .978-.972.978.978 0 0 0-.978-.973h-2.56a.973.973 0 0 0 0 1.946zm0 3.373h2.559a.978.978 0 0 0 .978-.973.978.978 0 0 0-.978-.973h-2.56a.973.973 0 0 0 0 1.946zM35.043 48.44h10.245a.978.978 0 0 0 .978-.973.978.978 0 0 0-.978-.973H35.043a.973.973 0 0 0 0 1.946zm0 3.373h7.677a.978.978 0 0 0 .978-.973.978.978 0 0 0-.978-.973h-7.677a.973.973 0 0 0 0 1.946zm15.363-3.373h2.559a.978.978 0 0 0 .978-.973.978.978 0 0 0-.978-.973h-2.56a.973.973 0 0 0 0 1.946zm0 3.373h2.559a.978.978 0 0 0 .978-.973.978.978 0 0 0-.978-.973h-2.56a.973.973 0 0 0 0 1.946z"/>
    </g>
</svg>
