<?xml version="1.0" encoding="UTF-8"?>
<svg width="38px" height="38px" viewBox="0 0 38 38" version="1.1" xmlns="http://www.w3.org/2000/svg" xmlns:xlink="http://www.w3.org/1999/xlink">
    <!-- Generator: sketchtool 42 (36781) - http://www.bohemiancoding.com/sketch -->
    <title>822C3812-A6F2-42CD-9C7A-39D6BA46C864</title>
    <desc>Created with sketchtool.</desc>
    <defs></defs>
    <g id="Page-1" stroke="none" stroke-width="1" fill="none" fill-rule="evenodd">
        <g id="new_wallet_screen_transactions" transform="translate(-1775.000000, -258.000000)">
            <g id="menu" transform="translate(720.000000, 168.000000)">
                <g id="transactions-ic" transform="translate(1030.000000, 65.000000)">
                    <circle id="Oval" cx="44" cy="44" r="44"></circle>
                    <path d="M61.5220264,25 L26.4779736,25 C25.9400881,25 25.5,25.4378067 25.5,25.9729038 C25.5,26.5080009 25.9400881,26.9458076 26.4779736,26.9458076 L28.5887665,26.9458076 L28.5887665,62.0027736 C28.5887665,62.359505 28.7843612,62.6919138 29.1022026,62.862172 C29.4200441,63.0324301 29.8030837,63.0162151 30.1046256,62.8135268 L34.3506608,60.0002134 L38.6129956,62.8216343 C38.9389868,63.0405377 39.3709251,63.0405377 39.6969163,62.8216343 L43.9429515,60.0083209 L48.2052863,62.8297418 C48.5312775,63.0486452 48.9632159,63.0486452 49.289207,62.8297418 L53.5352423,60.0164284 L57.7975771,62.8378494 C57.9605727,62.9432473 58.1480176,63 58.3354626,63 C58.4903084,63 58.653304,62.9594623 58.8,62.8864946 C59.1178414,62.7162364 59.3134361,62.3838276 59.3134361,62.0270962 L59.2971366,26.9701301 L61.5220264,26.9701301 C62.0599119,26.9701301 62.5,26.5323234 62.5,25.9972264 C62.5,25.4621293 62.0599119,25 61.5220264,25 L61.5220264,25 Z M57.3656388,60.1866866 L54.0812775,58.0138681 C53.7552863,57.7949648 53.323348,57.7949648 52.9973568,58.0138681 L48.7513216,60.8352891 L44.4889868,58.0138681 C44.1629956,57.7949648 43.7310573,57.7949648 43.4050661,58.0138681 L39.1590308,60.8271816 L34.896696,58.0138681 C34.5707048,57.7949648 34.1387665,57.7949648 33.8127753,58.0138681 L30.5447137,60.178579 L30.5447137,26.9377 L57.357489,26.9377 L57.3656388,60.1866866 Z M35.0433921,40.5340303 L45.2876652,40.5340303 C45.8255507,40.5340303 46.2656388,40.0962236 46.2656388,39.5611265 C46.2656388,39.0260294 45.8255507,38.5882227 45.2876652,38.5882227 L35.0433921,38.5882227 C34.5055066,38.5882227 34.0654185,39.0260294 34.0654185,39.5611265 C34.0654185,40.0962236 34.4973568,40.5340303 35.0433921,40.5340303 Z M35.0433921,43.9148709 L42.7204846,43.9148709 C43.25837,43.9148709 43.6984581,43.4770642 43.6984581,42.9419671 C43.6984581,42.4068701 43.25837,41.9690634 42.7204846,41.9690634 L35.0433921,41.9690634 C34.5055066,41.9690634 34.0654185,42.4068701 34.0654185,42.9419671 C34.0654185,43.4770642 34.4973568,43.9148709 35.0433921,43.9148709 Z M50.4057269,40.5340303 L52.9647577,40.5340303 C53.5026432,40.5340303 53.9427313,40.0962236 53.9427313,39.5611265 C53.9427313,39.0260294 53.5026432,38.5882227 52.9647577,38.5882227 L50.4057269,38.5882227 C49.8678414,38.5882227 49.4277533,39.0260294 49.4277533,39.5611265 C49.4277533,40.0962236 49.8596916,40.5340303 50.4057269,40.5340303 Z M50.4057269,43.9148709 L52.9647577,43.9148709 C53.5026432,43.9148709 53.9427313,43.4770642 53.9427313,42.9419671 C53.9427313,42.4068701 53.5026432,41.9690634 52.9647577,41.9690634 L50.4057269,41.9690634 C49.8678414,41.9690634 49.4277533,42.4068701 49.4277533,42.9419671 C49.4277533,43.4770642 49.8596916,43.9148709 50.4057269,43.9148709 Z M35.0433921,32.7264775 L45.2876652,32.7264775 C45.8255507,32.7264775 46.2656388,32.2886708 46.2656388,31.7535737 C46.2656388,31.2184766 45.8255507,30.7806699 45.2876652,30.7806699 L35.0433921,30.7806699 C34.5055066,30.7806699 34.0654185,31.2184766 34.0654185,31.7535737 C34.0654185,32.2886708 34.4973568,32.7264775 35.0433921,32.7264775 Z M35.0433921,36.0992106 L42.7204846,36.0992106 C43.25837,36.0992106 43.6984581,35.6614039 43.6984581,35.1263068 C43.6984581,34.5912097 43.25837,34.153403 42.7204846,34.153403 L35.0433921,34.153403 C34.5055066,34.153403 34.0654185,34.5912097 34.0654185,35.1263068 C34.0654185,35.6614039 34.4973568,36.0992106 35.0433921,36.0992106 Z M50.4057269,32.7264775 L52.9647577,32.7264775 C53.5026432,32.7264775 53.9427313,32.2886708 53.9427313,31.7535737 C53.9427313,31.2184766 53.5026432,30.7806699 52.9647577,30.7806699 L50.4057269,30.7806699 C49.8678414,30.7806699 49.4277533,31.2184766 49.4277533,31.7535737 C49.4277533,32.2886708 49.8596916,32.7264775 50.4057269,32.7264775 Z M50.4057269,36.0992106 L52.9647577,36.0992106 C53.5026432,36.0992106 53.9427313,35.6614039 53.9427313,35.1263068 C53.9427313,34.5912097 53.5026432,34.153403 52.9647577,34.153403 L50.4057269,34.153403 C49.8678414,34.153403 49.4277533,34.5912097 49.4277533,35.1263068 C49.4277533,35.6614039 49.8596916,36.0992106 50.4057269,36.0992106 Z M35.0433921,48.4388735 L45.2876652,48.4388735 C45.8255507,48.4388735 46.2656388,48.0010668 46.2656388,47.4659697 C46.2656388,46.9308726 45.8255507,46.4930659 45.2876652,46.4930659 L35.0433921,46.4930659 C34.5055066,46.4930659 34.0654185,46.9308726 34.0654185,47.4659697 C34.0654185,48.0010668 34.4973568,48.4388735 35.0433921,48.4388735 Z M35.0433921,51.8116066 L42.7204846,51.8116066 C43.25837,51.8116066 43.6984581,51.3737999 43.6984581,50.8387028 C43.6984581,50.3036057 43.25837,49.865799 42.7204846,49.865799 L35.0433921,49.865799 C34.5055066,49.865799 34.0654185,50.3036057 34.0654185,50.8387028 C34.0654185,51.3737999 34.4973568,51.8116066 35.0433921,51.8116066 Z M50.4057269,48.4388735 L52.9647577,48.4388735 C53.5026432,48.4388735 53.9427313,48.0010668 53.9427313,47.4659697 C53.9427313,46.9308726 53.5026432,46.4930659 52.9647577,46.4930659 L50.4057269,46.4930659 C49.8678414,46.4930659 49.4277533,46.9308726 49.4277533,47.4659697 C49.4277533,48.0010668 49.8596916,48.4388735 50.4057269,48.4388735 Z M50.4057269,51.8116066 L52.9647577,51.8116066 C53.5026432,51.8116066 53.9427313,51.3737999 53.9427313,50.8387028 C53.9427313,50.3036057 53.5026432,49.865799 52.9647577,49.865799 L50.4057269,49.865799 C49.8678414,49.865799 49.4277533,50.3036057 49.4277533,50.8387028 C49.4277533,51.3737999 49.8596916,51.8116066 50.4057269,51.8116066 Z" id="invoice" fill="#1D2E47"></path>
                </g>
            </g>
        </g>
    </g>
</svg>