<svg xmlns="http://www.w3.org/2000/svg" width="38" height="38" viewBox="0 0 38 38">
    <g fill="none" fill-rule="evenodd" transform="translate(-25 -25)">
        <circle cx="44" cy="44" r="44"/>
        <path fill="#5E6066" d="M61.124 40.107l-2.753-.467a14.743 14.743 0 0 0-1.127-2.714l1.618-2.271a2.24 2.24 0 0 0-.242-2.899l-2.375-2.375a2.246 2.246 0 0 0-2.898-.242l-2.278 1.619a15.186 15.186 0 0 0-2.802-1.152l-.459-2.722A2.22 2.22 0 0 0 45.602 25h-3.365c-1.103 0-2.037.79-2.222 1.876l-.475 2.778c-.934.29-1.844.669-2.705 1.144l-2.246-1.603a2.246 2.246 0 0 0-2.899.242l-2.375 2.375a2.24 2.24 0 0 0-.241 2.9l1.634 2.302c-.459.87-.83 1.78-1.103 2.722l-2.721.46A2.22 2.22 0 0 0 25 42.401v3.366c0 1.103.789 2.037 1.876 2.222l2.777.475c.29.934.669 1.844 1.144 2.706l-1.603 2.246a2.24 2.24 0 0 0 .242 2.9l2.375 2.375a2.246 2.246 0 0 0 2.898.242l2.303-1.635c.837.443 1.723.805 2.624 1.079l.46 2.746A2.248 2.248 0 0 0 42.316 63h3.366c1.103 0 2.036-.79 2.222-1.876l.467-2.754c.934-.282 1.843-.66 2.713-1.128l2.27 1.619c.387.274.837.419 1.304.419.604 0 1.168-.234 1.594-.66l2.375-2.376a2.24 2.24 0 0 0 .242-2.899l-1.618-2.279c.467-.87.837-1.771 1.127-2.714l2.745-.459A2.249 2.249 0 0 0 63 45.671v-3.366a2.242 2.242 0 0 0-1.876-2.198zm-.056 5.58a.32.32 0 0 1-.266.314l-3.349.564a.949.949 0 0 0-.773.708 12.892 12.892 0 0 1-1.4 3.374.981.981 0 0 0 .04 1.055l1.972 2.778a.328.328 0 0 1-.032.411l-2.375 2.376a.32.32 0 0 1-.41.04l-2.77-1.973a.965.965 0 0 0-1.055-.048 12.887 12.887 0 0 1-3.373 1.4.96.96 0 0 0-.709.774l-.571 3.358a.32.32 0 0 1-.314.265h-3.366a.32.32 0 0 1-.314-.265l-.563-3.35a.949.949 0 0 0-.709-.773 13.38 13.38 0 0 1-3.3-1.353.966.966 0 0 0-1.04.048l-2.793 1.981a.32.32 0 0 1-.41-.04l-2.391-2.384a.309.309 0 0 1-.033-.41l1.965-2.754a.95.95 0 0 0 .04-1.055 12.77 12.77 0 0 1-1.417-3.366.982.982 0 0 0-.773-.709l-3.381-.571a.32.32 0 0 1-.266-.314v-3.366a.32.32 0 0 1 .266-.314l3.333-.556a.978.978 0 0 0 .78-.717c.299-1.184.758-2.319 1.378-3.382a.968.968 0 0 0-.049-1.047l-1.98-2.794a.328.328 0 0 1 .032-.41l2.367-2.384a.32.32 0 0 1 .41-.04l2.754 1.964a.95.95 0 0 0 1.055.04 12.765 12.765 0 0 1 3.365-1.417.982.982 0 0 0 .708-.773l.572-3.382a.32.32 0 0 1 .314-.265h3.365a.32.32 0 0 1 .314.265l.556 3.334a.978.978 0 0 0 .716.781c1.216.306 2.375.781 3.454 1.417a.98.98 0 0 0 1.055-.04l2.777-1.973a.32.32 0 0 1 .41.04l2.376 2.376a.309.309 0 0 1 .032.41l-1.973 2.77a.966.966 0 0 0-.048 1.056 12.892 12.892 0 0 1 1.401 3.374.96.96 0 0 0 .773.708l3.357.572a.32.32 0 0 1 .266.314v3.358z"/>
        <path fill="#5E6066" d="M44 51a7 7 0 1 1 0-14 7 7 0 0 1 0 14zm0-2a5 5 0 1 0 0-10 5 5 0 0 0 0 10z"/>
    </g>
</svg>
